<?xml version="1.0" standalone="no"?>
<!DOCTYPE svg PUBLIC "-//W3C//DTD SVG 20010904//EN"
 "http://www.w3.org/TR/2001/REC-SVG-20010904/DTD/svg10.dtd">
<svg version="1.0" xmlns="http://www.w3.org/2000/svg"
 width="415.000000pt" height="476.000000pt" viewBox="0 0 415.000000 476.000000"
 preserveAspectRatio="xMidYMid meet">

<g transform="translate(0.000000,476.000000) scale(0.100000,-0.100000)"
fill="#000000" stroke="none">
<path d="M0 4710 l0 -50 629 0 c424 0 632 3 636 10 4 6 4 29 0 50 l-7 40 -629
0 -629 0 0 -50z m255 6 c-1 -16 -6 -31 -13 -34 -7 -2 -10 2 -6 12 4 12 0 16
-16 16 -19 0 -20 -2 -10 -15 10 -12 10 -15 -4 -15 -11 0 -16 9 -16 28 0 36 8
44 40 40 20 -2 25 -8 25 -32z m80 -1 c0 -25 -4 -30 -27 -33 -26 -3 -28 -1 -28
33 0 34 2 36 28 33 23 -3 27 -8 27 -33z m140 -5 c-5 -17 -10 -19 -18 -11 -9 9
-8 14 3 21 11 7 11 10 2 10 -7 0 -10 5 -6 11 11 18 27 -7 19 -31z m195 30 c0
-5 -7 -7 -15 -4 -9 4 -15 0 -15 -10 0 -9 6 -16 13 -16 8 0 8 -3 -2 -9 -11 -7
-10 -10 5 -14 10 -2 0 -5 -23 -6 -43 -1 -43 -1 -43 34 0 34 1 35 40 35 22 0
40 -4 40 -10z m70 -9 c0 -11 3 -27 6 -36 6 -13 1 -16 -22 -13 -25 2 -29 8 -32
36 -3 29 -1 32 22 32 19 0 26 -5 26 -19z m238 -19 c3 -27 0 -32 -17 -32 -16 0
-21 6 -21 28 0 53 33 56 38 4z m-898 13 c10 -12 10 -18 0 -30 -27 -32 -71 -8
-56 30 3 8 14 15 24 15 11 0 25 -7 32 -15z m90 -15 c0 -23 -5 -30 -19 -30 -10
0 -24 6 -30 14 -17 20 -3 46 25 46 20 0 24 -5 24 -30z m668 -2 c3 -22 -1 -28
-16 -28 -24 0 -56 35 -47 50 4 6 19 10 33 8 21 -2 28 -9 30 -30z m207 21 c4
-6 4 -13 0 -17 -3 -3 -10 0 -15 8 -6 8 -10 10 -10 5 0 -6 5 -16 12 -23 9 -9 9
-12 -4 -12 -12 0 -18 30 -9 48 3 6 21 1 26 -9z m52 -5 c7 -18 -11 -39 -25 -30
-12 7 -4 46 9 46 6 0 12 -7 16 -16z m57 10 c12 -5 13 -10 5 -26 -9 -17 -13
-18 -20 -7 -9 15 -12 39 -5 39 2 0 11 -3 20 -6z m82 -31 c-7 -17 -8 -17 -17 0
-12 21 -2 44 13 29 6 -6 8 -19 4 -29z m-669 5 c-3 -8 -6 -5 -6 6 -1 11 2 17 5
13 3 -3 4 -12 1 -19z m633 2 c0 -11 -2 -20 -4 -20 -2 0 -6 9 -9 20 -3 11 -1
20 4 20 5 0 9 -9 9 -20z"/>
<path d="M218 4723 c7 -3 16 -2 19 1 4 3 -2 6 -13 5 -11 0 -14 -3 -6 -6z"/>
<path d="M600 4715 c0 -14 4 -25 9 -25 5 0 8 11 7 25 -1 33 -16 33 -16 0z"/>
<path d="M709 4738 c-9 -31 -7 -48 6 -48 9 0 15 9 15 25 0 14 -4 25 -10 25 -5
0 -10 -1 -11 -2z"/>
<path d="M50 4715 c0 -8 2 -15 4 -15 2 0 6 7 10 15 3 8 1 15 -4 15 -6 0 -10
-7 -10 -15z"/>
<path d="M140 4710 c0 -5 5 -10 10 -10 6 0 10 5 10 10 0 6 -4 10 -10 10 -5 0
-10 -4 -10 -10z"/>
<path d="M1440 4545 l0 -215 615 0 615 0 0 215 0 215 -258 0 -258 0 4 -35 c4
-32 2 -35 -21 -35 -20 0 -26 6 -29 30 -2 16 0 32 6 34 6 2 -143 5 -331 5
l-343 1 0 -215z m70 190 c18 -21 5 -47 -22 -43 -26 3 -37 36 -16 49 18 12 24
11 38 -6z m90 -15 c0 -23 -5 -30 -19 -30 -10 0 -25 7 -32 16 -11 14 -10 18 6
30 30 22 45 17 45 -16z m84 1 c0 -14 -6 -27 -13 -29 -8 -3 -11 0 -7 7 4 6 0
11 -11 12 -17 1 -17 2 0 6 17 5 24 23 8 23 -18 0 -31 -26 -19 -38 9 -9 8 -12
-5 -12 -12 0 -17 8 -17 31 0 28 2 30 32 27 27 -2 33 -7 32 -27z m81 -1 c0 -20
-6 -26 -27 -28 -25 -3 -28 0 -28 28 0 28 3 31 28 28 21 -2 27 -8 27 -28z m77
15 c0 -8 1 -21 2 -27 1 -7 -10 -13 -24 -15 -22 -1 -26 3 -28 28 -2 25 1 29 23
29 15 0 26 -6 27 -15z m144 -9 c2 -12 1 -13 -3 -1 -7 23 -23 18 -24 -7 0 -13
-3 -17 -6 -10 -7 19 5 44 20 40 6 -3 13 -12 13 -22z m104 9 c0 -9 -8 -19 -17
-22 -15 -6 -15 -7 3 -14 13 -5 6 -8 -23 -8 -41 -1 -43 0 -43 29 0 28 2 30 40
30 29 0 40 -4 40 -15z m146 7 c6 -4 14 -17 18 -29 6 -18 3 -23 -11 -23 -10 0
-29 7 -41 16 -18 13 -21 19 -11 30 13 15 28 18 45 6z m154 -21 c0 -16 -6 -31
-14 -34 -19 -8 -26 1 -26 35 0 21 5 28 20 28 15 0 20 -7 20 -29z m64 10 c3 -5
-1 -14 -9 -21 -8 -7 -15 -10 -15 -7 0 3 -3 12 -6 21 -7 17 20 23 30 7z m54
-14 c2 -12 -3 -17 -17 -17 -15 0 -21 6 -21 21 0 25 33 22 38 -4z m52 3 c0 -11
-4 -20 -9 -20 -11 0 -22 26 -14 34 12 12 23 5 23 -14z m37 -12 c-3 -7 -5 -2
-5 12 0 14 2 19 5 13 2 -7 2 -19 0 -25z m43 10 c0 -19 -2 -20 -10 -8 -13 19
-13 30 0 30 6 0 10 -10 10 -22z m-127 -133 l0 -60 -462 -3 -461 -2 0 65 0 65
461 -2 462 -3 0 -60z m-963 21 c0 -44 -10 -56 -46 -56 -31 0 -34 3 -34 28 0
36 16 52 52 52 23 0 28 -4 28 -24z m1078 -18 c-3 -30 -6 -33 -38 -33 -26 0
-36 5 -38 18 -7 33 6 47 43 47 35 0 36 -1 33 -32z m-128 -173 l0 -75 -447 2
-448 3 -3 73 -3 72 451 0 450 0 0 -75z m90 24 c4 -8 12 -25 19 -37 11 -22 10
-23 -8 -18 -12 3 -30 9 -41 12 -22 6 -26 34 -8 52 15 15 29 11 38 -9z m-1072
-1 c9 -9 12 -9 12 0 0 7 5 12 10 12 6 0 10 -16 10 -35 0 -34 -12 -46 -26 -24
-5 8 -9 8 -14 -1 -12 -20 -30 -2 -30 31 0 30 17 38 38 17z"/>
<path d="M1570 4720 c0 -5 5 -10 10 -10 6 0 10 5 10 10 0 6 -4 10 -10 10 -5 0
-10 -4 -10 -10z"/>
<path d="M2020 4720 c0 -11 4 -20 9 -20 6 0 9 9 8 20 -1 11 -5 20 -9 20 -4 0
-8 -9 -8 -20z"/>
<path d="M2060 4730 c0 -5 5 -10 10 -10 6 0 10 5 10 10 0 6 -4 10 -10 10 -5 0
-10 -4 -10 -10z"/>
<path d="M1623 4613 c-34 -13 9 -73 52 -73 18 0 25 5 25 19 0 26 -22 42 -40
31 -22 -14 -30 -12 -30 6 0 10 6 14 15 11 8 -4 17 -2 20 3 6 10 -21 12 -42 3z"/>
<path d="M1741 4594 c0 -11 3 -14 6 -6 3 7 2 16 -1 19 -3 4 -6 -2 -5 -13z"/>
<path d="M2171 4594 c0 -11 3 -14 6 -6 3 7 2 16 -1 19 -3 4 -6 -2 -5 -13z"/>
<path d="M2101 4584 c0 -11 3 -14 6 -6 3 7 2 16 -1 19 -3 4 -6 -2 -5 -13z"/>
<path d="M2141 4584 c0 -11 3 -14 6 -6 3 7 2 16 -1 19 -3 4 -6 -2 -5 -13z"/>
<path d="M2325 4591 c-3 -5 -2 -12 3 -15 5 -3 9 1 9 9 0 17 -3 19 -12 6z"/>
<path d="M1810 4570 c0 -5 7 -7 15 -4 8 4 15 8 15 10 0 2 -7 4 -15 4 -8 0 -15
-4 -15 -10z"/>
<path d="M2420 4436 c0 -14 5 -26 10 -26 6 0 10 9 10 19 0 11 -4 23 -10 26 -6
4 -10 -5 -10 -19z"/>
<path d="M1658 4433 c6 -3 12 -9 12 -14 0 -6 -4 -7 -10 -4 -5 3 -10 2 -10 -4
0 -5 9 -9 20 -8 28 2 26 32 -2 34 -13 0 -17 -1 -10 -4z"/>
<path d="M1767 4434 c-3 -3 -3 -13 0 -21 5 -12 7 -12 14 -1 15 23 4 40 -14 22z"/>
<path d="M1802 4415 c0 -16 2 -22 5 -12 2 9 2 23 0 30 -3 6 -5 -1 -5 -18z"/>
<path d="M1827 4433 c-8 -18 -1 -36 16 -39 12 -2 17 5 17 22 0 22 -24 34 -33
17z"/>
<path d="M1724 4400 c2 -16 20 -14 24 2 3 10 2 10 -6 -1 -7 -9 -11 -10 -15 -2
-4 7 -5 8 -3 1z"/>
<path d="M2555 4430 c-3 -6 1 -13 10 -16 19 -8 30 0 20 15 -8 14 -22 14 -30 1z"/>
<path d="M2860 4715 l0 -45 645 0 c541 0 645 2 645 14 0 7 -3 28 -6 45 l-6 31
-268 0 -268 0 8 -34 c8 -38 5 -46 -20 -46 -22 0 -36 60 -18 72 7 4 -150 8
-349 8 l-363 0 0 -45z m84 11 c9 -13 7 -20 -7 -31 -26 -19 -57 -8 -57 20 0 36
45 43 64 11z m176 -11 c0 -26 -4 -35 -16 -35 -14 0 -14 3 -4 15 10 13 9 15
-10 15 -16 0 -20 -4 -16 -16 4 -10 1 -14 -6 -12 -13 5 -20 46 -11 61 2 4 17 7
34 7 27 0 29 -3 29 -35z m80 -1 c0 -33 -2 -35 -27 -32 -23 2 -29 8 -31 36 -3
30 -1 32 27 32 29 0 31 -3 31 -36z m84 13 c-6 -23 -33 -49 -43 -42 -4 2 -8 17
-9 33 -2 26 1 29 28 30 27 1 30 -2 24 -21z m124 3 c-7 -10 -14 -17 -17 -15 -4
4 18 35 25 35 2 0 -1 -9 -8 -20z m120 13 c-22 -6 -23 -17 -3 -33 25 -21 17
-30 -25 -30 -39 0 -40 1 -40 35 0 35 0 35 43 34 23 -1 34 -3 25 -6z m185 -32
c10 -39 -32 -44 -57 -6 -20 30 -20 33 2 38 24 5 49 -9 55 -32z m145 1 c3 -29
1 -32 -22 -32 -22 0 -26 5 -26 28 0 33 8 44 30 40 9 -2 16 -16 18 -36z m-825
16 c7 -22 -4 -38 -28 -38 -27 0 -39 14 -31 35 7 18 53 20 59 3z m885 -13 c-2
-15 -9 -25 -19 -25 -13 0 -18 23 -10 48 1 1 8 2 16 2 10 0 14 -9 13 -25z m57
0 c0 -28 -29 -25 -33 3 -3 19 0 23 15 20 10 -2 18 -12 18 -23z m56 12 c-1 -4
-1 -14 -1 -22 0 -8 -5 -15 -11 -15 -5 0 -8 4 -4 9 3 5 1 12 -5 16 -12 8 -2 27
12 23 5 -2 9 -7 9 -11z m54 4 c3 -5 1 -12 -5 -16 -6 -4 -8 -11 -5 -16 4 -5 2
-9 -3 -9 -6 0 -9 11 -8 25 1 26 10 32 21 16z m35 0 c0 -18 -12 -41 -21 -41 -6
0 -6 8 0 19 6 10 7 21 4 25 -3 3 -1 6 5 6 7 0 12 -4 12 -9z"/>
<path d="M2910 4715 c0 -8 2 -15 4 -15 2 0 6 7 10 15 3 8 1 15 -4 15 -6 0 -10
-7 -10 -15z"/>
<path d="M3075 4730 c-3 -5 3 -10 15 -10 12 0 18 5 15 10 -3 6 -10 10 -15 10
-5 0 -12 -4 -15 -10z"/>
<path d="M3470 4705 c0 -8 5 -15 10 -15 6 0 10 7 10 15 0 8 -4 15 -10 15 -5 0
-10 -7 -10 -15z"/>
<path d="M3000 4710 c0 -5 5 -10 10 -10 6 0 10 5 10 10 0 6 -4 10 -10 10 -5 0
-10 -4 -10 -10z"/>
<path d="M2120 4720 c0 -11 7 -20 15 -20 8 0 15 9 15 20 0 11 -7 20 -15 20 -8
0 -15 -9 -15 -20z"/>
<path d="M3580 4715 c0 -14 5 -25 10 -25 6 0 10 11 10 25 0 14 -4 25 -10 25
-5 0 -10 -11 -10 -25z"/>
<path d="M293 4550 c0 -36 2 -50 4 -32 2 17 2 47 0 65 -2 17 -4 3 -4 -33z"/>
<path d="M3080 4581 c0 -5 7 -11 15 -15 8 -3 15 -1 15 3 0 5 -7 11 -15 15 -8
3 -15 1 -15 -3z"/>
<path d="M3193 4573 c21 -31 -22 -79 -86 -93 -28 -6 -29 -8 -13 -15 13 -6 30
-3 49 9 16 9 32 15 34 12 2 -2 -7 -21 -22 -41 -14 -21 -25 -43 -25 -50 0 -7
-16 -22 -36 -34 -19 -12 -32 -26 -29 -31 4 -6 9 -9 13 -7 4 2 24 12 44 22 45
23 60 14 30 -18 -34 -36 -27 -55 8 -22 33 32 38 53 15 61 -21 8 -19 18 10 62
34 52 42 112 18 138 -10 11 -14 14 -10 7z"/>
<path d="M3748 4549 c-10 -5 -18 -17 -18 -24 0 -8 -7 -15 -15 -15 -9 0 -12 -6
-9 -15 4 -9 0 -15 -7 -16 -8 -1 -3 -4 11 -9 25 -7 25 -8 -11 -23 -34 -15 -37
-20 -41 -64 -3 -26 -3 -50 -1 -52 1 -2 20 4 42 13 27 13 42 27 49 49 l10 32 1
-27 c1 -17 7 -28 15 -28 8 0 13 8 11 18 -1 9 0 12 2 5 2 -6 12 -13 20 -15 10
-2 1 -11 -25 -23 -38 -18 -57 -45 -32 -45 6 0 10 4 10 9 0 11 95 44 112 39 11
-4 -49 -36 -96 -52 -15 -5 -17 -9 -8 -18 9 -9 24 -6 62 15 29 16 52 23 55 17
4 -6 17 -2 32 10 14 11 32 20 40 20 7 0 16 7 19 15 4 8 12 15 19 15 8 0 17 5
21 12 4 7 3 8 -4 4 -16 -10 -16 26 0 42 9 9 9 12 0 12 -6 0 -18 -16 -26 -35
-8 -19 -20 -36 -25 -36 -30 -5 -36 -2 -41 21 -7 26 -12 27 -67 15 -21 -5 -33
-4 -33 3 0 6 10 12 22 14 21 3 21 3 2 22 -19 19 -18 19 9 13 24 -7 27 -5 25
17 -1 15 -7 22 -15 19 -7 -3 -13 2 -13 12 0 11 -7 16 -22 15 -41 -4 -50 0 -44
15 6 17 -11 19 -36 4z m52 -88 c0 -5 8 -12 18 -14 10 -3 6 -5 -10 -6 -19 -1
-28 4 -28 14 0 8 5 15 10 15 6 0 10 -4 10 -9z m-63 -35 c-9 -7 -17 -18 -17
-25 0 -6 -9 -11 -19 -11 -11 0 -22 -6 -24 -12 -3 -7 -6 -1 -6 13 -1 22 6 30
37 42 41 17 57 13 29 -7z"/>
<path d="M3800 4549 c0 -5 5 -7 10 -4 6 3 10 8 10 11 0 2 -4 4 -10 4 -5 0 -10
-5 -10 -11z"/>
<path d="M3591 4513 c-1 -15 -7 -23 -18 -23 -15 0 -15 -1 -1 -12 9 -7 18 -20
21 -28 4 -10 6 -7 6 8 1 14 7 22 18 22 15 0 15 1 1 13 -9 6 -18 19 -21 27 -4
10 -6 7 -6 -7z"/>
<path d="M3022 4508 c-7 -7 -25 -13 -40 -14 -32 -1 -43 -31 -17 -50 12 -9 24
-10 46 -2 25 9 32 7 44 -8 7 -11 17 -16 21 -11 4 4 0 13 -10 20 -11 8 -16 23
-14 41 3 32 -11 43 -30 24z"/>
<path d="M3390 4500 c0 -5 13 -10 29 -10 17 0 33 5 36 10 4 6 -8 10 -29 10
-20 0 -36 -4 -36 -10z"/>
<path d="M3481 4477 c-1 -23 3 -36 9 -32 6 3 10 13 10 21 0 8 4 14 10 14 5 0
9 -8 7 -17 -1 -10 3 -19 8 -21 14 -4 19 48 6 61 -8 8 -11 8 -11 -1 0 -16 -27
-15 -33 1 -3 6 -6 -5 -6 -26z"/>
<path d="M3258 4462 c-15 -29 -15 -33 -1 -40 13 -8 13 -13 3 -32 -15 -27 -2
-41 28 -29 29 11 28 30 -3 59 -19 17 -22 27 -14 36 6 7 9 19 7 26 -3 7 -12 -2
-20 -20z m37 -73 c-10 -15 -25 -10 -19 6 4 8 10 12 15 9 5 -3 7 -10 4 -15z"/>
<path d="M3363 4424 c-2 -63 9 -85 21 -41 6 24 -3 95 -13 101 -3 2 -7 -25 -8
-60z"/>
<path d="M497 4473 c105 -2 281 -2 390 0 109 1 23 2 -192 2 -214 0 -304 -1
-198 -2z"/>
<path d="M3340 4466 c0 -8 -10 -22 -22 -32 l-23 -16 22 5 c17 4 23 0 26 -17 2
-11 5 0 6 27 0 26 -1 47 -4 47 -3 0 -5 -6 -5 -14z"/>
<path d="M3300 4460 c0 -5 7 -10 15 -10 8 0 15 5 15 10 0 6 -7 10 -15 10 -8 0
-15 -4 -15 -10z"/>
<path d="M3400 4460 c0 -5 7 -10 15 -10 17 0 20 -16 5 -25 -22 -14 -9 -27 20
-21 19 3 29 2 25 -4 -13 -21 7 -31 26 -14 26 24 34 12 15 -25 -9 -16 -16 -38
-16 -48 0 -10 10 2 21 26 27 60 22 75 -24 76 -44 2 -54 9 -39 28 7 8 9 17 5
20 -10 11 -53 8 -53 -3z"/>
<path d="M511 4344 c0 -11 3 -14 6 -6 3 7 2 16 -1 19 -3 4 -6 -2 -5 -13z"/>
<path d="M3614 4299 c2 -26 9 -34 42 -45 44 -16 114 -19 79 -4 -11 5 -14 9 -7
9 10 1 10 5 0 24 -18 31 -28 37 -61 33 -15 -2 -30 0 -33 5 -12 20 -24 7 -20
-22z m83 -21 c-3 -8 -6 -5 -6 6 -1 11 2 17 5 13 3 -3 4 -12 1 -19z"/>
<path d="M3883 4280 c-24 -10 -43 -21 -43 -23 0 -8 71 -4 76 5 4 6 -2 8 -16 3
-15 -5 -20 -4 -16 4 4 6 15 11 24 11 9 0 24 5 32 10 28 18 -11 11 -57 -10z"/>
<path d="M2385 4263 c-15 -12 -16 -14 -3 -10 9 3 19 1 22 -6 2 -7 5 -2 5 11 1
26 2 26 -24 5z"/>
<path d="M1485 4260 c3 -5 11 -10 16 -10 6 0 7 5 4 10 -3 6 -11 10 -16 10 -6
0 -7 -4 -4 -10z"/>
<path d="M3295 4254 c-9 -9 -15 -28 -13 -43 2 -20 9 -27 32 -29 39 -5 50 9 42
52 -8 40 -32 48 -61 20z m50 -14 c10 -16 -15 -51 -33 -48 -15 3 -24 32 -15 51
6 10 41 9 48 -3z"/>
<path d="M3985 4250 c-3 -5 1 -10 9 -10 9 0 16 5 16 10 0 6 -4 10 -9 10 -6 0
-13 -4 -16 -10z"/>
<path d="M3108 4219 c-57 -28 -74 -49 -41 -49 9 0 13 3 9 7 -3 4 17 16 46 28
28 11 53 26 56 33 5 17 -5 14 -70 -19z"/>
<path d="M3212 4212 c-13 -8 -46 -23 -75 -33 -44 -15 -48 -18 -22 -18 45 -1
106 16 123 33 24 23 2 38 -26 18z"/>
<path d="M3896 4214 c-3 -9 -6 -24 -6 -35 0 -23 36 -25 64 -4 15 11 16 15 5
15 -8 0 -20 -5 -27 -12 -9 -9 -12 -8 -12 4 0 9 5 20 10 23 17 10 11 25 -9 25
-10 0 -22 -7 -25 -16z"/>
<path d="M63 4175 c-27 -19 -37 -59 -22 -88 15 -28 28 -37 56 -37 56 0 83 80
41 120 -26 24 -46 25 -75 5z m87 -45 c0 -18 -12 -24 -47 -23 -7 1 -11 -3 -8
-7 3 -4 -5 -10 -17 -13 -12 -4 -26 -1 -29 5 -10 16 0 31 17 24 8 -3 14 -2 14
3 0 9 38 29 58 30 6 1 12 -8 12 -19z"/>
<path d="M374 4146 c-3 -8 -4 -23 -1 -33 3 -12 5 -8 6 10 l1 27 119 0 c112 0
120 -1 124 -20 4 -17 4 -16 3 2 -1 22 -4 23 -124 26 -100 2 -123 0 -128 -12z"/>
<path d="M443 4132 c-53 -3 -72 -18 -30 -24 35 -5 117 3 117 12 0 11 -28 15
-87 12z"/>
<path d="M541 4128 c-1 -14 7 -18 34 -18 24 0 35 5 35 14 0 11 -7 13 -29 6
-21 -6 -31 -5 -35 3 -2 7 -5 4 -5 -5z"/>
<path d="M1517 4096 c-3 -8 -2 -18 3 -21 13 -8 24 15 12 27 -6 6 -11 4 -15 -6z"/>
<path d="M1561 4094 c0 -11 3 -14 6 -6 3 7 2 16 -1 19 -3 4 -6 -2 -5 -13z"/>
<path d="M373 4065 c-2 -6 -2 -22 0 -35 3 -18 11 -26 30 -28 15 -2 27 2 27 8
0 7 6 8 19 0 28 -15 51 -12 51 5 0 18 16 20 23 3 3 -7 6 1 6 19 l1 31 -76 4
c-47 2 -78 -1 -81 -7z m84 -27 c-3 -8 -6 -5 -6 6 -1 11 2 17 5 13 3 -3 4 -12
1 -19z m-42 -18 c3 -5 -1 -10 -10 -10 -9 0 -13 5 -10 10 3 6 8 10 10 10 2 0 7
-4 10 -10z"/>
<path d="M708 4073 c-16 -3 -28 -11 -28 -19 0 -8 -5 -12 -10 -9 -6 4 -8 11 -5
16 4 5 -1 9 -9 9 -9 0 -16 -9 -16 -20 0 -11 6 -20 13 -20 8 0 7 -4 -3 -11 -12
-8 -12 -9 5 -7 11 1 26 -1 33 -5 15 -10 32 0 32 19 0 8 5 14 11 14 6 0 9 -7 5
-15 -3 -8 -1 -15 3 -15 5 0 12 6 14 13 4 10 6 10 6 0 1 -18 31 -16 31 1 0 8
-5 18 -10 21 -8 5 -7 11 1 21 14 17 -2 19 -19 2 -9 -9 -12 -9 -12 0 0 7 -3 11
-7 11 -5 -1 -20 -4 -35 -6z m2 -38 c0 -8 -4 -15 -10 -15 -5 0 -10 7 -10 15 0
8 5 15 10 15 6 0 10 -7 10 -15z"/>
<path d="M540 4037 c0 -32 2 -34 39 -35 22 -1 43 3 46 8 4 6 -8 10 -29 10 -20
0 -36 4 -36 8 0 5 14 6 31 4 22 -3 30 -1 25 7 -4 6 -12 9 -17 6 -5 -4 -9 -2
-9 4 0 5 8 12 18 14 11 3 7 5 -10 6 -14 0 -29 -5 -31 -11 -4 -10 -6 -10 -6 0
-2 28 -21 9 -21 -21z"/>
<path d="M810 4055 c0 -8 5 -15 10 -15 6 0 10 7 10 15 0 8 -4 15 -10 15 -5 0
-10 -7 -10 -15z"/>
<path d="M850 4060 c0 -5 5 -10 10 -10 6 0 10 5 10 10 0 6 -4 10 -10 10 -5 0
-10 -4 -10 -10z"/>
<path d="M891 4058 c-1 -23 9 -48 21 -48 5 0 7 4 4 9 -4 5 0 12 6 14 8 4 7 6
-4 6 -9 1 -19 9 -21 19 -4 15 -5 15 -6 0z"/>
<path d="M1091 4054 c0 -11 3 -14 6 -6 3 7 2 16 -1 19 -3 4 -6 -2 -5 -13z"/>
<path d="M2903 4062 l-43 -3 0 -695 0 -694 645 0 646 0 -4 698 -4 697 -599 0
c-329 0 -618 -1 -641 -3z m87 -142 c0 -5 -4 -10 -10 -10 -5 0 -10 5 -10 10 0
6 5 10 10 10 6 0 10 -4 10 -10z m16 -35 c-15 -19 -31 -33 -36 -30 -6 3 5 21
23 39 41 42 48 37 13 -9z m494 37 c0 -15 -24 -32 -46 -32 -36 0 -54 -11 -70
-42 -26 -50 9 -108 66 -108 17 0 19 2 8 14 -9 9 -15 10 -20 3 -4 -7 -11 -7
-21 1 -17 15 -19 111 -3 113 6 1 25 1 41 1 17 0 35 4 41 9 6 5 19 7 28 3 13
-5 16 -21 16 -82 0 -118 15 -112 -285 -112 -247 0 -253 0 -258 -21 -4 -16 -12
-20 -34 -17 -27 3 -28 6 -31 61 l-3 57 36 0 c19 0 35 5 35 10 0 6 -7 10 -15
10 -28 0 -15 33 33 86 l47 52 218 0 c119 1 217 -2 217 -6z m39 -14 c0 -16 -2
-18 -6 -8 -3 8 -11 18 -17 22 -7 5 -4 8 7 8 11 0 17 -7 16 -22z m113 -26 c3
-12 -1 -18 -12 -18 -11 0 -15 6 -12 18 2 10 8 18 12 18 4 0 10 -8 12 -18z m87
-12 c0 -14 -3 -20 -5 -13 -4 8 -16 10 -33 7 -28 -6 -48 7 -37 24 3 5 21 8 40
8 32 -1 36 -4 35 -26z m66 10 c0 -9 -11 -16 -27 -18 -23 -3 -28 1 -28 18 0 17
5 21 28 18 16 -2 27 -9 27 -18z m65 8 c0 -8 3 -9 8 -3 11 16 57 12 57 -4 0
-10 -14 -15 -47 -16 -41 -2 -48 0 -48 16 0 11 7 19 15 19 8 0 15 -6 15 -12z
m87 -20 c-3 -7 -5 -2 -5 12 0 14 2 19 5 13 2 -7 2 -19 0 -25z m63 17 c0 -19
-11 -19 -36 0 -18 14 -18 14 9 15 17 0 27 -5 27 -15z m57 -6 c1 -15 -3 -19
-19 -17 -30 4 -33 38 -4 38 15 0 22 -7 23 -21z m-413 -37 c2 -4 -4 -9 -15 -9
-11 -1 -17 2 -14 8 7 11 22 12 29 1z m66 -8 c0 -2 -9 -4 -20 -4 -11 0 -20 4
-20 9 0 5 9 7 20 4 11 -3 20 -7 20 -9z m85 6 c3 -5 -3 -10 -14 -10 -12 0 -21
5 -21 10 0 6 6 10 14 10 8 0 18 -4 21 -10z m75 0 c0 -5 -9 -10 -20 -10 -11 0
-20 5 -20 10 0 6 9 10 20 10 11 0 20 -4 20 -10z m60 -6 c0 -2 -9 -4 -20 -4
-11 0 -20 4 -20 9 0 5 9 7 20 4 11 -3 20 -7 20 -9z m130 0 c0 -2 -11 -4 -25
-4 -14 0 -25 4 -25 9 0 4 11 6 25 3 14 -2 25 -6 25 -8z m28 -36 c16 -16 15
-53 -3 -68 -18 -15 -52 -4 -60 20 -13 43 33 78 63 48z m-148 -8 c-11 -7 -12
-12 -4 -17 7 -5 14 -19 15 -33 3 -21 0 -25 -21 -25 -20 0 -26 -6 -28 -29 -2
-16 2 -32 10 -37 8 -6 9 -9 1 -9 -15 0 -45 -92 -37 -113 5 -14 -1 -17 -35 -17
l-41 0 0 64 c0 36 -4 68 -10 71 -5 3 -10 19 -10 36 0 16 -8 37 -19 48 -12 12
-17 27 -14 45 l5 26 102 0 c70 0 96 -3 86 -10z m60 -20 c0 -5 -4 -10 -10 -10
-5 0 -10 5 -10 10 0 6 5 10 10 10 6 0 10 -4 10 -10z m0 -104 c0 -9 -5 -16 -11
-16 -6 0 -8 -9 -4 -20 5 -16 2 -20 -19 -20 -26 0 -48 21 -28 28 7 2 12 10 12
18 0 9 5 24 10 35 10 17 13 18 25 5 8 -8 15 -22 15 -30z m-229 -87 l-21 -34 0
32 c0 22 5 33 18 35 25 6 25 4 3 -33z m246 -76 c-3 -2 -16 -3 -29 0 l-23 4 23
8 c12 4 23 12 23 19 1 6 3 3 6 -7 3 -10 3 -21 0 -24z m-1047 -47 c0 -3 -4 -8
-10 -11 -5 -3 -10 -1 -10 4 0 6 5 11 10 11 6 0 10 -2 10 -4z m16 -41 c-15 -19
-31 -33 -36 -30 -5 3 5 21 23 40 40 43 48 37 13 -10z m494 35 c0 -12 -34 -30
-58 -30 -19 0 -55 -33 -64 -61 -8 -20 18 -79 34 -79 9 0 10 2 1 8 -14 9 -14
101 1 104 6 0 16 2 21 2 6 1 30 8 53 15 41 14 55 34 30 44 -8 4 -7 6 3 6 15 1
17 -13 18 -100 2 -149 22 -139 -284 -139 -234 0 -253 -1 -257 -18 -4 -12 -14
-17 -34 -17 -28 2 -29 3 -32 58 l-3 57 36 0 c19 0 35 5 35 10 0 6 -7 10 -15
10 -28 0 -15 33 33 86 l47 52 218 0 c125 1 217 -3 217 -8z m158 -27 c-25 -6
-22 -20 4 -27 22 -5 22 -6 4 -19 -24 -17 -44 -3 -41 28 3 26 2 25 28 24 16 -1
18 -2 5 -6z m81 -20 c0 -16 -3 -23 -5 -16 -9 22 -35 2 -28 -21 4 -14 3 -18 -4
-11 -6 6 -14 23 -18 39 -6 27 -5 29 20 24 14 -3 26 -1 26 3 0 5 2 9 5 9 3 0 5
-12 4 -27z m249 -12 c23 2 24 2 5 6 -14 3 -20 9 -16 19 8 21 32 17 43 -8 l9
-23 7 23 c9 31 39 29 42 -3 1 -19 -3 -25 -18 -25 -14 0 -18 -5 -14 -17 5 -17
5 -17 -9 0 -17 20 -37 23 -38 5 0 -10 -2 -10 -6 0 -2 6 -11 12 -18 12 -7 0
-16 -6 -18 -12 -3 -7 -5 5 -5 27 0 22 3 30 5 18 3 -18 11 -23 31 -22z m-180
12 c-1 -10 1 -24 5 -30 6 -9 2 -13 -12 -13 -12 0 -21 5 -21 10 0 6 -6 9 -12 8
-7 -2 -14 7 -16 20 -3 19 1 22 28 22 24 0 31 -4 28 -17z m77 7 c3 -5 -3 -10
-15 -10 -12 0 -18 5 -15 10 3 6 10 10 15 10 5 0 12 -4 15 -10z m55 -16 c0 -23
-3 -26 -25 -22 -14 3 -25 1 -25 -5 0 -5 -6 -4 -14 2 -11 9 -15 9 -18 -1 -3 -8
-7 -6 -11 5 -5 14 0 17 28 17 24 0 35 5 35 15 0 8 7 15 15 15 10 0 15 -10 15
-26z m-260 -83 c0 -4 -7 -8 -15 -8 -8 0 -15 6 -15 13 0 8 6 11 15 8 8 -4 15
-9 15 -13z m68 -9 c3 -16 -2 -22 -15 -21 -10 0 -13 3 -5 6 6 2 12 12 12 21 0
12 -3 13 -12 4 -16 -16 -35 -15 -35 2 0 9 10 14 26 13 19 -2 27 -9 29 -25z
m24 -18 c-6 -35 -12 -29 -12 14 0 23 3 32 9 24 4 -7 6 -24 3 -38z m50 23 c3
-14 0 -24 -7 -24 -7 0 -10 10 -7 24 2 13 6 23 7 23 1 0 5 -10 7 -23z m61 -1
c9 3 17 10 17 15 0 5 5 9 11 9 6 0 9 -7 5 -15 -3 -9 0 -15 9 -15 8 0 15 -5 15
-11 0 -19 30 11 30 30 1 15 1 15 10 -1 6 -10 7 -25 1 -40 -6 -12 -10 -18 -10
-11 -1 7 -7 10 -15 7 -8 -3 -17 0 -21 6 -4 6 -15 8 -25 5 -11 -3 -28 -1 -39 4
-17 9 -20 7 -24 -12 -2 -13 -5 -6 -6 17 -1 35 1 38 12 22 8 -11 19 -15 30 -10z
m7 20 c0 -3 -4 -8 -10 -11 -5 -3 -10 -1 -10 4 0 6 5 11 10 11 6 0 10 -2 10 -4z
m70 -11 c0 -8 -4 -15 -9 -15 -13 0 -22 16 -14 24 11 11 23 6 23 -9z m89 -7
c-1 -16 -3 -18 -6 -6 -2 9 -14 19 -26 21 -18 4 -17 5 6 6 22 1 27 -3 26 -21z
m-9 -31 c9 -3 4 -6 -12 -6 -21 -1 -26 3 -21 15 3 9 9 11 12 6 3 -5 13 -12 21
-15z m-355 4 l-20 -8 20 -5 c18 -5 18 -6 -2 -7 -14 -1 -23 5 -23 14 0 9 9 15
23 14 21 0 21 -1 2 -8z m200 -11 c3 -5 1 -10 -4 -10 -6 0 -11 5 -11 10 0 6 2
10 4 10 3 0 8 -4 11 -10z m35 0 c0 -5 -5 -10 -11 -10 -5 0 -7 5 -4 10 3 6 8
10 11 10 2 0 4 -4 4 -10z m-930 -254 c0 -3 -4 -8 -10 -11 -5 -3 -10 -1 -10 4
0 6 5 11 10 11 6 0 10 -2 10 -4z m13 -40 c-15 -20 -29 -32 -31 -27 -4 11 49
73 56 67 2 -3 -9 -21 -25 -40z m497 34 c0 -5 -9 -14 -20 -20 -11 -6 -20 -9
-20 -6 0 17 -59 -20 -74 -46 -18 -30 -18 -32 -1 -65 18 -32 35 -44 35 -23 0 6
-4 10 -9 10 -14 0 -9 83 5 98 8 7 15 8 19 3 7 -13 95 20 95 35 0 7 -6 15 -12
17 -8 4 -7 6 3 6 15 1 17 -13 18 -100 2 -149 22 -139 -286 -139 -218 0 -253
-2 -253 -15 0 -10 -11 -15 -35 -15 l-35 0 0 54 0 54 38 8 c22 4 30 9 20 11
-29 7 -21 32 30 88 l47 54 218 0 c125 0 217 -4 217 -9z m262 -82 c4 -26 -16
-42 -24 -18 -5 16 -78 20 -85 4 -3 -7 -9 -11 -14 -8 -5 3 -7 10 -4 15 3 5 -1
6 -9 3 -10 -4 -16 -1 -16 9 0 18 14 22 91 23 55 0 57 0 61 -28z m84 10 c8 19
20 14 21 -8 1 -16 -2 -20 -18 -15 -12 4 -19 2 -19 -7 0 -10 -3 -9 -10 2 -9 13
-10 13 -10 0 0 -13 -2 -13 -9 -1 -6 9 -5 21 2 32 10 16 12 16 25 1 10 -13 15
-14 18 -4z m94 5 c1 -17 1 -17 14 0 16 20 36 22 36 3 0 -8 7 -16 15 -20 8 -3
15 -1 15 3 0 5 -6 11 -12 14 -7 2 -11 7 -8 9 3 3 15 2 27 -3 16 -6 20 -13 16
-29 -3 -12 -9 -18 -12 -13 -3 5 -22 9 -41 11 -28 1 -31 0 -15 -7 19 -9 19 -10
-2 -10 -12 -1 -23 5 -26 12 -3 9 -7 9 -19 -1 -13 -10 -17 -10 -21 0 -4 11 -7
10 -15 0 -7 -11 -10 -9 -15 7 -3 12 -1 24 4 27 5 3 9 0 9 -5 0 -6 10 -11 23
-10 12 0 16 3 10 6 -18 7 -16 23 2 23 8 0 15 -8 15 -17z m150 -8 c8 18 9 17 9
-8 1 -25 -1 -26 -19 -15 -11 7 -20 22 -19 33 0 17 2 17 11 -5 10 -24 10 -24
18 -5z m-393 -31 c-3 -3 -12 -4 -19 -1 -8 3 -5 6 6 6 11 1 17 -2 13 -5z m-44
-44 c3 -12 0 -20 -8 -20 -8 0 -11 8 -8 20 3 11 7 20 8 20 1 0 5 -9 8 -20z m66
10 c7 10 10 5 9 -18 -1 -22 -4 -29 -10 -20 -6 10 -10 10 -19 -2 -9 -13 -10
-12 -5 3 3 11 0 17 -9 17 -8 0 -15 5 -15 11 0 5 5 7 10 4 6 -3 10 0 10 7 0 9
3 9 10 -2 9 -13 11 -13 19 0z m36 -11 c-6 -18 -5 -20 14 -10 12 7 21 8 21 3 0
-13 -39 -22 -45 -12 -5 9 4 40 12 40 2 0 1 -9 -2 -21z m75 -2 c11 -5 9 -6 -4
-4 -11 1 -21 9 -23 17 -3 10 -2 11 4 4 4 -6 15 -14 23 -17z m145 -1 l6 -21 11
23 c12 25 48 30 48 7 0 -8 -4 -15 -10 -15 -5 0 -10 -7 -10 -16 0 -9 -5 -12
-12 -8 -18 12 -98 13 -98 2 0 -5 -4 -6 -10 -3 -5 3 -10 17 -10 29 0 20 5 23
39 23 31 0 41 -4 46 -21z m95 -1 c0 -17 -4 -23 -14 -19 -8 3 -12 13 -9 25 7
27 23 24 23 -6z m-190 0 c0 -8 -4 -15 -10 -15 -5 0 -7 7 -4 15 4 8 8 15 10 15
2 0 4 -7 4 -15z m-40 -31 c0 -2 -9 -4 -20 -4 -11 0 -20 4 -20 9 0 5 9 7 20 4
11 -3 20 -7 20 -9z m-300 -34 c0 -5 -5 -10 -11 -10 -5 0 -7 5 -4 10 3 6 8 10
11 10 2 0 4 -4 4 -10z"/>
<path d="M3047 3853 c-4 -3 -3 -11 2 -17 5 -6 11 -24 14 -41 3 -22 4 -17 6 18
1 44 -6 57 -22 40z"/>
<path d="M3131 3846 c-20 -24 -10 -70 17 -74 13 -2 22 2 22 9 0 10 3 10 12 1
16 -16 48 -16 48 0 0 9 3 9 12 0 33 -33 72 14 48 58 -13 24 -23 25 -40 5 -11
-13 -14 -13 -25 2 -13 17 -14 17 -33 0 -17 -16 -20 -16 -25 -2 -8 19 -21 19
-36 1z m29 -30 c0 -14 -4 -28 -10 -31 -6 -4 -10 7 -10 24 0 17 5 31 10 31 6 0
10 -11 10 -24z m60 0 c0 -14 -4 -28 -10 -31 -6 -4 -10 7 -10 24 0 17 5 31 10
31 6 0 10 -11 10 -24z m60 0 c0 -14 -4 -27 -9 -30 -12 -8 -22 20 -15 39 9 23
24 18 24 -9z"/>
<path d="M3446 3824 c-3 -9 -2 -23 4 -32 7 -14 9 -10 10 16 0 35 -5 41 -14 16z"/>
<path d="M3502 3790 c0 -14 2 -19 5 -12 2 6 2 18 0 25 -3 6 -5 1 -5 -13z"/>
<path d="M3910 3880 c0 -5 5 -10 10 -10 6 0 10 5 10 10 0 6 -4 10 -10 10 -5 0
-10 -4 -10 -10z"/>
<path d="M4059 3784 c-16 -20 0 -49 27 -49 35 0 28 64 -7 65 -4 0 -12 -7 -20
-16z m38 -19 c0 -8 -6 -15 -14 -15 -7 0 -13 7 -13 15 0 8 6 15 13 15 8 0 14
-7 14 -15z"/>
<path d="M3830 3658 c0 -32 0 -32 16 -10 15 22 12 42 -7 42 -5 0 -9 -15 -9
-32z"/>
<path d="M3047 3383 c-4 -3 -3 -11 2 -17 5 -6 11 -24 14 -41 3 -22 4 -17 6 18
1 44 -6 57 -22 40z"/>
<path d="M3131 3376 c-20 -24 -10 -70 17 -74 13 -2 22 2 22 9 0 10 3 10 12 1
16 -16 48 -16 48 0 0 9 3 9 12 0 33 -33 72 14 48 58 -13 24 -23 25 -40 5 -11
-13 -14 -13 -25 2 -13 17 -14 17 -33 0 -17 -16 -20 -16 -25 -2 -8 19 -21 19
-36 1z m29 -30 c0 -14 -4 -28 -10 -31 -6 -4 -10 7 -10 24 0 17 5 31 10 31 6 0
10 -11 10 -24z m60 0 c0 -14 -4 -28 -10 -31 -6 -4 -10 7 -10 24 0 17 5 31 10
31 6 0 10 -11 10 -24z m60 0 c0 -14 -4 -27 -9 -30 -12 -8 -22 20 -15 39 9 23
24 18 24 -9z"/>
<path d="M3434 3352 c-6 -4 -4 -13 8 -24 15 -15 18 -15 18 -3 0 8 5 15 11 15
5 0 7 5 4 10 -7 12 -26 13 -41 2z"/>
<path d="M3502 3320 c0 -14 2 -19 5 -12 2 6 2 18 0 25 -3 6 -5 1 -5 -13z"/>
<path d="M3436 3285 c-3 -9 0 -15 9 -15 9 0 12 6 9 15 -4 8 -7 15 -9 15 -2 0
-5 -7 -9 -15z"/>
<path d="M3045 2940 c-3 -5 -2 -10 4 -10 5 0 12 -17 14 -37 3 -35 4 -34 5 10
2 44 -9 60 -23 37z"/>
<path d="M3126 2934 c-18 -47 7 -91 37 -65 10 8 17 7 25 -1 10 -10 17 -10 32
0 12 7 21 8 25 2 22 -35 64 17 46 56 -12 28 -36 31 -46 7 -6 -17 -7 -17 -16 0
-6 9 -16 17 -23 17 -8 0 -17 -8 -21 -17 -6 -17 -7 -17 -16 0 -12 21 -35 22
-43 1z m34 -29 c0 -14 -4 -25 -10 -25 -5 0 -10 11 -10 25 0 14 5 25 10 25 6 0
10 -11 10 -25z m60 0 c0 -14 -4 -25 -10 -25 -5 0 -10 11 -10 25 0 14 5 25 10
25 6 0 10 -11 10 -25z m60 0 c0 -25 -14 -34 -24 -16 -8 12 3 41 15 41 5 0 9
-11 9 -25z"/>
<path d="M3432 2913 c-10 -4 -9 -8 4 -18 13 -9 21 -9 30 -1 22 20 -1 33 -34
19z"/>
<path d="M3502 2880 c0 -14 2 -19 5 -12 2 6 2 18 0 25 -3 6 -5 1 -5 -13z"/>
<path d="M3437 2845 c-5 -11 0 -15 16 -15 12 0 18 4 12 8 -5 4 -13 11 -16 15
-4 4 -9 1 -12 -8z"/>
<path d="M1180 4050 c0 -5 5 -10 10 -10 6 0 10 5 10 10 0 6 -4 10 -10 10 -5 0
-10 -4 -10 -10z"/>
<path d="M830 4020 c0 -5 5 -10 10 -10 6 0 10 5 10 10 0 6 -4 10 -10 10 -5 0
-10 -4 -10 -10z"/>
<path d="M1502 3850 c0 -14 2 -19 5 -12 2 6 2 18 0 25 -3 6 -5 1 -5 -13z"/>
<path d="M1630 3852 c0 -10 8 -18 19 -19 14 -1 17 3 14 18 -7 24 -33 25 -33 1z"/>
<path d="M1674 3858 c-4 -6 -3 -8 4 -4 5 3 12 1 14 -6 3 -8 6 -9 11 -1 4 6 0
13 -8 17 -8 3 -17 0 -21 -6z"/>
<path d="M480 3810 c0 -19 -7 -20 -195 -20 l-195 0 0 -97 0 -97 -45 49 -44 50
-1 -257 0 -258 216 0 c169 0 214 3 208 13 -4 6 -27 35 -51 63 -24 28 -43 54
-43 58 0 3 33 6 74 6 l75 0 3 -42 3 -43 239 -3 c153 -1 243 1 250 8 7 7 -68
10 -232 10 l-242 0 2 252 3 252 32 2 c31 2 32 1 18 -19 -10 -14 -13 -33 -9
-53 3 -17 -1 -55 -10 -84 -23 -77 -23 -325 0 -334 20 -8 68 -8 88 0 23 9 23
247 0 324 -9 30 -14 71 -11 92 3 25 0 41 -9 49 -18 15 -18 29 1 29 8 0 15 6
15 13 0 23 35 47 66 47 35 0 54 -16 54 -46 0 -21 1 -21 176 -16 l176 4 -16
-24 c-10 -16 -14 -35 -10 -55 3 -16 -1 -54 -10 -83 -18 -61 -23 -317 -6 -290
5 8 10 27 10 43 0 25 3 27 40 27 l40 0 0 -45 c0 -25 5 -45 10 -45 17 0 12 248
-6 310 -9 30 -13 67 -10 86 5 22 2 37 -9 47 -22 23 -19 27 20 27 l35 0 0 -250
c0 -160 4 -250 10 -250 6 0 10 102 10 285 l0 285 -360 0 c-353 0 -360 0 -360
-20z m55 0 c3 -5 1 -10 -4 -10 -6 0 -11 5 -11 10 0 6 2 10 4 10 3 0 8 -4 11
-10z m561 -10 c8 0 14 -4 14 -9 0 -15 -53 -7 -58 8 -3 10 0 12 12 8 10 -4 24
-7 32 -7z m64 -10 c0 -5 -9 -10 -20 -10 -11 0 -20 5 -20 10 0 6 9 10 20 10 11
0 20 -4 20 -10z m-750 -43 c0 -5 -4 -5 -10 -2 -5 3 -10 14 -10 23 0 15 2 15
10 2 5 -8 10 -19 10 -23z m30 18 c4 3 11 -2 14 -10 4 -13 2 -14 -14 -5 -11 6
-20 16 -19 23 0 9 2 9 6 -1 2 -6 8 -10 13 -7z m-83 -22 c-3 -2 -14 0 -24 7
-16 10 -16 11 0 6 9 -3 17 0 18 7 0 8 2 8 6 -1 3 -7 3 -16 0 -19z m-117 -44
c0 -5 -30 -9 -67 -9 -47 0 -63 3 -53 10 19 12 120 11 120 -1z m146 -2 c4 -4
-23 -7 -60 -7 -37 0 -65 4 -62 8 6 10 112 9 122 -1z m94 2 c0 -5 -18 -9 -40
-9 -22 0 -40 4 -40 9 0 4 18 8 40 8 22 0 40 -4 40 -8z m-64 -82 c8 3 26 2 42
-2 25 -7 25 -8 7 -15 -17 -7 -17 -9 -2 -9 36 -2 15 -21 -22 -21 -33 0 -40 -4
-44 -22 -4 -23 -4 -23 -6 -1 0 12 6 29 15 37 8 9 11 16 6 16 -5 0 -15 -7 -22
-15 -7 -8 -19 -15 -28 -15 -13 0 -12 -3 3 -20 10 -11 14 -20 10 -20 -5 0 -4
-5 3 -12 7 -7 30 -14 52 -15 38 -3 39 -2 36 27 -2 16 1 27 5 24 5 -3 9 -25 9
-50 0 -42 -1 -44 -29 -44 -36 0 -48 -15 -24 -29 17 -10 17 -10 -2 -11 -11 -1
-32 -16 -48 -35 l-27 -33 61 -1 c34 0 64 -3 67 -6 3 -3 -28 -5 -69 -5 l-74 0
-54 -66 c-44 -54 -56 -63 -66 -52 -7 7 -51 57 -98 111 l-86 99 37 74 36 74 76
1 c41 0 84 4 95 9 11 5 14 9 8 9 -7 1 -13 6 -13 12 0 8 13 10 38 6 59 -10 82
0 84 37 1 29 2 28 5 -6 3 -27 8 -35 19 -31z m-191 42 c4 -6 -1 -16 -11 -24
-24 -17 -42 -2 -24 20 15 18 26 19 35 4z m133 -24 c-31 -16 -50 1 -24 21 15
10 23 11 33 2 11 -9 9 -13 -9 -23z m122 3 c0 -16 -3 -19 -11 -11 -6 6 -8 16
-5 22 11 17 16 13 16 -11z m103 -33 c-3 -8 0 -15 6 -15 6 0 10 -12 10 -27 -1
-17 -3 -21 -6 -10 -5 20 -19 23 -26 5 -3 -9 -7 -7 -12 6 -5 11 -3 21 4 25 7 4
11 12 10 17 -3 17 1 25 11 19 5 -3 7 -12 3 -20z m520 0 c-3 -8 0 -15 6 -15 6
0 11 -11 11 -25 0 -14 -4 -25 -10 -25 -5 0 -7 7 -4 15 4 8 2 15 -4 15 -6 0
-12 -6 -15 -12 -3 -9 -7 -7 -12 6 -5 11 -3 21 4 25 7 4 11 12 10 17 -3 17 1
25 11 19 5 -3 7 -12 3 -20z m-909 6 c35 -1 47 -4 39 -12 -13 -13 -115 -7 -120
8 -3 6 4 10 14 8 10 -2 40 -4 67 -4z m414 -99 c6 -9 12 -28 12 -44 0 -15 0
-31 0 -35 0 -5 -4 -8 -9 -8 -5 0 -12 -3 -16 -7 -7 -6 -56 -1 -64 8 -2 2 1 29
8 59 11 50 15 55 34 49 12 -3 28 -13 35 -22z m512 10 c18 -14 21 -26 18 -67
-3 -45 -5 -48 -18 -34 -11 12 -19 14 -32 6 -25 -16 -29 -6 -22 57 7 60 17 68
54 38z m-502 -123 c-2 -6 -7 -10 -11 -10 -4 1 -21 1 -38 1 -16 0 -28 3 -25 8
7 11 78 12 74 1z m-138 -19 c0 -22 -1 -23 -24 -14 -13 5 -14 9 -5 20 16 20 29
17 29 -6z m138 -72 c-6 -41 -88 -33 -88 8 0 10 14 14 46 14 41 0 45 -2 42 -22z"/>
<path d="M323 3593 c9 -2 23 -2 30 0 6 3 -1 5 -18 5 -16 0 -22 -2 -12 -5z"/>
<path d="M80 3500 c-16 -33 -30 -62 -30 -64 0 -8 164 -193 173 -195 5 -1 47
41 94 94 l86 97 -31 64 -32 64 -115 0 -115 0 -30 -60z m210 10 c0 -24 -3 -25
-70 -28 -39 -1 -70 -1 -70 2 0 3 4 15 9 28 8 21 15 24 70 23 58 0 61 -1 61
-25z m-21 -72 c1 27 37 31 44 5 3 -13 5 -12 6 5 0 13 5 21 11 17 12 -7 11 -95
-1 -95 -5 0 -9 5 -9 10 0 6 -12 10 -26 10 -14 0 -23 4 -19 10 3 6 1 10 -4 10
-6 0 -11 -9 -11 -20 0 -11 -4 -20 -10 -20 -5 0 -10 5 -10 10 0 6 -11 10 -25
10 -22 0 -25 4 -25 34 0 32 3 35 33 38 27 3 33 -1 38 -22 6 -24 7 -24 8 -2z
m-94 -22 c-1 -12 -3 -27 -4 -33 -2 -20 -21 -15 -22 5 -1 16 -2 16 -6 0 -5 -22
-23 -24 -23 -3 0 8 -4 15 -10 15 -13 0 0 32 19 46 21 16 49 -3 46 -30z m105
-82 c0 -22 -4 -23 -55 -23 -45 1 -55 4 -55 18 0 25 5 28 60 28 46 1 50 -1 50
-23z"/>
<path d="M211 3424 c0 -11 3 -14 6 -6 3 7 2 16 -1 19 -3 4 -6 -2 -5 -13z"/>
<path d="M130 3430 c-12 -8 -10 -10 8 -10 13 0 20 4 17 10 -7 12 -6 12 -25 0z"/>
<path d="M565 3501 c-7 -12 12 -24 25 -16 11 7 4 25 -10 25 -5 0 -11 -4 -15
-9z"/>
<path d="M1087 3504 c-7 -8 11 -34 23 -34 11 0 5 33 -6 37 -6 2 -13 0 -17 -3z"/>
<path d="M1856 3686 c-13 -12 -31 -37 -40 -55 -16 -30 -16 -32 8 -56 24 -24
21 -36 -9 -41 -37 -7 -63 -26 -74 -56 -7 -18 -20 -50 -28 -70 -17 -39 -11 -88
10 -88 24 0 12 -147 -18 -223 -15 -37 -26 -69 -24 -70 2 -2 23 -15 46 -30 25
-16 43 -35 45 -49 3 -20 10 -23 55 -26 43 -2 54 0 62 17 6 11 24 22 40 26 16
3 35 13 42 21 6 8 18 14 26 14 13 0 14 11 8 68 -13 111 -13 122 -3 122 5 0 7
21 4 53 -3 28 -8 97 -11 152 -6 101 -14 122 -58 138 -8 3 -6 9 7 19 16 12 18
24 14 73 -7 84 -53 111 -102 61z m80 -66 c1 -50 -36 -120 -63 -120 -28 0 -30
14 -5 32 11 7 24 23 31 36 11 21 11 23 -6 14 -15 -9 -19 -7 -19 9 0 10 6 19
13 19 7 0 13 8 13 18 0 47 35 38 36 -8z m-146 -200 c-14 -10 -28 -16 -33 -13
-11 7 2 46 21 61 14 11 18 10 26 -9 8 -17 5 -24 -14 -39z"/>
<path d="M2249 3608 c0 -57 -1 -143 -2 -193 l-2 -90 45 -2 c25 0 56 1 69 5
l25 5 -22 8 c-18 7 -21 14 -16 36 3 16 7 37 7 48 1 11 12 33 24 49 20 25 21
30 7 43 -8 9 -13 22 -10 30 3 8 6 17 6 19 0 2 8 4 18 4 10 0 24 6 31 13 11 10
12 7 7 -13 -3 -14 -3 -19 0 -13 3 8 15 11 28 7 17 -4 25 0 30 13 4 10 2 19 -3
21 -16 5 -13 22 3 22 18 0 23 -24 18 -77 -3 -30 -9 -43 -23 -46 -15 -4 -18
-11 -13 -39 4 -18 15 -39 25 -47 11 -7 19 -22 19 -32 0 -11 6 -19 13 -19 6 0
3 -6 -8 -12 -19 -12 -19 -12 5 -19 14 -4 35 -7 48 -8 l22 -1 0 195 0 195 -175
0 -175 0 -1 -102z m184 45 c-5 -13 -7 -13 -21 0 -8 8 -11 20 -7 27 10 16 35
-7 28 -27z m157 -215 c0 -13 -23 -5 -28 10 -2 7 2 10 12 6 9 -3 16 -11 16 -16z
m-254 -11 c2 -7 -2 -27 -11 -43 -8 -16 -15 -23 -15 -16 0 6 -5 12 -11 12 -5 0
-8 -4 -4 -9 3 -5 1 -12 -4 -15 -5 -3 -11 8 -13 24 -3 22 1 34 16 44 27 19 35
19 42 3z"/>
<path d="M745 3670 c-3 -5 1 -10 10 -10 9 0 13 5 10 10 -3 6 -8 10 -10 10 -2
0 -7 -4 -10 -10z"/>
<path d="M935 3670 c-3 -5 1 -10 10 -10 9 0 13 5 10 10 -3 6 -8 10 -10 10 -2
0 -7 -4 -10 -10z"/>
<path d="M738 3642 c-51 -3 -58 -11 -32 -36 21 -22 57 -20 79 4 24 27 11 36
-47 32z"/>
<path d="M928 3642 c-49 -3 -60 -16 -36 -40 19 -19 63 -14 83 8 24 27 11 36
-47 32z"/>
<path d="M677 3534 c-4 -4 -7 -25 -7 -46 l0 -39 73 3 72 3 0 40 0 40 -65 3
c-36 2 -69 0 -73 -4z m117 -53 c6 -8 -25 -21 -53 -21 -11 0 -11 3 -1 15 14 16
46 20 54 6z"/>
<path d="M867 3534 c-4 -4 -7 -25 -7 -46 l0 -38 76 0 75 0 -3 43 -3 42 -65 3
c-36 2 -69 0 -73 -4z m117 -53 c7 -10 -43 -25 -52 -16 -7 7 18 25 35 25 6 0
14 -4 17 -9z"/>
<path d="M2405 3420 c-3 -5 -1 -10 4 -10 6 0 11 5 11 10 0 6 -2 10 -4 10 -3 0
-8 -4 -11 -10z"/>
<path d="M2388 3393 c7 -3 16 -2 19 1 4 3 -2 6 -13 5 -11 0 -14 -3 -6 -6z"/>
<path d="M692 3372 c-32 -3 -33 -5 -30 -40 3 -36 5 -37 45 -40 37 -3 41 -1 36
17 -5 19 4 26 29 22 4 0 5 6 2 14 -9 22 19 18 34 -5 7 -11 8 -20 4 -20 -4 0
-17 -7 -28 -15 -18 -14 -18 -14 9 -13 15 1 28 7 28 13 1 5 3 24 5 41 l4 32
-53 -1 c-28 -1 -67 -3 -85 -5z m23 -30 c-3 -3 -11 0 -18 7 -9 10 -8 11 6 5 10
-3 15 -9 12 -12z m40 8 c3 -6 -1 -7 -9 -4 -18 7 -21 14 -7 14 6 0 13 -4 16
-10z"/>
<path d="M877 3372 c-26 -3 -28 -7 -25 -40 3 -36 4 -37 45 -40 34 -3 42 0 37
11 -3 8 0 18 5 22 6 3 8 12 4 18 -4 7 2 5 12 -3 17 -13 18 -13 13 1 -8 22 17
20 31 -3 6 -10 7 -18 3 -18 -4 0 -17 -7 -28 -15 -18 -15 -18 -16 6 -13 27 3
38 19 39 58 1 25 -1 26 -56 26 -32 0 -71 -2 -86 -4z m28 -30 c-3 -3 -11 0 -18
7 -9 10 -8 11 6 5 10 -3 15 -9 12 -12z"/>
<path d="M2400 3340 c20 -13 33 -13 25 0 -3 6 -14 10 -23 10 -15 0 -15 -2 -2
-10z"/>
<path d="M1100 3330 c0 -5 5 -10 10 -10 6 0 10 5 10 10 0 6 -4 10 -10 10 -5 0
-10 -4 -10 -10z"/>
<path d="M2445 3330 c4 -6 11 -8 16 -5 14 9 11 15 -7 15 -8 0 -12 -5 -9 -10z"/>
<path d="M2250 3285 c0 -16 6 -25 15 -25 8 0 15 5 15 10 0 18 30 11 31 -7 0
-11 3 -13 6 -5 6 14 33 16 33 2 0 -5 11 -12 25 -16 14 -4 24 -11 22 -18 -4
-13 -109 -16 -118 -4 -3 5 -13 6 -22 2 -15 -5 -17 -24 -17 -135 0 -104 3 -129
14 -129 8 0 17 7 20 16 5 13 9 14 21 4 8 -7 15 -8 15 -3 0 5 22 9 49 9 36 0
48 -3 44 -13 -6 -16 -23 -17 -23 -1 0 6 -3 9 -6 6 -3 -4 -1 -16 6 -27 14 -27
61 -28 80 -1 8 11 24 20 36 20 12 0 28 10 36 21 8 13 24 22 41 22 28 0 37 20
15 31 -10 5 -10 7 0 12 17 8 16 102 -2 120 -16 16 -40 19 -31 4 3 -5 1 -10 -4
-10 -6 0 -11 11 -11 25 0 18 5 25 20 25 11 0 20 7 20 15 0 8 5 15 10 15 6 0
10 14 10 30 0 28 -2 30 -37 30 -28 0 -34 -3 -23 -10 10 -6 11 -10 3 -10 -21 0
-15 -27 7 -33 25 -7 26 -27 1 -27 -21 0 -30 -34 -31 -120 -1 -77 -6 -110 -18
-122 -9 -9 -11 9 -10 75 1 48 6 87 10 87 4 0 8 20 8 45 0 33 -4 45 -15 45 -8
0 -15 -9 -15 -19 0 -17 -3 -18 -30 -8 -38 14 -40 56 -3 68 9 3 9 9 3 19 -9 13
-11 13 -20 0 -7 -11 -12 -12 -18 -3 -4 7 -37 12 -85 12 -75 0 -77 0 -77 -24z
m195 -315 c3 -5 1 -10 -4 -10 -6 0 -11 5 -11 10 0 6 2 10 4 10 3 0 8 -4 11
-10z"/>
<path d="M2472 3293 c5 -26 38 -29 38 -4 0 15 -6 21 -21 21 -14 0 -19 -5 -17
-17z"/>
<path d="M68 3068 c-7 -17 1 -38 14 -38 7 0 7 4 -1 13 -8 10 -7 17 1 25 8 8 9
12 1 12 -6 0 -13 -6 -15 -12z"/>
<path d="M130 3061 c0 -11 -6 -22 -12 -24 -8 -3 -6 -6 5 -6 12 -1 17 7 17 24
0 14 -2 25 -5 25 -3 0 -5 -9 -5 -19z"/>
<path d="M257 3067 c-3 -8 1 -14 8 -14 7 0 11 6 8 14 -3 7 -6 13 -8 13 -2 0
-5 -6 -8 -13z"/>
<path d="M323 3048 c0 -20 5 -28 18 -28 13 0 17 8 17 28 -1 39 -35 39 -35 0z"/>
<path d="M410 3063 c0 -14 -2 -15 -9 -5 -7 11 -9 10 -14 -3 -4 -9 -3 -13 2
-10 5 3 12 1 16 -5 11 -18 25 -10 25 15 0 14 -4 25 -10 25 -5 0 -10 -8 -10
-17z"/>
<path d="M451 3064 c0 -11 3 -14 6 -6 3 7 2 16 -1 19 -3 4 -6 -2 -5 -13z"/>
<path d="M531 3068 c-1 -10 4 -18 10 -18 5 0 7 -4 4 -10 -3 -5 -2 -10 3 -10 6
0 12 7 16 15 3 9 0 15 -8 15 -8 0 -17 6 -19 13 -3 7 -6 5 -6 -5z"/>
<path d="M602 3048 c-1 -24 2 -28 9 -18 8 13 10 13 19 0 5 -8 10 -10 10 -4 0
6 -8 21 -18 32 l-19 22 -1 -32z"/>
<path d="M663 3066 c0 -7 7 -13 16 -11 9 1 19 -3 23 -9 5 -6 8 -1 8 13 0 20
-2 21 -15 11 -10 -9 -15 -9 -15 -1 0 6 -4 11 -8 11 -5 0 -9 -6 -9 -14z"/>
<path d="M200 3039 c0 -5 -4 -7 -10 -4 -5 3 -10 1 -10 -5 0 -15 32 -9 38 8 2
6 -1 12 -7 12 -6 0 -11 -5 -11 -11z"/>
<path d="M1636 3022 c-3 -5 -9 -27 -15 -50 -9 -42 -9 -42 21 -42 19 0 28 4 26
13 -3 6 -11 12 -19 12 -7 0 -15 8 -17 18 -2 9 2 17 8 17 6 0 8 -5 4 -12 -5 -9
-2 -9 9 1 21 16 22 51 3 51 -8 0 -17 -4 -20 -8z"/>
<path d="M2575 2990 c3 -5 10 -10 16 -10 5 0 9 5 9 10 0 6 -7 10 -16 10 -8 0
-12 -4 -9 -10z"/>
<path d="M2021 2884 c-12 -27 -6 -49 10 -39 5 4 9 15 9 26 0 27 15 24 28 -7 7
-14 16 -23 21 -19 14 8 -21 65 -40 65 -9 0 -21 -12 -28 -26z"/>
<path d="M2357 2903 c-4 -3 -7 -19 -7 -35 l0 -28 -82 0 -83 0 0 -85 0 -85 223
0 c122 0 222 2 222 6 0 3 -11 22 -25 42 -14 20 -25 45 -25 55 0 10 -7 20 -15
23 -8 4 -15 12 -15 20 0 10 16 14 62 14 34 0 59 2 56 5 -3 3 -60 5 -127 6
-105 0 -122 2 -117 15 13 35 -41 73 -67 47z m51 -36 c3 -23 0 -27 -20 -27 -18
0 -20 2 -8 10 10 6 11 10 3 10 -7 0 -13 9 -13 21 0 32 34 20 38 -14z m-9 -43
c8 -7 -10 -35 -19 -29 -6 4 -31 -5 -56 -19 -28 -16 -62 -26 -85 -26 -39 0 -39
0 -39 40 l0 39 78 3 c71 3 111 1 121 -8z m101 -69 c-7 -9 -10 -25 -5 -42 6
-27 6 -27 -24 7 -16 19 -28 37 -25 40 3 2 9 -2 14 -10 8 -13 12 -13 27 3 21
21 30 23 13 2z"/>
<path d="M1652 2865 c-10 -21 -19 -24 -74 -28 -48 -2 -40 -4 35 -5 l97 -2 0
-34 c0 -18 -6 -39 -14 -45 -11 -9 -19 -5 -40 21 l-26 33 0 -26 c0 -16 -9 -33
-22 -43 -16 -12 -19 -18 -10 -22 20 -9 14 -22 -15 -32 -21 -8 3 -11 104 -11
127 -1 131 0 126 19 -3 11 -18 29 -33 40 -21 15 -29 30 -32 60 l-4 40 64 0 64
0 -4 -80 c-2 -44 0 -80 4 -80 3 0 8 38 10 85 l3 84 -85 3 c-77 3 -86 5 -95 26
-13 29 -39 28 -53 -3z m38 -17 c0 -5 -6 -8 -14 -8 -9 0 -12 7 -9 21 4 16 8 17
14 7 5 -7 9 -16 9 -20z"/>
<path d="M1473 2833 c9 -2 23 -2 30 0 6 3 -1 5 -18 5 -16 0 -22 -2 -12 -5z"/>
<path d="M93 2783 c54 -2 139 -2 190 0 51 1 7 3 -98 3 -104 0 -146 -2 -92 -3z"/>
<path d="M418 2783 c18 -2 45 -2 60 0 15 2 0 4 -33 4 -33 0 -45 -2 -27 -4z"/>
<path d="M648 2783 c18 -2 45 -2 60 0 15 2 0 4 -33 4 -33 0 -45 -2 -27 -4z"/>
<path d="M878 2783 c18 -2 45 -2 60 0 15 2 0 4 -33 4 -33 0 -45 -2 -27 -4z"/>
<path d="M1078 2783 c7 -3 16 -2 19 1 4 3 -2 6 -13 5 -11 0 -14 -3 -6 -6z"/>
<path d="M0 2710 c0 -6 65 -10 175 -10 l175 0 0 -95 0 -95 -26 0 c-24 0 -26 3
-20 33 18 99 18 102 -2 120 -12 11 -22 14 -26 8 -4 -6 -14 -7 -22 -4 -22 8
-64 -40 -64 -72 0 -15 5 -25 13 -24 25 3 47 -1 47 -10 0 -5 -8 -7 -19 -4 -14
3 -20 -2 -25 -22 l-7 -26 -99 3 c-55 2 -100 0 -100 -4 0 -5 286 -8 635 -8
l635 0 0 110 0 110 -635 0 c-417 0 -635 -3 -635 -10z m400 -50 c0 -11 -4 -20
-9 -20 -5 0 -7 9 -4 20 3 11 7 20 9 20 2 0 4 -9 4 -20z m167 4 c-3 -3 -12 -4
-19 -1 -8 3 -5 6 6 6 11 1 17 -2 13 -5z m-167 -59 c0 -8 -4 -15 -10 -15 -5 0
-10 7 -10 15 0 8 5 15 10 15 6 0 10 -7 10 -15z"/>
<path d="M1655 2601 c-3 -5 -1 -12 5 -16 5 -3 10 1 10 9 0 18 -6 21 -15 7z"/>
<path d="M3181 2574 c0 -11 3 -14 6 -6 3 7 2 16 -1 19 -3 4 -6 -2 -5 -13z"/>
<path d="M3231 2574 c0 -11 3 -14 6 -6 3 7 2 16 -1 19 -3 4 -6 -2 -5 -13z"/>
<path d="M3256 2575 c4 -8 10 -15 15 -15 5 0 9 7 9 15 0 8 -7 15 -15 15 -9 0
-12 -6 -9 -15z"/>
<path d="M3355 2580 c4 -6 12 -7 18 -3 7 4 6 0 -2 -10 -12 -15 -11 -17 3 -17
9 0 16 8 16 20 0 14 -7 20 -21 20 -11 0 -17 -5 -14 -10z"/>
<path d="M3431 2574 c0 -11 3 -14 6 -6 3 7 2 16 -1 19 -3 4 -6 -2 -5 -13z"/>
<path d="M3868 2568 c3 -15 6 -15 18 -3 18 18 18 21 -5 21 -12 0 -17 -6 -13
-18z"/>
<path d="M3916 2573 c-6 -14 -5 -15 5 -6 7 7 10 15 7 18 -3 3 -9 -2 -12 -12z"/>
<path d="M1698 2553 c12 -2 30 -2 40 0 9 3 -1 5 -23 4 -22 0 -30 -2 -17 -4z"/>
<path d="M690 1275 l0 -1105 620 0 620 0 0 1105 0 1105 -261 0 -262 0 7 -40
c6 -37 5 -40 -18 -40 -19 0 -25 6 -29 33 -2 18 0 35 7 39 6 4 -145 8 -336 8
l-348 0 0 -1105z m70 1080 c18 -21 5 -45 -25 -45 -40 0 -34 54 6 59 4 1 12 -6
19 -14z m178 -17 c-2 -17 -10 -34 -18 -36 -13 -5 -13 -3 -1 11 12 15 11 17 -9
17 -16 0 -20 -4 -16 -16 4 -10 1 -14 -6 -12 -10 4 -14 36 -9 63 1 3 15 5 32 5
28 0 30 -2 27 -32z m82 2 c0 -27 -3 -30 -30 -30 -27 0 -30 3 -30 30 0 27 3 30
30 30 27 0 30 -3 30 -30z m80 -5 c0 -28 -4 -32 -24 -32 -17 0 -25 6 -28 21 -7
33 0 44 27 44 21 0 25 -5 25 -33z m118 15 c-7 -10 -14 -18 -15 -16 -6 6 9 36
18 36 5 0 4 -9 -3 -20z m132 -15 c0 -34 -1 -35 -40 -35 -22 0 -40 5 -40 11 0
5 4 8 9 4 5 -3 13 0 17 6 3 6 0 15 -7 20 -12 7 -11 9 1 10 10 0 8 3 -5 9 -15
7 -10 9 23 9 42 1 42 1 42 -34z m146 27 c6 -4 13 -17 17 -30 8 -33 -19 -39
-49 -11 -23 22 -24 24 -8 36 20 15 25 15 40 5z m154 -27 c0 -28 -4 -35 -20
-35 -15 0 -20 7 -20 28 0 32 7 42 27 42 8 0 13 -12 13 -35z m-790 0 c0 -20 -5
-25 -24 -25 -31 0 -50 22 -34 38 7 7 22 12 35 12 18 0 23 -6 23 -25z m855 -2
c1 -15 -4 -23 -14 -23 -11 0 -17 10 -19 26 -1 19 2 25 15 22 9 -2 17 -13 18
-25z m55 9 c0 -23 -8 -32 -25 -26 -17 7 -7 44 11 44 8 0 14 -8 14 -18z m61 -4
c6 -13 8 -20 4 -16 -5 4 -15 2 -23 -5 -11 -8 -14 -8 -9 0 4 6 3 14 -3 18 -11
7 -4 25 10 25 5 0 15 -10 21 -22z m37 -3 c-3 -33 -16 -33 -14 0 0 14 4 25 8
25 4 0 7 -11 6 -25z m42 -7 c0 -5 -7 -8 -15 -8 -17 0 -18 2 -9 25 5 13 8 14
15 3 5 -7 9 -16 9 -20z m-1065 -168 c-3 -5 1 -10 10 -10 9 0 13 5 10 10 -4 6
19 9 62 9 55 -2 61 -3 30 -8 l-39 -6 29 -21 c27 -21 96 -133 72 -118 -9 5 -10
2 -6 -10 4 -10 7 -26 7 -37 0 -10 5 -19 10 -19 6 0 10 11 10 25 0 14 8 35 18
46 19 19 19 19 30 -6 6 -14 17 -25 23 -25 8 0 8 -4 2 -12 -6 -7 -13 -22 -17
-33 -6 -15 -4 -17 5 -8 18 18 36 5 33 -23 -3 -33 -14 -44 -14 -16 0 25 -10 28
-28 10 -9 -9 -12 -8 -12 5 0 21 -14 22 -33 2 -10 -9 -17 -11 -19 -4 -2 6 -14
5 -33 -5 -29 -15 -30 -15 -33 5 -2 11 3 31 12 44 14 21 14 24 -1 29 -11 5 -14
14 -9 36 5 25 1 33 -22 47 -15 9 -50 31 -77 50 -28 18 -56 33 -63 33 -6 0 -12
5 -12 10 0 6 14 10 31 10 17 0 28 -4 24 -10z m293 -2 c-7 -20 -48 -23 -48 -4
0 11 9 16 26 16 16 0 24 -5 22 -12z m188 -4 c-18 -18 -21 -34 -6 -34 6 0 10
-4 10 -10 0 -5 -9 -10 -21 -10 -11 0 -17 -4 -14 -10 3 -5 17 -10 31 -10 33 0
30 -17 -6 -38 -22 -12 -28 -22 -24 -36 4 -10 0 -22 -7 -27 -9 -5 7 -9 43 -9
81 0 93 -7 61 -34 -21 -18 -24 -26 -15 -42 7 -14 6 -28 -4 -53 -8 -18 -11 -38
-7 -44 3 -5 1 -7 -4 -4 -16 10 -76 -88 -69 -111 5 -14 -1 -22 -21 -32 -17 -7
-23 -14 -15 -17 20 -7 62 25 56 42 -4 10 0 15 15 15 15 0 27 -11 38 -35 16
-34 16 -36 -5 -63 -13 -15 -25 -35 -29 -45 -3 -9 -10 -17 -17 -16 -28 3 -45
-2 -41 -13 3 -8 27 -14 56 -16 59 -3 89 10 44 19 l-30 6 38 7 c31 7 43 4 71
-15 36 -25 37 -37 5 -57 -22 -14 -83 -7 -73 9 3 5 1 9 -5 9 -19 0 -4 -58 42
-153 26 -54 47 -111 47 -126 0 -25 -6 -31 -60 -50 -33 -12 -60 -26 -60 -32 0
-5 5 -9 10 -9 6 0 10 -9 10 -20 0 -11 5 -20 10 -20 6 0 10 -7 10 -15 0 -26 17
-16 23 14 8 39 43 48 52 14 3 -14 4 -121 1 -237 -4 -165 -3 -202 6 -168 9 37
28 59 28 33 0 -5 5 -22 11 -38 8 -22 12 -24 19 -13 8 13 10 12 10 -3 0 -19 25
-18 110 4 19 5 51 9 71 9 27 0 38 5 41 18 6 25 -11 102 -23 102 -6 0 -7 5 -3
11 3 6 1 29 -6 50 -11 32 -15 36 -24 23 -6 -8 -27 -16 -46 -17 -19 -1 -40 -6
-47 -10 -6 -4 -14 -3 -18 3 -4 6 -10 8 -15 5 -14 -9 -19 23 -5 35 11 9 15 7
21 -15 6 -25 18 -26 20 -2 0 7 2 21 3 32 1 18 2 19 12 2 13 -22 29 -22 29 0 0
15 1 15 13 -2 10 -13 16 -15 21 -6 4 6 12 8 18 5 7 -4 8 11 3 47 -9 64 -14 74
-28 60 -7 -7 -14 -5 -23 7 -12 16 -13 16 -15 -3 -1 -11 -1 -23 0 -27 2 -15
-14 -8 -25 10 -14 24 -12 54 5 60 8 3 11 0 7 -7 -9 -14 5 -14 38 -1 18 6 26 6
26 -1 0 -6 5 -7 10 -4 6 3 8 19 5 36 -5 28 7 40 20 19 3 -5 26 -10 51 -10 l44
0 0 -330 0 -329 -32 -6 c-18 -3 -251 -4 -518 -3 l-485 3 -3 255 c-2 174 1 274
9 314 10 46 10 61 1 64 -9 3 -12 133 -12 523 0 437 2 518 14 513 7 -3 17 -24
22 -47 8 -42 8 -42 12 -9 2 17 5 32 8 32 2 0 22 -11 43 -25 39 -24 39 -25 46
-102 3 -43 10 -86 15 -95 12 -22 1 -108 -14 -108 -6 0 -16 -17 -23 -37 -12
-40 -8 -57 8 -33 14 20 1 -48 -14 -75 -6 -11 -10 -26 -9 -33 2 -7 -4 -19 -12
-28 -11 -10 -15 -34 -15 -78 0 -34 -4 -81 -10 -103 -11 -40 -9 -128 2 -140 4
-3 15 0 24 8 17 13 17 12 0 -8 -11 -12 -14 -24 -9 -27 6 -3 12 0 15 6 3 7 4 3
4 -9 -1 -17 -4 -20 -15 -11 -9 8 -16 8 -24 0 -8 -8 -9 -12 -1 -12 6 0 13 -7
16 -14 4 -11 1 -13 -10 -9 -13 5 -14 0 -8 -35 6 -38 5 -42 -15 -42 -19 0 -21
-4 -18 -57 l3 -58 45 0 c38 0 45 3 42 19 -2 11 1 15 8 11 7 -4 14 2 17 14 5
20 6 20 25 -4 16 -20 22 -23 38 -13 14 9 22 9 35 -2 15 -13 19 -12 35 8 l18
22 7 -28 7 -27 20 25 21 25 -6 -25 c-4 -14 -7 -41 -7 -61 0 -25 -4 -36 -15
-36 -8 0 -15 5 -15 10 0 5 -11 7 -25 5 -14 -3 -29 0 -32 6 -4 6 -10 1 -14 -14
-7 -24 -7 -24 -8 -2 -1 32 -18 27 -25 -9 -10 -52 11 -67 34 -24 7 14 18 25 23
25 6 0 6 -5 -1 -12 -5 -7 -6 -22 -2 -33 6 -18 7 -18 17 -1 6 11 9 28 7 40 -4
21 0 14 19 -34 l9 -25 14 30 13 30 1 -38 c0 -39 -20 -117 -31 -117 -3 0 -4 11
-2 24 6 30 -14 44 -31 21 -12 -17 -13 -16 -20 6 l-6 24 -20 -25 -20 -25 0 23
c0 13 -6 22 -15 22 -16 0 -17 -2 -20 -42 -2 -23 2 -28 21 -28 13 0 24 5 24 10
0 6 4 10 10 10 5 0 7 -8 4 -18 -5 -14 -3 -14 10 2 15 18 16 19 16 2 0 -15 7
-17 40 -14 26 2 40 -1 40 -8 0 -7 -6 -14 -12 -16 -7 -3 -13 -22 -13 -46 0 -26
-5 -44 -14 -47 -18 -7 -43 14 -34 29 4 6 8 26 8 43 1 31 -1 33 -35 34 -116 5
-115 5 -117 -16 -1 -17 -1 -17 3 -2 6 18 39 20 39 2 0 -6 4 -15 8 -22 4 -6 1
-13 -5 -16 -9 -3 -7 -10 7 -21 11 -8 15 -16 9 -16 -5 0 -15 5 -20 10 -11 11
-44 3 -44 -10 0 -7 31 -12 158 -26 57 -6 62 -5 62 12 0 11 7 29 15 42 9 12 18
43 20 69 6 63 15 271 15 352 l0 64 40 -6 c22 -3 43 -1 46 4 3 5 -8 9 -24 9
-16 0 -43 5 -61 11 -30 11 -31 12 -31 72 0 67 53 235 90 288 24 33 25 43 4 31
-23 -13 -62 -3 -69 19 -3 10 1 29 9 42 9 13 21 57 26 98 6 41 17 101 24 134
12 57 12 60 -7 68 -11 4 -22 5 -25 2 -3 -3 0 -5 6 -5 7 0 12 -4 12 -10 0 -15
-21 -12 -42 7 -22 19 -25 41 -3 23 19 -16 19 -1 0 24 -22 29 -18 46 10 46 40
0 56 74 25 115 -5 6 -15 27 -23 48 l-16 37 85 0 c78 0 84 -1 70 -16z m75 7
c-8 -5 -20 -7 -28 -4 -21 8 -15 13 15 13 20 0 23 -3 13 -9z m111 -21 c-2 -17
-12 -32 -23 -35 -27 -9 -39 2 -39 36 0 26 3 29 33 29 31 0 33 -2 29 -30z m311
-127 c11 -252 9 -775 -3 -768 -5 3 -10 15 -10 26 0 10 -5 19 -11 19 -6 0 -9
-7 -5 -15 3 -8 2 -15 -3 -15 -5 0 -12 12 -16 28 -8 34 -8 37 8 37 14 0 14 -2
4 93 -7 57 -12 72 -25 73 -11 0 -12 3 -4 6 14 6 16 49 2 58 -5 3 -10 16 -10
28 0 32 -23 91 -42 110 -9 9 -20 31 -23 49 -8 35 -32 84 -52 106 -7 7 -13 20
-13 29 0 9 -6 13 -15 9 -10 -3 -15 1 -15 12 0 23 -40 49 -50 32 -5 -9 -9 -9
-14 -1 -12 18 -36 13 -29 -6 6 -15 5 -16 -9 -3 -9 8 -14 18 -12 21 2 4 -4 6
-13 5 -9 0 -18 5 -20 12 -3 7 1 10 11 6 9 -3 16 -1 16 5 0 6 -12 14 -26 17
-27 7 -23 18 17 38 12 6 33 32 47 58 21 39 29 47 48 42 12 -3 27 0 35 9 12 12
17 12 36 0 21 -14 23 -14 23 3 1 18 1 18 11 2 12 -22 29 -23 29 -3 0 8 6 12
14 9 8 -3 17 -1 21 5 4 8 -17 11 -64 11 -39 0 -71 -4 -71 -8 0 -5 -13 -7 -30
-4 -16 2 -30 8 -30 13 0 5 65 9 143 9 l144 0 6 -157z m-826 -145 c-3 -8 -6 -5
-6 6 -1 11 2 17 5 13 3 -3 4 -12 1 -19z m26 7 c-3 -9 -8 -14 -10 -11 -3 3 -2
9 2 15 9 16 15 13 8 -4z m31 0 c-4 -8 -1 -15 5 -15 6 0 11 5 11 12 0 6 2 9 5
6 11 -10 -7 -37 -21 -31 -16 6 -20 43 -4 43 5 0 7 -7 4 -15z m-84 -15 c0 -5
-2 -10 -4 -10 -3 0 -8 5 -11 10 -3 6 -1 10 4 10 6 0 11 -4 11 -10z m219 -105
c-16 -18 -16 -21 -2 -34 15 -13 14 -16 -5 -29 -18 -12 -20 -18 -11 -34 9 -16
6 -25 -12 -44 -21 -22 -46 -34 -36 -16 3 4 1 16 -3 27 -5 13 -2 26 9 38 15 18
14 20 -8 38 -25 20 -26 19 27 35 10 3 10 9 2 25 -9 16 -8 24 4 38 9 10 16 28
17 42 0 18 4 13 18 -21 17 -43 17 -46 0 -65z m301 90 c0 -8 -2 -15 -4 -15 -2
0 -6 7 -10 15 -3 8 -1 15 4 15 6 0 10 -7 10 -15z m-280 1 c0 -3 -4 -8 -10 -11
-5 -3 -10 -1 -10 4 0 6 5 11 10 11 6 0 10 -2 10 -4z m-153 -56 c4 -50 10 -61
23 -40 6 8 10 10 10 5 0 -6 -14 -27 -30 -47 -21 -25 -26 -38 -18 -41 8 -3 6
-6 -4 -6 -11 -1 -18 -9 -18 -21 0 -13 -7 -20 -20 -20 -18 0 -19 3 -10 20 8 14
8 20 0 20 -7 0 -9 8 -5 20 4 12 2 20 -5 20 -8 0 -8 6 0 21 7 11 9 27 6 34 -2
7 2 16 11 19 9 4 13 13 9 22 -4 11 1 18 14 21 11 3 17 10 13 15 -3 6 0 9 7 6
8 -2 15 -23 17 -48z m547 -5 c-4 -8 -1 -15 7 -15 7 0 10 -2 7 -5 -3 -3 -13 -3
-22 1 -13 5 -14 9 -5 20 15 18 20 18 13 -1z m-84 -65 c0 -5 -2 -10 -4 -10 -3
0 -8 5 -11 10 -3 6 -1 10 4 10 6 0 11 -4 11 -10z m135 -31 c11 -16 1 -19 -13
-3 -7 8 -8 14 -3 14 5 0 13 -5 16 -11z m-97 -67 c8 8 16 5 31 -13 18 -21 20
-22 21 -5 0 15 3 16 15 6 8 -6 19 -9 25 -5 13 8 41 -25 33 -38 -3 -4 -11 -3
-19 4 -11 9 -14 8 -14 -7 -1 -18 -1 -18 -14 -1 -16 20 -30 23 -23 3 9 -22 -32
-7 -45 17 -10 20 -11 20 -24 3 -12 -17 -13 -17 -20 9 -5 20 -9 23 -15 13 -5
-7 -9 -8 -9 -2 0 5 6 16 12 22 10 10 15 10 24 -2 8 -11 14 -12 22 -4z m-551
-44 c-3 -8 -6 -5 -6 6 -1 11 2 17 5 13 3 -3 4 -12 1 -19z m54 -16 c-6 -2 -9
-8 -5 -13 8 -13 56 0 73 20 12 14 13 13 6 -9 -4 -14 -10 -41 -14 -60 -5 -29
-11 -35 -31 -35 -14 1 -28 -4 -32 -10 -5 -6 -8 -3 -8 8 0 9 -6 17 -14 17 -7 0
-16 9 -19 20 -7 28 -27 25 -27 -3 0 -14 -6 -24 -15 -24 -8 0 -15 5 -15 11 0 6
-5 4 -10 -4 -8 -12 -10 -10 -10 10 0 63 27 91 61 63 12 -10 19 -10 37 3 12 8
23 23 23 32 1 13 2 13 6 -3 3 -10 0 -21 -6 -23z m32 13 c-3 -9 -8 -14 -10 -11
-3 3 -2 9 2 15 9 16 15 13 8 -4z m64 -62 c-4 -17 -4 -17 -12 0 -4 9 -4 25 0
35 8 16 8 16 12 0 3 -10 3 -26 0 -35z m403 -38 c5 3 10 1 10 -4 0 -6 5 -11 11
-11 5 0 8 4 5 9 -4 5 3 7 14 4 22 -6 26 -18 10 -28 -5 -3 -10 -1 -10 5 0 8 -6
7 -21 -1 -15 -8 -19 -8 -15 0 9 14 0 14 -27 -1 -20 -10 -21 -10 -8 5 12 15 11
17 -5 18 -11 0 -14 3 -6 6 6 2 12 12 13 21 0 12 3 10 10 -6 5 -13 13 -20 19
-17z m-406 -16 c10 -19 11 -29 4 -27 -10 4 -32 58 -23 58 2 0 10 -14 19 -31z
m534 -2 c7 3 12 -3 12 -14 0 -10 -3 -14 -8 -8 -4 6 -14 10 -22 10 -8 0 -18 4
-22 10 -5 6 -8 6 -8 -2 0 -7 -3 -13 -7 -13 -5 0 -8 11 -8 24 0 23 0 23 25 6
14 -9 31 -15 38 -13z m-718 -29 c1 -30 2 -31 14 -15 16 21 26 22 26 2 0 -20
17 -19 29 3 9 15 11 15 20 -8 l10 -25 7 24 c7 23 8 23 22 5 13 -18 14 -17 9 9
-3 18 0 26 7 24 15 -5 19 -41 11 -86 -6 -33 -8 -35 -21 -17 -15 21 -16 21 -32
-9 -11 -19 -11 -19 -12 3 0 25 -18 30 -26 7 -6 -14 -8 -13 -21 2 -10 13 -16
15 -19 6 -8 -18 -24 -16 -24 2 0 21 -18 19 -23 -2 -3 -10 -5 -4 -6 14 0 17 3
43 8 57 7 17 7 26 -2 30 -7 2 -4 5 6 5 13 1 17 -7 17 -31z m580 -92 c0 -2 -7
-6 -15 -10 -8 -3 -15 -1 -15 4 0 6 7 10 15 10 8 0 15 -2 15 -4z m103 -64 c4
-5 1 -12 -5 -15 -10 -3 -10 -7 0 -20 7 -8 15 -29 17 -46 5 -41 -21 -42 -27 -1
-3 17 -1 30 4 30 5 0 6 5 3 10 -4 6 -10 8 -15 5 -4 -3 -6 17 -4 43 5 68 5 70
13 36 4 -17 11 -36 14 -42z m-683 18 c5 0 11 8 14 18 3 9 4 -2 2 -25 -3 -33
-1 -43 11 -43 10 0 12 -6 8 -20 -4 -13 -1 -22 8 -26 15 -6 12 -38 -5 -61 -5
-7 -7 -21 -3 -33 5 -14 2 -20 -10 -20 -12 0 -15 -6 -10 -20 5 -16 2 -20 -14
-20 -14 0 -21 6 -21 19 0 11 -4 22 -10 26 -5 3 -7 12 -3 20 3 8 1 15 -4 15 -5
0 -9 18 -8 40 0 22 4 40 8 40 5 0 5 9 2 20 -4 14 -2 20 8 20 12 0 14 10 11 43
-2 23 -1 34 2 25 3 -10 9 -18 14 -18z m37 8 c-3 -8 -6 -5 -6 6 -1 11 2 17 5
13 3 -3 4 -12 1 -19z m552 -9 c-6 -13 -8 -24 -3 -26 5 -2 16 -8 24 -13 13 -9
12 -13 -8 -28 -21 -16 -22 -20 -8 -31 9 -8 16 -19 16 -25 0 -6 -4 -5 -9 3 -5
8 -16 11 -24 8 -11 -4 -14 1 -13 19 0 13 6 24 13 24 18 0 27 21 13 30 -7 5
-20 6 -29 3 -14 -4 -14 -3 -1 6 8 5 12 13 8 16 -6 6 23 44 30 39 2 -1 -2 -13
-9 -25z m-519 5 c0 -8 -4 -12 -10 -9 -5 3 -10 10 -10 16 0 5 5 9 10 9 6 0 10
-7 10 -16z m17 -6 c-3 -8 -6 -5 -6 6 -1 11 2 17 5 13 3 -3 4 -12 1 -19z m42 5
c1 9 6 17 12 17 7 0 9 -9 6 -21 -3 -12 -1 -32 5 -45 8 -17 8 -27 -2 -39 -11
-13 -10 -19 6 -36 18 -20 18 -21 1 -34 -15 -11 -16 -17 -7 -34 8 -16 7 -28 -5
-50 -18 -35 -34 -48 -30 -24 1 10 -4 26 -13 36 -14 15 -13 19 3 37 10 11 16
22 14 23 -2 2 -15 11 -28 19 l-23 16 27 14 c23 13 25 16 11 27 -20 17 -20 35
-1 51 9 8 13 22 10 39 -5 22 -4 23 4 6 8 -17 10 -18 10 -2z m591 -58 c14 -19
14 -19 -2 -6 -10 7 -18 18 -18 24 0 6 1 8 3 6 1 -2 9 -13 17 -24z m-127 -89
c3 3 3 -4 0 -15 -5 -20 -6 -20 -19 -4 -17 23 -18 39 -1 24 8 -6 16 -8 20 -5z
m94 -18 c-3 -8 -6 -5 -6 6 -1 11 2 17 5 13 3 -3 4 -12 1 -19z m-58 -121 c-7
-12 -13 -23 -14 -25 -1 -1 -10 8 -21 20 -10 13 -15 20 -10 16 5 -4 15 0 23 8
21 20 36 8 22 -19z m-622 -9 c-3 -7 -5 -2 -5 12 0 14 2 19 5 13 2 -7 2 -19 0
-25z m80 0 c-3 -8 -6 -5 -6 6 -1 11 2 17 5 13 3 -3 4 -12 1 -19z m650 -214
c-3 -3 -12 -4 -19 -1 -8 3 -5 6 6 6 11 1 17 -2 13 -5z m-50 -10 c-3 -3 -12 -4
-19 -1 -8 3 -5 6 6 6 11 1 17 -2 13 -5z m-51 -47 c1 -12 5 -30 9 -39 4 -11 3
-18 -3 -18 -6 0 -14 9 -17 20 -4 11 -11 18 -16 15 -5 -4 -9 -2 -9 4 0 5 -3 18
-6 28 -5 17 -5 17 9 0 19 -23 34 -3 16 21 -11 15 -11 15 1 4 8 -7 15 -23 16
-35z m-23 -51 c4 -10 1 -13 -9 -9 -7 3 -14 9 -14 14 0 14 17 10 23 -5z m-505
-311 c4 -4 1 -10 -7 -13 -11 -4 -11 -6 0 -13 11 -7 10 -9 -3 -9 -10 0 -19 8
-19 18 -1 16 -2 16 -6 0 -5 -20 -12 -22 -32 -9 -24 15 -6 37 29 35 17 -1 34
-5 38 -9z m492 -11 c0 -15 -5 -21 -17 -20 -16 3 -19 9 -14 34 3 20 31 7 31
-14z m40 -5 c0 -10 -6 -19 -14 -19 -8 0 -13 8 -11 18 2 9 4 21 4 25 2 17 21
-5 21 -24z"/>
<path d="M895 2350 c-3 -5 3 -10 15 -10 12 0 18 5 15 10 -3 6 -10 10 -15 10
-5 0 -12 -4 -15 -10z"/>
<path d="M1324 2335 c1 -33 16 -33 16 0 0 14 -4 25 -9 25 -5 0 -8 -11 -7 -25z"/>
<path d="M825 2341 c-3 -5 -1 -12 5 -16 5 -3 10 1 10 9 0 18 -6 21 -15 7z"/>
<path d="M1240 2145 c-14 -17 -5 -35 17 -35 12 0 13 3 3 15 -6 8 -9 19 -5 25
9 15 -1 12 -15 -5z"/>
<path d="M1323 1638 c-18 -24 -24 -38 -16 -38 11 1 46 50 35 50 -5 0 -14 -6
-19 -12z"/>
<path d="M1343 1608 c-26 -30 -36 -48 -26 -48 4 0 18 16 31 35 26 40 24 45 -5
13z"/>
<path d="M1300 1470 c6 -11 15 -20 21 -20 6 0 6 7 -1 20 -6 11 -15 20 -21 20
-6 0 -6 -7 1 -20z"/>
<path d="M820 1244 c-20 -37 -19 -136 2 -157 13 -13 17 -14 21 -3 3 8 3 17 -1
21 -4 3 -5 42 -4 86 1 43 1 79 -1 79 -2 0 -10 -12 -17 -26z"/>
<path d="M1295 1110 c4 -6 11 -8 16 -5 14 9 11 15 -7 15 -8 0 -12 -5 -9 -10z"/>
<path d="M1315 960 c2 -36 7 -136 11 -223 3 -86 9 -159 13 -161 4 -3 12 -1 19
3 9 6 10 29 2 102 -6 52 -14 137 -17 189 -3 52 -12 108 -20 125 -13 28 -13 26
-8 -35z"/>
<path d="M920 930 c0 -5 5 -10 11 -10 5 0 7 5 4 10 -3 6 -8 10 -11 10 -2 0 -4
-4 -4 -10z"/>
<path d="M970 925 c-10 -13 -9 -15 9 -15 11 0 21 4 21 9 0 18 -18 21 -30 6z"/>
<path d="M1030 920 c0 -5 7 -10 16 -10 8 0 12 5 9 10 -3 6 -10 10 -16 10 -5 0
-9 -4 -9 -10z"/>
<path d="M1096 921 c-4 -7 -5 -15 -2 -18 9 -9 19 4 14 18 -4 11 -6 11 -12 0z"/>
<path d="M938 892 c-16 -3 -34 -49 -23 -60 3 -3 8 4 12 16 5 20 25 33 22 15
-3 -20 2 -43 9 -43 11 0 32 45 32 67 0 12 -3 13 -14 4 -8 -7 -16 -8 -18 -4 -1
5 -10 7 -20 5z"/>
<path d="M1650 875 c-8 -9 -8 -15 -2 -15 12 0 26 19 19 26 -2 2 -10 -2 -17
-11z"/>
<path d="M924 768 c-4 -14 -2 -24 6 -26 9 -3 9 -6 0 -12 -8 -5 -7 -9 4 -13 13
-5 16 1 16 28 0 40 -16 54 -26 23z"/>
<path d="M1081 664 c0 -11 3 -14 6 -6 3 7 2 16 -1 19 -3 4 -6 -2 -5 -13z"/>
<path d="M930 650 c0 -5 5 -10 10 -10 6 0 10 5 10 10 0 6 -4 10 -10 10 -5 0
-10 -4 -10 -10z"/>
<path d="M1075 610 c-3 -5 -1 -10 4 -10 6 0 11 5 11 10 0 6 -2 10 -4 10 -3 0
-8 -4 -11 -10z"/>
<path d="M1403 481 c0 -11 5 -18 9 -15 4 3 5 11 1 19 -7 21 -12 19 -10 -4z"/>
<path d="M1567 486 c-22 -22 -22 -21 13 -21 18 0 30 5 30 13 0 7 -4 11 -9 8
-5 -4 -11 -1 -13 5 -3 8 -10 6 -21 -5z"/>
<path d="M1025 479 c-4 -6 -5 -12 -2 -15 2 -3 7 2 10 11 7 17 1 20 -8 4z"/>
<path d="M1163 475 c0 -8 4 -15 9 -15 4 0 8 4 8 9 0 6 -4 12 -8 15 -5 3 -9 -1
-9 -9z"/>
<path d="M1213 475 c0 -8 4 -15 9 -15 4 0 8 4 8 9 0 6 -4 12 -8 15 -5 3 -9 -1
-9 -9z"/>
<path d="M1267 476 c27 -15 43 -16 43 -2 0 7 -13 13 -31 13 -26 0 -28 -2 -12
-11z"/>
<path d="M1330 481 c0 -5 9 -11 20 -14 13 -3 20 0 20 9 0 8 -9 14 -20 14 -11
0 -20 -4 -20 -9z"/>
<path d="M1430 475 c0 -8 4 -15 10 -15 5 0 7 7 4 15 -4 8 -8 15 -10 15 -2 0
-4 -7 -4 -15z"/>
<path d="M1467 477 c-4 -10 4 -13 28 -12 39 1 53 10 30 19 -9 3 -13 2 -10 -4
3 -6 -1 -10 -9 -10 -9 0 -16 5 -16 10 0 15 -17 12 -23 -3z"/>
<path d="M1460 2145 c0 -9 6 -12 15 -9 8 4 15 10 15 15 0 5 -7 9 -15 9 -8 0
-15 -7 -15 -15z"/>
<path d="M1790 2150 c0 -5 5 -10 10 -10 6 0 10 5 10 10 0 6 -4 10 -10 10 -5 0
-10 -4 -10 -10z"/>
<path d="M1160 1774 c0 -17 22 -14 28 4 2 7 -3 12 -12 12 -9 0 -16 -7 -16 -16z"/>
<path d="M1142 1723 c-18 -7 -4 -23 19 -23 12 0 19 5 17 12 -5 14 -18 18 -36
11z"/>
<path d="M1130 1646 c0 -9 7 -16 16 -16 17 0 14 22 -4 28 -7 2 -12 -3 -12 -12z"/>
<path d="M1040 1730 c0 -5 5 -10 11 -10 5 0 7 5 4 10 -3 6 -8 10 -11 10 -2 0
-4 -4 -4 -10z"/>
<path d="M950 1510 c0 -5 5 -10 11 -10 5 0 7 5 4 10 -3 6 -8 10 -11 10 -2 0
-4 -4 -4 -10z"/>
<path d="M1086 1505 c-3 -8 -1 -15 4 -15 13 0 22 18 11 24 -5 3 -11 -1 -15 -9z"/>
<path d="M1045 1500 c-3 -5 -1 -10 4 -10 6 0 11 5 11 10 0 6 -2 10 -4 10 -3 0
-8 -4 -11 -10z"/>
<path d="M960 1270 c0 -5 5 -10 10 -10 6 0 10 5 10 10 0 6 -4 10 -10 10 -5 0
-10 -4 -10 -10z"/>
<path d="M1080 1225 c0 -8 7 -15 15 -15 8 0 15 7 15 15 0 8 -7 15 -15 15 -8 0
-15 -7 -15 -15z"/>
<path d="M1075 1160 c-8 -12 20 -24 35 -15 6 3 8 11 5 16 -8 12 -32 12 -40 -1z"/>
<path d="M1080 1085 c0 -8 7 -15 15 -15 8 0 15 7 15 15 0 8 -7 15 -15 15 -8 0
-15 -7 -15 -15z"/>
<path d="M2150 2295 l0 -85 630 0 630 0 0 85 0 85 -630 0 -630 0 0 -85z m175
24 c0 -26 -5 -35 -20 -37 l-20 -4 20 16 c17 13 17 15 4 16 -21 0 -31 24 -16
39 19 19 32 6 32 -30z m90 31 c3 -5 1 -19 -6 -31 -9 -17 -8 -23 2 -30 10 -6 5
-9 -15 -9 -28 0 -28 0 -12 25 20 31 21 49 0 41 -8 -3 -12 -2 -9 4 8 13 32 13
40 0z m40 -3 c-17 -13 -17 -14 4 -20 23 -6 26 -14 12 -36 -14 -22 -41 -5 -41
27 0 32 7 42 29 42 12 0 11 -3 -4 -13z m865 -13 c11 -12 11 -18 -2 -30 -18
-18 -48 -8 -48 16 0 16 11 27 31 29 4 1 12 -6 19 -15z m-1130 -25 c0 8 2 12 5
9 3 -3 2 -13 -1 -22 -5 -14 -9 -15 -15 -4 -5 7 -9 18 -9 23 0 6 5 3 10 -5 8
-12 10 -12 10 -1z m53 -3 c6 -16 -2 -28 -14 -20 -12 7 -11 34 0 34 5 0 11 -6
14 -14z"/>
<path d="M2300 2336 c0 -9 5 -16 10 -16 6 0 10 4 10 9 0 6 -4 13 -10 16 -5 3
-10 -1 -10 -9z"/>
<path d="M2440 2311 c0 -6 5 -13 10 -16 6 -3 10 1 10 9 0 9 -4 16 -10 16 -5 0
-10 -4 -10 -9z"/>
<path d="M3290 2320 c0 -5 5 -10 10 -10 6 0 10 5 10 10 0 6 -4 10 -10 10 -5 0
-10 -4 -10 -10z"/>
<path d="M1380 2335 c0 -14 5 -25 10 -25 6 0 10 11 10 25 0 14 -4 25 -10 25
-5 0 -10 -11 -10 -25z"/>
<path d="M2162 2148 l3 -53 50 0 50 0 3 53 c2 40 0 52 -11 52 -12 0 -13 -7 -7
-35 8 -35 -10 -79 -23 -57 -4 5 -16 8 -27 5 -11 -3 -20 0 -20 6 0 6 6 11 13
11 8 0 8 3 -2 9 -8 5 -12 19 -9 35 4 18 1 26 -9 26 -11 0 -13 -13 -11 -52z"/>
<path d="M2205 2190 c4 -6 11 -8 16 -5 14 9 11 15 -7 15 -8 0 -12 -5 -9 -10z"/>
<path d="M2449 2188 c-8 -26 -5 -36 8 -31 11 4 12 8 3 13 -9 6 -9 9 1 13 10 4
10 6 2 6 -7 1 -13 0 -14 -1z"/>
<path d="M2586 2173 c-6 -14 -5 -15 5 -6 7 7 10 15 7 18 -3 3 -9 -2 -12 -12z"/>
<path d="M2462 2028 c3 -22 6 -23 148 -26 201 -5 390 6 390 23 0 16 -117 25
-353 25 l-188 0 3 -22z"/>
<path d="M2773 1993 l-623 -3 0 -960 0 -960 631 0 630 0 -3 965 c-2 531 -5
964 -8 963 -3 -2 -285 -4 -627 -5z m-337 -80 c3 -17 -1 -23 -16 -23 -15 0 -20
7 -20 26 0 32 31 30 36 -3z m44 8 c0 -4 -7 -8 -15 -8 -8 0 -15 6 -15 13 0 8 6
11 15 8 8 -4 15 -9 15 -13z m50 -7 c0 -8 -7 -14 -15 -14 -8 0 -15 9 -15 20 0
13 5 18 15 14 8 -4 15 -12 15 -20z m50 9 c0 -7 -9 -13 -20 -13 -19 0 -26 11
-15 22 10 10 35 4 35 -9z m37 -5 c-3 -8 -6 -5 -6 6 -1 11 2 17 5 13 3 -3 4
-12 1 -19z m63 7 c4 3 6 -4 3 -15 -3 -11 -10 -20 -15 -20 -6 0 -8 7 -4 15 3 8
1 15 -5 15 -6 0 -7 5 -3 12 6 9 9 9 12 0 2 -7 7 -10 12 -7z m53 2 c4 3 7 -3 7
-15 0 -25 -25 -30 -34 -6 -10 27 -7 38 7 25 8 -6 17 -8 20 -4z m-96 -19 c-3
-8 -6 -5 -6 6 -1 11 2 17 5 13 3 -3 4 -12 1 -19z m-414 -30 c-3 -13 -3 -20 1
-16 10 8 66 -11 66 -23 0 -8 -49 -13 -67 -6 -11 3 -15 67 -4 67 5 0 7 -10 4
-22z m110 -206 c-2 -41 -8 -92 -14 -114 -11 -43 -5 -88 14 -100 8 -5 6 -8 -5
-8 -12 0 -15 -5 -11 -16 4 -11 9 -12 16 -5 18 18 24 13 29 -19 5 -34 -18 -70
-41 -62 -10 3 -12 -4 -6 -37 6 -37 5 -41 -14 -41 -12 0 -20 -3 -20 -7 3 -21
-2 -33 -14 -33 -11 0 -15 50 -20 244 -4 134 -4 251 -1 261 5 12 17 15 48 13
l41 -3 -2 -73z m257 56 c0 -9 4 -8 10 2 9 13 11 13 20 0 5 -8 10 -20 10 -27 0
-19 32 -33 52 -22 23 13 23 29 0 29 -10 0 -27 7 -38 15 -17 13 -12 14 54 15
41 0 72 -4 72 -10 0 -5 5 -10 11 -10 5 0 7 5 4 10 -4 6 18 10 58 10 58 0 68
-3 97 -30 32 -30 50 -32 50 -4 0 8 5 14 10 14 6 0 10 -7 10 -15 0 -24 19 -17
26 9 5 21 11 24 50 23 24 -1 44 -5 44 -9 0 -5 -7 -8 -15 -8 -8 0 -15 -6 -15
-14 0 -20 17 -29 23 -14 3 7 6 4 7 -7 l1 -20 9 20 9 20 0 -20 c1 -16 3 -17 10
-6 8 12 11 9 16 -12 5 -18 2 -31 -9 -42 -15 -15 -16 -15 -16 2 -1 17 -1 17
-14 0 -13 -17 -14 -17 -21 0 -6 14 -9 15 -12 4 -5 -11 -7 -11 -14 0 -8 12 -11
11 -19 -1 -8 -13 -10 -12 -10 3 0 9 -4 17 -10 17 -5 0 -10 -7 -10 -15 0 -8 -4
-15 -10 -15 -5 0 -10 7 -10 15 0 8 -4 15 -10 15 -5 0 -10 -7 -10 -15 0 -8 -5
-15 -10 -15 -6 0 -10 6 -9 13 3 23 -1 37 -11 37 -5 0 -10 -7 -10 -15 0 -8 -3
-14 -7 -13 -10 3 -85 -12 -95 -18 -12 -7 21 -55 61 -91 31 -27 32 -31 13 -26
-24 6 -24 5 8 -56 30 -60 30 -63 11 -68 -18 -4 -19 -11 -14 -78 l6 -74 -97 -3
c-53 -2 -127 -2 -164 0 l-69 4 13 53 c11 50 11 55 -7 60 -10 4 -26 2 -35 -3
-14 -8 -14 -10 1 -26 13 -13 15 -20 6 -29 -6 -6 -11 -19 -11 -28 0 -10 -8 -19
-17 -21 -13 -2 -22 7 -30 32 -10 29 -10 37 4 52 11 12 12 18 4 18 -7 0 -20 7
-28 16 -14 13 -14 17 -2 25 8 5 20 9 28 9 11 0 10 5 -4 20 -15 17 -16 24 -7
46 7 13 12 33 11 42 0 10 -3 12 -6 5 -10 -26 -22 -12 -20 22 1 18 -2 34 -8 34
-5 0 -9 -16 -8 -35 2 -31 0 -34 -21 -30 -29 5 -44 -29 -19 -43 10 -5 14 -15
10 -25 -4 -10 -1 -16 7 -16 9 0 13 -13 13 -40 0 -27 -4 -40 -13 -40 -8 0 -11
-6 -8 -15 3 -8 0 -17 -7 -20 -8 -3 -15 -17 -15 -31 -2 -18 2 -24 12 -20 8 3
14 1 14 -4 0 -6 -16 -10 -35 -10 -19 0 -35 4 -35 10 0 5 8 7 18 4 16 -5 15 -5
-1 6 -12 7 -16 18 -12 31 4 12 2 19 -7 19 -10 0 -14 17 -16 60 -2 35 2 60 7
60 6 0 8 7 4 16 -3 9 0 20 8 25 11 7 12 12 2 29 -16 25 -17 104 -2 133 7 11 8
22 3 24 -5 2 -8 23 -6 48 l4 45 94 0 c68 0 94 -3 94 -12z m710 -138 l0 -150
-24 12 c-14 6 -30 25 -36 42 -6 17 -16 39 -21 48 -14 28 -11 30 13 6 21 -21
23 -22 26 -4 2 10 1 47 -3 82 -5 45 -11 64 -21 64 -17 0 -17 5 -4 31 7 12 21
19 40 19 l30 0 0 -150z m-930 20 c0 -5 -4 -10 -10 -10 -5 0 -10 5 -10 10 0 6
5 10 10 10 6 0 10 -4 10 -10z m630 -20 c0 -5 -4 -10 -10 -10 -5 0 -10 5 -10
10 0 6 5 10 10 10 6 0 10 -4 10 -10z m37 -12 c-3 -8 -6 -5 -6 6 -1 11 2 17 5
13 3 -3 4 -12 1 -19z m33 6 c0 -8 -4 -12 -10 -9 -5 3 -10 10 -10 16 0 5 5 9
10 9 6 0 10 -7 10 -16z m73 7 c4 -1 7 -6 7 -12 0 -6 -9 -9 -19 -6 -15 4 -19 0
-19 -17 1 -11 6 -26 11 -33 5 -7 6 -17 2 -23 -3 -5 1 -10 10 -10 13 0 15 7 10
38 l-6 37 14 -30 c10 -20 11 -36 5 -48 -6 -12 -5 -23 3 -34 11 -13 10 -18 -7
-32 -15 -12 -20 -27 -20 -54 1 -20 -2 -37 -6 -37 -4 0 -8 9 -8 20 0 11 -4 20
-10 20 -5 0 -10 9 -10 19 0 11 -4 22 -10 26 -5 3 -7 12 -4 20 3 7 1 22 -5 33
-8 14 -8 21 0 24 12 4 15 53 5 86 -7 21 -5 22 21 18 15 -2 31 -5 36 -5z m37
-21 c0 -5 -2 -10 -4 -10 -3 0 -8 5 -11 10 -3 6 -1 10 4 10 6 0 11 -4 11 -10z
m-145 -57 c-3 -7 -8 -20 -11 -28 -4 -9 0 -15 9 -15 28 0 31 -22 6 -41 -13 -10
-19 -19 -13 -19 19 0 24 -26 11 -59 -14 -39 -21 -39 -37 0 -10 23 -11 36 -2
49 8 13 7 21 -6 35 -16 16 -16 17 4 7 21 -11 34 -7 34 10 0 4 -8 8 -17 8 -12
0 -18 8 -19 25 -1 15 3 25 12 25 15 0 19 12 7 23 -3 4 -12 2 -20 -4 -10 -9
-13 -8 -13 4 0 8 6 17 13 20 17 6 49 -24 42 -40z m265 -99 c0 -21 -17 -17 -23
5 -3 14 -1 18 9 14 8 -3 14 -11 14 -19z m-81 -104 c11 -5 33 -7 50 -4 31 6 31
6 31 -35 0 -24 -5 -44 -12 -46 -24 -9 -278 10 -277 20 1 6 10 9 21 7 10 -2 18
2 18 8 0 6 5 8 10 5 6 -4 17 -1 25 5 12 10 18 10 30 0 12 -10 15 -10 15 4 0 9
-5 16 -11 16 -5 0 -8 4 -5 9 4 5 0 12 -6 14 -7 3 -3 6 10 6 13 1 21 -3 18 -7
-7 -12 10 -35 28 -38 8 -1 15 1 15 4 -1 4 0 30 1 57 2 48 2 49 11 18 5 -18 18
-37 28 -43z m-49 -5 c0 -8 -4 -15 -8 -15 -5 0 -9 7 -9 15 0 8 4 15 9 15 4 0 8
-7 8 -15z m-818 -27 c-7 -7 -12 -8 -12 -2 0 6 3 14 7 17 3 4 9 5 12 2 2 -3 -1
-11 -7 -17z m718 12 c0 -5 -5 -10 -11 -10 -5 0 -7 5 -4 10 3 6 8 10 11 10 2 0
4 -4 4 -10z m-680 -50 c0 -5 -2 -10 -4 -10 -3 0 -8 5 -11 10 -3 6 -1 10 4 10
6 0 11 -4 11 -10z m136 -9 c-3 -5 -15 -7 -26 -4 -28 7 -25 13 6 13 14 0 23 -4
20 -9z m-46 -71 c0 -5 -7 -10 -16 -10 -8 0 -12 5 -9 10 3 6 10 10 16 10 5 0 9
-4 9 -10z m-37 -24 c5 -12 -2 -14 -31 -7 -2 1 0 6 3 11 9 14 22 12 28 -4z m37
-26 c0 -5 -4 -10 -10 -10 -5 0 -10 5 -10 10 0 6 5 10 10 10 6 0 10 -4 10 -10z
m-43 -138 c2 -17 -2 -22 -18 -22 -11 0 -18 4 -14 9 3 5 1 12 -5 16 -15 9 -3
24 17 21 9 -2 18 -12 20 -24z m42 1 c-1 -16 -3 -21 -6 -11 -3 10 -11 15 -21
12 -14 -5 -13 -3 2 10 26 21 26 21 25 -11z m43 7 c5 25 5 25 7 -2 1 -19 -4
-28 -14 -28 -10 0 -15 9 -14 28 l1 27 7 -25 8 -25 5 25z m118 -5 c0 -7 -7 -12
-15 -11 -20 3 -28 13 -21 25 9 13 36 3 36 -14z m27 5 c-1 -11 -5 -20 -9 -20
-10 0 -10 4 -2 24 8 22 13 20 11 -4z m116 6 c3 3 3 -3 0 -15 -6 -25 -18 -27
-27 -5 -10 27 -7 38 7 25 8 -6 16 -8 20 -5z m57 2 c0 -5 9 -7 20 -3 24 7 43
-2 34 -17 -4 -6 -10 -5 -15 3 -6 10 -9 10 -9 2 0 -7 -7 -10 -15 -7 -8 4 -15 1
-15 -5 0 -6 -7 -11 -15 -11 -9 0 -15 9 -15 23 0 14 6 24 15 24 8 0 15 -4 15
-9z m94 -22 c-6 -16 -8 -17 -16 -2 -11 19 0 42 13 29 6 -6 7 -18 3 -27z m-359
14 c3 -6 -1 -7 -9 -4 -18 7 -21 14 -7 14 6 0 13 -4 16 -10z m112 -12 c-3 -8
-6 -5 -6 6 -1 11 2 17 5 13 3 -3 4 -12 1 -19z m53 8 c0 -9 -7 -12 -20 -9 -11
3 -17 9 -14 14 8 14 34 10 34 -5z m245 4 c3 -6 -1 -7 -9 -4 -18 7 -21 14 -7
14 6 0 13 -4 16 -10z m-695 -32 c0 -4 -18 -8 -41 -8 -22 0 -38 4 -35 9 7 11
76 10 76 -1z m30 -34 c0 -9 -18 -12 -70 -11 -46 1 -70 6 -70 14 0 8 23 11 70
11 51 -1 70 -4 70 -14z m101 -163 c7 11 9 10 9 -3 0 -9 -4 -20 -10 -23 -5 -3
-10 -4 -10 -1 0 2 -2 10 -3 18 -2 7 -2 9 1 4 2 -4 8 -2 13 5z m59 -3 c0 -4 -7
-8 -15 -8 -8 0 -15 4 -15 8 0 5 7 9 15 9 8 0 15 -4 15 -9z m54 3 c3 -5 -1 -11
-9 -15 -9 -3 -15 0 -15 9 0 16 16 20 24 6z m47 0 c7 11 9 9 9 -7 0 -11 -6 -21
-13 -21 -7 0 -13 10 -14 21 -1 12 1 15 4 7 5 -11 7 -11 14 0z m53 1 c3 -5 -1
-9 -9 -9 -8 0 -12 4 -9 9 3 4 7 8 9 8 2 0 6 -4 9 -8z m-344 -62 l0 -40 -40 0
-40 0 0 40 0 40 40 0 40 0 0 -40z m6 -183 c44 -40 41 -63 -12 -103 l-34 -26
-35 26 c-41 32 -47 72 -14 102 17 16 22 16 31 4 8 -13 9 -12 5 2 -6 17 0 28
15 28 4 0 25 -15 44 -33z m179 14 c6 -1 4 -5 -4 -10 -8 -5 -21 -7 -29 -3 -10
3 -13 1 -8 -6 4 -7 2 -12 -3 -12 -6 0 -11 9 -11 20 0 15 5 19 23 16 12 -3 27
-5 32 -5z m45 -6 c0 -8 -4 -15 -10 -15 -5 0 -10 7 -10 15 0 8 5 15 10 15 6 0
10 -7 10 -15z m-62 -351 c26 -5 30 -39 6 -48 -25 -10 -74 -7 -74 4 0 6 18 10
40 10 22 0 40 5 40 11 0 6 -19 9 -50 8 -50 -3 -66 2 -56 19 5 8 43 7 94 -4z
m352 1 c46 -24 29 -45 -35 -45 -63 0 -80 21 -37 44 34 19 37 19 72 1z m348 -2
c-16 -2 -40 -2 -55 0 -16 2 -3 4 27 4 30 0 43 -2 28 -4z m0 -20 c-16 -2 -40
-2 -55 0 -16 2 -3 4 27 4 30 0 43 -2 28 -4z m0 -20 c-16 -2 -40 -2 -55 0 -16
2 -3 4 27 4 30 0 43 -2 28 -4z"/>
<path d="M2315 1380 c-3 -5 1 -10 10 -10 9 0 13 5 10 10 -3 6 -8 10 -10 10 -2
0 -7 -4 -10 -10z"/>
<path d="M2272 1340 c0 -19 2 -27 5 -17 2 9 2 25 0 35 -3 9 -5 1 -5 -18z"/>
<path d="M2450 1710 c0 -5 5 -10 10 -10 6 0 10 5 10 10 0 6 -4 10 -10 10 -5 0
-10 -4 -10 -10z"/>
<path d="M3050 1712 c0 -10 22 -32 32 -32 4 0 8 9 8 20 0 13 -7 20 -20 20 -11
0 -20 -4 -20 -8z"/>
<path d="M2453 1670 c-3 -11 -9 -20 -14 -20 -5 0 -9 -7 -9 -15 0 -28 17 -15
27 20 6 19 9 35 6 35 -3 0 -7 -9 -10 -20z"/>
<path d="M2614 1674 c3 -8 6 -18 6 -20 0 -2 7 -4 15 -4 18 0 9 26 -12 34 -11
5 -13 2 -9 -10z"/>
<path d="M2476 1652 c-4 -18 -5 -36 -1 -40 7 -8 35 26 35 42 0 6 -4 5 -9 -3
-7 -11 -10 -9 -13 10 -3 22 -5 21 -12 -9z"/>
<path d="M2584 1594 c0 -41 3 -74 8 -74 15 0 8 -28 -8 -34 -13 -5 -14 -9 -4
-22 20 -23 31 -3 37 65 3 34 10 64 14 67 17 10 9 34 -11 34 -11 0 -20 6 -20
14 0 8 -3 17 -7 19 -5 3 -8 -28 -9 -69z"/>
<path d="M2550 1643 c0 -4 5 -15 10 -23 8 -13 10 -13 10 2 0 9 -4 20 -10 23
-5 3 -10 3 -10 -2z"/>
<path d="M2520 1625 c0 -8 2 -15 4 -15 2 0 6 7 10 15 3 8 1 15 -4 15 -6 0 -10
-7 -10 -15z"/>
<path d="M2407 1550 c-3 -13 0 -20 9 -20 8 0 14 9 14 20 0 11 -4 20 -9 20 -5
0 -11 -9 -14 -20z"/>
<path d="M2447 1551 c-3 -12 -1 -24 4 -27 13 -8 24 25 12 37 -7 7 -12 3 -16
-10z"/>
<path d="M2542 1553 c-14 -26 -15 -36 -3 -29 5 4 11 1 13 -6 3 -8 6 -8 10 3 3
7 2 23 -2 34 -7 19 -7 19 -18 -2z"/>
<path d="M2540 1440 c0 -5 7 -10 15 -10 8 0 15 5 15 10 0 6 -7 10 -15 10 -8 0
-15 -4 -15 -10z"/>
<path d="M2585 1417 c-4 -10 -5 -21 -1 -24 10 -10 18 4 13 24 -4 17 -4 17 -12
0z"/>
<path d="M2540 1370 c0 -5 7 -10 15 -10 8 0 15 5 15 10 0 6 -7 10 -15 10 -8 0
-15 -4 -15 -10z"/>
<path d="M2542 1298 c6 -18 28 -21 28 -4 0 9 -7 16 -16 16 -9 0 -14 -5 -12
-12z"/>
<path d="M3007 1384 c-8 -8 1 -24 14 -24 5 0 9 7 9 15 0 15 -12 20 -23 9z"/>
<path d="M2248 713 c23 -5 29 -18 12 -28 -6 -4 -17 -1 -25 5 -9 7 -15 8 -15 2
0 -16 29 -35 46 -28 26 10 14 51 -16 53 -22 1 -22 1 -2 -4z"/>
<path d="M2196 475 c-9 -26 -7 -32 5 -12 6 10 9 21 6 23 -2 3 -7 -2 -11 -11z"/>
<path d="M2220 483 c0 -5 5 -15 10 -23 7 -12 9 -10 7 8 -1 19 -17 33 -17 15z"/>
<path d="M2224 424 c3 -9 6 -18 6 -20 0 -12 39 -2 44 12 8 21 8 24 -4 24 -5 0
-9 -3 -7 -7 2 -8 -6 -13 -24 -13 -5 0 -7 5 -4 10 3 6 1 10 -5 10 -7 0 -9 -7
-6 -16z"/>
<path d="M2290 429 c0 -5 5 -7 10 -4 6 3 10 8 10 11 0 2 -4 4 -10 4 -5 0 -10
-5 -10 -11z"/>
<path d="M2753 159 c-38 -14 -26 -29 22 -29 25 0 45 4 45 8 0 16 -44 30 -67
21z"/>
</g>
</svg>
