<?xml version="1.0" standalone="no"?>
<!DOCTYPE svg PUBLIC "-//W3C//DTD SVG 20010904//EN"
 "http://www.w3.org/TR/2001/REC-SVG-20010904/DTD/svg10.dtd">
<svg version="1.0" xmlns="http://www.w3.org/2000/svg"
 width="547.000000pt" height="447.000000pt" viewBox="0 0 547.000000 447.000000"
 preserveAspectRatio="xMidYMid meet">

<g transform="translate(0.000000,447.000000) scale(0.100000,-0.100000)"
fill="#000000" stroke="none">
<path d="M3181 4411 c-9 -6 -2 -9 24 -9 26 0 33 3 24 9 -8 5 -18 9 -24 9 -5 0
-16 -4 -24 -9z"/>
<path d="M2864 4395 c-9 -23 3 -45 23 -44 17 1 17 2 0 6 -14 4 -18 12 -14 29
5 27 -1 32 -9 9z"/>
<path d="M3988 4385 c2 -14 6 -25 8 -25 2 0 4 11 4 25 0 14 -4 25 -9 25 -4 0
-6 -11 -3 -25z"/>
<path d="M4053 4391 c-7 -10 -9 -22 -6 -25 11 -10 45 -7 38 4 -4 6 -11 8 -16
5 -5 -4 -9 -1 -9 4 0 6 5 11 10 11 6 0 10 5 10 10 0 16 -14 11 -27 -9z"/>
<path d="M4118 4403 c7 -3 16 -2 19 1 4 3 -2 6 -13 5 -11 0 -14 -3 -6 -6z"/>
<path d="M4180 4380 c0 -29 1 -29 20 -13 11 10 20 23 20 30 0 7 -9 13 -20 13
-16 0 -20 -7 -20 -30z m30 10 c0 -5 -4 -10 -10 -10 -5 0 -10 5 -10 10 0 6 5
10 10 10 6 0 10 -4 10 -10z"/>
<path d="M4240 4401 c0 -7 7 -19 15 -27 19 -20 19 -5 0 20 -9 11 -15 14 -15 7z"/>
<path d="M4280 4394 c0 -8 5 -12 10 -9 6 3 10 10 10 16 0 5 -4 9 -10 9 -5 0
-10 -7 -10 -16z"/>
<path d="M5242 4383 c3 -27 6 -28 67 -31 48 -2 68 1 82 14 31 28 2 44 -81 44
l-71 0 3 -27z"/>
<path d="M2940 4376 c0 -9 -4 -14 -10 -11 -5 3 -10 1 -10 -4 0 -6 5 -11 10
-11 13 0 25 28 16 37 -3 4 -6 -1 -6 -11z"/>
<path d="M3031 4374 c0 -11 3 -14 6 -6 3 7 2 16 -1 19 -3 4 -6 -2 -5 -13z"/>
<path d="M3193 4383 c9 -2 23 -2 30 0 6 3 -1 5 -18 5 -16 0 -22 -2 -12 -5z"/>
<path d="M4113 4383 c19 -5 23 -19 7 -26 -6 -3 -5 -4 2 -3 7 1 14 10 16 19 3
12 -3 17 -20 16 -17 -1 -18 -3 -5 -6z"/>
<path d="M5349 4173 c-13 -16 -12 -17 4 -4 9 7 17 15 17 17 0 8 -8 3 -21 -13z"/>
<path d="M4398 4163 c6 -2 18 -2 25 0 6 3 1 5 -13 5 -14 0 -19 -2 -12 -5z"/>
<path d="M3040 3880 c0 -5 5 -10 11 -10 7 0 0 -9 -14 -20 -29 -23 -40 -79 -20
-95 7 -5 15 -25 17 -43 4 -40 8 -44 30 -36 10 4 16 18 16 39 0 19 5 37 10 40
17 11 11 62 -12 99 -23 35 -38 45 -38 26z"/>
<path d="M2925 3530 c3 -6 12 -10 20 -10 7 0 16 -5 18 -10 3 -6 4 -5 3 1 -1 7
-12 16 -25 20 -14 6 -20 5 -16 -1z"/>
<path d="M3133 3525 c-3 -9 -3 -18 -1 -21 3 -3 8 4 11 16 6 23 -1 27 -10 5z"/>
<path d="M3370 3528 c0 -9 5 -20 10 -23 13 -8 13 5 0 25 -8 13 -10 13 -10 -2z"/>
<path d="M3500 3515 c0 -8 2 -15 4 -15 2 0 6 7 10 15 3 8 1 15 -4 15 -6 0 -10
-7 -10 -15z"/>
<path d="M3568 3513 c7 -3 16 -2 19 1 4 3 -2 6 -13 5 -11 0 -14 -3 -6 -6z"/>
<path d="M2891 3003 l0 -388 28 70 c32 80 65 148 92 186 10 14 40 93 67 175
57 169 100 269 138 313 l26 31 -176 0 -176 0 1 -387z"/>
<path d="M3482 3383 c15 -4 15 -8 5 -26 -14 -26 -28 -37 -38 -31 -4 2 -10 -22
-14 -53 -3 -32 -10 -68 -16 -81 -5 -13 -9 -42 -9 -66 0 -23 -3 -46 -7 -50 -4
-3 -8 -16 -10 -28 -5 -35 -49 -92 -98 -128 -11 -9 -25 -24 -31 -35 -6 -11 -22
-21 -35 -23 -35 -4 -53 -36 -32 -54 12 -9 15 -9 9 0 -4 7 -1 12 9 12 9 0 13 5
10 10 -3 6 -2 10 4 10 16 0 23 -19 17 -44 -8 -31 -52 -80 -65 -72 -7 5 -9 1
-4 -11 5 -15 3 -16 -8 -5 -21 20 -36 14 -42 -18 -5 -24 -11 -29 -29 -27 -17 1
-24 -4 -26 -20 -3 -17 2 -23 16 -23 11 0 23 6 25 13 4 7 6 6 6 -4 1 -9 -6 -22
-15 -30 -13 -10 -17 -10 -24 1 -7 11 -11 11 -24 -2 -8 -9 -12 -18 -9 -22 17
-17 51 -1 91 42 25 26 42 41 37 34 -20 -35 38 13 101 83 37 41 70 75 73 75 3
0 21 -13 39 -30 l33 -29 33 37 c27 31 146 197 168 235 3 7 28 49 53 94 58 101
104 155 149 177 35 17 94 21 111 8 12 -9 18 -52 7 -52 -4 0 -8 -26 -7 -57 0
-65 -29 -153 -51 -153 -18 0 -18 -21 1 -46 21 -27 18 -48 -10 -96 -14 -24 -32
-57 -40 -75 -8 -17 -28 -41 -45 -53 -16 -12 -30 -28 -30 -35 0 -12 -4 -12 -26
0 -30 15 -54 10 -54 -11 0 -8 -5 -14 -11 -14 -8 0 -8 -4 0 -14 10 -11 8 -17
-6 -25 -10 -6 -14 -11 -9 -11 5 0 1 -9 -9 -20 -10 -11 -13 -20 -7 -20 6 0 26
19 46 43 20 23 36 36 36 29 0 -24 -128 -177 -176 -211 -26 -18 -43 -35 -40
-38 3 -4 19 5 34 18 15 14 43 32 62 41 19 9 82 60 139 114 101 96 121 99 38 5
-23 -25 -50 -57 -62 -71 -38 -46 44 26 107 94 67 73 192 171 237 187 24 8 35
8 46 -1 13 -11 15 22 15 274 l0 286 -327 -1 c-181 -1 -320 -3 -311 -6z"/>
<path d="M4140 3276 l0 -114 29 -11 c15 -7 42 -27 58 -44 34 -37 102 -132 106
-148 1 -7 12 -22 25 -35 13 -13 20 -29 16 -35 -3 -6 9 -23 27 -38 31 -27 32
-29 30 -96 -1 -38 -7 -73 -13 -76 -6 -4 6 -12 25 -18 20 -7 49 -27 64 -45 75
-88 75 -88 62 -96 -7 -5 -18 -2 -26 6 -21 20 -30 17 -29 -8 1 -18 7 -23 27
-23 35 0 97 -53 78 -66 -11 -7 -11 -11 -1 -17 7 -5 10 -16 6 -28 -6 -18 -6
-18 10 1 16 18 16 17 0 -12 -31 -56 -108 -68 -150 -22 -17 19 -40 27 -29 10 3
-5 -3 -11 -12 -13 -14 -2 -17 -12 -15 -43 l3 -40 -45 1 c-25 1 -43 -2 -40 -7
3 -5 10 -9 16 -9 6 0 20 -7 30 -17 17 -15 18 -15 18 0 0 14 4 15 25 5 14 -6
24 -18 23 -27 -2 -9 2 -16 7 -16 23 -2 55 -17 55 -26 0 -19 -58 -69 -73 -63
-8 3 -17 18 -21 35 -4 20 -11 29 -25 29 -11 0 -23 -5 -26 -10 -4 -6 -12 -8
-18 -4 -7 3 -3 -2 7 -10 23 -19 12 -20 -32 -5 -18 6 -29 15 -26 20 6 10 -43
32 -56 24 -4 -3 -13 1 -19 9 -17 20 17 107 48 122 l23 12 -23 7 c-41 13 -123
14 -131 2 -9 -14 -11 -229 -2 -251 6 -15 8 -15 20 1 9 12 13 14 14 5 0 -9 7
-11 20 -7 15 5 20 2 20 -13 0 -11 9 -22 19 -25 11 -3 26 -21 35 -40 13 -33 14
-55 1 -129 -5 -28 3 -35 21 -20 12 11 80 30 127 36 34 5 39 2 49 -22 6 -15 10
-55 9 -89 -2 -58 8 -79 24 -53 4 6 11 7 17 4 6 -4 15 0 20 7 7 10 8 8 5 -9 -3
-14 0 -25 7 -28 8 -3 11 -15 8 -30 -6 -32 13 -31 35 4 9 15 19 29 21 32 9 12
19 -26 17 -63 -2 -25 3 -48 11 -58 11 -12 11 -23 2 -55 -6 -21 -11 -47 -9 -56
1 -9 -6 -18 -16 -21 -20 -5 61 -10 151 -9 62 1 76 9 76 49 0 12 5 25 11 28 7
5 9 -7 5 -34 l-4 -41 69 0 c60 0 68 2 62 17 -4 11 -8 12 -11 5 -5 -17 -19 -15
-42 8 -15 15 -18 25 -10 44 5 13 6 27 2 32 -4 4 -2 4 5 1 6 -4 23 6 37 23 24
29 25 35 20 118 -3 48 -7 139 -8 202 -2 63 -6 124 -9 135 -3 12 -2 40 2 62 5
23 5 47 0 54 -4 7 -4 21 1 30 7 12 5 21 -6 30 -9 7 -29 32 -45 56 -17 24 -36
43 -43 43 -22 0 -40 80 -41 182 -1 54 -4 101 -8 104 -4 4 -13 2 -21 -5 -29
-24 -77 -31 -107 -16 -37 19 -34 20 -53 -20 -11 -23 -24 -35 -37 -35 -11 0
-17 5 -14 10 4 6 -13 38 -38 73 -59 83 -80 124 -65 129 7 3 -3 26 -25 59 -69
102 -127 183 -146 203 -23 26 -71 212 -71 275 1 25 7 63 14 84 l14 37 -74 0
-74 0 0 -114z m440 -719 c-1 -13 -26 16 -41 48 -7 13 -1 10 15 -8 14 -15 26
-33 26 -40z m268 -254 c-4 -38 -24 -39 -37 -2 -8 22 -8 37 0 51 11 20 11 20
26 -1 8 -12 13 -33 11 -48z m64 -98 c4 -18 0 -29 -13 -36 -21 -11 -25 1 -7 19
8 8 9 12 1 12 -6 0 -9 9 -6 20 7 25 19 18 25 -15z m23 -84 c0 -16 -31 -38 -40
-29 -4 4 -4 16 0 28 7 23 40 24 40 1z m-518 3 c-3 -3 -12 -4 -19 -1 -8 3 -5 6
6 6 11 1 17 -2 13 -5z m520 -66 c-3 -8 -6 -5 -6 6 -1 11 2 17 5 13 3 -3 4 -12
1 -19z m-325 -36 c-9 -3 -10 -8 -2 -17 8 -10 4 -15 -20 -23 -18 -7 -30 -7 -30
-1 0 5 -4 9 -10 9 -5 0 -10 -7 -10 -16 0 -8 -5 -12 -10 -9 -6 4 -8 11 -4 16
10 18 79 57 89 51 5 -3 4 -7 -3 -10z m58 -192 c0 -5 -4 -10 -10 -10 -5 0 -10
5 -10 10 0 6 5 10 10 10 6 0 10 -4 10 -10z m-22 -63 c2 -10 -3 -17 -12 -17
-10 0 -16 9 -16 21 0 24 23 21 28 -4z m294 -15 c7 -7 6 -22 -2 -46 -6 -19 -12
-50 -12 -68 -1 -39 -24 -98 -38 -98 -13 0 -13 33 0 46 17 17 15 164 -2 164 -4
0 -8 4 -8 9 0 11 50 5 62 -7z"/>
<path d="M4610 3386 c0 -2 22 -48 50 -102 54 -107 59 -124 33 -103 -9 8 -5 -3
11 -23 16 -22 26 -46 24 -60 -2 -19 -8 -23 -35 -20 -18 2 -43 -4 -58 -14 -22
-14 -26 -23 -23 -57 3 -38 5 -41 49 -53 37 -11 49 -20 60 -46 7 -18 15 -35 18
-38 11 -10 51 -97 51 -112 0 -8 4 -18 10 -24 5 -5 18 -27 28 -48 l19 -39 7 42
c7 49 19 52 36 10 7 -17 23 -37 35 -45 25 -16 42 -98 25 -119 -6 -8 0 -22 19
-46 15 -19 30 -42 34 -51 8 -22 30 -23 60 -4 25 16 150 51 217 61 25 4 55 13
68 21 l22 14 0 430 0 430 -76 0 c-74 0 -75 -1 -68 -22 4 -13 13 -32 20 -43 12
-17 11 -22 -8 -42 -17 -18 -21 -34 -19 -64 2 -31 -4 -48 -24 -75 -35 -46 -47
-88 -33 -122 11 -29 19 -132 9 -132 -3 0 -15 12 -27 28 l-22 27 -7 -28 c-5
-17 -17 -32 -33 -38 -23 -9 -24 -11 -8 -28 9 -9 16 -30 16 -44 0 -30 3 -32 31
-17 21 12 79 -11 79 -31 0 -8 -5 -7 -15 1 -11 10 -18 9 -30 -3 -15 -16 -11
-47 6 -47 21 0 35 -25 31 -53 -3 -21 -1 -28 7 -23 6 4 11 18 11 31 0 30 10 55
21 55 12 0 11 -57 -1 -81 -15 -27 -68 -52 -96 -45 -17 5 -24 2 -24 -9 0 -9 -9
-15 -21 -15 -15 0 -19 -5 -15 -15 8 -22 -7 -18 -27 6 -10 11 -16 27 -13 34 6
15 -20 40 -51 49 -13 4 -23 15 -23 24 0 9 -18 37 -40 62 -22 25 -40 55 -40 67
0 12 -5 25 -12 29 -8 5 -9 2 -5 -9 7 -20 -1 -47 -15 -47 -5 0 -6 6 -1 12 4 7
6 25 4 40 -2 25 2 29 42 40 43 11 44 12 37 42 -4 17 -14 45 -22 61 -33 65 -62
217 -63 322 l0 103 -117 0 c-65 0 -118 -2 -118 -4z m557 -516 c12 0 13 -3 4
-14 -6 -7 -8 -22 -4 -31 5 -15 3 -17 -12 -12 -9 4 -24 2 -31 -4 -11 -9 -14 -8
-14 6 0 10 -7 27 -17 37 -15 17 -15 18 4 18 12 0 24 8 28 18 6 16 7 16 16 0 6
-10 17 -18 26 -18z m13 -140 c0 -5 -4 -10 -10 -10 -5 0 -10 5 -10 10 0 6 5 10
10 10 6 0 10 -4 10 -10z m-174 -230 c30 -11 64 -60 41 -60 -12 1 -77 55 -77
65 0 7 3 6 36 -5z"/>
<path d="M1735 2704 c-81 -135 -82 -136 -61 -128 30 12 158 245 134 244 -2 0
-34 -53 -73 -116z"/>
<path d="M1460 2761 c0 -12 5 -21 10 -21 6 0 10 6 10 14 0 8 -4 18 -10 21 -5
3 -10 -3 -10 -14z"/>
<path d="M3110 2770 c0 -6 5 -10 12 -10 6 0 4 -7 -5 -18 -10 -10 -14 -22 -10
-27 5 -4 0 -5 -9 -2 -15 5 -16 4 -5 -13 17 -28 27 -25 27 8 0 20 7 32 21 38
21 10 21 10 -5 22 -15 7 -26 8 -26 2z"/>
<path d="M1927 2746 c-18 -14 -23 -36 -7 -36 10 0 34 39 28 45 -2 2 -11 -2
-21 -9z"/>
<path d="M3390 2709 c-7 -17 -12 -49 -12 -72 2 -50 12 -63 12 -16 0 19 5 51
11 72 13 48 6 58 -11 16z"/>
<path d="M1475 2711 c-3 -6 -16 -11 -29 -11 -17 0 -31 -16 -64 -72 -43 -77
-53 -109 -37 -114 6 -2 25 25 44 61 18 36 49 80 69 100 20 19 33 37 30 40 -3
4 -9 2 -13 -4z"/>
<path d="M668 2699 c-15 -6 -30 -19 -33 -29 -3 -10 -17 -35 -30 -54 -28 -42
-24 -44 26 -13 45 27 93 83 84 97 -7 12 -11 12 -47 -1z m-3 -39 c-9 -16 -18
-30 -21 -30 -2 0 2 14 11 30 9 17 18 30 21 30 2 0 -2 -13 -11 -30z"/>
<path d="M791 2703 c-1 -7 -7 -10 -15 -7 -9 3 -15 -5 -19 -25 -4 -18 -26 -50
-54 -77 -27 -26 -42 -44 -34 -39 8 4 17 2 21 -5 6 -9 16 0 34 28 14 23 35 46
46 52 27 14 39 41 29 65 -4 11 -8 15 -8 8z"/>
<path d="M2263 2686 c-34 -22 -48 -54 -15 -37 20 11 57 50 51 54 -2 2 -18 -6
-36 -17z"/>
<path d="M4108 2672 c-7 -45 -31 -82 -55 -82 -7 0 -16 -7 -20 -15 -3 -9 -13
-15 -22 -14 -18 3 -55 -7 -89 -24 -18 -8 -28 -8 -43 2 -19 11 -20 10 -14 -9 5
-15 0 -26 -17 -40 l-23 -19 23 -1 c12 0 22 -6 22 -14 0 -15 -27 -29 -40 -21
-12 8 -35 -36 -23 -44 18 -12 22 -41 8 -55 -17 -17 -31 -66 -18 -66 5 0 19 7
31 16 15 10 35 14 55 11 44 -6 64 6 71 48 5 23 18 43 39 58 52 38 108 70 113
64 3 -3 -30 -41 -74 -85 -69 -67 -112 -131 -112 -163 0 -4 15 -2 33 5 17 8 43
17 56 21 l24 7 -22 -30 c-11 -17 -21 -41 -21 -54 0 -17 -3 -19 -9 -9 -6 9 -10
10 -16 2 -4 -7 -1 -18 5 -26 10 -12 10 -15 1 -15 -15 0 -46 -30 -46 -44 0 -6
-8 -10 -17 -10 -10 1 -16 -3 -15 -8 1 -6 -4 -13 -12 -16 -8 -3 -11 0 -7 7 4 6
2 11 -4 11 -7 0 -9 -7 -6 -16 3 -9 6 -18 6 -20 0 -2 8 -4 18 -4 13 -1 11 -5
-10 -21 -15 -11 -25 -26 -22 -33 3 -8 -6 -26 -19 -42 -22 -26 -27 -27 -52 -16
-34 15 -38 12 -72 -49 -26 -49 -28 -51 -64 -46 -32 4 -38 2 -43 -16 -5 -21 -6
-20 -37 8 -29 27 -31 28 -25 8 5 -17 3 -23 -8 -23 -8 0 -18 5 -21 10 -10 16
-38 12 -32 -4 3 -8 3 -16 0 -19 -6 -7 -43 30 -43 43 0 5 -11 26 -25 46 -14 21
-28 48 -31 61 -4 13 -12 23 -19 23 -7 0 -16 15 -19 34 -4 19 -13 57 -22 85
-13 46 -17 50 -37 42 -26 -11 -225 -31 -287 -30 -63 1 -82 11 -96 50 -10 28
-13 -28 -13 -328 l-1 -362 615 -1 615 0 0 383 -1 384 -25 37 -26 38 26 27 26
28 -2 189 c-2 110 -6 171 -10 146z m-1058 -632 c11 -7 6 -10 -20 -11 -19 0
-56 -3 -82 -5 -46 -4 -67 9 -30 19 32 9 117 7 132 -3z"/>
<path d="M1872 2646 c-33 -57 -39 -71 -22 -61 12 7 63 105 58 111 -2 2 -18
-21 -36 -50z"/>
<path d="M1493 2615 c-45 -76 -49 -85 -34 -85 17 0 82 110 79 134 -2 19 -11
10 -45 -49z"/>
<path d="M1597 2623 c-20 -36 -35 -68 -33 -70 8 -9 78 105 74 121 -2 9 -19
-12 -41 -51z"/>
<path d="M1989 2673 c-13 -16 -12 -17 4 -4 16 13 21 21 13 21 -2 0 -10 -8 -17
-17z"/>
<path d="M2078 2668 c-8 -13 -20 -34 -27 -48 -12 -24 -11 -24 4 -5 19 23 48
75 41 75 -2 0 -10 -10 -18 -22z"/>
<path d="M1273 2603 c-47 -81 -56 -103 -41 -103 15 0 33 24 67 91 44 83 23 93
-26 12z"/>
<path d="M1156 2578 c-25 -45 -43 -84 -41 -87 13 -13 105 112 105 143 0 39
-23 19 -64 -56z"/>
<path d="M1093 2634 c-4 -10 -24 -46 -45 -79 -42 -67 -49 -91 -19 -76 27 15
96 150 82 164 -7 7 -12 5 -18 -9z"/>
<path d="M1939 2590 c-26 -50 -36 -60 -52 -56 -11 3 -29 1 -39 -5 -12 -7 -31
-6 -57 2 -33 10 -48 8 -106 -11 -60 -20 -70 -21 -79 -8 -19 27 -79 -21 -118
-94 -18 -35 -50 -80 -70 -100 -29 -29 -34 -38 -20 -38 25 0 73 53 111 122 37
65 72 92 110 85 14 -3 57 3 96 15 52 15 74 17 87 9 10 -6 36 -8 63 -5 43 6 46
9 81 71 20 36 34 67 31 69 -3 3 -20 -22 -38 -56z"/>
<path d="M994 2612 c-32 -25 -84 -102 -84 -124 0 -34 19 -19 66 51 48 72 55
103 18 73z"/>
<path d="M2963 2527 c-11 -51 -20 -93 -19 -94 2 -2 23 -6 48 -9 l45 -6 -2 33
c-1 19 -4 41 -8 49 -3 8 -11 36 -17 63 -7 26 -16 49 -19 51 -3 2 -16 -37 -28
-87z"/>
<path d="M4650 2610 c0 -5 5 -10 11 -10 5 0 7 5 4 10 -3 6 -8 10 -11 10 -2 0
-4 -4 -4 -10z"/>
<path d="M790 2575 c-20 -21 -28 -35 -19 -34 15 0 65 57 57 64 -2 3 -20 -11
-38 -30z"/>
<path d="M867 2570 c-21 -46 -77 -85 -107 -75 -16 5 -20 2 -20 -14 0 -23 15
-28 23 -8 3 7 6 5 6 -5 1 -17 21 -27 21 -10 0 4 14 15 30 24 17 10 33 25 37
35 3 10 15 31 26 46 11 16 16 32 11 37 -5 5 -17 -9 -27 -30z"/>
<path d="M2136 2593 c-6 -14 -5 -15 5 -6 7 7 10 15 7 18 -3 3 -9 -2 -12 -12z"/>
<path d="M4140 2539 l0 -76 49 -26 c42 -23 50 -25 55 -11 13 33 -15 101 -60
145 l-44 43 0 -75z"/>
<path d="M4385 2590 c6 -18 2 -27 -16 -41 l-24 -19 26 0 c21 0 28 -6 34 -27
l7 -28 16 22 c11 14 25 19 41 17 24 -4 24 -4 6 15 -10 13 -15 29 -12 42 5 17
2 20 -15 16 -11 -3 -32 2 -46 11 -24 16 -24 16 -17 -8z"/>
<path d="M2267 2578 c-10 -5 -36 -8 -58 -6 -38 3 -39 3 -20 -16 21 -20 51 -18
86 8 24 17 17 29 -8 14z"/>
<path d="M2075 2555 c-27 -8 -61 -11 -75 -8 -24 5 -24 5 -8 -12 16 -17 22 -17
72 -5 30 7 57 19 60 26 3 8 4 14 3 13 -1 0 -24 -6 -52 -14z"/>
<path d="M570 2498 c-35 -58 -22 -65 27 -14 18 18 30 36 26 39 -14 15 -34 5
-53 -25z"/>
<path d="M525 2480 c-10 -22 -16 -42 -14 -45 8 -8 24 10 41 48 14 29 15 37 4
37 -7 0 -21 -18 -31 -40z"/>
<path d="M664 2485 c-14 -30 -93 -95 -116 -95 -4 0 -8 -5 -8 -11 0 -19 77 -4
115 22 30 21 33 27 31 71 0 26 -2 48 -3 48 -1 0 -9 -16 -19 -35z"/>
<path d="M3350 2496 c0 -14 -16 -39 -40 -64 -54 -53 -51 -69 6 -29 25 18 52
37 60 42 10 7 17 6 24 -5 17 -26 11 7 -7 44 -21 41 -43 47 -43 12z"/>
<path d="M1261 2479 c-13 -10 -29 -19 -37 -19 -8 0 -14 -5 -14 -11 0 -7 13 -9
38 -4 20 3 55 8 77 9 56 3 97 16 92 30 -5 13 -21 12 -64 -5 -27 -11 -35 -11
-50 3 -17 15 -20 15 -42 -3z"/>
<path d="M4457 2479 c-8 -31 16 -53 41 -38 21 13 18 54 -3 45 -7 -2 -17 0 -22
5 -7 7 -12 3 -16 -12z"/>
<path d="M1131 2464 c-25 -18 -38 -21 -52 -13 -14 7 -27 5 -49 -6 -16 -9 -30
-18 -30 -21 0 -10 143 7 168 20 19 10 20 14 10 28 -12 14 -16 13 -47 -8z"/>
<path d="M4547 2469 c-7 -25 39 -48 57 -28 8 9 7 10 -6 6 -12 -4 -15 -2 -12 8
3 7 -3 18 -14 24 -16 9 -21 7 -25 -10z"/>
<path d="M928 2440 c-16 -9 -25 -20 -21 -23 9 -10 46 -8 63 3 13 8 13 11 0 23
-13 13 -19 12 -42 -3z"/>
<path d="M802 2426 c-62 -33 -36 -50 33 -22 25 11 33 19 29 30 -8 20 -9 20
-62 -8z"/>
<path d="M5170 2430 c-8 -5 -10 -10 -5 -10 6 0 17 5 25 10 8 5 11 10 5 10 -5
0 -17 -5 -25 -10z"/>
<path d="M5204 2418 c-4 -13 -7 -33 -5 -45 1 -14 -6 -26 -21 -34 l-23 -13 25
-6 c18 -4 26 -14 28 -33 4 -32 18 -35 27 -7 5 15 15 20 42 20 l36 0 -23 25
c-21 22 -22 29 -12 45 10 16 10 20 -1 20 -7 0 -19 -6 -26 -12 -10 -11 -15 -9
-27 6 -12 17 -12 22 3 38 14 16 15 18 0 18 -9 0 -19 -10 -23 -22z"/>
<path d="M3090 2420 c0 -13 28 -25 38 -16 3 4 0 11 -8 16 -20 13 -30 12 -30 0z"/>
<path d="M1413 2408 c-15 -20 -25 -38 -20 -38 3 0 12 11 21 25 17 26 16 35 -1
13z"/>
<path d="M5025 2328 c3 -32 3 -32 20 -18 21 17 19 40 -4 40 -13 0 -18 -6 -16
-22z"/>
<path d="M3160 2301 c0 -23 -16 -37 -23 -19 -3 10 -10 8 -25 -6 -13 -11 -30
-16 -42 -13 -23 6 -25 -5 -8 -33 10 -15 10 -22 0 -32 -23 -23 -15 -39 14 -27
22 8 29 6 41 -11 21 -29 33 -25 34 13 l1 32 10 -27 c11 -33 19 -35 35 -9 10
16 23 19 87 17 42 -1 76 0 76 3 0 3 3 15 6 26 5 19 1 21 -48 20 -56 0 -60 5
-42 49 7 17 4 19 -29 13 -25 -4 -39 -1 -48 9 -17 20 -39 17 -39 -5z m70 -26
c19 6 20 4 12 -12 -5 -10 -7 -24 -5 -30 3 -7 -1 -13 -8 -13 -7 0 -21 -7 -31
-17 -10 -9 -18 -11 -18 -5 0 6 5 14 10 17 15 10 2 25 -22 25 -19 0 -20 2 -6
18 9 9 13 24 10 32 -4 11 0 10 16 -3 14 -13 28 -17 42 -12z m100 -65 c0 -5 -2
-10 -4 -10 -3 0 -8 5 -11 10 -3 6 -1 10 4 10 6 0 11 -4 11 -10z"/>
<path d="M3332 2280 c16 -26 39 -35 31 -12 -7 18 -22 32 -36 32 -4 0 -2 -9 5
-20z"/>
<path d="M2980 2265 c0 -18 5 -25 19 -25 20 0 31 17 24 38 -3 6 -13 12 -24 12
-14 0 -19 -7 -19 -25z"/>
<path d="M5348 2230 c-2 -6 -41 -20 -88 -31 -47 -11 -98 -26 -113 -33 l-28
-13 43 -18 c38 -15 198 -38 206 -30 2 2 1 12 -2 22 -5 15 -14 18 -43 15 -21
-2 -49 1 -62 6 -22 8 -18 11 38 31 45 17 61 28 61 42 0 21 -6 25 -12 9z m-143
-80 c-3 -5 -10 -10 -16 -10 -5 0 -9 5 -9 10 0 6 7 10 16 10 8 0 12 -4 9 -10z"/>
<path d="M3257 2140 c-16 -5 -35 -6 -43 -3 -8 3 -14 0 -14 -7 0 -6 -4 -8 -10
-5 -5 3 -18 2 -27 -4 -14 -7 -7 -9 27 -7 67 5 120 17 120 27 0 11 -15 10 -53
-1z"/>
<path d="M3104 2130 c-5 -5 -27 -10 -48 -12 -22 -2 -41 -8 -43 -13 -2 -6 15
-9 42 -7 25 2 45 8 45 12 0 5 8 10 18 12 10 2 13 6 6 10 -6 4 -15 3 -20 -2z"/>
<path d="M4140 1721 l0 -281 170 0 c94 0 170 3 170 6 0 4 -34 58 -75 121 -42
63 -96 155 -120 204 -25 49 -63 112 -85 141 -22 29 -40 58 -40 65 0 6 -4 15
-10 18 -7 4 -10 -90 -10 -274z"/>
<path d="M5018 1453 c7 -3 16 -2 19 1 4 3 -2 6 -13 5 -11 0 -14 -3 -6 -6z"/>
<path d="M3040 922 c0 -10 -5 -23 -11 -29 -6 -6 -14 -27 -19 -47 -6 -28 -5
-38 7 -45 8 -4 16 -23 18 -42 2 -19 3 -37 4 -41 1 -3 10 -4 21 -1 16 4 20 14
20 44 0 21 5 41 10 44 18 11 11 71 -10 90 -11 10 -20 24 -20 32 0 7 -4 13 -10
13 -5 0 -10 -8 -10 -18z"/>
<path d="M3060 700 c0 -5 5 -10 10 -10 6 0 10 5 10 10 0 6 -4 10 -10 10 -5 0
-10 -4 -10 -10z"/>
<path d="M2920 596 c0 -3 11 -17 25 -32 29 -31 34 -20 6 14 -18 20 -31 28 -31
18z"/>
<path d="M2992 567 c-8 -10 -6 -13 9 -13 10 0 19 6 19 13 0 7 -4 13 -9 13 -5
0 -13 -6 -19 -13z"/>
<path d="M3096 564 c-4 -9 -4 -19 -1 -22 3 -3 5 0 5 6 0 6 7 9 16 5 11 -4 15
-2 12 7 -7 21 -25 23 -32 4z"/>
<path d="M3210 576 c0 -2 7 -9 15 -16 13 -11 14 -10 9 4 -5 14 -24 23 -24 12z"/>
<path d="M3335 571 c-3 -5 -1 -12 5 -16 5 -3 10 1 10 9 0 18 -6 21 -15 7z"/>
<path d="M3361 564 c0 -11 3 -14 6 -6 3 7 2 16 -1 19 -3 4 -6 -2 -5 -13z"/>
<path d="M3286 561 c-4 -7 -5 -15 -2 -18 9 -9 19 4 14 18 -4 11 -6 11 -12 0z"/>
<path d="M3092 423 c-19 -13 -24 -13 -38 -2 -15 12 -16 11 -9 -11 4 -14 8 -26
9 -27 6 -8 56 13 56 24 0 11 7 13 26 9 18 -5 25 -3 22 5 -6 18 -40 19 -66 2z"/>
<path d="M3374 430 c-18 -7 -18 -7 1 -12 12 -4 5 -6 -18 -7 -25 -1 -36 -5 -31
-12 5 -8 1 -8 -14 0 -27 14 -35 14 -26 -1 5 -8 2 -9 -9 -5 -9 3 -19 1 -23 -5
-4 -7 -9 -6 -14 2 -6 9 -13 9 -28 1 -11 -6 -30 -11 -41 -11 -33 0 -66 -41 -63
-78 3 -26 0 -32 -16 -32 -10 0 -22 3 -26 8 -13 12 -55 9 -60 -5 -6 -15 -56
-18 -56 -4 0 5 4 21 10 35 8 23 7 24 -13 17 -12 -5 -22 -14 -22 -21 0 -7 -6
-15 -13 -18 -10 -3 -13 7 -11 42 2 25 0 48 -4 52 -4 4 -7 -77 -7 -179 l0 -187
317 0 c300 0 315 1 301 18 -17 20 -25 142 -9 142 6 0 11 -7 11 -16 0 -11 6
-15 20 -11 22 6 24 -1 11 -55 -6 -25 -5 -42 3 -52 9 -12 18 -9 55 25 44 39 44
40 33 78 -22 71 -16 79 26 39 43 -42 87 -55 157 -48 42 4 50 8 50 25 0 14 -7
19 -22 18 -12 -1 -24 5 -27 14 -9 24 8 37 32 24 10 -6 22 -7 26 -4 3 3 15 -2
26 -12 11 -10 21 -15 21 -12 1 4 2 12 3 19 0 6 11 12 23 13 20 1 18 -4 -20
-45 -31 -35 -52 -49 -82 -55 -40 -8 -115 -69 -115 -94 0 -8 49 -11 160 -11 88
0 160 3 160 7 0 3 -8 15 -17 25 -15 17 -15 20 0 35 15 15 17 13 23 -25 l7 -42
48 0 c47 0 49 1 49 28 0 15 -9 47 -20 71 -24 51 -25 89 -5 117 8 12 12 24 9
27 -3 3 -6 22 -6 41 0 27 -7 41 -25 56 -32 25 -43 25 -43 1 0 -17 -3 -18 -25
-8 -14 7 -25 18 -25 25 0 12 2 13 59 16 19 1 36 7 39 14 3 9 -7 11 -32 8 -20
-2 -36 0 -36 5 0 5 48 9 107 9 58 0 104 2 102 4 -2 2 -160 6 -352 9 -339 5
-347 5 -358 -14 -7 -14 -7 -24 0 -33 13 -15 4 -26 -21 -26 -10 0 -18 -4 -18
-10 0 -6 3 -9 8 -9 39 6 43 0 40 -68 l-3 -67 -34 -7 -33 -7 4 54 c3 30 1 54
-4 54 -11 0 -48 38 -48 49 0 5 10 13 22 17 19 6 19 7 5 16 -21 11 -22 32 -2
24 8 -3 15 -1 15 4 0 5 7 7 16 3 11 -4 15 -2 12 7 -4 14 -101 21 -134 10z
m601 -30 c3 -5 1 -10 -4 -10 -6 0 -11 5 -11 10 0 6 2 10 4 10 3 0 8 -4 11 -10z
m-585 -15 c7 -9 8 -15 2 -15 -5 0 -12 7 -16 15 -3 8 -4 15 -2 15 2 0 9 -7 16
-15z m608 -42 c-8 -10 -14 -22 -12 -28 2 -5 -7 -11 -21 -11 -32 -2 -31 6 3 44
29 32 58 27 30 -5z m-601 -25 c-3 -8 -6 -5 -6 6 -1 11 2 17 5 13 3 -3 4 -12 1
-19z m423 -88 c0 -5 -4 -10 -10 -10 -5 0 -10 5 -10 10 0 6 5 10 10 10 6 0 10
-4 10 -10z m266 -15 c4 -8 3 -22 0 -31 -6 -15 -9 -14 -31 6 -13 13 -22 27 -19
31 9 15 44 10 50 -6z"/>
<path d="M2891 414 c0 -11 3 -14 6 -6 3 7 2 16 -1 19 -3 4 -6 -2 -5 -13z"/>
<path d="M2910 426 c0 -2 7 -6 15 -10 8 -3 15 -1 15 4 0 6 -7 10 -15 10 -8 0
-15 -2 -15 -4z"/>
<path d="M2998 423 c7 -3 16 -2 19 1 4 3 -2 6 -13 5 -11 0 -14 -3 -6 -6z"/>
<path d="M3268 423 c6 -2 18 -2 25 0 6 3 1 5 -13 5 -14 0 -19 -2 -12 -5z"/>
<path d="M4784 420 c-31 -12 -35 -22 -24 -60 11 -39 25 -50 64 -50 32 0 126
-49 126 -66 0 -6 16 -22 36 -36 22 -16 31 -28 25 -33 -6 -3 -9 -11 -5 -16 4
-7 10 -7 18 0 8 7 11 4 10 -12 -4 -41 -16 -67 -32 -67 -8 0 -12 -3 -9 -6 3 -4
2 -15 -4 -26 -6 -11 -9 -22 -6 -24 3 -3 39 -7 81 -10 72 -5 76 -4 76 15 0 26
17 26 55 1 23 -15 47 -20 103 -20 l72 0 0 61 0 60 -66 -5 c-78 -6 -118 7 -157
53 -40 48 -33 137 15 188 l21 23 -36 0 c-26 0 -37 4 -37 15 0 22 -47 -1 -87
-42 -38 -40 -67 -42 -89 -7 -10 15 -23 23 -31 19 -9 -3 -17 3 -20 15 -4 15
-11 19 -25 14 -11 -3 -27 1 -36 9 -12 10 -24 12 -38 7z m305 -271 c-7 -4 -17
-5 -22 -2 -5 3 -3 9 4 14 7 4 17 5 22 2 5 -3 3 -9 -4 -14z"/>
<path d="M4180 392 c0 -10 21 -32 31 -32 4 0 5 9 2 20 -5 19 -33 29 -33 12z"/>
<path d="M5197 389 c7 -7 15 -10 18 -7 3 3 -2 9 -12 12 -14 6 -15 5 -6 -5z"/>
<path d="M5253 386 c4 -13 97 -10 109 2 5 5 -19 9 -52 9 -39 0 -59 -4 -57 -11z"/>
<path d="M2940 361 c0 -6 4 -13 10 -16 6 -3 7 1 4 9 -7 18 -14 21 -14 7z"/>
<path d="M5350 251 c0 -6 5 -13 10 -16 6 -3 10 1 10 9 0 9 -4 16 -10 16 -5 0
-10 -4 -10 -9z"/>
<path d="M4150 172 c0 -12 19 -26 26 -19 2 2 -2 10 -11 17 -9 8 -15 8 -15 2z"/>
<path d="M4940 108 c0 -11 32 -10 50 2 11 7 6 9 -17 7 -18 -1 -33 -5 -33 -9z"/>
<path d="M4945 50 c-3 -5 -1 -10 4 -10 6 0 11 5 11 10 0 6 -2 10 -4 10 -3 0
-8 -4 -11 -10z"/>
<path d="M4581 36 c-9 -11 -6 -15 15 -20 24 -6 55 7 43 18 -15 13 -48 15 -58
2z"/>
</g>
</svg>
