<?xml version="1.0" standalone="no"?>
<!DOCTYPE svg PUBLIC "-//W3C//DTD SVG 20010904//EN"
 "http://www.w3.org/TR/2001/REC-SVG-20010904/DTD/svg10.dtd">
<svg version="1.0" xmlns="http://www.w3.org/2000/svg"
 width="502.000000pt" height="477.000000pt" viewBox="0 0 502.000000 477.000000"
 preserveAspectRatio="xMidYMid meet">

<g transform="translate(0.000000,477.000000) scale(0.100000,-0.100000)"
fill="#000000" stroke="none">
<path d="M2440 4030 l0 -740 1290 0 1290 0 0 740 0 740 -1290 0 -1290 0 0
-740z m1613 -20 c-1 -14 -3 -36 -5 -50 l-3 -25 -156 0 c-114 0 -155 3 -152 11
2 7 0 15 -6 19 -6 3 -11 -1 -11 -9 0 -13 -24 -16 -153 -18 l-152 -3 -3 43 c-2
23 0 47 3 52 4 7 123 9 323 8 l317 -3 -2 -25z m927 -682 c0 -16 -3 -19 -11
-11 -6 6 -8 16 -5 22 11 17 16 13 16 -11z"/>
<path d="M3550 3980 c0 -6 12 -10 27 -10 29 0 24 12 -7 17 -11 2 -20 -2 -20
-7z"/>
<path d="M3870 3980 c0 -5 10 -10 23 -10 18 0 19 2 7 10 -19 13 -30 13 -30 0z"/>
<path d="M2080 4695 c0 -22 4 -25 38 -24 36 1 37 1 7 9 l-30 7 30 5 30 5 -28
2 c-16 0 -25 5 -22 11 3 6 -1 10 -9 10 -10 0 -16 -9 -16 -25z"/>
<path d="M2195 4698 c1 -13 6 -22 11 -21 14 4 13 43 -1 43 -6 0 -11 -10 -10
-22z"/>
<path d="M2260 4695 c0 -14 2 -25 4 -25 2 0 6 11 8 25 3 14 1 25 -3 25 -5 0
-9 -11 -9 -25z"/>
<path d="M2315 4710 c3 -5 8 -10 11 -10 2 0 4 5 4 10 0 6 -5 10 -11 10 -5 0
-7 -4 -4 -10z"/>
<path d="M2355 4698 c1 -13 6 -23 11 -23 5 0 10 10 12 23 2 14 -2 22 -11 22
-8 0 -13 -9 -12 -22z"/>
<path d="M2305 4680 c3 -5 11 -10 16 -10 6 0 7 5 4 10 -3 6 -11 10 -16 10 -6
0 -7 -4 -4 -10z"/>
<path d="M770 4425 l0 -45 425 0 425 0 0 45 0 45 -425 0 -425 0 0 -45z"/>
<path d="M850 4295 l0 -56 43 3 42 3 0 50 0 50 -42 3 -43 3 0 -56z m66 18 c-2
-25 -23 -59 -31 -51 -4 4 0 15 9 24 16 15 16 17 -1 30 -17 13 -17 13 3 14 14
0 21 -6 20 -17z m-26 -15 c0 -4 -7 -8 -15 -8 -8 0 -15 4 -15 8 0 5 7 9 15 9 8
0 15 -4 15 -9z"/>
<path d="M970 4325 c0 -8 7 -15 16 -15 14 0 14 3 4 15 -7 8 -14 15 -16 15 -2
0 -4 -7 -4 -15z"/>
<path d="M1031 4324 c0 -11 3 -14 6 -6 3 7 2 16 -1 19 -3 4 -6 -2 -5 -13z"/>
<path d="M1210 4265 c0 -14 6 -21 20 -21 14 0 20 7 20 21 0 17 -2 17 -10 5 -9
-13 -11 -13 -20 0 -8 12 -10 12 -10 -5z"/>
<path d="M1302 4260 c0 -14 2 -19 5 -12 2 6 2 18 0 25 -3 6 -5 1 -5 -13z"/>
<path d="M970 4253 c0 -7 5 -13 10 -13 6 0 10 6 10 13 0 9 2 9 9 -1 7 -11 9
-11 14 0 3 10 -3 14 -19 14 -13 0 -24 -6 -24 -13z"/>
<path d="M1055 4259 c-4 -5 -4 -13 -1 -16 3 -4 6 0 6 8 0 11 2 11 10 -1 6 -9
10 -10 10 -3 0 17 -17 25 -25 12z"/>
<path d="M1265 4259 c-4 -5 -4 -13 -1 -16 3 -4 6 0 6 8 0 11 2 11 10 -1 6 -9
10 -10 10 -3 0 17 -17 25 -25 12z"/>
<path d="M1361 4254 c0 -11 3 -14 6 -6 3 7 2 16 -1 19 -3 4 -6 -2 -5 -13z"/>
<path d="M1387 4263 c-4 -3 -7 -11 -7 -17 0 -6 5 -5 12 2 6 6 9 14 7 17 -3 3
-9 2 -12 -2z"/>
<path d="M1160 4245 c0 -8 2 -15 4 -15 2 0 6 7 10 15 3 8 1 15 -4 15 -6 0 -10
-7 -10 -15z"/>
<path d="M1322 4023 l3 -58 65 0 65 0 3 58 3 57 -71 0 -71 0 3 -57z m108 -1
c0 -4 -13 -9 -30 -10 -16 -1 -30 2 -30 8 0 5 14 10 30 10 17 0 30 -4 30 -8z"/>
<path d="M1034 3804 c-16 -24 -16 -26 4 -46 18 -19 25 -20 47 -10 33 15 32 30
-2 35 l-28 4 28 2 c32 1 35 16 8 31 -29 15 -39 13 -57 -16z"/>
<path d="M1243 3790 c-10 -14 -9 -21 1 -29 10 -9 15 -8 19 4 5 10 15 13 36 9
27 -6 29 -4 24 15 -4 14 -13 21 -30 21 -17 0 -22 -4 -17 -12 6 -10 5 -10 -7
-1 -12 10 -17 8 -26 -7z"/>
<path d="M1270 3750 c0 -22 8 -25 30 -10 13 9 13 11 0 20 -22 15 -30 12 -30
-10z"/>
<path d="M1324 3749 c-7 -12 15 -31 31 -26 6 2 11 11 13 20 4 19 -32 24 -44 6z"/>
<path d="M0 3340 l0 -40 1205 0 1205 0 0 40 0 40 -1205 0 -1205 0 0 -40z
m2040 1 c0 -5 -7 -12 -16 -15 -22 -9 -24 -8 -24 9 0 8 9 15 20 15 11 0 20 -4
20 -9z m340 -6 c0 -8 -4 -15 -10 -15 -5 0 -10 7 -10 15 0 8 5 15 10 15 6 0 10
-7 10 -15z"/>
<path d="M2112 3163 c2 -22 8 -28 28 -28 20 0 26 6 28 28 3 24 0 27 -28 27
-28 0 -31 -3 -28 -27z m35 3 c0 -8 -6 -12 -14 -9 -7 3 -10 9 -7 14 8 14 21 11
21 -5z"/>
<path d="M2300 3175 c-7 -9 -9 -22 -5 -32 8 -17 8 -17 12 0 3 9 8 17 13 17 5
0 7 -7 4 -15 -4 -10 0 -15 15 -15 12 0 21 5 21 10 0 6 -4 10 -10 10 -5 0 -10
9 -10 20 0 23 -22 26 -40 5z"/>
<path d="M4700 3160 c0 -25 4 -30 25 -30 21 0 25 5 25 30 0 25 -4 30 -25 30
-21 0 -25 -5 -25 -30z"/>
<path d="M4897 3183 c-4 -3 -7 -18 -7 -32 1 -25 1 -25 15 -7 13 17 15 18 15 3
0 -11 8 -17 22 -17 17 0 19 3 10 12 -7 7 -12 20 -12 30 0 18 -29 25 -43 11z"/>
<path d="M70 3150 c0 -28 2 -30 38 -29 30 2 32 3 10 6 -16 2 -28 9 -28 14 0 5
12 10 28 10 l27 1 -30 8 -30 7 30 5 c28 5 28 5 -7 7 -36 1 -38 -1 -38 -29z"/>
<path d="M168 3173 c6 -2 12 -13 12 -23 0 -10 5 -22 10 -25 6 -3 10 5 10 19 0
15 7 26 18 29 9 3 -1 5 -23 5 -22 0 -34 -2 -27 -5z"/>
<path d="M251 3148 c2 -31 2 -31 6 -5 3 21 10 27 28 27 13 0 26 -6 28 -12 3
-8 6 -6 6 5 1 13 -7 17 -34 17 -33 0 -35 -2 -34 -32z"/>
<path d="M350 3149 c0 -17 4 -28 10 -24 6 3 10 17 10 31 0 13 -4 24 -10 24 -5
0 -10 -14 -10 -31z"/>
<path d="M2510 3150 c0 -29 2 -30 43 -29 l42 2 -35 7 -35 7 30 2 c17 2 23 5
15 8 -42 14 -44 17 -10 23 l35 7 -42 2 c-41 1 -43 0 -43 -29z"/>
<path d="M2618 3173 c6 -2 12 -16 12 -29 0 -15 6 -24 15 -24 9 0 15 9 15 24 0
13 6 27 13 29 6 3 -6 5 -28 5 -22 0 -34 -2 -27 -5z"/>
<path d="M2700 3150 c0 -16 5 -30 10 -30 6 0 10 11 10 25 0 27 26 35 48 13 9
-9 12 -8 12 5 0 13 -9 17 -40 17 -38 0 -40 -2 -40 -30z"/>
<path d="M2810 3150 c0 -16 5 -30 10 -30 6 0 10 14 10 30 0 17 -4 30 -10 30
-5 0 -10 -13 -10 -30z"/>
<path d="M290 3142 c0 -12 19 -26 26 -19 2 2 -2 10 -11 17 -9 8 -15 8 -15 2z"/>
<path d="M391 3141 c-9 -6 -7 -10 8 -14 12 -3 21 -1 21 3 0 14 -15 19 -29 11z"/>
<path d="M580 3138 c0 -4 7 -8 15 -8 8 0 15 4 15 8 0 5 -7 9 -15 9 -8 0 -15
-4 -15 -9z"/>
<path d="M2846 3136 c6 -15 36 -17 31 -3 -2 6 -10 11 -19 13 -10 1 -15 -3 -12
-10z"/>
<path d="M3060 3139 c0 -4 7 -9 15 -13 9 -3 15 0 15 8 0 7 -7 13 -15 13 -8 0
-15 -4 -15 -8z"/>
<path d="M480 3129 c0 -5 5 -7 10 -4 6 3 10 8 10 11 0 2 -4 4 -10 4 -5 0 -10
-5 -10 -11z"/>
<path d="M720 3129 c0 -5 5 -7 10 -4 6 3 10 8 10 11 0 2 -4 4 -10 4 -5 0 -10
-5 -10 -11z"/>
<path d="M2755 3130 c3 -5 11 -10 16 -10 6 0 7 5 4 10 -3 6 -11 10 -16 10 -6
0 -7 -4 -4 -10z"/>
<path d="M2950 3129 c0 -5 5 -7 10 -4 6 3 10 8 10 11 0 2 -4 4 -10 4 -5 0 -10
-5 -10 -11z"/>
<path d="M482 3063 l3 -28 163 -1 c89 -1 162 2 162 7 0 5 -7 9 -15 9 -8 0 -15
7 -15 15 0 28 41 15 53 -18 6 -15 21 -17 142 -16 77 1 138 6 142 12 3 6 -8 8
-31 5 -29 -3 -36 -1 -36 13 0 12 8 16 38 14 54 -3 54 -3 48 -22 -5 -17 29 -18
634 -18 l640 0 0 28 0 27 -966 0 -965 0 3 -27z m136 -1 c2 -8 -13 -12 -47 -12
-38 0 -51 4 -51 15 0 11 11 13 47 11 26 -1 49 -8 51 -14z m105 9 c41 -2 2 -21
-44 -21 -36 0 -49 4 -49 14 0 11 10 14 38 11 20 -1 45 -3 55 -4z m280 0 c4 -1
7 -5 7 -11 0 -6 -35 -10 -85 -10 -63 0 -85 3 -85 13 0 10 19 13 78 11 42 -1
80 -2 85 -3z m219 -1 c10 0 16 -4 13 -10 -11 -17 -82 -12 -89 6 -5 14 -1 16
25 10 17 -3 40 -6 51 -6z m-452 -4 c0 -3 -4 -8 -10 -11 -5 -3 -10 -1 -10 4 0
6 5 11 10 11 6 0 10 -2 10 -4z m270 0 c0 -3 -4 -8 -10 -11 -5 -3 -10 -1 -10 4
0 6 5 11 10 11 6 0 10 -2 10 -4z"/>
<path d="M2950 3060 l0 -30 175 0 c106 0 175 4 175 10 0 5 -7 7 -15 4 -10 -4
-15 0 -15 14 0 14 6 19 18 17 9 -2 23 -4 30 -4 9 -1 11 -8 7 -21 -6 -19 -2
-20 149 -20 86 0 156 4 156 8 0 5 -16 7 -35 6 -28 -3 -35 0 -35 15 0 17 20 20
84 12 4 -1 6 -10 3 -21 -5 -20 0 -20 684 -20 l689 0 0 30 0 30 -1035 0 -1035
0 0 -30z m148 -2 c2 -11 -8 -14 -45 -14 -44 1 -62 9 -63 28 0 3 24 5 53 4 36
-2 53 -7 55 -18z m112 12 c23 -1 23 -2 8 -14 -17 -13 -92 -15 -104 -3 -13 13
8 25 38 21 18 -1 44 -3 58 -4z m293 1 c4 -1 7 -7 7 -13 0 -9 -24 -13 -85 -13
-70 -1 -85 2 -85 15 0 12 14 15 77 13 43 -1 81 -2 86 -2z m230 0 c18 -1 27 -6
24 -13 -5 -15 -79 -17 -89 -3 -13 17 -9 22 15 20 12 -1 35 -3 50 -4z m-473
-11 c0 -5 -4 -10 -10 -10 -5 0 -10 5 -10 10 0 6 5 10 10 10 6 0 10 -4 10 -10z
m285 0 c-3 -5 -10 -10 -16 -10 -5 0 -9 5 -9 10 0 6 7 10 16 10 8 0 12 -4 9
-10z"/>
<path d="M1454 2976 c-3 -7 -4 -31 -2 -52 l3 -39 130 0 130 0 0 50 0 50 -128
3 c-103 2 -128 0 -133 -12z m56 -35 c0 -22 -15 -35 -30 -26 -7 4 -7 13 0 26
14 25 30 25 30 0z m60 -11 c0 -5 -6 -10 -14 -10 -8 0 -18 5 -21 10 -3 6 3 10
14 10 12 0 21 -4 21 -10z m40 0 c0 -5 -4 -10 -9 -10 -6 0 -13 5 -16 10 -3 6 1
10 9 10 9 0 16 -4 16 -10z m95 0 c4 -6 -10 -10 -34 -10 -23 0 -41 5 -41 10 0
6 15 10 34 10 19 0 38 -4 41 -10z"/>
<path d="M1204 2966 c-3 -8 -4 -29 -2 -48 l3 -33 113 -3 c107 -3 112 -2 112
18 0 13 -7 20 -20 20 -11 0 -20 4 -20 9 0 5 9 7 20 4 16 -4 20 0 20 21 l0 26
-110 0 c-86 0 -112 -3 -116 -14z"/>
<path d="M3730 2930 l0 -50 120 0 120 0 0 50 0 50 -120 0 -120 0 0 -50z m214
4 c9 -3 16 -10 16 -14 0 -12 -33 -5 -38 8 -4 14 0 15 22 6z"/>
<path d="M3990 2930 l0 -51 143 3 142 3 0 45 0 45 -142 3 -143 3 0 -51z m63 6
c6 -15 -19 -30 -33 -21 -13 8 -1 35 15 35 7 0 15 -6 18 -14z m57 -6 c12 -8 11
-10 -7 -10 -13 0 -23 5 -23 10 0 13 11 13 30 0z m50 -6 c0 -2 -7 -4 -15 -4 -8
0 -15 4 -15 10 0 5 7 7 15 4 8 -4 15 -8 15 -10z m93 7 c10 -1 16 -5 13 -9 -5
-9 -86 -3 -86 7 0 4 12 6 28 5 15 -1 35 -3 45 -3z"/>
<path d="M60 2958 c0 -4 16 -8 35 -8 19 0 35 3 35 8 0 4 -16 7 -35 7 -19 0
-35 -3 -35 -7z"/>
<path d="M255 2960 c-3 -5 -1 -10 4 -10 6 0 11 5 11 10 0 6 -2 10 -4 10 -3 0
-8 -4 -11 -10z"/>
<path d="M2500 2959 c0 -5 14 -9 32 -9 37 0 34 7 -5 14 -15 2 -27 0 -27 -5z"/>
<path d="M2592 2965 c4 -4 22 -9 39 -11 42 -5 31 6 -13 13 -18 3 -30 2 -26 -2z"/>
<path d="M3648 2953 c12 -2 30 -2 40 0 9 3 -1 5 -23 4 -22 0 -30 -2 -17 -4z"/>
<path d="M537 2944 c-11 -12 3 -24 29 -24 15 0 24 6 24 15 0 15 -40 21 -53 9z"/>
<path d="M1000 2936 c0 -16 37 -28 46 -15 8 14 -5 29 -27 29 -10 0 -19 -6 -19
-14z"/>
<path d="M3014 2939 c-9 -15 5 -27 26 -22 11 3 20 9 20 13 0 12 -39 19 -46 9z"/>
<path d="M3518 2943 c-24 -6 -23 -23 2 -23 11 0 23 0 28 0 11 0 9 23 -3 25 -5
2 -18 1 -27 -2z"/>
<path d="M60 2824 c0 -16 7 -19 42 -18 23 1 44 6 45 11 5 14 -31 23 -48 12 -8
-4 -19 -3 -26 3 -10 8 -13 6 -13 -8z"/>
<path d="M2500 2822 c0 -17 6 -19 45 -18 50 1 65 26 16 26 -16 0 -36 3 -45 6
-11 4 -16 0 -16 -14z"/>
<path d="M160 2820 c0 -5 18 -10 40 -10 22 0 40 5 40 10 0 6 -18 10 -40 10
-22 0 -40 -4 -40 -10z"/>
<path d="M2610 2818 c0 -8 15 -13 42 -13 24 0 43 5 45 13 3 8 -9 12 -41 12
-30 0 -46 -4 -46 -12z"/>
<path d="M530 2720 l0 -30 605 0 605 0 0 30 0 30 -605 0 -605 0 0 -30z"/>
<path d="M1750 2715 l0 -35 285 0 285 0 0 35 0 35 -285 0 -285 0 0 -35z"/>
<path d="M3010 2715 l0 -35 640 0 640 0 0 35 0 35 -640 0 -640 0 0 -35z"/>
<path d="M4310 2715 l0 -34 300 -3 300 -3 0 38 0 37 -300 0 -300 0 0 -35z"/>
<path d="M165 2680 c-3 -5 -1 -10 4 -10 6 0 11 5 11 10 0 6 -2 10 -4 10 -3 0
-8 -4 -11 -10z"/>
<path d="M195 2680 c-3 -5 -1 -10 4 -10 6 0 11 5 11 10 0 6 -2 10 -4 10 -3 0
-8 -4 -11 -10z"/>
<path d="M2615 2680 c-3 -5 -1 -10 4 -10 6 0 11 5 11 10 0 6 -2 10 -4 10 -3 0
-8 -4 -11 -10z"/>
<path d="M2648 2673 c7 -3 16 -2 19 1 4 3 -2 6 -13 5 -11 0 -14 -3 -6 -6z"/>
<path d="M3144 2649 c-8 -14 14 -19 25 -6 8 10 7 14 -5 14 -8 0 -17 -4 -20 -8z"/>
<path d="M3356 2651 c-3 -5 1 -11 9 -15 8 -3 15 -1 15 4 0 13 -18 22 -24 11z"/>
<path d="M3440 2650 c-8 -5 -8 -9 2 -12 16 -6 38 1 38 11 0 10 -26 10 -40 1z"/>
<path d="M3590 2649 c0 -11 34 -16 55 -9 16 6 12 8 -17 12 -21 2 -38 1 -38 -3z"/>
<path d="M3680 2645 c0 -11 85 -13 96 -3 3 3 -17 8 -45 9 -31 3 -51 0 -51 -6z"/>
<path d="M3820 2651 c0 -5 7 -11 15 -15 8 -3 15 -1 15 3 0 5 -7 11 -15 15 -8
3 -15 1 -15 -3z"/>
<path d="M4055 2650 c-8 -13 8 -18 29 -10 19 6 19 7 -2 12 -12 4 -24 2 -27 -2z"/>
<path d="M4131 2644 c0 -11 3 -14 6 -6 3 7 2 16 -1 19 -3 4 -6 -2 -5 -13z"/>
<path d="M3490 2640 c0 -5 7 -7 15 -4 8 4 15 8 15 10 0 2 -7 4 -15 4 -8 0 -15
-4 -15 -10z"/>
<path d="M3870 2640 c0 -5 9 -10 20 -10 11 0 20 5 20 10 0 6 -9 10 -20 10 -11
0 -20 -4 -20 -10z"/>
<path d="M4156 2641 c-4 -5 3 -7 14 -4 23 6 26 13 6 13 -8 0 -17 -4 -20 -9z"/>
<path d="M666 2594 c-4 -10 -2 -22 3 -27 14 -14 43 0 39 20 -4 24 -34 28 -42
7z"/>
<path d="M3150 2594 c-11 -12 -10 -18 3 -32 15 -15 19 -15 32 -1 17 17 11 49
-10 49 -7 0 -18 -7 -25 -16z"/>
<path d="M3220 2580 c0 -5 6 -10 14 -10 8 0 18 5 21 10 3 6 -3 10 -14 10 -12
0 -21 -4 -21 -10z"/>
<path d="M3270 2580 c0 -5 12 -10 28 -10 21 0 24 2 12 10 -20 13 -40 13 -40 0z"/>
<path d="M3350 2582 c0 -4 16 -9 35 -10 19 -2 35 1 35 6 0 5 -16 9 -35 10 -19
1 -35 -2 -35 -6z"/>
<path d="M3460 2580 c0 -5 16 -10 35 -10 19 0 35 5 35 10 0 6 -16 10 -35 10
-19 0 -35 -4 -35 -10z"/>
<path d="M3560 2578 c0 -4 20 -8 45 -8 25 0 45 5 45 10 0 7 -19 10 -45 9 -25
-2 -45 -6 -45 -11z"/>
<path d="M3670 2580 c0 -5 5 -10 10 -10 6 0 10 5 10 10 0 6 -4 10 -10 10 -5 0
-10 -4 -10 -10z"/>
<path d="M3704 2582 c3 -5 31 -9 63 -10 40 -1 53 2 43 8 -18 12 -113 13 -106
2z"/>
<path d="M3840 2580 c0 -5 16 -10 35 -10 19 0 35 5 35 10 0 6 -16 10 -35 10
-19 0 -35 -4 -35 -10z"/>
<path d="M3920 2580 c0 -5 5 -10 10 -10 6 0 10 5 10 10 0 6 -4 10 -10 10 -5 0
-10 -4 -10 -10z"/>
<path d="M3950 2580 c0 -5 5 -10 10 -10 6 0 10 5 10 10 0 6 -4 10 -10 10 -5 0
-10 -4 -10 -10z"/>
<path d="M4015 2580 c7 -12 75 -14 75 -2 0 4 -18 9 -41 11 -26 1 -38 -2 -34
-9z"/>
<path d="M3630 2505 c-11 -13 -54 -15 -301 -13 -159 2 -285 2 -279 0 5 -2 10
-35 10 -73 l0 -69 580 0 580 0 0 70 0 70 -269 0 c-226 0 -270 2 -281 15 -16
19 -24 19 -40 0z m-495 -69 c12 -12 12 -16 -1 -27 -19 -15 -37 1 -28 24 8 21
11 21 29 3z m435 -16 c0 -10 -6 -20 -12 -23 -21 -7 -38 4 -38 23 0 10 6 20 13
23 20 7 37 -4 37 -23z m260 26 c0 -2 -7 -7 -16 -10 -8 -3 -12 -2 -9 4 6 10 25
14 25 6z m360 -8 c0 -5 -16 -8 -35 -8 -19 0 -35 4 -35 8 0 5 16 8 35 8 19 -1
35 -4 35 -8z m-850 -23 c0 -28 -21 -33 -40 -10 -15 18 -5 35 21 35 14 0 19 -7
19 -25z m-101 -1 c3 -3 -12 -4 -33 -2 -20 1 -40 6 -43 11 -5 9 67 1 76 -9z
m221 5 c0 -9 -48 -15 -77 -11 -42 6 -24 17 27 17 27 0 50 -3 50 -6z m270 0 c0
-10 -53 -15 -107 -10 -69 5 -49 16 32 17 41 0 75 -3 75 -7z m240 1 c0 -5 -21
-9 -47 -9 l-48 2 40 7 c22 4 43 8 48 9 4 0 7 -3 7 -9z m80 0 c0 -5 -5 -10 -11
-10 -5 0 -7 5 -4 10 3 6 8 10 11 10 2 0 4 -4 4 -10z m-210 -10 c0 -5 -5 -10
-11 -10 -5 0 -7 5 -4 10 3 6 8 10 11 10 2 0 4 -4 4 -10z m350 -11 c0 -5 -27
-9 -60 -9 -33 0 -60 4 -60 10 0 5 27 9 60 9 33 -1 60 -5 60 -10z"/>
<path d="M3535 2430 c-4 -6 -3 -16 3 -22 6 -6 12 -6 17 2 4 6 3 16 -3 22 -6 6
-12 6 -17 -2z"/>
<path d="M4350 2500 c0 -5 5 -10 11 -10 5 0 7 5 4 10 -3 6 -8 10 -11 10 -2 0
-4 -4 -4 -10z"/>
<path d="M578 2493 c6 -2 18 -2 25 0 6 3 1 5 -13 5 -14 0 -19 -2 -12 -5z"/>
<path d="M664 2449 c-10 -17 23 -46 37 -32 7 7 9 19 6 27 -7 18 -33 21 -43 5z"/>
<path d="M4510 2439 c0 -5 5 -7 10 -4 6 3 10 8 10 11 0 2 -4 4 -10 4 -5 0 -10
-5 -10 -11z"/>
<path d="M578 2433 c6 -2 18 -2 25 0 6 3 1 5 -13 5 -14 0 -19 -2 -12 -5z"/>
<path d="M670 2305 c-10 -11 -10 -19 -2 -27 15 -15 44 -2 40 19 -4 23 -22 27
-38 8z"/>
<path d="M3157 2313 c-15 -14 -7 -43 12 -43 26 0 36 17 21 35 -14 16 -23 19
-33 8z"/>
<path d="M4411 2274 c0 -11 3 -14 6 -6 3 7 2 16 -1 19 -3 4 -6 -2 -5 -13z"/>
<path d="M1040 2051 c0 -5 9 -7 20 -4 11 3 20 7 20 9 0 2 -9 4 -20 4 -11 0
-20 -4 -20 -9z"/>
<path d="M3550 2052 c0 -4 9 -8 20 -8 11 0 20 4 20 8 0 4 -9 8 -20 8 -11 0
-20 -4 -20 -8z"/>
<path d="M228 2003 c7 -3 16 -2 19 1 4 3 -2 6 -13 5 -11 0 -14 -3 -6 -6z"/>
<path d="M2628 2003 c7 -3 16 -2 19 1 4 3 -2 6 -13 5 -11 0 -14 -3 -6 -6z"/>
<path d="M2688 2003 c7 -3 16 -2 19 1 4 3 -2 6 -13 5 -11 0 -14 -3 -6 -6z"/>
<path d="M1040 1990 c0 -5 9 -10 21 -10 11 0 17 5 14 10 -3 6 -13 10 -21 10
-8 0 -14 -4 -14 -10z"/>
<path d="M3549 1989 c-10 -6 -7 -9 14 -9 29 0 35 5 14 13 -8 3 -20 1 -28 -4z"/>
<path d="M2690 1910 c0 -5 5 -10 11 -10 5 0 7 5 4 10 -3 6 -8 10 -11 10 -2 0
-4 -4 -4 -10z"/>
<path d="M505 1840 c-4 -6 3 -10 14 -10 25 0 27 6 6 13 -8 4 -17 2 -20 -3z"/>
<path d="M1874 1826 c1 -14 -5 -21 -16 -20 -25 2 -22 -15 3 -24 19 -7 19 -9 5
-21 -9 -7 -13 -18 -10 -23 3 -5 15 -1 26 9 19 17 20 17 29 0 11 -19 39 -23 39
-6 0 5 -5 7 -12 3 -7 -5 -8 -3 -3 6 5 8 2 18 -8 25 -15 11 -15 14 3 30 11 10
20 23 20 29 -1 6 -9 1 -19 -11 -23 -28 -31 -29 -31 -4 0 10 -6 21 -13 24 -9 3
-13 -3 -13 -17z"/>
<path d="M2980 1840 c-12 -8 -10 -10 8 -10 13 0 20 4 17 10 -7 12 -6 12 -25 0z"/>
<path d="M4442 1829 c3 -20 -1 -24 -21 -21 -20 2 -22 0 -11 -13 7 -8 19 -15
28 -15 13 0 12 -3 -3 -20 -23 -25 -12 -39 14 -16 16 15 19 15 31 1 7 -8 19
-15 26 -15 21 0 17 28 -6 42 -19 12 -19 13 7 40 15 16 22 28 15 28 -6 0 -16
-9 -22 -20 -12 -23 -30 -27 -30 -6 0 7 -7 19 -15 26 -13 11 -15 9 -13 -11z"/>
<path d="M121 1786 l0 -55 50 1 c45 0 49 2 49 25 0 20 -4 24 -25 21 -13 -2
-24 2 -24 7 0 6 11 9 24 7 21 -3 25 1 25 22 0 24 -3 26 -49 26 l-50 0 0 -54z"/>
<path d="M2230 1821 c0 -18 17 -38 25 -30 12 14 8 44 -7 47 -13 2 -18 -3 -18
-17z"/>
<path d="M2571 1785 l0 -54 54 0 54 0 0 54 0 54 -54 0 -54 0 0 -54z m69 1 c0
-11 -19 -15 -25 -6 -3 5 1 10 9 10 9 0 16 -2 16 -4z"/>
<path d="M4826 1831 c-7 -11 3 -41 14 -41 11 0 21 30 14 41 -3 5 -9 9 -14 9
-5 0 -11 -4 -14 -9z"/>
<path d="M1528 1786 c-19 -14 -24 -46 -8 -46 5 0 15 9 22 20 7 11 23 20 36 20
13 0 20 4 17 10 -9 14 -47 12 -67 -4z"/>
<path d="M4078 1786 c-19 -14 -25 -46 -8 -46 5 0 14 9 20 20 6 12 21 20 38 21
24 0 25 1 7 9 -28 12 -37 11 -57 -4z"/>
<path d="M830 1760 c0 -11 2 -20 4 -20 2 0 11 -3 20 -6 12 -5 16 0 16 20 0 19
-5 26 -20 26 -13 0 -20 -7 -20 -20z"/>
<path d="M1180 1760 c0 -17 5 -19 30 -15 17 3 30 1 30 -5 0 -5 6 -10 12 -10 7
0 1 11 -14 25 -33 30 -58 32 -58 5z"/>
<path d="M2190 1772 c0 -5 27 -10 61 -11 41 -1 59 1 54 8 -7 13 -115 15 -115
3z"/>
<path d="M3330 1761 c0 -19 23 -35 34 -24 14 15 5 43 -14 43 -13 0 -20 -7 -20
-19z"/>
<path d="M3700 1759 c0 -15 5 -19 15 -15 8 3 15 0 15 -7 0 -8 4 -6 10 3 8 13
11 12 24 -5 9 -11 16 -15 16 -9 0 15 -47 54 -65 54 -9 0 -15 -9 -15 -21z"/>
<path d="M4777 1773 c-9 -9 -9 -43 1 -43 4 0 8 11 8 25 2 27 1 29 -9 18z"/>
<path d="M4800 1770 c0 -5 23 -10 50 -10 28 0 50 5 50 10 0 6 -22 10 -50 10
-27 0 -50 -4 -50 -10z"/>
<path d="M1560 1739 c0 -5 5 -7 10 -4 6 3 10 8 10 11 0 2 -4 4 -10 4 -5 0 -10
-5 -10 -11z"/>
<path d="M2295 1740 c-3 -5 -1 -10 4 -10 6 0 11 5 11 10 0 6 -2 10 -4 10 -3 0
-8 -4 -11 -10z"/>
<path d="M4105 1740 c3 -5 8 -10 11 -10 2 0 4 5 4 10 0 6 -5 10 -11 10 -5 0
-7 -4 -4 -10z"/>
<path d="M205 1690 c-3 -5 -1 -10 4 -10 6 0 11 5 11 10 0 6 -2 10 -4 10 -3 0
-8 -4 -11 -10z"/>
<path d="M420 1692 c0 -5 7 -9 15 -9 8 0 12 4 9 9 -3 4 -9 8 -15 8 -5 0 -9 -4
-9 -8z"/>
<path d="M860 1690 c0 -6 7 -10 15 -10 8 0 15 2 15 4 0 2 -7 6 -15 10 -8 3
-15 1 -15 -4z"/>
<path d="M945 1690 c-3 -5 -1 -10 4 -10 6 0 11 5 11 10 0 6 -2 10 -4 10 -3 0
-8 -4 -11 -10z"/>
<path d="M1160 1690 c0 -6 7 -10 15 -10 8 0 15 2 15 4 0 2 -7 6 -15 10 -8 3
-15 1 -15 -4z"/>
<path d="M2205 1690 c3 -5 13 -10 21 -10 8 0 12 5 9 10 -3 6 -13 10 -21 10 -8
0 -12 -4 -9 -10z"/>
<path d="M2890 1689 c0 -5 5 -7 10 -4 6 3 10 8 10 11 0 2 -4 4 -10 4 -5 0 -10
-5 -10 -11z"/>
<path d="M3355 1690 c-4 -6 3 -10 14 -10 25 0 27 6 6 13 -8 4 -17 2 -20 -3z"/>
<path d="M3678 1688 c5 -5 16 -8 23 -6 8 3 3 7 -10 11 -17 4 -21 3 -13 -5z"/>
<path d="M4039 1689 c-10 -6 -7 -9 14 -9 29 0 35 5 14 13 -8 3 -20 1 -28 -4z"/>
<path d="M4120 1690 c-9 -6 -10 -10 -3 -10 6 0 15 5 18 10 8 12 4 12 -15 0z"/>
<path d="M4795 1690 c3 -5 13 -10 21 -10 8 0 12 5 9 10 -3 6 -13 10 -21 10 -8
0 -12 -4 -9 -10z"/>
<path d="M808 1683 c7 -3 16 -2 19 1 4 3 -2 6 -13 5 -11 0 -14 -3 -6 -6z"/>
<path d="M1498 1683 c6 -2 18 -2 25 0 6 3 1 5 -13 5 -14 0 -19 -2 -12 -5z"/>
<path d="M3308 1683 c7 -3 16 -2 19 1 4 3 -2 6 -13 5 -11 0 -14 -3 -6 -6z"/>
<path d="M4488 1683 c6 -2 18 -2 25 0 6 3 1 5 -13 5 -14 0 -19 -2 -12 -5z"/>
<path d="M0 1610 l0 -50 1210 0 1210 0 0 50 0 50 -1210 0 -1210 0 0 -50z
m2376 -17 c-11 -11 -19 6 -11 24 8 17 8 17 12 0 3 -10 2 -21 -1 -24z m-326 24
c0 -1 -9 -10 -20 -20 -19 -16 -20 -16 -20 3 0 13 7 20 20 20 11 0 20 -1 20 -3z"/>
<path d="M2440 1610 l0 -50 1290 0 1290 0 0 50 0 50 -1290 0 -1290 0 0 -50z
m2536 -17 c-11 -11 -19 6 -11 24 8 17 8 17 12 0 3 -10 2 -21 -1 -24z m-356 21
c0 -11 -28 -33 -34 -27 -13 13 -5 33 14 33 11 0 20 -3 20 -6z m307 -16 c-3 -8
-6 -5 -6 6 -1 11 2 17 5 13 3 -3 4 -12 1 -19z"/>
<path d="M4901 1497 c-14 -14 -15 -47 -1 -47 6 0 10 5 10 10 0 6 5 10 11 10 5
0 7 -4 4 -10 -3 -5 3 -10 13 -10 18 0 19 3 9 25 -14 30 -30 38 -46 22z"/>
<path d="M2287 1483 c-11 -10 -8 -43 3 -43 6 0 10 5 10 10 0 6 5 10 11 10 5 0
7 -4 4 -10 -3 -5 3 -10 13 -10 18 0 19 3 9 25 -11 24 -36 33 -50 18z"/>
<path d="M3796 1475 c-3 -8 -1 -15 4 -15 6 0 10 7 10 15 0 8 -2 15 -4 15 -2 0
-6 -7 -10 -15z"/>
<path d="M2512 1423 c3 -38 3 -38 51 -41 56 -4 65 15 10 21 l-38 4 38 1 c47 2
49 22 2 22 -47 0 -45 18 3 23 30 3 27 4 -16 5 l-53 2 3 -37z"/>
<path d="M2648 1450 c16 -7 22 -18 22 -41 0 -41 24 -34 28 9 2 19 10 32 20 35
9 3 -8 5 -38 5 -42 1 -50 -1 -32 -8z"/>
<path d="M2752 1424 c4 -50 28 -58 28 -10 0 32 3 36 26 36 19 0 25 -4 22 -17
-2 -10 -11 -17 -18 -15 -10 2 -9 -3 4 -17 11 -12 26 -21 34 -21 12 0 12 4 -3
20 -17 19 -17 20 -1 20 11 0 16 6 14 18 -2 13 -15 18 -56 20 l-53 3 3 -37z"/>
<path d="M2890 1420 c0 -22 5 -40 10 -40 6 0 10 18 10 40 0 22 -4 40 -10 40
-5 0 -10 -18 -10 -40z"/>
<path d="M62 1413 c3 -37 4 -38 46 -41 25 -2 42 1 42 7 0 6 -14 11 -31 11 -16
0 -28 4 -25 9 3 4 16 6 30 4 13 -3 27 0 30 6 5 7 -5 11 -28 11 -48 0 -46 18 2
23 30 3 27 4 -16 5 l-53 2 3 -37z"/>
<path d="M193 1443 c12 -3 17 -15 17 -40 0 -44 24 -40 28 5 2 19 10 32 20 35
9 3 -5 5 -33 5 -27 0 -42 -2 -32 -5z"/>
<path d="M290 1410 c0 -48 17 -54 22 -8 4 39 32 50 53 21 15 -20 31 -12 22 12
-5 10 -20 15 -52 15 l-45 0 0 -40z"/>
<path d="M414 1436 c-8 -22 -1 -59 14 -64 8 -2 12 9 12 37 0 40 -15 55 -26 27z"/>
<path d="M340 1402 c0 -13 23 -32 39 -32 11 0 10 4 -4 20 -19 21 -35 26 -35
12z"/>
<path d="M2947 1392 c4 -10 8 -11 13 -2 6 9 9 9 12 -1 3 -10 6 -9 10 2 4 11
-1 15 -17 15 -15 0 -21 -5 -18 -14z"/>
<path d="M3160 1398 c0 -4 7 -8 15 -8 8 0 15 4 15 8 0 5 -7 9 -15 9 -8 0 -15
-4 -15 -9z"/>
<path d="M475 1389 c-4 -6 -4 -13 -1 -16 3 -4 6 -1 6 6 0 7 5 9 12 5 7 -4 8
-3 4 4 -9 15 -13 15 -21 1z"/>
<path d="M670 1388 c0 -4 4 -8 9 -8 6 0 12 4 15 8 3 5 -1 9 -9 9 -8 0 -15 -4
-15 -9z"/>
<path d="M2440 1325 l0 -25 255 0 255 0 0 25 0 25 -255 0 -255 0 0 -25z"/>
<path d="M0 1320 c0 -19 7 -20 240 -20 233 0 240 1 240 20 0 19 -7 20 -240 20
-233 0 -240 -1 -240 -20z"/>
<path d="M3068 1308 c6 -6 18 -8 28 -6 14 3 12 5 -9 10 -19 3 -25 2 -19 -4z"/>
<path d="M2665 1215 c-27 -62 -6 -118 29 -82 13 13 13 17 1 27 -15 13 -14 62
3 68 16 5 35 -37 28 -63 -5 -19 14 -55 28 -55 2 0 1 24 -2 53 -8 88 -60 119
-87 52z"/>
<path d="M211 1218 c-19 -52 -21 -67 -10 -73 8 -6 8 -9 -1 -15 -8 -5 -5 -9 9
-13 24 -6 39 26 22 47 -11 13 -4 56 10 56 14 0 31 -40 25 -57 -9 -21 2 -53 18
-53 9 0 11 12 6 48 -4 26 -11 55 -15 65 -11 25 -54 22 -64 -5z"/>
<path d="M3430 1230 c0 -6 7 -10 15 -10 8 0 15 2 15 4 0 2 -7 6 -15 10 -8 3
-15 1 -15 -4z"/>
<path d="M3488 1232 c-30 -6 -20 -17 17 -19 19 -1 35 2 35 6 0 11 -30 18 -52
13z"/>
<path d="M3598 1232 c-29 -6 -21 -17 12 -17 31 0 40 9 18 17 -7 2 -21 3 -30 0z"/>
<path d="M613 1213 c9 -2 23 -2 30 0 6 3 -1 5 -18 5 -16 0 -22 -2 -12 -5z"/>
<path d="M958 1213 c7 -3 16 -2 19 1 4 3 -2 6 -13 5 -11 0 -14 -3 -6 -6z"/>
<path d="M1043 1213 c9 -2 23 -2 30 0 6 3 -1 5 -18 5 -16 0 -22 -2 -12 -5z"/>
<path d="M1020 1138 c0 -4 7 -8 15 -8 8 0 15 4 15 8 0 5 -7 9 -15 9 -8 0 -15
-4 -15 -9z"/>
<path d="M633 1133 c9 -2 25 -2 35 0 9 3 1 5 -18 5 -19 0 -27 -2 -17 -5z"/>
<path d="M968 1038 c5 -5 16 -8 23 -6 8 3 3 7 -10 11 -17 4 -21 3 -13 -5z"/>
<path d="M588 1033 c7 -3 16 -2 19 1 4 3 -2 6 -13 5 -11 0 -14 -3 -6 -6z"/>
<path d="M660 1030 c0 -5 7 -7 15 -4 8 4 15 8 15 10 0 2 -7 4 -15 4 -8 0 -15
-4 -15 -10z"/>
<path d="M718 1033 c7 -3 16 -2 19 1 4 3 -2 6 -13 5 -11 0 -14 -3 -6 -6z"/>
<path d="M2880 1016 c0 -8 -6 -17 -12 -19 -8 -3 -6 -6 5 -6 11 -1 17 6 17 19
0 11 -2 20 -5 20 -3 0 -5 -6 -5 -14z"/>
<path d="M2560 1008 c0 -5 16 -8 35 -8 19 0 35 4 35 9 0 4 -16 8 -35 7 -19 0
-35 -4 -35 -8z"/>
<path d="M2760 1010 c-13 -8 -12 -10 3 -10 9 0 17 5 17 10 0 12 -1 12 -20 0z"/>
<path d="M143 1003 c9 -2 23 -2 30 0 6 3 -1 5 -18 5 -16 0 -22 -2 -12 -5z"/>
<path d="M290 999 c0 -5 5 -7 10 -4 6 3 10 8 10 11 0 2 -4 4 -10 4 -5 0 -10
-5 -10 -11z"/>
<path d="M328 1003 c7 -3 16 -2 19 1 4 3 -2 6 -13 5 -11 0 -14 -3 -6 -6z"/>
<path d="M2798 1003 c7 -3 16 -2 19 1 4 3 -2 6 -13 5 -11 0 -14 -3 -6 -6z"/>
<path d="M628 953 c7 -3 16 -2 19 1 4 3 -2 6 -13 5 -11 0 -14 -3 -6 -6z"/>
<path d="M55 920 c-19 -8 -19 -9 3 -9 12 -1 22 4 22 9 0 6 -1 10 -2 9 -2 0
-12 -4 -23 -9z"/>
<path d="M235 920 c-3 -5 1 -10 9 -10 9 0 16 5 16 10 0 6 -4 10 -9 10 -6 0
-13 -4 -16 -10z"/>
<path d="M2490 921 c0 -10 26 -9 36 2 4 4 -2 7 -14 7 -12 0 -22 -4 -22 -9z"/>
<path d="M2540 922 c0 -5 7 -9 15 -9 8 0 15 4 15 9 0 4 -7 8 -15 8 -8 0 -15
-4 -15 -8z"/>
<path d="M2690 922 c0 -5 7 -9 15 -9 8 0 15 4 15 9 0 4 -7 8 -15 8 -8 0 -15
-4 -15 -8z"/>
<path d="M2775 920 c3 -5 8 -10 11 -10 2 0 4 5 4 10 0 6 -5 10 -11 10 -5 0 -7
-4 -4 -10z"/>
<path d="M3740 870 c0 -5 12 -10 26 -10 14 0 23 4 19 10 -3 6 -15 10 -26 10
-10 0 -19 -4 -19 -10z"/>
<path d="M580 859 c0 -5 9 -9 20 -9 11 0 20 2 20 4 0 2 -9 6 -20 9 -11 3 -20
1 -20 -4z"/>
<path d="M2601 834 c0 -11 3 -14 6 -6 3 7 2 16 -1 19 -3 4 -6 -2 -5 -13z"/>
<path d="M48 833 c7 -3 16 -2 19 1 4 3 -2 6 -13 5 -11 0 -14 -3 -6 -6z"/>
<path d="M130 836 c0 -2 7 -6 15 -10 8 -3 15 -1 15 4 0 6 -7 10 -15 10 -8 0
-15 -2 -15 -4z"/>
<path d="M178 833 c7 -3 16 -2 19 1 4 3 -2 6 -13 5 -11 0 -14 -3 -6 -6z"/>
<path d="M2476 788 c3 -4 9 -8 15 -8 5 0 9 4 9 8 0 5 -7 9 -15 9 -8 0 -12 -4
-9 -9z"/>
<path d="M2630 796 c0 -2 7 -6 15 -10 8 -3 15 -1 15 4 0 6 -7 10 -15 10 -8 0
-15 -2 -15 -4z"/>
<path d="M2734 792 c4 -3 14 -7 22 -8 9 -1 13 0 10 4 -4 3 -14 7 -22 8 -9 1
-13 0 -10 -4z"/>
<path d="M2845 790 c-3 -5 -1 -10 4 -10 6 0 11 5 11 10 0 6 -2 10 -4 10 -3 0
-8 -4 -11 -10z"/>
<path d="M2870 788 c0 -4 7 -8 15 -8 8 0 15 4 15 8 0 5 -7 9 -15 9 -8 0 -15
-4 -15 -9z"/>
<path d="M25 780 c-3 -6 1 -7 9 -4 18 7 21 14 7 14 -6 0 -13 -4 -16 -10z"/>
<path d="M408 783 c7 -3 16 -2 19 1 4 3 -2 6 -13 5 -11 0 -14 -3 -6 -6z"/>
<path d="M920 778 c0 -5 8 -8 18 -9 9 -1 31 -2 47 -4 17 -1 37 1 44 5 9 5 -10
9 -47 12 -34 1 -62 0 -62 -4z"/>
<path d="M1060 776 c0 -6 14 -11 30 -11 17 0 30 3 30 8 0 4 -3 7 -7 8 -5 0
-18 2 -30 3 -13 2 -23 -2 -23 -8z"/>
<path d="M3700 580 c0 -5 12 -10 26 -10 14 0 23 4 19 10 -3 6 -15 10 -26 10
-10 0 -19 -4 -19 -10z"/>
<path d="M3480 513 c0 -8 12 -13 30 -13 17 0 30 4 30 9 0 5 -13 11 -30 13 -20
3 -30 0 -30 -9z"/>
<path d="M1210 420 c0 -5 9 -10 20 -10 11 0 20 5 20 10 0 6 -9 10 -20 10 -11
0 -20 -4 -20 -10z"/>
<path d="M506 272 c-3 -6 -15 -8 -26 -5 -11 3 -20 1 -20 -4 0 -5 24 -9 54 -9
30 0 52 4 49 9 -3 4 -11 6 -18 3 -7 -2 -17 0 -23 6 -6 6 -12 6 -16 0z"/>
<path d="M1867 249 c5 -19 3 -21 -15 -17 -12 4 -22 2 -22 -4 0 -5 9 -12 20
-15 16 -4 18 -8 9 -19 -16 -19 -3 -30 16 -14 13 10 19 10 33 -4 34 -30 46 -8
15 26 -17 19 -16 20 7 39 17 12 20 19 10 19 -8 0 -22 -10 -29 -22 l-15 -23 -6
24 c-3 14 -11 26 -17 28 -7 3 -9 -4 -6 -18z"/>
<path d="M2226 261 c-7 -11 3 -41 14 -41 4 0 10 6 13 14 7 17 -18 42 -27 27z"/>
<path d="M2958 262 c-27 -3 -28 -6 -27 -55 1 -29 4 -40 6 -24 2 15 9 25 14 22
5 -4 9 -1 9 4 0 6 -4 11 -10 11 -5 0 -10 7 -10 16 0 11 8 15 28 14 39 -3 86
-1 81 4 -8 7 -65 12 -91 8z"/>
<path d="M4444 253 c8 -26 -9 -39 -30 -22 -12 10 -13 9 -8 -5 6 -15 18 -21 39
-16 5 1 1 -8 -9 -19 -24 -26 -13 -40 13 -17 16 15 19 15 31 1 12 -15 40 -21
40 -8 0 3 -7 15 -17 25 -15 17 -15 20 7 43 29 31 15 33 -17 3 -18 -17 -23 -18
-23 -6 0 9 -7 22 -16 29 -15 12 -16 11 -10 -8z"/>
<path d="M120 240 c0 -13 7 -20 20 -20 13 0 20 7 20 20 0 13 -7 20 -20 20 -13
0 -20 -7 -20 -20z"/>
<path d="M180 240 c0 -13 7 -20 20 -20 13 0 20 7 20 20 0 13 -7 20 -20 20 -13
0 -20 -7 -20 -20z"/>
<path d="M836 243 c-6 -14 -5 -15 5 -6 7 7 10 15 7 18 -3 3 -9 -2 -12 -12z"/>
<path d="M2570 240 c0 -15 7 -20 25 -20 18 0 25 5 25 20 0 15 -7 20 -25 20
-18 0 -25 -5 -25 -20z"/>
<path d="M2630 240 c0 -15 7 -20 25 -20 18 0 25 5 25 20 0 15 -7 20 -25 20
-18 0 -25 -5 -25 -20z"/>
<path d="M4826 251 c-8 -12 3 -41 15 -41 5 0 9 7 9 15 0 8 0 18 1 22 1 12 -19
15 -25 4z"/>
<path d="M460 220 c0 -5 5 -10 10 -10 6 0 10 5 10 10 0 6 -4 10 -10 10 -5 0
-10 -4 -10 -10z"/>
<path d="M1528 216 c-22 -16 -24 -48 -3 -40 8 4 15 12 15 20 0 9 11 14 28 14
21 0 24 2 12 10 -20 13 -32 12 -52 -4z"/>
<path d="M2970 209 c0 -5 5 -7 10 -4 6 3 10 8 10 11 0 2 -4 4 -10 4 -5 0 -10
-5 -10 -11z"/>
<path d="M4073 205 c-7 -8 -13 -22 -13 -32 1 -15 5 -13 25 10 21 24 64 40 51
19 -2 -4 -1 -14 3 -21 6 -9 9 -4 9 13 0 23 -5 26 -32 26 -17 -1 -37 -7 -43
-15z"/>
<path d="M120 190 c0 -13 7 -20 20 -20 13 0 20 7 20 20 0 13 -7 20 -20 20 -13
0 -20 -7 -20 -20z"/>
<path d="M180 190 c0 -13 7 -20 20 -20 13 0 20 7 20 20 0 13 -7 20 -20 20 -13
0 -20 -7 -20 -20z"/>
<path d="M830 189 c0 -11 4 -18 9 -15 5 4 11 2 13 -4 1 -5 8 1 14 13 9 20 7
23 -13 25 -17 1 -23 -3 -23 -19z"/>
<path d="M1172 193 c2 -12 12 -18 28 -18 14 0 31 -4 38 -8 7 -5 12 -4 12 2 0
5 -9 13 -20 16 -11 3 -20 11 -20 16 0 5 -9 9 -21 9 -14 0 -19 -5 -17 -17z"/>
<path d="M2180 202 c0 -6 6 -10 13 -9 49 2 97 -5 97 -13 0 -5 -26 -11 -57 -13
l-58 -4 60 1 c53 1 60 3 60 21 0 17 -8 20 -57 23 -32 2 -58 -1 -58 -6z"/>
<path d="M2570 180 c0 -15 7 -20 25 -20 18 0 25 5 25 20 0 15 -7 20 -25 20
-18 0 -25 -5 -25 -20z"/>
<path d="M2630 180 c0 -15 7 -20 25 -20 18 0 25 5 25 20 0 15 -7 20 -25 20
-18 0 -25 -5 -25 -20z"/>
<path d="M3330 182 c0 -11 8 -18 20 -19 14 -1 20 4 20 18 0 12 -7 19 -20 19
-13 0 -20 -7 -20 -18z"/>
<path d="M3700 182 c0 -11 7 -18 20 -18 13 0 20 7 20 18 0 11 -7 18 -20 18
-13 0 -20 -7 -20 -18z"/>
<path d="M4777 193 c-3 -5 16 -7 41 -5 80 5 90 9 25 11 -34 0 -64 -2 -66 -6z"/>
<path d="M3760 172 c6 -13 14 -21 18 -18 3 4 -2 14 -12 24 -18 16 -18 16 -6
-6z"/>
<path d="M460 168 c0 -5 25 -8 55 -8 30 0 55 3 55 8 0 4 -25 7 -55 7 -30 0
-55 -3 -55 -7z"/>
<path d="M425 130 c-3 -5 1 -10 10 -10 9 0 13 5 10 10 -3 6 -8 10 -10 10 -2 0
-7 -4 -10 -10z"/>
<path d="M2204 129 c-3 -5 6 -9 20 -9 31 0 34 6 6 13 -11 3 -23 1 -26 -4z"/>
<path d="M578 123 c6 -2 18 -2 25 0 6 3 1 5 -13 5 -14 0 -19 -2 -12 -5z"/>
<path d="M808 123 c7 -3 16 -2 19 1 4 3 -2 6 -13 5 -11 0 -14 -3 -6 -6z"/>
<path d="M858 123 c7 -3 16 -2 19 1 4 3 -2 6 -13 5 -11 0 -14 -3 -6 -6z"/>
<path d="M1488 123 c6 -2 18 -2 25 0 6 3 1 5 -13 5 -14 0 -19 -2 -12 -5z"/>
<path d="M1908 123 c6 -2 18 -2 25 0 6 3 1 5 -13 5 -14 0 -19 -2 -12 -5z"/>
<path d="M2890 122 c0 -5 7 -9 15 -9 8 0 15 4 15 9 0 4 -7 8 -15 8 -8 0 -15
-4 -15 -8z"/>
<path d="M3050 120 c0 -6 7 -10 15 -10 8 0 15 2 15 4 0 2 -7 6 -15 10 -8 3
-15 1 -15 -4z"/>
<path d="M3360 120 c0 -6 7 -10 15 -10 8 0 15 2 15 4 0 2 -7 6 -15 10 -8 3
-15 1 -15 -4z"/>
<path d="M3675 120 c3 -5 14 -10 23 -10 15 0 15 2 2 10 -20 13 -33 13 -25 0z"/>
<path d="M4039 119 c-10 -6 -7 -9 14 -9 29 0 35 5 14 13 -8 3 -20 1 -28 -4z"/>
<path d="M4120 120 c-9 -6 -10 -10 -3 -10 6 0 15 5 18 10 8 12 4 12 -15 0z"/>
<path d="M4795 120 c3 -5 18 -10 33 -9 24 0 25 1 7 9 -28 12 -47 12 -40 0z"/>
<path d="M3308 113 c7 -3 16 -2 19 1 4 3 -2 6 -13 5 -11 0 -14 -3 -6 -6z"/>
<path d="M0 55 l0 -45 1205 0 1205 0 0 45 0 45 -1205 0 -1205 0 0 -45z m2034
7 c2 -4 -4 -13 -15 -20 -16 -11 -19 -9 -19 8 0 19 24 28 34 12z m336 -13 c0
-11 -4 -17 -10 -14 -5 3 -10 13 -10 21 0 8 5 14 10 14 6 0 10 -9 10 -21z"/>
<path d="M2440 45 l0 -45 1290 0 1290 0 0 45 0 45 -1290 0 -1290 0 0 -45z
m2180 9 c0 -3 -6 -12 -14 -19 -12 -12 -15 -12 -19 -1 -3 8 -3 17 0 20 8 8 33
8 33 0z m360 -9 c0 -8 -4 -15 -10 -15 -5 0 -10 7 -10 15 0 8 5 15 10 15 6 0
10 -7 10 -15z"/>
</g>
</svg>
