<?xml version="1.0" standalone="no"?>
<!DOCTYPE svg PUBLIC "-//W3C//DTD SVG 20010904//EN"
 "http://www.w3.org/TR/2001/REC-SVG-20010904/DTD/svg10.dtd">
<svg version="1.0" xmlns="http://www.w3.org/2000/svg"
 width="373.000000pt" height="325.000000pt" viewBox="0 0 373.000000 325.000000"
 preserveAspectRatio="xMidYMid meet">

<g transform="translate(0.000000,325.000000) scale(0.100000,-0.100000)"
fill="#000000" stroke="none">
<path d="M1910 3000 l0 -250 910 0 910 0 0 250 0 250 -910 0 -910 0 0 -250z
m1006 188 c1 -52 1 -52 -66 -48 -42 2 -40 1 -46 40 -9 53 -1 61 58 58 l53 -3
1 -47z m-646 -28 c0 -6 -18 -10 -40 -10 -22 0 -40 3 -40 8 0 4 9 22 21 41 l20
34 20 -32 c10 -17 19 -36 19 -41z m387 44 c16 -25 16 -27 -2 -40 -10 -7 -23
-10 -28 -7 -8 5 -7 8 1 11 15 5 16 42 1 42 -6 0 -13 -9 -16 -20 -6 -23 -23
-27 -23 -6 0 16 26 46 40 46 5 0 17 -12 27 -26z m115 9 c23 -20 23 -32 1 -49
-24 -18 -51 -17 -69 0 -18 19 -18 25 3 48 20 22 41 23 65 1z m225 11 c16 -5
21 -13 20 -37 -3 -41 -20 -44 -57 -8 -29 27 -30 30 -13 40 21 12 22 12 50 5z
m117 -35 c0 -31 -3 -34 -34 -37 -48 -5 -56 17 -17 50 40 34 51 31 51 -13z
m244 -2 c3 -34 1 -37 -22 -37 -23 0 -26 4 -26 33 0 38 7 49 30 45 9 -2 16 -16
18 -41z m-1303 22 c4 -5 1 -9 -4 -9 -6 0 -11 -9 -11 -20 0 -11 -4 -20 -10 -20
-5 0 -10 9 -10 20 0 11 -5 20 -11 20 -6 0 -8 -8 -5 -18 5 -15 -1 -18 -33 -19
-37 -1 -40 0 -36 25 1 15 3 27 4 27 56 4 112 2 116 -6z m105 -19 c0 -28 -2
-30 -40 -30 -38 0 -40 2 -40 30 0 28 2 30 40 30 38 0 40 -2 40 -30z m1054 18
c8 13 57 6 67 -10 22 -34 3 -50 -25 -22 -14 13 -16 13 -16 1 0 -10 -11 -15
-35 -15 -30 0 -35 3 -35 22 0 29 10 39 26 25 7 -6 15 -6 18 -1z m211 2 c4 -6
2 -17 -5 -24 -8 -11 -8 -15 2 -19 7 -3 -3 -6 -22 -6 -23 0 -30 2 -21 8 9 6 10
11 3 15 -6 4 -9 13 -5 21 6 17 39 20 48 5z m75 -11 c0 -31 -12 -49 -31 -49
-10 0 -19 6 -20 13 0 6 -2 22 -3 34 -2 18 2 21 26 21 20 -1 28 -6 28 -19z
m151 -7 c0 -12 3 -11 9 6 12 28 26 28 33 0 9 -31 3 -35 -50 -36 -32 -1 -43 2
-33 8 8 5 17 7 20 5 4 -2 7 2 7 11 0 10 -7 12 -21 8 -21 -6 -21 -6 -1 9 23 17
35 14 36 -11z m-491 -7 c0 -14 -4 -25 -9 -25 -5 0 -11 11 -13 25 -4 17 -1 25
8 25 8 0 14 -11 14 -25z m390 0 c0 -14 -4 -25 -9 -25 -5 0 -11 11 -13 25 -4
17 -1 25 8 25 8 0 14 -11 14 -25z m40 0 c0 -14 -4 -25 -9 -25 -5 0 -11 11 -13
25 -4 17 -1 25 8 25 8 0 14 -11 14 -25z m-1088 -191 c16 -34 0 -59 -38 -59
-24 0 -30 5 -32 28 -5 42 4 57 33 57 18 0 29 -8 37 -26z m38 -19 c0 -31 -4
-45 -13 -45 -9 0 -13 13 -11 43 2 23 3 43 3 45 1 1 6 2 11 2 6 0 10 -20 10
-45z m78 27 c2 -8 -5 -11 -20 -10 -17 2 -23 -2 -23 -16 0 -11 6 -20 13 -22 7
-1 8 0 2 3 -20 10 -9 25 15 21 21 -4 25 -1 25 18 0 22 4 24 55 24 30 0 55 -4
55 -10 0 -5 -7 -10 -15 -10 -10 0 -15 -11 -15 -35 0 -19 -4 -35 -10 -35 -5 0
-10 16 -10 35 0 24 -5 35 -15 35 -10 0 -15 -11 -15 -35 0 -24 -5 -35 -15 -35
-8 0 -15 6 -15 13 0 9 -2 9 -9 -1 -5 -8 -21 -12 -37 -10 -31 3 -40 23 -30 64
5 20 12 25 33 22 15 -2 28 -9 31 -16z m182 -24 l19 -43 0 43 c1 23 6 42 11 42
6 0 10 -16 10 -35 0 -28 4 -35 20 -35 11 0 20 -5 20 -10 0 -7 -28 -10 -75 -8
-70 3 -74 4 -69 23 25 79 37 83 64 23z m176 4 c1 -48 11 -49 25 -3 15 51 32
52 52 4 l16 -38 0 38 c1 34 3 37 31 37 22 0 33 -6 40 -22 l9 -23 0 23 c1 13 7
22 16 22 9 0 15 -9 16 -22 l0 -23 9 23 c12 28 55 30 70 3 14 -28 13 -38 -10
-61 -23 -23 -48 -17 -60 14 -9 21 -9 21 -9 -1 -1 -27 -31 -32 -31 -5 -1 16 -1
16 -11 0 -14 -24 -175 -23 -189 1 -8 14 -9 14 -10 -1 0 -10 -7 -18 -15 -18
-11 0 -15 12 -15 46 0 45 0 45 33 42 29 -3 32 -6 33 -36z m-891 -12 c-18 -20
-17 -20 18 -20 27 0 37 -4 37 -16 0 -13 -8 -15 -35 -12 -39 4 -43 1 -18 -18
10 -7 14 -16 10 -20 -4 -4 -21 6 -38 23 l-31 30 24 26 c12 14 29 25 37 26 11
1 10 -4 -4 -19z m465 -104 c0 -21 -4 -23 -60 -23 -55 0 -60 2 -60 22 0 20 5
22 60 23 56 1 60 -1 60 -22z m265 -1 c0 -17 -7 -20 -47 -22 -36 -1 -48 2 -48
13 0 8 -5 14 -11 14 -5 0 -8 -4 -4 -9 3 -5 1 -12 -4 -15 -5 -3 -12 4 -16 17
l-8 22 -4 -22 c-2 -13 -9 -23 -14 -23 -5 0 -10 10 -10 23 -2 22 -2 22 -6 1 -3
-18 -11 -22 -39 -22 -29 0 -34 3 -34 24 l0 25 123 -3 c114 -3 122 -4 122 -23z"/>
<path d="M2730 3190 c0 -11 5 -20 10 -20 6 0 10 9 10 20 0 11 -4 20 -10 20 -5
0 -10 -9 -10 -20z"/>
<path d="M3395 3200 c-3 -5 -1 -10 4 -10 6 0 11 5 11 10 0 6 -2 10 -4 10 -3 0
-8 -4 -11 -10z"/>
<path d="M2460 2975 c0 -14 5 -25 10 -25 6 0 10 11 10 25 0 14 -4 25 -10 25
-5 0 -10 -11 -10 -25z"/>
<path d="M2940 2990 c0 -5 5 -10 10 -10 6 0 10 5 10 10 0 6 -4 10 -10 10 -5 0
-10 -4 -10 -10z"/>
<path d="M3100 2976 c0 -14 5 -26 10 -26 6 0 10 9 10 19 0 11 -4 23 -10 26 -6
4 -10 -5 -10 -19z"/>
<path d="M3216 2993 c-12 -12 -6 -43 9 -43 8 0 15 9 15 19 0 21 -13 34 -24 24z"/>
<path d="M0 2985 l0 -255 53 -1 c28 -1 67 -2 84 -2 31 -1 33 -3 33 -39 l0 -38
-85 0 -85 0 0 -485 0 -485 915 0 915 0 0 403 c0 222 -3 573 -7 780 l-6 377
-909 0 -908 0 0 -255z m868 226 c28 -24 27 -32 -5 -55 -27 -20 -47 -15 -67 17
-8 12 -5 21 8 36 23 26 34 26 64 2z m152 -11 c0 -26 -4 -30 -27 -31 -24 -2
-25 -2 -5 -6 12 -2 22 -11 22 -19 0 -11 -12 -14 -47 -12 -56 3 -63 10 -63 61
l0 37 60 0 60 0 0 -30z m440 -21 c0 -24 -4 -29 -25 -29 -22 0 -25 4 -25 34 0
19 6 36 13 39 20 7 37 -13 37 -44z m-1200 6 c0 -34 -1 -35 -40 -35 -39 0 -40
1 -40 35 0 34 1 35 40 35 39 0 40 -1 40 -35z m105 0 c0 -28 -3 -30 -35 -30
-32 0 -35 3 -38 33 -3 33 -3 33 35 30 35 -3 38 -5 38 -33z m100 5 c21 -40 20
-40 -25 -40 -46 0 -46 1 -23 41 22 36 29 36 48 -1z m293 6 c11 -25 0 -46 -25
-46 -16 0 -17 17 -1 22 7 3 9 12 5 22 -8 22 -27 12 -27 -15 0 -10 -4 -19 -10
-19 -14 0 -13 33 2 48 19 19 44 14 56 -12z m359 -13 c2 -27 -1 -33 -17 -33
-10 0 -31 12 -45 26 -31 31 -20 46 30 42 26 -3 30 -7 32 -35z m93 2 c0 -34 -1
-35 -40 -35 -54 0 -51 25 5 58 31 18 35 15 35 -23z m309 22 c8 -10 7 -17 -1
-25 -9 -9 -9 -12 0 -12 7 0 12 -4 12 -10 0 -5 -13 -10 -30 -10 -16 0 -30 5
-30 10 0 6 5 10 11 10 8 0 8 4 0 13 -8 10 -7 17 1 25 15 15 23 15 37 -1z m77
-11 c4 -30 -7 -46 -32 -46 -20 0 -23 4 -22 35 1 32 4 35 26 32 15 -2 26 -11
28 -21z m-1454 -11 c-5 -30 -22 -33 -22 -4 0 11 -4 18 -10 14 -5 -3 -6 -13 -3
-22 4 -11 2 -14 -8 -11 -8 3 -24 2 -36 -3 -28 -10 -46 14 -34 44 0 2 27 4 60
5 57 1 58 0 53 -23z m1118 13 c0 -10 2 -10 8 -1 10 16 101 10 113 -8 18 -29 0
-48 -24 -24 -13 13 -16 13 -21 -2 -5 -12 -10 -13 -18 -5 -8 8 -15 8 -24 1 -8
-7 -14 -7 -18 0 -4 6 -13 8 -21 4 -8 -3 -15 -1 -15 5 0 6 -3 17 -6 26 -4 11
-1 16 10 16 9 0 16 -6 16 -12z m390 -13 c0 -14 -4 -25 -10 -25 -5 0 -10 4 -10
9 0 5 -3 16 -6 25 -4 11 -1 16 10 16 10 0 16 -9 16 -25z m40 1 c0 -14 -4 -28
-10 -31 -5 -3 -10 0 -10 9 0 8 -3 21 -6 30 -4 11 -1 16 10 16 10 0 16 -9 16
-24z m100 -1 c0 -31 -10 -36 -48 -26 -22 7 -32 6 -35 -2 -2 -7 -4 1 -4 17 0
19 2 24 8 15 6 -11 9 -10 14 2 3 9 18 16 35 17 25 1 30 -3 30 -23z m-1545
-185 c-3 -5 -16 -11 -28 -11 -16 -1 -14 -3 8 -8 29 -6 30 -8 30 -66 l0 -60
-63 -3 c-77 -4 -92 6 -92 63 0 51 8 59 80 78 69 19 73 19 65 7z m1425 -9 c0
-5 9 -11 19 -14 16 -4 19 -13 18 -48 -2 -32 -6 -44 -17 -44 -8 0 -19 -6 -23
-12 -4 -7 -14 -13 -22 -13 -8 0 -18 6 -22 13 -4 6 -15 12 -23 12 -11 0 -15 12
-17 44 -1 35 2 44 18 48 10 3 19 9 19 14 0 5 11 9 25 9 14 0 25 -4 25 -9z
m-1343 -33 c-3 -7 -5 -2 -5 12 0 14 2 19 5 13 2 -7 2 -19 0 -25z m267 6 c15
-14 16 -14 16 0 0 9 7 16 15 16 11 0 15 -12 15 -45 0 -33 -4 -45 -15 -45 -8 0
-15 8 -15 18 -1 16 -1 16 -11 0 -6 -11 -22 -18 -39 -18 -29 0 -30 2 -30 45 0
41 2 45 24 45 14 0 32 -7 40 -16z m124 -2 c2 -8 -5 -11 -20 -10 -17 2 -24 -3
-26 -19 -3 -17 1 -23 15 -22 10 0 13 3 6 6 -20 8 -15 23 7 23 14 0 20 -7 20
-24 0 -28 -24 -40 -51 -26 -19 11 -27 68 -12 84 11 11 56 2 61 -12z m122 8 c0
-5 -7 -10 -15 -10 -10 0 -15 -11 -15 -35 0 -24 -5 -35 -15 -35 -10 0 -15 11
-15 35 0 19 -4 35 -10 35 -5 0 -10 -16 -10 -35 0 -24 -5 -35 -15 -35 -11 0
-15 12 -15 45 l0 45 55 0 c30 0 55 -4 55 -10z m56 -31 l12 -34 1 38 c1 26 5
37 16 37 10 0 15 -11 15 -35 0 -28 4 -35 20 -35 11 0 20 -5 20 -11 0 -8 -20
-10 -64 -7 -40 4 -69 1 -75 -5 -16 -16 -14 16 4 59 18 43 34 40 51 -7z m179 4
c0 -47 10 -48 24 -3 15 52 35 51 54 -2 l15 -43 1 43 c1 37 4 42 25 42 31 0 48
-22 44 -57 -3 -25 -8 -29 -45 -34 -24 -3 -47 -1 -52 4 -6 6 -21 5 -40 -1 -27
-10 -33 -8 -46 11 -12 18 -15 19 -15 4 0 -9 -7 -17 -15 -17 -11 0 -15 12 -15
46 0 45 0 45 33 42 29 -3 32 -6 32 -35z m205 20 c1 -17 1 -17 11 0 21 37 69
13 69 -35 0 -38 -34 -56 -61 -32 -11 10 -19 12 -19 6 0 -7 -7 -12 -15 -12 -11
0 -15 12 -15 45 0 33 4 45 15 45 8 0 15 -8 15 -17z m-970 -52 c0 -41 -3 -49
-17 -47 -19 3 -32 46 -14 46 6 0 11 8 11 18 0 17 8 32 17 32 2 0 3 -22 3 -49z
m590 -236 c0 -2 -7 -5 -15 -9 -9 -3 -15 0 -15 9 0 9 6 12 15 9 8 -4 15 -7 15
-9z m43 -10 c-3 -8 -9 -15 -14 -15 -10 0 -12 24 -3 33 11 11 24 -3 17 -18z
m-213 -5 c0 -5 -2 -10 -4 -10 -3 0 -8 5 -11 10 -3 6 -1 10 4 10 6 0 11 -4 11
-10z m208 -27 c-28 -4 -28 -6 -30 -81 l-2 -77 -3 69 c-5 85 -1 96 34 95 l28
-2 -27 -4z m105 0 c-13 -2 -35 -2 -50 0 -16 2 -5 4 22 4 28 0 40 -2 28 -4z
m60 0 c-7 -2 -19 -2 -25 0 -7 3 -2 5 12 5 14 0 19 -2 13 -5z m-763 -13 c0 -5
-2 -10 -4 -10 -3 0 -8 5 -11 10 -3 6 -1 10 4 10 6 0 11 -4 11 -10z m98 -72
c12 -27 18 -48 13 -48 -6 0 -15 21 -39 90 -11 30 6 4 26 -42z m111 -38 c0 -16
-48 68 -48 85 0 6 11 -8 24 -30 14 -22 25 -47 24 -55z m408 58 c-3 -7 -5 -2
-5 12 0 14 2 19 5 13 2 -7 2 -19 0 -25z m80 -20 c-2 -13 -4 -5 -4 17 -1 22 1
32 4 23 2 -10 2 -28 0 -40z m103 42 c0 -5 -2 -10 -4 -10 -3 0 -8 5 -11 10 -3
6 -1 10 4 10 6 0 11 -4 11 -10z m154 -17 c10 -26 0 -25 -18 1 -13 20 -13 24
-2 20 8 -3 17 -13 20 -21z m116 -60 c0 -9 -14 1 -50 33 -22 20 -40 41 -40 47
0 6 20 -9 45 -33 25 -24 45 -45 45 -47z m57 50 c-3 -10 -5 -4 -5 12 0 17 2 24
5 18 2 -7 2 -21 0 -30z m-1234 -52 c6 -7 20 -17 32 -21 20 -9 20 -9 0 -9 -33
-1 -56 24 -61 65 -4 39 -4 39 7 9 7 -16 17 -36 22 -44z m1357 28 c0 -14 -5
-11 -31 17 l-24 27 28 -18 c15 -9 27 -21 27 -26z m-978 -9 c3 -16 1 -30 -4
-30 -4 0 -8 14 -8 30 0 17 2 30 4 30 2 0 6 -13 8 -30z m598 -27 c0 -3 -7 0
-15 7 -8 7 -15 22 -15 34 0 18 2 17 15 -8 8 -15 15 -31 15 -33z m-873 0 c-3
-10 -5 -2 -5 17 0 19 2 27 5 18 2 -10 2 -26 0 -35z m620 10 c-3 -10 -5 -4 -5
12 0 17 2 24 5 18 2 -7 2 -21 0 -30z m187 12 c9 -14 13 -25 9 -25 -12 1 -46
50 -35 50 6 0 17 -11 26 -25z m-627 -211 c-3 -3 -12 -4 -19 -1 -8 3 -5 6 6 6
11 1 17 -2 13 -5z m313 -84 c0 -5 -4 -10 -9 -10 -5 0 -12 -11 -15 -25 -6 -22
-9 -24 -27 -12 -19 12 -19 12 8 34 30 25 43 29 43 13z m551 -77 c-8 -15 -10
-15 -11 -2 0 17 10 32 18 25 2 -3 -1 -13 -7 -23z m-900 0 c13 -17 13 -17 -6
-3 -11 8 -22 16 -24 17 -2 2 0 3 6 3 6 0 17 -8 24 -17z m339 13 c0 -2 -8 -10
-17 -17 -16 -13 -17 -12 -4 4 13 16 21 21 21 13z m530 -19 c0 -2 -12 -14 -27
-28 l-26 -24 19 27 c16 23 34 36 34 25z m-461 -187 c0 -63 -4 -122 -9 -130 -6
-10 -9 38 -9 145 1 95 4 148 9 130 4 -16 8 -82 9 -145z m471 160 c0 -5 -14
-22 -30 -37 -22 -19 -27 -29 -18 -35 9 -5 6 -8 -9 -8 -13 0 -23 2 -23 5 0 6
71 85 76 85 2 0 4 -4 4 -10z m-566 -24 c-3 -9 -10 -16 -15 -16 -5 0 -4 9 3 20
14 22 21 20 12 -4z m499 -83 c-7 -2 -19 -2 -25 0 -7 3 -2 5 12 5 14 0 19 -2
13 -5z m-528 -13 c3 -5 1 -10 -4 -10 -6 0 -11 5 -11 10 0 6 2 10 4 10 3 0 8
-4 11 -10z m-690 -233 c-11 -9 -15 -19 -10 -28 6 -11 5 -12 -5 -2 -11 10 -11
15 0 28 7 8 17 15 23 15 6 0 3 -6 -8 -13z m237 -14 c-3 -16 -7 -22 -10 -15 -4
13 4 42 11 42 2 0 2 -12 -1 -27z m58 23 c0 -11 -19 -15 -25 -6 -3 5 1 10 9 10
9 0 16 -2 16 -4z m31 -13 c8 -9 9 -14 2 -10 -7 4 -13 0 -16 -10 -3 -11 -5 -8
-6 10 -1 32 2 33 20 10z m-188 -7 c13 5 16 2 11 -10 -5 -12 -10 -13 -25 -5
-10 5 -19 15 -19 22 0 9 2 9 8 -1 5 -7 16 -10 25 -6z m73 2 c4 -7 3 -8 -4 -4
-7 4 -12 0 -12 -10 0 -10 -3 -15 -6 -11 -7 6 2 37 10 37 3 0 8 -5 12 -12z
m209 2 c3 6 11 7 18 3 6 -4 24 -7 41 -7 16 -1 30 -7 32 -14 1 -7 0 -8 -3 -2
-6 12 -43 14 -43 2 0 -5 -7 -9 -15 -9 -8 0 -15 7 -15 15 0 12 -4 12 -20 -3
-19 -17 -20 -17 -20 -1 0 9 -5 14 -10 11 -6 -4 -7 -11 -4 -17 4 -7 2 -8 -5 -4
-9 6 -9 11 0 22 8 10 15 11 24 4 9 -8 15 -8 20 0z m-368 -22 c-3 -8 -6 -5 -6
6 -1 11 2 17 5 13 3 -3 4 -12 1 -19z m20 0 c-3 -8 -6 -5 -6 6 -1 11 2 17 5 13
3 -3 4 -12 1 -19z m20 0 c-3 -8 -6 -5 -6 6 -1 11 2 17 5 13 3 -3 4 -12 1 -19z
m260 0 c-3 -8 -6 -5 -6 6 -1 11 2 17 5 13 3 -3 4 -12 1 -19z m405 7 c0 -5 -5
-11 -11 -13 -6 -2 -11 4 -11 13 0 9 5 15 11 13 6 -2 11 -8 11 -13z"/>
<path d="M830 3185 c0 -14 5 -25 10 -25 6 0 10 11 10 25 0 14 -4 25 -10 25 -5
0 -10 -11 -10 -25z"/>
<path d="M200 3201 c0 -5 7 -12 16 -15 22 -9 24 -8 24 9 0 8 -9 15 -20 15 -11
0 -20 -4 -20 -9z"/>
<path d="M1555 3170 c3 -5 10 -10 16 -10 5 0 9 5 9 10 0 6 -7 10 -16 10 -8 0
-12 -4 -9 -10z"/>
<path d="M1281 3184 c0 -11 3 -14 6 -6 3 7 2 16 -1 19 -3 4 -6 -2 -5 -13z"/>
<path d="M1771 3184 c0 -11 3 -14 6 -6 3 7 2 16 -1 19 -3 4 -6 -2 -5 -13z"/>
<path d="M120 2942 c0 -4 17 -6 38 -4 58 5 62 10 10 11 -27 1 -48 -3 -48 -7z"/>
<path d="M203 2913 c9 -2 23 -2 30 0 6 3 -1 5 -18 5 -16 0 -22 -2 -12 -5z"/>
<path d="M1630 2930 c0 -11 7 -20 15 -20 8 0 15 9 15 20 0 11 -7 20 -15 20 -8
0 -15 -9 -15 -20z"/>
<path d="M560 2936 c0 -14 5 -26 10 -26 6 0 10 9 10 19 0 11 -4 23 -10 26 -6
4 -10 -5 -10 -19z"/>
<path d="M1040 2950 c0 -5 5 -10 11 -10 5 0 7 5 4 10 -3 6 -8 10 -11 10 -2 0
-4 -4 -4 -10z"/>
<path d="M1200 2935 c0 -15 4 -24 10 -20 6 3 10 12 10 20 0 8 -4 17 -10 20 -6
4 -10 -5 -10 -20z"/>
<path d="M1310 2936 c0 -17 5 -26 16 -26 10 0 14 7 12 22 -5 32 -28 35 -28 4z"/>
<path d="M120 2679 c0 -5 5 -7 10 -4 6 3 10 8 10 11 0 2 -4 4 -10 4 -5 0 -10
-5 -10 -11z"/>
<path d="M2168 2440 c2 -16 6 -30 8 -30 2 0 4 14 4 30 0 17 -4 30 -8 30 -5 0
-7 -13 -4 -30z"/>
<path d="M2200 2461 c0 -6 8 -7 17 -4 17 7 17 6 0 -20 -13 -21 -14 -27 -4 -27
8 0 14 6 14 13 0 6 2 18 4 26 2 8 -4 17 -13 19 -10 2 -18 -1 -18 -7z"/>
<path d="M2622 1830 c0 -19 2 -27 5 -17 2 9 2 25 0 35 -3 9 -5 1 -5 -18z"/>
<path d="M2143 1836 c1 -11 9 -21 17 -23 10 -3 11 -2 4 4 -6 4 -14 15 -17 23
-5 11 -6 9 -4 -4z"/>
<path d="M2166 1839 c3 -5 11 -9 19 -9 7 0 15 -5 17 -10 2 -6 9 -1 16 10 7 12
8 20 2 20 -5 0 -10 -5 -10 -11 0 -6 -5 -7 -12 -2 -19 11 -39 13 -32 2z"/>
<path d="M2311 1834 c0 -11 3 -14 6 -6 3 7 2 16 -1 19 -3 4 -6 -2 -5 -13z"/>
<path d="M2570 1845 c0 -5 5 -17 10 -25 5 -8 10 -10 10 -5 0 6 -5 17 -10 25
-5 8 -10 11 -10 5z"/>
<path d="M2249 1831 c11 -7 11 -9 0 -13 -8 -3 0 -5 17 -5 23 0 29 3 21 12 -6
6 -20 12 -31 13 -15 1 -17 -1 -7 -7z"/>
<path d="M2353 1825 c0 -8 4 -15 9 -15 4 0 8 7 8 15 0 8 -4 15 -8 15 -5 0 -9
-7 -9 -15z"/>
<path d="M2430 1829 c0 -4 7 -10 16 -13 10 -4 13 -2 8 6 -5 8 -2 9 9 5 10 -3
17 -2 17 3 0 5 -11 9 -25 8 -14 -1 -25 -5 -25 -9z"/>
<path d="M2431 1759 c0 -13 3 -18 6 -10 4 11 7 11 14 0 4 -7 10 -11 14 -8 3 3
-4 14 -15 24 -19 18 -20 17 -19 -6z"/>
<path d="M2667 1760 c-3 -11 -1 -20 4 -20 5 0 9 9 9 20 0 11 -2 20 -4 20 -2 0
-6 -9 -9 -20z"/>
<path d="M2822 1760 c0 -14 2 -19 5 -12 2 6 2 18 0 25 -3 6 -5 1 -5 -13z"/>
<path d="M2870 1771 c0 -7 -4 -9 -10 -6 -6 4 -7 -1 -3 -11 6 -15 7 -15 15 1 6
9 7 19 4 22 -3 4 -6 1 -6 -6z"/>
<path d="M2271 1753 c-9 -10 -8 -13 8 -13 11 0 22 6 24 13 4 9 8 8 16 -3 10
-13 12 -13 20 -1 8 12 12 12 25 2 12 -11 16 -11 16 -1 0 10 4 9 18 -1 15 -11
15 -11 4 1 -17 19 -114 21 -131 3z"/>
<path d="M2483 1755 c0 -8 4 -15 9 -15 4 0 8 4 8 9 0 6 -4 12 -8 15 -5 3 -9
-1 -9 -9z"/>
<path d="M2525 1763 c11 -3 25 -9 31 -14 8 -6 14 -5 17 4 4 10 -5 14 -31 14
-21 0 -28 -2 -17 -4z"/>
<path d="M2761 1758 c-1 -10 6 -18 14 -18 8 0 15 8 15 18 0 13 -2 14 -9 3 -7
-11 -9 -11 -14 0 -4 10 -6 9 -6 -3z"/>
<path d="M2135 1700 c3 -5 8 -10 11 -10 2 0 4 5 4 10 0 6 -5 10 -11 10 -5 0
-7 -4 -4 -10z"/>
<path d="M2200 1701 c0 -5 7 -15 17 -22 13 -11 17 -11 21 -1 3 9 8 10 17 2 9
-8 14 -7 18 3 5 15 -19 17 -41 3 -11 -7 -16 -1 -13 17 0 4 -3 7 -9 7 -5 0 -10
-4 -10 -9z"/>
<path d="M2439 1701 c8 -5 10 -14 6 -22 -6 -11 -5 -11 5 -2 14 12 6 33 -13 33
-8 0 -7 -3 2 -9z"/>
<path d="M2520 1690 c0 -11 5 -20 10 -20 6 0 10 9 10 20 0 11 -4 20 -10 20 -5
0 -10 -9 -10 -20z"/>
<path d="M2580 1700 c0 -5 5 -10 10 -10 6 0 10 5 10 10 0 6 -4 10 -10 10 -5 0
-10 -4 -10 -10z"/>
<path d="M2325 1691 c-3 -5 0 -13 6 -17 7 -4 9 -3 5 4 -3 5 0 13 6 15 9 4 10
6 1 6 -6 1 -14 -3 -18 -8z"/>
<path d="M2365 1689 c-9 -14 -2 -20 14 -10 8 6 9 11 3 15 -6 3 -14 1 -17 -5z"/>
<path d="M2135 1615 c0 -13 3 -21 8 -18 4 2 7 10 7 18 0 8 -3 16 -7 18 -5 3
-8 -5 -8 -18z"/>
<path d="M2200 1615 c0 -14 2 -25 4 -25 2 0 6 11 8 25 3 14 1 25 -3 25 -5 0
-9 -11 -9 -25z"/>
<path d="M2235 1619 c-4 -5 -4 -13 -1 -16 3 -4 6 0 6 8 0 11 2 11 10 -1 6 -9
10 -10 10 -3 0 17 -17 25 -25 12z"/>
<path d="M2273 1613 c1 -21 2 -21 36 -7 56 23 58 30 4 15 -22 -7 -33 -6 -36 2
-3 7 -4 2 -4 -10z"/>
<path d="M2388 1623 c19 -7 14 -23 -5 -17 -15 5 -16 4 -3 -5 8 -6 19 -6 24 -1
10 10 -1 30 -17 29 -9 0 -9 -2 1 -6z"/>
<path d="M2435 1619 c-4 -6 -2 -16 5 -22 10 -9 11 -9 6 0 -3 6 -1 13 6 15 9 3
9 6 1 11 -7 4 -15 2 -18 -4z"/>
<path d="M2136 1551 c-4 -7 -5 -15 -2 -18 9 -9 19 4 14 18 -4 11 -6 11 -12 0z"/>
<path d="M2202 1540 c0 -14 2 -19 5 -12 2 6 2 18 0 25 -3 6 -5 1 -5 -13z"/>
<path d="M213 1532 c22 -24 22 -50 0 -74 -16 -18 -16 -18 0 -12 34 13 30 104
-4 104 -8 0 -6 -7 4 -18z"/>
<path d="M2230 1541 c0 -6 4 -13 10 -16 6 -3 7 1 4 9 -7 18 -14 21 -14 7z"/>
<path d="M2260 1541 c0 -6 4 -13 10 -16 6 -3 7 1 4 9 -7 18 -14 21 -14 7z"/>
<path d="M2380 1540 c0 -5 5 -10 10 -10 6 0 10 5 10 10 0 6 -4 10 -10 10 -5 0
-10 -4 -10 -10z"/>
<path d="M160 1525 c-7 -8 -19 -15 -26 -15 -8 0 -14 -7 -14 -15 0 -8 5 -15 12
-15 6 0 20 -7 30 -17 17 -15 18 -14 18 30 0 51 -2 54 -20 32z"/>
<path d="M910 1525 c-10 -13 -50 -15 -236 -15 -192 0 -224 -2 -224 -15 0 -13
32 -15 224 -15 186 0 226 -2 236 -15 26 -32 80 -12 80 30 0 42 -54 62 -80 30z"/>
<path d="M201 1494 c0 -11 3 -14 6 -6 3 7 2 16 -1 19 -3 4 -6 -2 -5 -13z"/>
<path d="M2300 1475 c0 -8 -5 -15 -11 -15 -5 0 -7 5 -3 12 4 7 3 8 -5 4 -14
-9 -5 -26 15 -26 8 0 14 9 14 20 0 11 -2 20 -5 20 -3 0 -5 -7 -5 -15z"/>
<path d="M2226 1471 c-3 -5 1 -11 9 -14 9 -4 12 -1 8 9 -6 16 -10 17 -17 5z"/>
<path d="M1540 1415 c0 -17 70 -45 110 -44 l45 2 -51 6 c-27 3 -62 14 -77 24
-15 10 -27 15 -27 12z"/>
<path d="M1729 1403 c-13 -16 -12 -17 4 -4 9 7 17 15 17 17 0 8 -8 3 -21 -13z"/>
<path d="M2126 1403 c-6 -14 -5 -15 5 -6 7 7 10 15 7 18 -3 3 -9 -2 -12 -12z"/>
<path d="M2201 1404 c0 -11 3 -14 6 -6 3 7 2 16 -1 19 -3 4 -6 -2 -5 -13z"/>
<path d="M2253 1397 c-3 -4 -2 -11 1 -14 3 -4 6 -1 6 7 0 10 3 10 15 0 12 -10
15 -10 16 1 0 8 4 5 9 -6 5 -11 9 -15 9 -9 1 6 12 10 26 9 14 -2 25 1 25 7 0
6 7 4 17 -3 11 -10 14 -10 9 -1 -4 6 -3 12 3 12 5 0 11 -5 13 -11 2 -7 8 -6
16 3 10 12 6 14 -26 13 -21 -1 -43 -5 -50 -9 -7 -4 -18 -4 -24 1 -17 11 -58
11 -65 0z"/>
<path d="M2451 1384 c0 -11 3 -14 6 -6 3 7 2 16 -1 19 -3 4 -6 -2 -5 -13z"/>
<path d="M2201 1334 c0 -11 3 -14 6 -6 3 7 2 16 -1 19 -3 4 -6 -2 -5 -13z"/>
<path d="M2234 1335 c-7 -17 3 -35 19 -34 9 0 9 2 0 6 -7 2 -13 11 -13 18 0 7
6 16 13 18 9 4 9 6 -1 6 -7 1 -15 -6 -18 -14z"/>
<path d="M2271 1336 c-8 -10 -8 -16 1 -24 10 -8 13 -4 13 14 0 28 1 28 -14 10z"/>
<path d="M2306 1335 c-3 -8 0 -17 6 -21 6 -4 8 -3 4 4 -3 5 -1 12 6 14 8 3 9
6 1 11 -6 4 -13 0 -17 -8z"/>
<path d="M2336 1331 c-4 -7 -5 -15 -2 -18 9 -9 19 4 14 18 -4 11 -6 11 -12 0z"/>
<path d="M2560 1320 c0 -5 5 -10 10 -10 6 0 10 5 10 10 0 6 -4 10 -10 10 -5 0
-10 -4 -10 -10z"/>
<path d="M2620 1320 c0 -5 5 -10 10 -10 6 0 10 5 10 10 0 6 -4 10 -10 10 -5 0
-10 -4 -10 -10z"/>
<path d="M2780 1320 c0 -5 5 -10 10 -10 6 0 10 5 10 10 0 6 -4 10 -10 10 -5 0
-10 -4 -10 -10z"/>
<path d="M2920 1320 c0 -5 9 -10 20 -10 11 0 20 5 20 10 0 6 -9 10 -20 10 -11
0 -20 -4 -20 -10z"/>
<path d="M3020 1320 c0 -5 9 -10 20 -10 11 0 20 5 20 10 0 6 -9 10 -20 10 -11
0 -20 -4 -20 -10z"/>
<path d="M3120 1320 c0 -5 5 -10 10 -10 6 0 10 5 10 10 0 6 -4 10 -10 10 -5 0
-10 -4 -10 -10z"/>
<path d="M3160 1320 c0 -5 5 -10 10 -10 6 0 10 5 10 10 0 6 -4 10 -10 10 -5 0
-10 -4 -10 -10z"/>
<path d="M2120 1115 l0 -85 340 0 340 0 0 85 0 85 -340 0 -340 0 0 -85z m330
-1 c0 -44 -1 -45 -21 -30 -12 8 -28 12 -36 9 -13 -5 -13 -2 -4 15 8 15 8 22 1
22 -25 0 -7 19 23 23 17 2 33 5 35 5 1 1 2 -19 2 -44z m78 1 c-2 -61 -61 -58
-63 3 0 21 6 28 25 33 35 8 40 3 38 -36z"/>
<path d="M2830 1115 l0 -85 345 0 345 0 0 85 0 85 -345 0 -345 0 0 -85z m548
0 c-1 -24 -7 -36 -20 -40 -23 -8 -41 3 -34 22 3 8 2 12 -3 9 -5 -3 -8 5 -8 19
0 18 6 25 26 27 37 5 41 2 39 -37z m-338 -6 c0 -24 -4 -38 -10 -34 -5 3 -10
16 -10 28 -1 20 -2 20 -11 5 -5 -10 -17 -18 -26 -18 -14 0 -14 2 2 20 10 11
13 20 7 20 -7 0 -12 5 -12 10 0 6 14 10 30 10 28 0 30 -2 30 -41z m80 16 c0
-19 -6 -25 -22 -26 l-23 -2 23 -4 c32 -6 27 -23 -7 -23 -31 0 -40 16 -33 58 3
17 11 22 33 22 24 0 29 -4 29 -25z m75 -15 c2 -34 0 -36 -29 -35 -29 0 -31 2
-31 38 -1 36 1 38 29 35 27 -3 30 -7 31 -38z m105 -2 c0 -35 -2 -38 -29 -38
-23 0 -30 5 -34 27 -7 39 0 50 33 50 28 0 30 -3 30 -39z"/>
<path d="M3166 1125 c-3 -8 -1 -15 4 -15 6 0 10 7 10 15 0 8 -2 15 -4 15 -2 0
-6 -7 -10 -15z"/>
<path d="M117 1163 c-3 -5 26 -8 64 -8 38 0 69 3 69 8 0 4 -29 7 -64 7 -36 0
-67 -3 -69 -7z"/>
<path d="M374 1149 c-4 -7 1 -16 12 -22 17 -10 17 -11 -1 -18 -19 -7 -18 -8 3
-8 27 -1 28 6 5 32 -17 19 -17 20 0 14 11 -4 16 -3 12 3 -8 13 -22 13 -31 -1z"/>
<path d="M420 1130 c0 -25 4 -31 18 -28 11 2 17 12 17 28 0 16 -6 26 -17 28
-14 3 -18 -3 -18 -28z m26 0 c0 -11 -4 -20 -8 -20 -4 0 -8 9 -8 20 0 11 4 20
8 20 4 0 8 -9 8 -20z"/>
<path d="M474 1149 c-4 -7 1 -16 12 -22 17 -10 17 -11 -1 -18 -19 -7 -18 -8 3
-8 27 -1 28 6 5 32 -17 19 -17 20 0 14 11 -4 16 -3 12 3 -8 13 -22 13 -31 -1z"/>
<path d="M606 1152 c7 -4 14 -18 16 -32 3 -23 4 -22 9 8 5 27 3 32 -15 32 -13
0 -17 -3 -10 -8z"/>
<path d="M657 1132 c8 -32 19 -35 31 -7 7 15 8 25 2 25 -6 0 -10 -8 -10 -17 0
-15 -2 -14 -15 3 -13 18 -14 18 -8 -4z"/>
<path d="M800 1140 c0 -5 5 -10 10 -10 6 0 10 5 10 10 0 6 -4 10 -10 10 -5 0
-10 -4 -10 -10z"/>
<path d="M972 1120 c0 -19 2 -27 5 -17 2 9 2 25 0 35 -3 9 -5 1 -5 -18z"/>
<path d="M541 1123 c-1 -14 5 -23 14 -23 9 0 15 9 14 23 0 21 -1 21 -8 2 l-8
-20 -5 20 c-5 18 -6 18 -7 -2z"/>
<path d="M110 1119 c0 -5 5 -7 10 -4 6 3 10 8 10 11 0 2 -4 4 -10 4 -5 0 -10
-5 -10 -11z"/>
<path d="M164 1117 c3 -10 6 -21 6 -23 0 -2 11 -4 25 -4 14 0 25 -5 25 -10 0
-6 -22 -9 -55 -7 -30 1 -55 -1 -55 -5 0 -5 32 -8 70 -8 l70 0 -1 38 c-1 20 -3
29 -6 20 -3 -11 -14 -18 -30 -18 -14 0 -32 8 -40 18 -14 16 -14 16 -9 -1z"/>
<path d="M720 1125 c0 -5 5 -17 10 -25 5 -8 10 -10 10 -5 0 6 -5 17 -10 25 -5
8 -10 11 -10 5z"/>
<path d="M125 1101 c-3 -5 -1 -12 5 -16 12 -7 30 2 30 16 0 12 -27 12 -35 0z"/>
<path d="M117 793 c-3 -5 26 -8 64 -8 38 0 69 3 69 8 0 4 -29 7 -64 7 -36 0
-67 -3 -69 -7z"/>
<path d="M657 784 c-4 -4 -7 -19 -7 -33 0 -19 3 -22 9 -12 5 7 14 10 21 6 8
-5 11 0 8 16 -3 23 -19 35 -31 23z m23 -14 c0 -5 -5 -10 -11 -10 -5 0 -7 5 -4
10 3 6 8 10 11 10 2 0 4 -4 4 -10z"/>
<path d="M887 783 c-9 -9 -9 -51 1 -56 4 -3 7 10 7 29 0 19 0 34 -1 34 0 0 -4
-3 -7 -7z"/>
<path d="M380 771 c0 -5 -2 -15 -5 -23 -4 -9 4 -13 24 -14 21 -1 31 4 34 17 3
11 1 19 -4 19 -5 0 -9 -8 -10 -17 0 -11 -3 -13 -6 -5 -2 6 -10 9 -16 5 -6 -4
-8 0 -4 10 3 10 2 17 -3 17 -6 0 -10 -4 -10 -9z"/>
<path d="M452 750 c0 -14 2 -19 5 -12 2 6 2 18 0 25 -3 6 -5 1 -5 -13z"/>
<path d="M470 750 c0 -11 2 -20 4 -20 2 0 6 9 9 20 3 11 1 20 -4 20 -5 0 -9
-9 -9 -20z"/>
<path d="M522 750 c0 -14 2 -19 5 -12 2 6 2 18 0 25 -3 6 -5 1 -5 -13z"/>
<path d="M541 748 c1 -17 2 -19 6 -5 2 9 8 17 13 17 5 0 11 -8 13 -17 4 -14 5
-12 6 5 1 16 -5 22 -19 22 -14 0 -20 -6 -19 -22z"/>
<path d="M611 757 c0 -10 -5 -15 -11 -12 -5 3 -10 1 -10 -4 0 -6 5 -11 11 -11
5 0 7 -6 3 -12 -5 -10 -4 -10 5 -2 7 7 11 22 8 35 -3 16 -5 18 -6 6z"/>
<path d="M720 755 c14 -17 13 -18 -3 -12 -11 4 -16 3 -12 -3 3 -6 13 -10 21
-10 20 0 14 32 -6 38 -13 5 -13 3 0 -13z"/>
<path d="M751 753 c-1 -14 5 -23 14 -23 8 0 15 5 15 11 0 5 -4 8 -9 4 -5 -3
-12 3 -14 12 -4 14 -5 13 -6 -4z"/>
<path d="M815 760 c-8 -14 3 -30 21 -30 8 0 14 9 14 20 0 21 -24 28 -35 10z
m25 -10 c0 -5 -4 -10 -10 -10 -5 0 -10 5 -10 10 0 6 5 10 10 10 6 0 10 -4 10
-10z"/>
<path d="M960 760 c0 -5 9 -10 20 -10 11 0 20 5 20 10 0 6 -9 10 -20 10 -11 0
-20 -4 -20 -10z"/>
<path d="M1128 747 c-3 -19 -2 -25 4 -19 6 6 8 18 6 28 -3 14 -5 12 -10 -9z"/>
<path d="M110 749 c0 -5 5 -7 10 -4 6 3 10 8 10 11 0 2 -4 4 -10 4 -5 0 -10
-5 -10 -11z"/>
<path d="M240 745 c0 -17 -56 -21 -62 -4 -2 7 -12 7 -32 -1 -23 -8 -27 -13
-17 -23 10 -9 15 -8 27 7 8 11 14 14 14 8 0 -7 11 -12 25 -12 14 0 25 -5 25
-10 0 -6 -22 -9 -55 -7 -30 1 -55 -1 -55 -5 0 -5 32 -8 70 -8 l70 0 0 35 c0
19 -2 35 -5 35 -3 0 -5 -7 -5 -15z"/>
<path d="M116 422 c-2 -4 26 -8 65 -9 38 0 69 3 69 8 0 11 -127 12 -134 1z"/>
<path d="M460 410 c0 -7 -7 -9 -16 -6 -12 5 -15 2 -10 -10 3 -8 6 -21 7 -27 0
-7 5 -1 11 13 l10 25 9 -22 c5 -13 16 -22 26 -22 17 1 17 2 1 6 -10 2 -18 13
-18 23 0 10 -4 22 -10 25 -5 3 -10 1 -10 -5z"/>
<path d="M590 411 c0 -6 5 -10 12 -8 20 4 21 -31 1 -36 -10 -2 3 -3 30 -3 35
1 46 4 42 14 -3 8 -5 18 -5 23 0 5 -4 9 -10 9 -5 0 -6 -7 -3 -17 4 -11 3 -14
-5 -9 -7 4 -12 2 -12 -6 0 -7 -6 -2 -13 11 -13 26 -37 40 -37 22z"/>
<path d="M370 383 c0 -21 3 -24 9 -14 5 8 7 20 4 28 -8 21 -13 15 -13 -14z"/>
<path d="M407 397 c-3 -8 -1 -20 4 -28 6 -10 9 -7 9 14 0 29 -5 35 -13 14z"/>
<path d="M530 400 c0 -5 5 -10 11 -10 5 0 7 5 4 10 -3 6 -8 10 -11 10 -2 0 -4
-4 -4 -10z"/>
<path d="M556 393 c-4 -9 -2 -21 4 -27 7 -7 10 -2 10 17 0 31 -5 34 -14 10z"/>
<path d="M692 385 c0 -16 2 -22 5 -12 2 9 2 23 0 30 -3 6 -5 -1 -5 -18z"/>
<path d="M730 383 c0 -21 3 -24 9 -14 5 8 7 20 4 28 -8 21 -13 15 -13 -14z"/>
<path d="M767 397 c-3 -8 -1 -20 4 -28 6 -10 9 -7 9 14 0 29 -5 35 -13 14z"/>
<path d="M1000 400 c0 -5 5 -10 10 -10 6 0 10 5 10 10 0 6 -4 10 -10 10 -5 0
-10 -4 -10 -10z"/>
<path d="M790 380 c0 -15 5 -20 18 -18 9 2 17 10 17 18 0 8 -8 16 -17 18 -13
2 -18 -3 -18 -18z m30 0 c0 -5 -4 -10 -10 -10 -5 0 -10 5 -10 10 0 6 5 10 10
10 6 0 10 -4 10 -10z"/>
<path d="M861 378 c1 -17 3 -18 6 -5 2 9 8 17 13 17 5 0 11 -8 14 -17 4 -14 4
-14 3 2 -3 30 -37 33 -36 3z"/>
<path d="M910 380 c0 -11 4 -20 9 -20 5 0 7 9 4 20 -3 11 -7 20 -9 20 -2 0 -4
-9 -4 -20z"/>
<path d="M970 381 c0 -11 4 -22 9 -25 4 -3 6 6 3 19 -5 30 -12 33 -12 6z"/>
<path d="M1218 377 c-3 -19 -2 -25 4 -19 6 6 8 18 6 28 -3 14 -5 12 -10 -9z"/>
<path d="M240 375 c0 -17 -56 -21 -62 -4 -2 7 -12 7 -31 0 -16 -6 -25 -15 -22
-21 10 -16 35 -11 36 8 0 10 3 12 6 5 2 -7 16 -13 29 -13 13 0 24 -5 24 -10 0
-6 -22 -9 -55 -7 -30 1 -55 -1 -55 -5 0 -5 32 -8 70 -8 l70 0 0 35 c0 19 -2
35 -5 35 -3 0 -5 -7 -5 -15z"/>
<path d="M1120 380 c0 -5 5 -10 10 -10 6 0 10 5 10 10 0 6 -4 10 -10 10 -5 0
-10 -4 -10 -10z"/>
<path d="M1902 113 c2 -60 6 -107 11 -105 4 1 414 2 912 2 l905 0 0 105 0 105
-915 0 -916 0 3 -107z m483 -3 l0 -55 -50 0 -50 0 -3 58 -3 58 53 -3 53 -3 0
-55z m463 44 c41 -28 22 -94 -28 -94 -78 0 -78 98 0 109 3 1 16 -6 28 -15z
m502 -44 c0 -27 -5 -50 -10 -50 -6 0 -29 12 -52 26 l-41 26 39 23 c58 34 64
32 64 -25z"/>
<path d="M2290 116 l0 -46 46 0 45 0 -3 43 c-3 42 -3 42 -45 45 l-43 3 0 -45z"/>
<path d="M2782 138 c-28 -28 -3 -72 39 -66 30 4 47 33 33 56 -14 21 -55 27
-72 10z"/>
<path d="M3300 130 l-34 -18 34 -21 c35 -21 35 -21 38 -1 2 11 2 29 0 39 -3
19 -4 19 -38 1z"/>
<path d="M0 105 l0 -105 915 0 915 0 0 105 0 105 -915 0 -915 0 0 -105z m488
3 l-3 -53 -55 0 -55 0 -3 39 c-5 60 1 66 63 66 l56 0 -3 -52z m467 32 c41 -46
-29 -116 -75 -75 -24 22 -26 58 -4 79 21 22 57 20 79 -4z m495 -28 c0 -27 -3
-51 -6 -54 -5 -6 -94 39 -94 47 0 5 84 55 93 55 4 0 7 -22 7 -48z"/>
<path d="M389 145 c0 -3 -1 -22 -1 -42 -1 -38 -1 -38 40 -38 23 0 42 3 42 8 0
4 0 23 0 42 0 34 -1 35 -40 35 -22 0 -40 -2 -41 -5z"/>
<path d="M880 135 c-17 -20 -4 -62 21 -70 15 -5 28 -1 42 14 18 17 19 24 9 46
-13 29 -52 34 -72 10z"/>
<path d="M1392 123 l-23 -16 28 -18 c39 -26 43 -24 43 16 0 39 -12 43 -48 18z"/>
</g>
</svg>
