<?xml version="1.0" standalone="no"?>
<!DOCTYPE svg PUBLIC "-//W3C//DTD SVG 20010904//EN"
 "http://www.w3.org/TR/2001/REC-SVG-20010904/DTD/svg10.dtd">
<svg version="1.0" xmlns="http://www.w3.org/2000/svg"
 width="405.000000pt" height="476.000000pt" viewBox="0 0 405.000000 476.000000"
 preserveAspectRatio="xMidYMid meet">

<g transform="translate(0.000000,476.000000) scale(0.100000,-0.100000)"
fill="#000000" stroke="none">
<path d="M2710 4713 l0 -48 665 0 665 0 0 48 0 47 -665 0 -665 0 0 -47z m48
10 c-31 -5 -37 -19 -10 -26 13 -4 11 -5 -5 -6 -17 -1 -23 5 -23 19 0 16 6 20
33 19 30 -2 30 -2 5 -6z m739 -8 c0 -17 -13 -20 -21 -6 -4 5 0 12 6 14 7 3 13
6 14 6 0 1 1 -6 1 -14z m-637 -15 c0 -5 -6 -10 -14 -10 -8 0 -18 5 -21 10 -3
6 3 10 14 10 12 0 21 -4 21 -10z"/>
<path d="M0 4705 l0 -45 675 0 675 0 0 45 0 45 -675 0 -675 0 0 -45z m48 8
c-31 -5 -37 -19 -10 -26 13 -4 11 -5 -5 -6 -17 -1 -23 5 -23 19 0 16 6 20 33
19 30 -2 30 -2 5 -6z m749 -8 c0 -17 -13 -20 -21 -6 -4 5 0 12 6 14 7 3 13 6
14 6 0 1 1 -6 1 -14z m-647 -15 c0 -5 -6 -10 -14 -10 -8 0 -18 5 -21 10 -3 6
3 10 14 10 12 0 21 -4 21 -10z"/>
<path d="M1370 4703 l0 -48 660 0 660 0 0 48 0 47 -660 0 -660 0 0 -47z m48
10 c-31 -5 -37 -19 -10 -26 13 -4 11 -5 -5 -6 -17 -1 -23 5 -23 19 0 16 6 20
33 19 30 -2 30 -2 5 -6z m102 -25 c0 -13 -32 -6 -37 9 -3 7 3 9 16 6 12 -3 21
-10 21 -15z m625 12 c3 -6 -1 -7 -9 -4 -18 7 -21 14 -7 14 6 0 13 -4 16 -10z"/>
<path d="M1373 4435 c0 -27 2 -38 4 -22 2 15 2 37 0 50 -2 12 -4 0 -4 -28z"/>
<path d="M2683 4435 c0 -27 2 -38 4 -22 2 15 2 37 0 50 -2 12 -4 0 -4 -28z"/>
<path d="M2155 4220 c-10 -16 4 -30 28 -30 21 1 21 1 3 11 -15 9 -16 13 -5 20
11 7 11 9 -3 9 -9 0 -20 -4 -23 -10z"/>
<path d="M2208 4223 c6 -2 12 -11 12 -19 0 -12 11 -14 48 -12 32 2 47 7 47 17
0 8 -6 16 -13 19 -7 2 -10 -2 -6 -12 4 -11 1 -16 -11 -16 -11 0 -15 5 -11 15
3 8 1 15 -4 15 -6 0 -10 -7 -10 -15 0 -8 -4 -15 -10 -15 -5 0 -10 7 -10 15 0
9 -9 15 -22 14 -13 0 -17 -3 -10 -6z"/>
<path d="M1473 4188 c9 -8 18 -32 20 -58 3 -42 4 -41 5 13 2 53 0 57 -20 57
-20 0 -20 -1 -5 -12z"/>
<path d="M1554 4186 c-3 -8 -4 -31 -2 -52 3 -34 6 -39 28 -39 21 0 25 5 25 30
0 22 -5 31 -20 33 -20 4 -20 3 -1 -11 12 -9 17 -20 13 -31 -11 -29 -32 -12
-35 27 -3 31 1 39 20 46 l23 10 -23 0 c-12 1 -25 -5 -28 -13z"/>
<path d="M1692 4170 c-12 -19 -22 -39 -22 -45 1 -5 8 2 16 18 19 36 24 34 22
-8 -1 -19 1 -37 4 -40 9 -10 14 29 8 70 l-6 40 -22 -35z"/>
<path d="M1767 4193 c-14 -13 -7 -93 8 -99 34 -13 57 42 39 90 -6 16 -35 22
-47 9z m38 -48 c0 -30 -4 -41 -17 -43 -15 -3 -18 4 -18 43 0 39 3 46 18 43 13
-2 17 -13 17 -43z"/>
<path d="M1852 4188 c-17 -17 -15 -73 3 -88 34 -28 68 27 46 76 -12 26 -30 31
-49 12z m44 -22 c8 -35 -4 -68 -24 -64 -17 3 -28 48 -18 74 9 23 35 16 42 -10z"/>
<path d="M655 4096 c-27 -20 -15 -51 20 -51 23 0 31 5 33 22 4 29 -28 47 -53
29z m45 -26 c0 -13 -7 -20 -19 -20 -22 0 -35 15 -26 30 12 19 45 11 45 -10z"/>
<path d="M1631 4084 c0 -11 3 -14 6 -6 3 7 2 16 -1 19 -3 4 -6 -2 -5 -13z"/>
<path d="M2185 3999 c-14 -43 45 -66 61 -24 8 19 -13 45 -37 45 -10 0 -21 -10
-24 -21z m44 -20 c-7 -4 -18 -5 -26 -2 -10 4 -11 9 -2 19 9 11 15 12 26 3 11
-9 11 -14 2 -20z"/>
<path d="M647 4004 c-4 -4 -7 -19 -6 -33 l1 -26 7 25 c4 16 14 25 26 25 12 0
22 -10 27 -25 6 -23 7 -23 5 5 -2 24 -7 31 -27 33 -14 2 -29 0 -33 -4z"/>
<path d="M1790 3996 c0 -4 7 -14 15 -22 8 -9 15 -11 15 -6 0 5 -7 15 -15 22
-8 7 -15 9 -15 6z"/>
<path d="M745 3871 c-3 -5 -1 -12 5 -16 6 -4 8 -11 5 -16 -4 -5 -2 -9 2 -9 14
0 34 38 23 45 -6 4 -9 3 -8 -2 2 -4 -1 -9 -7 -10 -5 -2 -9 2 -7 7 3 13 -5 13
-13 1z"/>
<path d="M2353 3823 c59 -2 155 -2 215 0 59 1 10 3 -108 3 -118 0 -167 -2
-107 -3z"/>
<path d="M2760 3495 l0 -155 160 0 160 0 0 155 0 155 -160 0 -160 0 0 -155z
m193 86 c-10 -16 -8 -22 9 -37 11 -11 29 -18 39 -16 11 2 19 -3 19 -11 0 -20
-48 -31 -66 -16 -22 18 -17 3 15 -43 17 -24 31 -52 33 -62 5 -34 -21 -28 -38
8 -22 45 -41 52 -70 25 -21 -19 -24 -20 -53 -5 -17 9 -31 23 -31 31 0 18 5 18
32 4 27 -15 52 7 26 22 -35 19 -11 99 29 99 8 0 12 4 8 9 -3 5 2 17 11 26 15
15 18 15 33 1 12 -13 13 -20 4 -35z"/>
<path d="M2882 3515 c0 -16 2 -22 5 -12 2 9 2 23 0 30 -3 6 -5 -1 -5 -18z"/>
<path d="M3326 3345 c6 -13 46 -15 323 -13 202 2 316 7 316 13 0 6 -116 11
-322 13 -286 2 -322 1 -317 -13z"/>
<path d="M1943 3263 l347 -3 0 -25 0 -25 -347 -3 c-242 -2 -206 -2 116 -2 422
0 465 2 474 17 8 12 7 21 -2 32 -12 14 -64 16 -475 14 -440 -3 -445 -3 -113
-5z m557 -23 c0 -25 -29 -38 -41 -19 -13 21 -11 32 6 25 8 -3 15 -1 15 4 0 6
5 10 10 10 6 0 10 -9 10 -20z"/>
<path d="M3268 3203 c23 -2 59 -2 80 0 20 2 1 4 -43 4 -44 0 -61 -2 -37 -4z"/>
<path d="M2710 2323 l0 -48 670 0 670 0 0 48 0 47 -670 0 -670 0 0 -47z m48
10 c-31 -5 -37 -19 -10 -26 13 -4 11 -5 -5 -6 -17 -1 -23 5 -23 19 0 16 6 20
33 19 30 -2 30 -2 5 -6z m737 -13 c3 -6 -1 -7 -9 -4 -18 7 -21 14 -7 14 6 0
13 -4 16 -10z m-635 -10 c0 -5 -6 -10 -14 -10 -8 0 -18 5 -21 10 -3 6 3 10 14
10 12 0 21 -4 21 -10z"/>
<path d="M1380 2315 l0 -45 650 0 650 0 0 45 0 45 -650 0 -650 0 0 -45z m31
-10 c5 4 9 1 9 -4 0 -6 -7 -11 -15 -11 -9 0 -15 9 -14 23 1 17 2 18 6 4 2 -9
9 -15 14 -12z m736 11 c0 -8 -6 -12 -15 -9 -11 5 -11 7 0 14 7 5 13 9 14 9 0
0 1 -6 1 -14z m-617 -12 c0 -2 -9 -4 -20 -4 -11 0 -20 4 -20 9 0 5 9 7 20 4
11 -3 20 -7 20 -9z"/>
<path d="M0 2303 l0 -48 680 0 680 0 0 48 0 47 -680 0 -680 0 0 -47z m48 10
c-31 -5 -37 -19 -10 -26 13 -4 11 -5 -5 -6 -17 -1 -23 5 -23 19 0 16 6 20 33
19 30 -2 30 -2 5 -6z m102 -24 c0 -11 -27 -12 -34 0 -3 4 -3 11 0 14 8 8 34
-3 34 -14z"/>
<path d="M2172 2185 c0 -16 2 -22 5 -12 2 9 2 23 0 30 -3 6 -5 -1 -5 -18z"/>
<path d="M3285 2199 c-4 -6 -5 -12 -2 -15 2 -3 7 2 10 11 7 17 1 20 -8 4z"/>
<path d="M699 2162 c11 -8 11 -10 0 -15 -10 -4 -8 -6 4 -6 21 -1 18 21 -4 27
-12 3 -12 2 0 -6z"/>
<path d="M1380 1785 l0 -315 650 0 650 0 0 233 -1 232 -24 -28 c-29 -33 -31
-49 -9 -71 14 -15 14 -16 -4 -16 -11 0 -22 7 -26 15 -6 18 -51 11 -74 -10 -18
-17 -128 6 -146 30 -11 16 -14 16 -28 1 -20 -20 -29 -21 -22 -2 4 11 0 13 -15
9 -19 -5 -21 -1 -23 38 -1 24 0 61 1 81 2 29 -3 40 -22 53 -34 22 -58 11 -51
-24 4 -21 1 -30 -11 -34 -9 -4 -14 -11 -10 -17 3 -5 -9 -16 -27 -24 -18 -9
-43 -23 -55 -32 -18 -13 -23 -14 -23 -3 0 12 -2 12 -9 0 -5 -7 -14 -10 -20 -6
-9 5 -7 11 5 19 15 11 10 14 -34 20 -30 4 -60 2 -71 -3 -25 -14 -29 -8 -25 45
3 37 1 45 -11 40 -8 -3 -14 0 -12 7 1 7 -4 11 -12 9 -7 -2 -22 5 -32 14 -14
12 -23 14 -30 7 -6 -6 -30 -8 -55 -5 -60 6 -102 -12 -114 -52 -8 -26 -9 -20
-7 37 l2 67 -152 0 -153 0 0 -315z m558 163 c-3 -7 1 -24 8 -37 13 -25 10 -41
-7 -41 -5 0 -9 9 -9 20 0 11 -5 19 -11 18 -6 -2 -14 3 -17 11 -2 8 0 11 6 8 5
-4 12 2 15 13 3 11 8 20 12 20 4 0 5 -6 3 -12z m-248 -8 c0 -5 -4 -10 -10 -10
-5 0 -10 5 -10 10 0 6 5 10 10 10 6 0 10 -4 10 -10z m379 -66 c32 -13 43 -24
56 -59 13 -33 14 -47 6 -64 -8 -14 -8 -21 -1 -21 5 0 10 -4 10 -10 0 -5 -7 -7
-15 -4 -10 4 -15 0 -15 -15 0 -12 -5 -21 -11 -21 -5 0 -7 5 -4 10 8 13 -1 13
-27 -1 -28 -15 -86 -2 -114 26 -29 29 -32 89 -8 124 13 18 59 47 81 51 2 0 20
-7 42 -16z m-206 -97 c3 -8 -1 -14 -8 -14 -7 0 -11 6 -8 14 3 7 6 13 8 13 2 0
5 -6 8 -13z m-37 -54 c-7 -7 -26 7 -26 19 0 6 6 6 15 -2 9 -7 13 -15 11 -17z
m-251 -33 c3 -5 1 -10 -4 -10 -6 0 -11 5 -11 10 0 6 2 10 4 10 3 0 8 -4 11
-10z m435 -130 c0 -5 -8 -10 -17 -10 -15 0 -16 2 -3 10 19 12 20 12 20 0z"/>
<path d="M2004 1863 c-30 -6 -52 -33 -60 -71 -5 -26 -1 -36 24 -62 20 -20 40
-30 61 -30 30 0 52 16 29 22 -9 2 -6 10 8 26 l21 22 -2 -25 c-5 -37 12 -31 25
9 15 46 -7 89 -51 105 -18 6 -32 10 -33 10 -1 -1 -11 -4 -22 -6z m27 -27 c-10
-12 -8 -17 7 -25 11 -6 21 -8 24 -6 3 3 5 -3 5 -12 0 -19 -34 -52 -54 -53 -17
0 -36 37 -23 45 6 4 8 14 5 24 -3 10 3 20 18 27 31 16 31 16 18 0z"/>
<path d="M1766 2091 c13 -12 84 -22 84 -12 0 5 20 1 45 -8 40 -14 47 -14 55
-1 5 8 10 18 10 23 0 4 -46 7 -102 7 -58 0 -98 -4 -92 -9z"/>
<path d="M2713 2055 c0 -27 2 -38 4 -22 2 15 2 37 0 50 -2 12 -4 0 -4 -28z"/>
<path d="M4043 2055 c0 -27 2 -38 4 -22 2 15 2 37 0 50 -2 12 -4 0 -4 -28z"/>
<path d="M2671 1974 c0 -11 3 -14 6 -6 3 7 2 16 -1 19 -3 4 -6 -2 -5 -13z"/>
<path d="M50 1760 l0 -180 200 0 200 0 0 180 0 180 -200 0 -200 0 0 -180z
m201 130 c26 0 50 4 54 10 10 17 35 -1 35 -26 0 -17 -6 -24 -18 -24 -36 0 -54
-34 -47 -84 8 -52 -7 -63 -23 -18 -9 24 -11 24 -11 5 -1 -21 -17 -40 -27 -30
-3 2 0 23 5 46 11 50 -3 86 -34 86 -11 0 -21 8 -23 19 -5 22 18 40 32 26 6 -6
31 -10 57 -10z m69 -215 c0 -18 -5 -25 -20 -25 -11 0 -20 6 -20 13 0 9 -2 9
-9 -1 -5 -8 -23 -12 -47 -10 -32 2 -40 7 -42 26 -3 21 0 22 67 22 69 0 71 -1
71 -25z"/>
<path d="M480 1760 l0 -180 200 0 200 0 0 180 0 180 -200 0 -200 0 0 -180z
m207 128 c5 -7 15 -38 22 -68 7 -30 15 -63 18 -72 3 -12 -1 -18 -11 -18 -8 0
-16 10 -19 23 -3 21 -4 21 -15 -5 -17 -40 -36 -36 -28 6 5 23 3 36 -6 39 -10
3 -11 9 -1 25 8 13 9 23 3 27 -15 9 -12 25 5 25 9 0 12 6 9 15 -7 18 10 20 23
3z m34 -205 c1 -17 2 -17 6 0 7 27 43 22 43 -6 0 -23 -2 -24 -90 -24 -78 0
-90 2 -90 17 0 26 9 30 72 30 48 0 58 -3 59 -17z"/>
<path d="M910 1760 l0 -180 200 0 200 0 0 180 0 180 -200 0 -200 0 0 -180z
m240 100 c9 -22 10 -38 2 -57 -6 -16 -13 -41 -16 -56 -8 -35 -26 -26 -26 13 0
19 -10 36 -31 54 -29 25 -32 53 -4 42 7 -2 21 4 31 14 26 26 30 25 44 -10z
m-48 -178 c-1 -8 2 -11 8 -7 6 3 8 11 5 16 -4 5 3 9 14 9 23 0 33 -12 26 -32
-3 -8 -23 -14 -49 -16 -40 -1 -43 0 -43 24 0 20 4 24 21 22 11 -2 20 -9 18
-16z"/>
<path d="M1115 1847 c-4 -10 -5 -21 -1 -24 10 -10 18 4 13 24 -4 17 -4 17 -12
0z"/>
<path d="M50 1373 l0 -178 200 0 200 0 0 178 0 177 -162 0 c-116 -1 -158 -4
-145 -11 25 -14 21 -38 -8 -51 -48 -22 -102 25 -57 51 15 9 15 10 -5 11 -23 0
-23 0 -23 -177z m230 82 c0 -19 5 -25 21 -25 12 0 19 -5 16 -12 -2 -7 -13 -13
-25 -12 -21 0 -21 0 -1 -24 21 -27 25 -52 9 -52 -5 0 -10 4 -10 8 0 5 -6 17
-14 27 -12 16 -16 17 -29 6 -9 -7 -25 -10 -37 -6 -26 8 -26 29 0 22 21 -5 28
7 10 18 -15 9 -12 19 13 48 28 33 47 34 47 2z m15 -165 c0 -23 -3 -25 -45 -22
-25 2 -46 5 -47 6 -1 1 0 12 3 23 5 18 13 21 48 20 37 -2 41 -5 41 -27z"/>
<path d="M1462 1123 c2 -13 13 -18 38 -18 25 0 36 5 38 18 3 12 -3 17 -20 17
-17 0 -19 -3 -9 -9 9 -6 10 -11 2 -15 -14 -9 -33 2 -26 15 4 5 -1 9 -10 9 -10
0 -15 -7 -13 -17z"/>
<path d="M2800 556 c0 -2 11 -6 25 -8 13 -3 22 -1 19 3 -5 9 -44 13 -44 5z"/>
<path d="M2790 531 c0 -10 29 -36 34 -30 1 2 -6 12 -16 22 -10 9 -18 13 -18 8z"/>
<path d="M291 279 c-16 -47 -14 -54 9 -28 l20 24 6 -22 c3 -13 10 -21 14 -18
12 7 1 41 -20 60 -17 15 -18 14 -29 -16z"/>
<path d="M507 302 c6 -4 13 -23 16 -42 4 -33 4 -33 5 8 2 34 -1 42 -15 42 -12
0 -14 -3 -6 -8z"/>
<path d="M606 295 c4 -8 0 -23 -7 -33 -13 -15 -12 -16 4 -3 18 14 24 51 7 51
-5 0 -7 -7 -4 -15z"/>
<path d="M657 303 c-4 -3 -7 -14 -7 -24 0 -12 6 -16 20 -12 16 4 20 0 20 -17
0 -18 -4 -21 -21 -17 -16 4 -19 3 -11 -5 16 -16 42 -2 42 23 0 12 -8 23 -20
26 -25 7 -26 20 -2 26 14 4 14 5 1 6 -9 0 -19 -2 -22 -6z"/>
<path d="M726 294 c-10 -26 -7 -51 9 -64 21 -17 45 4 44 39 -1 25 -2 25 -8 -4
-3 -17 -13 -30 -21 -30 -19 0 -25 41 -10 61 8 8 8 14 2 14 -5 0 -13 -7 -16
-16z"/>
<path d="M2 83 l-2 -83 680 0 680 0 -2 83 -2 82 -3 -77 -4 -78 -669 0 -669 0
-4 78 -3 77 -2 -82z"/>
<path d="M761 74 c0 -11 3 -14 6 -6 3 7 2 16 -1 19 -3 4 -6 -2 -5 -13z"/>
</g>
</svg>
