<?xml version="1.0" standalone="no"?>
<!DOCTYPE svg PUBLIC "-//W3C//DTD SVG 20010904//EN"
 "http://www.w3.org/TR/2001/REC-SVG-20010904/DTD/svg10.dtd">
<svg version="1.0" xmlns="http://www.w3.org/2000/svg"
 width="559.000000pt" height="399.000000pt" viewBox="0 0 559.000000 399.000000"
 preserveAspectRatio="xMidYMid meet">

<g transform="translate(0.000000,399.000000) scale(0.100000,-0.100000)"
fill="#000000" stroke="none">
<path d="M126 3981 c-8 -12 3 -41 15 -41 5 0 9 11 9 25 0 25 -14 34 -24 16z"/>
<path d="M175 3979 c8 -11 56 -32 62 -26 2 2 0 12 -3 21 -5 14 -9 15 -15 4 -6
-10 -11 -10 -21 0 -15 15 -32 16 -23 1z"/>
<path d="M518 3976 c-25 -18 -22 -45 5 -55 18 -8 19 -10 6 -16 -26 -10 -102
-1 -107 13 -2 7 5 12 17 12 25 0 27 13 4 31 -11 10 -17 10 -20 3 -2 -6 -10
-20 -18 -30 -13 -17 -14 -18 -15 -1 0 9 5 17 11 17 5 0 7 5 4 10 -14 22 -37
-12 -31 -44 l6 -31 -23 28 c-27 32 -37 34 -37 8 0 -16 -11 -19 -80 -25 -44 -4
-85 -4 -90 -1 -6 4 -22 4 -36 1 -21 -6 -24 -12 -24 -56 0 -36 5 -52 18 -59 15
-9 15 -10 -5 -11 -28 0 -39 -17 -16 -23 10 -3 3 -5 -15 -6 -24 -1 -35 -6 -39
-20 -3 -12 -11 -17 -19 -14 -12 4 -14 -118 -14 -831 l0 -836 1370 0 1370 0 0
975 c0 876 -2 975 -16 975 -14 0 -15 -52 -13 -487 l2 -488 -26 -3 c-20 -3 -26
2 -29 20 -2 19 -8 23 -36 20 -44 -3 -43 24 1 43 l33 14 13 433 c7 238 15 436
18 441 2 4 -62 6 -144 5 -146 -3 -148 -3 -147 -25 0 -13 -2 -23 -5 -23 -4 0
-6 -26 -5 -57 1 -32 -3 -69 -8 -82 -5 -13 -5 -27 -1 -30 9 -7 10 -31 2 -46 -3
-5 -5 -19 -5 -30 1 -11 -2 -22 -6 -25 -3 -3 -3 -24 2 -48 4 -23 4 -42 0 -42
-4 0 -6 -26 -5 -57 1 -32 -2 -65 -7 -75 -4 -9 -4 -38 1 -65 5 -26 6 -52 2 -58
-3 -5 -6 -36 -6 -67 0 -32 -3 -58 -7 -58 -5 0 -8 -4 -8 -10 0 -5 6 -10 14 -10
7 0 16 -9 19 -20 6 -23 3 -24 -26 -8 -46 24 -67 57 -72 116 -13 130 -16 143
-47 177 -34 40 -72 46 -119 18 -35 -21 -40 -31 -50 -118 -13 -116 -22 -149
-43 -153 -10 -2 -27 -11 -38 -20 -23 -20 -58 -92 -58 -120 0 -22 -22 -34 -46
-25 -13 5 -15 -7 -9 -103 3 -60 8 -154 10 -209 1 -55 3 -112 4 -126 1 -26 2
-27 99 -34 53 -3 144 -13 202 -22 58 -8 131 -14 163 -13 51 1 136 -24 124 -37
-11 -10 -755 44 -922 67 -38 5 -128 14 -199 21 -108 10 -126 14 -112 25 24 17
12 21 -93 35 -101 14 -101 23 -1 32 85 8 144 29 148 53 2 10 8 23 13 29 13 13
162 6 216 -10 43 -13 46 -13 74 12 28 26 31 38 20 103 -1 3 -6 -2 -11 -10 -7
-12 -12 -12 -21 -3 -7 7 -14 20 -15 29 -2 13 3 15 26 11 36 -8 40 6 40 133 0
102 -3 111 -38 129 -12 7 -20 16 -17 22 4 5 1 9 -6 9 -6 0 -18 8 -25 18 -12
16 -13 16 -14 0 0 -9 -5 -29 -11 -45 l-11 -28 -23 27 c-12 15 -24 31 -26 37
-3 6 -20 6 -51 -1 -42 -10 -50 -9 -68 7 -27 25 -37 12 -11 -14 24 -24 20 -71
-5 -71 -8 0 -19 -12 -24 -26 -11 -28 -8 -153 4 -172 13 -22 26 -13 26 18 l0
30 69 0 c38 0 76 3 85 6 13 5 16 -2 16 -39 0 -25 5 -49 10 -52 15 -9 2 -25
-19 -25 -10 0 -25 -8 -32 -19 -18 -24 -79 -37 -79 -16 0 10 -10 15 -30 15 -16
0 -30 3 -30 8 0 10 -58 42 -76 42 -8 0 -14 6 -14 13 0 6 -5 44 -11 82 -6 39
-12 107 -14 152 -2 45 -6 91 -10 103 -8 26 5 25 40 -2 27 -21 27 -21 16 -1 -6
12 -23 30 -38 42 -22 16 -24 20 -11 21 10 0 17 5 15 11 -1 6 3 13 10 16 6 2
29 -18 49 -46 44 -59 58 -59 25 0 -13 22 -20 43 -17 46 6 6 73 -50 89 -74 4
-7 14 -13 21 -13 23 0 68 77 74 125 2 25 9 45 13 45 5 0 9 11 9 24 0 14 5 28
10 31 15 9 11 63 -9 120 -14 40 -23 51 -47 56 -16 4 -38 10 -50 14 -16 5 -29
-3 -56 -33 l-36 -40 -7 27 c-3 14 -9 110 -12 214 l-6 187 -371 0 c-293 -1
-375 -3 -388 -14z m19 -38 c-3 -8 -6 -5 -6 6 -1 11 2 17 5 13 3 -3 4 -12 1
-19z m-210 -98 c-1 -11 -5 -20 -9 -20 -11 0 -20 19 -13 30 11 17 24 11 22 -10z
m80 8 c-3 -12 -42 -18 -60 -10 -17 7 6 22 34 22 20 0 29 -4 26 -12z m93 8 c0
-12 -13 -36 -20 -36 -4 0 -10 9 -13 20 -4 15 0 20 14 20 10 0 19 -2 19 -4z
m80 -15 c0 -13 -8 -18 -30 -18 -21 0 -30 5 -30 17 0 12 9 17 30 18 22 0 30 -4
30 -17z m-66 -91 c5 -5 6 -16 3 -24 -10 -25 -184 -23 -203 2 -12 15 -13 15
-14 0 0 -13 -10 -16 -60 -15 -55 1 -60 3 -60 23 0 22 3 23 91 22 49 0 92 2 95
4 7 8 138 -3 148 -12z m-354 -20 c0 -23 -5 -30 -19 -30 -11 0 -23 5 -26 10
-11 18 6 50 26 50 14 0 19 -7 19 -30z m-10 -110 c0 -5 -2 -10 -4 -10 -3 0 -8
5 -11 10 -3 6 -1 10 4 10 6 0 11 -4 11 -10z m1133 -173 c-3 -12 -17 -34 -30
-48 -13 -15 -23 -35 -21 -44 2 -10 -3 -20 -9 -22 -7 -3 -13 0 -13 6 0 6 -7 11
-15 11 -24 0 -18 19 15 50 17 15 30 31 30 36 0 13 32 44 40 39 5 -3 6 -15 3
-28z m-1133 -48 c0 -11 -4 -17 -10 -14 -5 3 -10 13 -10 21 0 8 5 14 10 14 6 0
10 -9 10 -21z m769 -51 c13 -34 1 -44 -15 -13 -17 33 -17 35 -4 35 6 0 14 -10
19 -22z m-379 -43 c0 -8 -4 -15 -9 -15 -13 0 -22 16 -14 24 11 11 23 6 23 -9z
m1858 -229 c16 -42 7 -66 -24 -66 -24 0 -32 14 -14 25 6 3 10 22 10 41 0 43
12 44 28 0z m-2051 18 c-3 -3 -12 -4 -19 -1 -8 3 -5 6 6 6 11 1 17 -2 13 -5z
m-147 -14 c0 -5 -6 -10 -14 -10 -8 0 -18 5 -21 10 -3 6 3 10 14 10 12 0 21 -4
21 -10z m1229 -72 c-1 -41 -1 -42 -11 -15 -5 15 -7 34 -4 42 10 27 16 16 15
-27z m681 32 c0 -5 -5 -10 -11 -10 -5 0 -7 5 -4 10 3 6 8 10 11 10 2 0 4 -4 4
-10z m520 -25 c-13 -16 -50 -21 -50 -7 0 15 13 22 38 22 21 0 22 -2 12 -15z
m26 -46 c10 -17 -13 -36 -27 -22 -12 12 -4 33 11 33 5 0 12 -5 16 -11z m-2588
-51 c-16 -5 -28 -15 -28 -21 0 -7 -4 -6 -10 3 -11 18 5 30 40 29 l25 -1 -27
-10z m2360 -26 c-1 -10 1 -23 5 -29 5 -8 3 -13 -5 -13 -22 0 -41 39 -27 56 14
17 31 8 27 -14z m10 -91 c4 -11 -3 -13 -32 -8 -20 3 -36 2 -36 -4 0 -5 -9 -9
-20 -9 -30 0 -24 28 8 33 45 7 75 3 80 -12z m78 -139 c-11 -10 -15 4 -8 28 l7
25 3 -23 c2 -13 1 -26 -2 -30z m-38 0 c3 -9 -3 -13 -19 -10 -12 1 -24 9 -27
16 -3 9 3 13 19 10 12 -1 24 -9 27 -16z m176 -43 c17 -15 0 -20 -43 -13 -33 5
-39 9 -30 20 12 14 55 10 73 -7z m-1158 -216 c11 -4 14 -13 9 -32 -4 -14 -11
-53 -15 -87 -13 -101 -39 -133 -107 -134 -12 0 -26 8 -32 18 -12 23 -34 230
-25 243 7 11 136 5 170 -8z m278 -21 c46 -6 50 -10 58 -40 13 -47 0 -74 -52
-114 -25 -19 -56 -54 -69 -81 -26 -51 -39 -57 -63 -29 -21 23 -27 46 -29 122
-2 36 -8 72 -15 80 -6 8 -14 27 -18 43 l-6 27 72 -1 c40 0 95 -4 122 -7z"/>
<path d="M2863 3940 c0 -30 2 -43 4 -27 2 15 2 39 0 55 -2 15 -4 2 -4 -28z"/>
<path d="M5510 3971 c-7 -14 -6 -21 2 -23 9 -3 8 -11 -5 -29 -10 -13 -29 -39
-42 -58 -19 -25 -25 -47 -26 -85 0 -28 -2 -62 -5 -75 -2 -14 1 -40 7 -58 8
-25 8 -37 -1 -48 -7 -8 -9 -27 -5 -48 4 -20 2 -43 -4 -54 -10 -17 -10 -17 -11
0 0 11 -12 22 -30 28 -33 12 -38 30 -14 50 14 11 13 15 -8 30 l-23 18 22 22
c18 19 24 20 37 9 14 -11 16 -8 16 21 0 25 -3 30 -12 21 -17 -17 -44 3 -52 40
-5 24 -9 29 -18 20 -12 -12 -15 -181 -7 -350 4 -79 5 -83 29 -88 14 -3 32 -8
41 -10 51 -14 90 -13 95 1 4 8 1 21 -5 29 -9 11 -8 15 5 20 25 9 26 8 19 -23
-5 -23 -2 -32 14 -40 11 -6 24 -11 30 -11 8 0 11 110 11 355 l0 355 -25 0
c-14 0 -29 -8 -35 -19z m-45 -555 c35 -9 31 -23 -7 -29 -43 -6 -46 -4 -40 34
4 24 7 28 13 16 5 -8 20 -18 34 -21z"/>
<path d="M80 3960 c0 -5 5 -10 10 -10 6 0 10 5 10 10 0 6 -4 10 -10 10 -5 0
-10 -4 -10 -10z"/>
<path d="M5450 3960 c0 -5 5 -10 11 -10 5 0 7 5 4 10 -3 6 -8 10 -11 10 -2 0
-4 -4 -4 -10z"/>
<path d="M4155 3950 c-7 -12 2 -30 16 -30 5 0 9 9 9 20 0 21 -15 27 -25 10z"/>
<path d="M4214 3948 c-8 -13 -5 -14 39 -21 27 -4 37 -2 34 6 -5 15 -65 28 -73
15z"/>
<path d="M4316 3925 c4 -8 7 -15 9 -15 2 0 5 7 9 15 3 9 0 15 -9 15 -9 0 -12
-6 -9 -15z"/>
<path d="M2988 3913 c-27 -2 -48 -9 -48 -15 0 -7 16 -9 46 -4 40 5 47 3 51
-13 3 -11 13 -21 24 -24 16 -4 19 0 19 29 0 29 -3 34 -22 32 -13 -1 -44 -3
-70 -5z"/>
<path d="M3760 3903 c-15 -7 -50 -12 -86 -11 -57 2 -63 0 -106 -36 -25 -21
-55 -56 -67 -77 -12 -21 -26 -39 -31 -39 -5 0 -12 -10 -15 -22 -4 -13 -15 -41
-25 -63 -34 -74 -62 -170 -60 -210 0 -22 14 -68 31 -103 16 -34 29 -75 29 -91
0 -40 36 -147 61 -182 11 -16 25 -46 31 -67 6 -20 28 -54 49 -75 36 -36 59
-87 59 -129 0 -17 -22 -18 -330 -18 l-330 0 -2 -32 c0 -18 0 -40 0 -48 5 -46
-7 -58 -53 -58 -31 1 -45 6 -48 17 -3 9 -5 -125 -6 -296 l-1 -313 1355 0 c816
0 1355 4 1355 9 0 26 -15 41 -39 41 -20 0 -23 -2 -11 -10 11 -7 9 -8 -11 -6
-13 1 -29 5 -34 7 -20 11 -95 10 -95 0 0 -6 -10 -11 -22 -10 -22 0 -22 1 -3 9
19 8 19 9 -2 9 -12 1 -23 -4 -25 -10 -3 -8 -67 -12 -213 -13 l-210 -1 -3 34
c-2 19 1 31 6 27 5 -3 56 18 113 48 138 70 203 92 235 77 15 -6 85 -11 169
-11 l145 0 0 190 c0 157 -2 190 -14 190 -8 0 -16 -5 -18 -11 -2 -7 -32 -12
-73 -13 -211 -6 -202 -5 -208 -26 -4 -17 0 -20 23 -20 23 0 32 -7 45 -34 21
-44 14 -56 -36 -56 l-39 0 0 -81 c0 -60 -3 -80 -12 -76 -14 4 -14 0 -16 175
-2 121 -2 122 -24 117 -38 -8 -181 -9 -428 -2 -179 5 -230 4 -215 -5 10 -6 33
-15 50 -20 26 -6 24 -7 -12 -4 -23 2 -57 12 -75 21 -35 18 -63 26 -172 50 -79
17 -153 66 -189 125 l-22 35 -6 -35 c-3 -19 -29 -81 -56 -136 -28 -56 -56
-117 -62 -135 l-12 -34 -25 28 c-34 40 -30 75 15 142 21 31 41 73 45 94 3 23
22 56 50 89 25 29 47 60 51 71 3 10 -1 45 -10 77 -8 32 -15 70 -15 85 0 38
-13 69 -44 102 -27 29 -33 52 -17 61 5 3 14 -8 21 -24 12 -29 30 -41 30 -19 0
6 -7 26 -16 45 -12 26 -21 33 -35 29 -12 -4 -30 6 -57 34 -43 44 -52 75 -52
177 0 54 -3 62 -23 71 -12 6 -37 23 -55 38 -29 24 -32 31 -26 62 14 73 -51
120 -121 87 -20 -9 -38 -14 -41 -11 -10 10 50 77 69 77 9 0 17 6 17 13 0 8 8
22 19 31 16 14 27 15 81 7 75 -12 140 -58 189 -132 25 -38 61 -117 61 -134 0
-1 -26 -2 -57 -1 -53 1 -58 -1 -71 -26 -20 -43 0 -135 36 -165 33 -27 54 -29
50 -5 -2 11 4 18 20 20 31 5 28 29 -6 46 -29 15 -58 44 -51 50 2 2 23 6 47 9
l42 5 12 -46 12 -47 8 55 c16 107 3 159 -61 257 -32 48 -68 97 -80 107 -11 11
-21 25 -21 32 0 18 -34 35 -76 39 -19 2 -41 9 -49 15 -12 10 -18 10 -29 1 -10
-8 -21 -9 -33 -3 -12 6 -26 4 -43 -5z m88 -456 c2 -10 -3 -17 -12 -17 -10 0
-16 9 -16 21 0 24 23 21 28 -4z m223 -420 c11 -19 7 -92 -5 -104 -3 -3 -12 2
-21 11 -15 14 -15 18 -1 38 23 33 20 47 -15 62 -20 8 -27 15 -18 18 23 8 49
-3 60 -25z m-936 -292 c0 -20 -6 -31 -17 -33 -12 -2 -18 3 -18 15 -1 17 -2 17
-16 -2 -15 -18 -17 -19 -27 -3 -10 15 -12 15 -22 1 -15 -21 -35 -8 -35 21 0
12 2 25 4 27 2 2 33 4 68 4 l63 0 0 -30z m535 -5 c0 -11 -4 -20 -10 -20 -5 0
-10 9 -10 20 0 11 5 20 10 20 6 0 10 -9 10 -20z m77 7 c-5 -16 -57 -19 -57 -3
0 8 13 13 31 14 19 0 29 -4 26 -11z m93 -7 c0 -11 -6 -20 -14 -20 -7 0 -16 9
-19 20 -4 15 0 20 14 20 12 0 19 -7 19 -20z m80 -2 c0 -21 -11 -23 -28 -6 -9
9 -12 9 -12 0 0 -7 -4 -12 -10 -12 -5 0 -10 9 -10 19 0 15 7 19 30 19 22 -1
30 -6 30 -20z m-874 -110 c-19 -26 -21 -96 -5 -132 16 -35 29 -23 29 28 0 57
34 91 79 81 41 -9 72 -65 36 -65 -8 0 -15 -4 -15 -10 0 -5 9 -10 20 -10 11 0
20 -4 20 -10 0 -5 5 -10 10 -10 15 0 12 76 -4 115 l-15 35 40 0 39 0 0 -156
c0 -135 -2 -155 -15 -150 -8 3 -22 9 -31 12 -13 6 -15 1 -12 -27 l3 -34 -70 0
c-65 0 -70 2 -73 23 -4 28 -5 28 -38 -3 -15 -14 -32 -24 -37 -22 -13 4 -15 65
-9 225 l5 132 29 0 c28 0 29 -1 14 -22z m290 -45 c-10 -10 -19 5 -10 18 6 11
8 11 12 0 2 -7 1 -15 -2 -18z m298 6 c-3 -5 -10 -7 -15 -3 -5 3 -7 10 -3 15 3
5 10 7 15 3 5 -3 7 -10 3 -15z m-41 4 c-7 -2 -19 -2 -25 0 -7 3 -2 5 12 5 14
0 19 -2 13 -5z m1074 -19 c-3 -3 -12 -4 -19 -1 -8 3 -5 6 6 6 11 1 17 -2 13
-5z m69 -29 c20 -15 13 -18 -23 -9 -13 4 -23 10 -23 15 0 14 24 11 46 -6z
m-1133 -31 c-6 -17 -44 -15 -51 4 -2 8 7 12 27 12 23 0 29 -4 24 -16z m127 1
c0 -8 -4 -15 -10 -15 -5 0 -10 7 -10 15 0 8 5 15 10 15 6 0 10 -7 10 -15z m60
5 c0 -5 -4 -10 -10 -10 -5 0 -10 5 -10 10 0 6 5 10 10 10 6 0 10 -4 10 -10z
m995 0 c3 -6 -1 -7 -9 -4 -18 7 -21 14 -7 14 6 0 13 -4 16 -10z m-892 -56 c3
-3 3 -12 0 -20 -4 -11 -9 -12 -19 -3 -8 6 -11 15 -8 20 6 10 18 12 27 3z
m-298 -14 c3 -5 -1 -10 -10 -10 -9 0 -13 5 -10 10 3 6 8 10 10 10 2 0 7 -4 10
-10z m42 -12 c-3 -8 -6 -5 -6 6 -1 11 2 17 5 13 3 -3 4 -12 1 -19z m43 18 c0
-3 -4 -8 -10 -11 -5 -3 -10 -1 -10 4 0 6 5 11 10 11 6 0 10 -2 10 -4z m130 -6
c0 -5 -5 -10 -11 -10 -5 0 -7 5 -4 10 3 6 8 10 11 10 2 0 4 -4 4 -10z m124
-11 c-3 -5 -10 -7 -15 -3 -5 3 -7 10 -3 15 3 5 10 7 15 3 5 -3 7 -10 3 -15z
m-84 1 c0 -5 -4 -10 -10 -10 -5 0 -10 5 -10 10 0 6 5 10 10 10 6 0 10 -4 10
-10z m-250 -75 c-2 -5 -10 -9 -17 -7 -8 2 -13 -6 -13 -19 0 -14 -5 -19 -15
-16 -8 4 -17 2 -20 -3 -6 -10 -66 -7 -84 4 -5 4 -12 2 -16 -4 -3 -5 -19 -10
-35 -10 -23 0 -31 5 -36 26 -5 19 -12 24 -25 21 -12 -3 -19 0 -19 9 0 12 25
14 143 12 90 -2 140 -7 137 -13z m320 -5 c0 -17 -7 -20 -38 -20 -21 0 -42 -3
-46 -7 -3 -4 -14 -8 -24 -9 -9 -2 -31 -5 -49 -9 -25 -4 -33 -2 -37 12 -5 15
-14 18 -45 15 -38 -4 -58 8 -46 28 4 6 63 10 146 10 132 0 139 -1 139 -20z
m-117 -122 c4 -10 7 -10 18 0 14 13 59 17 59 5 0 -5 -20 -21 -45 -37 -55 -34
-71 -59 -50 -76 8 -7 21 -10 29 -7 7 3 19 0 25 -6 7 -7 17 -12 24 -12 7 0 14
-4 17 -10 3 -6 -55 -11 -162 -13 -133 -3 -168 -1 -168 10 0 29 36 98 58 110
12 6 20 18 18 25 -8 19 48 17 64 -2 14 -17 40 -20 40 -5 0 6 -6 10 -12 10 -9
0 -8 4 2 10 22 14 78 12 83 -2z"/>
<path d="M3090 2501 c0 -5 9 -7 20 -4 11 3 20 7 20 9 0 2 -9 4 -20 4 -11 0
-20 -4 -20 -9z"/>
<path d="M3165 2490 c4 -6 11 -8 16 -5 14 9 11 15 -7 15 -8 0 -12 -5 -9 -10z"/>
<path d="M3180 2420 c0 -11 7 -20 15 -20 8 0 15 6 15 14 0 8 -7 16 -15 20 -10
4 -15 -1 -15 -14z"/>
<path d="M3100 2404 c0 -8 5 -12 10 -9 6 3 10 10 10 16 0 5 -4 9 -10 9 -5 0
-10 -7 -10 -16z"/>
<path d="M3090 2375 c0 -5 5 -17 10 -25 5 -8 10 -10 10 -5 0 6 -5 17 -10 25
-5 8 -10 11 -10 5z"/>
<path d="M3134 2322 c7 -7 20 -10 29 -6 27 10 19 23 -13 21 -24 -2 -27 -4 -16
-15z"/>
<path d="M5088 3893 c-34 -24 -36 -29 -41 -92 -8 -103 -6 -125 9 -142 15 -16
10 -49 -7 -49 -5 0 -9 -7 -9 -15 0 -21 30 -31 40 -14 12 19 52 -18 48 -45 -2
-17 -9 -21 -34 -19 -28 2 -31 0 -26 -23 5 -26 -25 -104 -40 -104 -4 0 -8 5 -8
11 0 6 -7 26 -16 45 -15 32 -15 36 1 54 14 15 17 32 13 82 -3 35 0 87 6 116 8
40 7 58 -2 72 -6 11 -9 32 -6 50 7 30 -3 39 -23 19 -11 -11 -83 17 -83 33 0 5
-5 6 -11 2 -6 -3 -9 -15 -6 -25 3 -10 1 -22 -4 -25 -5 -3 -9 6 -9 20 0 19 -5
26 -19 26 -11 0 -21 9 -24 21 -8 30 -33 18 -29 -15 2 -17 -2 -26 -11 -26 -8 0
-20 -7 -27 -15 -7 -9 -21 -13 -30 -10 -27 9 -50 -5 -50 -30 0 -18 -4 -22 -19
-18 -47 12 -68 -73 -56 -226 l7 -89 62 -12 c33 -7 102 -12 153 -11 83 2 92 0
106 -20 10 -13 37 -27 69 -35 74 -20 105 -18 118 6 15 28 40 25 40 -4 0 -27
15 -42 25 -26 5 8 11 7 21 -1 11 -9 14 -8 14 3 0 8 -5 19 -11 25 -8 8 -8 13 0
17 13 8 15 73 2 78 -4 2 -12 13 -16 26 -5 18 -3 25 12 28 16 5 18 16 17 107
-1 134 1 126 -39 124 -35 -2 -44 -10 -25 -22 15 -9 12 -35 -4 -35 -7 0 -19 14
-27 31 -11 28 -10 33 4 44 18 13 23 35 8 35 -5 0 -11 -5 -13 -12 -2 -6 -10 -8
-16 -4 -22 13 -13 26 18 26 17 0 30 5 30 13 0 6 3 21 6 33 4 15 -1 23 -21 32
-14 7 -27 12 -28 11 -1 -1 -18 -12 -39 -26z m22 -253 c0 -5 -5 -10 -11 -10 -5
0 -7 5 -4 10 3 6 8 10 11 10 2 0 4 -4 4 -10z"/>
<path d="M3185 3900 c3 -5 8 -10 11 -10 2 0 4 5 4 10 0 6 -5 10 -11 10 -5 0
-7 -4 -4 -10z"/>
<path d="M4695 3900 c-3 -5 -3 -15 1 -21 6 -11 23 6 24 24 0 10 -18 9 -25 -3z"/>
<path d="M3161 3851 c-10 -18 -9 -21 9 -21 22 0 25 7 11 29 -7 11 -11 9 -20
-8z"/>
<path d="M65 3850 c-3 -5 -1 -10 4 -10 6 0 11 5 11 10 0 6 -2 10 -4 10 -3 0
-8 -4 -11 -10z"/>
<path d="M7 3843 c-3 -5 0 -19 5 -33 9 -24 10 -24 23 -7 7 11 11 25 8 33 -5
15 -29 19 -36 7z"/>
<path d="M5201 3821 c-16 -10 -6 -31 15 -31 8 0 14 9 14 20 0 22 -7 25 -29 11z"/>
<path d="M3240 3810 c0 -5 5 -10 11 -10 5 0 7 5 4 10 -3 6 -8 10 -11 10 -2 0
-4 -4 -4 -10z"/>
<path d="M4454 3796 c-10 -8 -15 -18 -11 -22 4 -5 11 -3 15 3 11 17 64 4 60
-16 -2 -9 -12 -17 -23 -19 -24 -4 -61 -50 -49 -62 5 -4 26 -13 47 -20 29 -9
37 -17 37 -35 0 -14 -7 -25 -20 -28 -14 -4 -20 -14 -20 -35 0 -39 -14 -48 -45
-28 -15 10 -26 12 -30 6 -9 -15 4 -30 26 -30 11 0 28 -4 37 -9 9 -4 38 -11 63
-14 l47 -6 4 47 c6 68 -2 132 -17 132 -6 0 -25 12 -40 26 -28 26 -28 27 -9 41
72 54 71 52 48 53 -11 0 -29 7 -40 15 -24 18 -55 19 -80 1z"/>
<path d="M4265 3790 c-3 -5 8 -16 25 -25 19 -10 30 -24 31 -38 0 -17 3 -14 14
13 21 55 19 60 -24 60 -22 0 -42 -4 -46 -10z"/>
<path d="M2863 3620 c0 -41 2 -58 4 -37 2 20 2 54 0 75 -2 20 -4 3 -4 -38z"/>
<path d="M4160 3650 c0 -11 5 -20 10 -20 6 0 10 9 10 20 0 11 -4 20 -10 20 -5
0 -10 -9 -10 -20z"/>
<path d="M4274 3649 c-3 -6 -17 -8 -30 -5 -17 5 -24 2 -24 -9 0 -8 6 -15 14
-15 24 0 66 19 66 30 0 13 -17 13 -26 -1z"/>
<path d="M4394 3618 c-5 -7 -9 -19 -11 -27 -1 -8 -4 -25 -8 -38 -3 -13 -1 -23
5 -23 5 0 10 9 10 19 0 11 9 23 20 26 23 7 26 28 6 44 -11 9 -16 9 -22 -1z"/>
<path d="M4450 3575 c0 -9 5 -15 11 -13 6 2 11 8 11 13 0 5 -5 11 -11 13 -6 2
-11 -4 -11 -13z"/>
<path d="M5405 3580 c3 -5 8 -10 11 -10 2 0 4 5 4 10 0 6 -5 10 -11 10 -5 0
-7 -4 -4 -10z"/>
<path d="M2862 3465 c0 -16 2 -22 5 -12 2 9 2 23 0 30 -3 6 -5 -1 -5 -18z"/>
<path d="M2862 2755 c0 -16 2 -22 5 -12 2 9 2 23 0 30 -3 6 -5 -1 -5 -18z"/>
<path d="M5440 2630 c0 -5 5 -10 11 -10 5 0 7 5 4 10 -3 6 -8 10 -11 10 -2 0
-4 -4 -4 -10z"/>
<path d="M1318 2603 c6 -2 18 -2 25 0 6 3 1 5 -13 5 -14 0 -19 -2 -12 -5z"/>
<path d="M5536 2213 c-4 -5 -43 -8 -87 -8 -48 -1 -83 -5 -91 -13 -9 -9 -8 -12
5 -12 9 0 17 -4 17 -9 0 -6 15 -12 33 -14 17 -2 4 -5 -31 -5 -42 -1 -69 -7
-79 -17 -14 -14 -2 -16 123 -13 l139 3 0 44 c0 42 -12 60 -29 44z m-21 -53 c4
-6 -6 -10 -22 -10 -22 0 -25 2 -13 10 19 12 27 12 35 0z"/>
<path d="M5118 2133 c6 -2 18 -2 25 0 6 3 1 5 -13 5 -14 0 -19 -2 -12 -5z"/>
<path d="M5178 2133 c7 -3 16 -2 19 1 4 3 -2 6 -13 5 -11 0 -14 -3 -6 -6z"/>
<path d="M5238 2133 c7 -3 16 -2 19 1 4 3 -2 6 -13 5 -11 0 -14 -3 -6 -6z"/>
<path d="M0 965 l0 -965 1365 0 1365 0 -2 963 -3 962 -270 2 -269 2 -46 -27
c-25 -15 -72 -40 -104 -57 -68 -35 -127 -105 -147 -175 -12 -40 -14 -42 -17
-18 -2 15 2 36 7 47 6 11 11 28 11 39 0 26 86 142 105 142 19 0 56 31 49 42
-3 4 -464 8 -1025 8 l-1019 0 0 -965z m1857 573 c-3 -8 -6 -5 -6 6 -1 11 2 17
5 13 3 -3 4 -12 1 -19z m160 -38 c6 -22 18 -26 28 -10 3 6 11 10 16 10 15 0
-24 -49 -38 -50 -7 0 -13 9 -13 19 0 11 -4 23 -10 26 -13 8 -13 25 1 25 6 0
13 -9 16 -20z m-1081 -170 c12 -24 28 -48 37 -55 18 -13 11 -28 -17 -38 -13
-5 -17 -3 -13 7 3 7 -8 28 -24 45 -19 21 -29 43 -29 62 0 42 20 33 46 -21z
m174 -91 c0 -20 -33 -26 -59 -10 -11 7 -9 13 8 30 18 18 25 20 37 10 8 -6 14
-20 14 -30z m835 -87 c-6 -6 -25 45 -31 83 -3 17 4 7 15 -24 12 -30 19 -57 16
-59z m-1715 32 c0 -28 -28 -44 -41 -23 -6 10 -9 10 -9 2 0 -7 -9 -13 -20 -13
-16 0 -20 6 -18 29 2 28 5 29 45 29 39 0 43 -2 43 -24z m70 -5 c0 -24 -3 -30
-16 -25 -9 3 -20 6 -25 6 -5 0 -9 11 -9 25 0 20 5 25 25 25 21 0 25 -5 25 -31z
m47 16 c1 -5 -2 -17 -7 -25 -9 -13 -11 -13 -20 0 -15 23 -12 42 7 38 9 -2 18
-7 20 -13z m113 0 c0 -24 -12 -45 -26 -45 -8 0 -11 6 -7 18 6 16 5 16 -13 1
-24 -21 -44 -14 -44 16 0 21 5 23 45 23 31 0 45 -4 45 -13z m542 -21 c-3 -15
-8 -22 -14 -16 -9 9 -1 42 12 42 4 0 5 -12 2 -26z m83 5 c0 -9 -10 -14 -29
-14 -36 1 -46 22 -14 28 32 6 43 3 43 -14z m131 -16 c-7 -17 -8 -17 -17 0 -12
21 -2 44 13 29 6 -6 8 -19 4 -29z m37 12 c-3 -8 -9 -15 -14 -15 -10 0 -12 24
-3 33 11 11 24 -3 17 -18z m1030 10 c4 -8 2 -17 -2 -20 -5 -3 -7 -13 -5 -23 5
-21 -58 -56 -73 -41 -7 7 -12 5 -16 -5 -3 -8 1 -17 9 -20 29 -11 13 -35 -41
-61 -60 -28 -71 -38 -27 -25 16 4 36 4 45 -2 21 -11 22 -48 1 -48 -8 0 -12 -5
-9 -10 3 -6 16 -8 28 -4 15 3 31 -2 46 -15 31 -27 31 -27 26 10 -3 24 -1 29
11 25 11 -4 14 -1 12 12 -2 10 -14 18 -28 20 -29 3 -70 22 -70 32 0 10 47 30
69 30 13 0 21 -10 25 -34 4 -20 16 -41 31 -50 17 -11 27 -29 31 -56 4 -22 13
-45 20 -51 16 -13 19 -45 5 -53 -5 -3 -24 5 -44 18 l-35 24 -5 -31 c-4 -26 0
-36 20 -53 14 -12 23 -26 19 -32 -8 -13 10 -25 24 -17 8 5 7 11 0 20 -8 9 -8
20 -2 31 9 16 10 15 16 -4 6 -17 15 -22 39 -22 18 0 43 -3 56 -7 23 -6 23 -4
17 30 -12 64 12 41 38 -35 3 -10 10 -18 15 -18 15 0 23 18 12 25 -7 4 -7 15 0
32 8 21 6 30 -12 49 -14 15 -19 29 -15 41 7 16 10 15 31 -12 14 -16 36 -44 50
-61 14 -18 25 -38 25 -47 0 -16 27 -43 35 -35 3 3 14 22 24 44 l19 39 6 -45
c3 -25 2 -61 -3 -80 l-8 -35 -12 28 c-13 33 -35 31 -37 -2 -1 -13 -7 -27 -14
-31 -7 -5 -9 -16 -5 -30 4 -12 9 -19 13 -16 12 12 40 -25 34 -46 -3 -14 -1
-19 6 -14 7 4 12 19 13 34 1 24 2 23 9 -8 9 -38 8 -55 -4 -112 -5 -22 -14 -38
-22 -38 -19 0 -17 -10 7 -36 17 -18 20 -35 20 -95 0 -51 -4 -77 -15 -88 -13
-13 -14 -17 -2 -30 8 -9 16 -38 18 -66 l3 -50 -228 0 c-125 0 -233 2 -238 6
-15 9 -6 45 10 41 7 -1 19 3 27 9 14 11 15 10 18 -13 2 -20 31 -15 31 4 0 10
6 23 13 30 9 9 12 9 12 -5 0 -25 13 -21 32 10 10 16 18 22 18 15 0 -8 7 -11
19 -7 10 3 24 -1 31 -10 17 -21 27 -19 33 6 4 15 11 20 21 16 26 -10 19 23 -9
45 -31 24 -32 36 -2 47 22 9 22 9 -6 16 -16 4 -33 3 -41 -4 -7 -6 -16 -8 -19
-4 -4 3 -7 1 -7 -5 0 -7 6 -12 14 -12 11 0 12 -5 3 -24 -7 -14 -14 -23 -16
-20 -2 2 -12 -3 -21 -11 -10 -9 -23 -13 -31 -10 -18 7 -43 45 -29 45 5 0 10
-4 10 -10 0 -5 4 -10 9 -10 9 0 7 43 -4 60 -4 6 -18 9 -30 6 -14 -4 -25 -1
-28 7 -4 9 -7 9 -15 -1 -5 -7 -21 -19 -35 -27 -23 -12 -26 -11 -31 9 -12 43
-6 75 16 90 27 19 42 21 31 4 -4 -7 -8 -23 -8 -36 -1 -16 5 -22 21 -22 22 0
25 5 39 64 6 27 7 28 25 11 16 -15 22 -15 35 -5 8 7 15 9 15 4 0 -5 4 -3 9 5
15 23 34 2 27 -30 -4 -22 -2 -29 10 -29 10 0 14 -6 10 -15 -3 -8 -2 -15 3 -15
9 0 21 48 21 86 0 15 6 24 15 24 24 0 17 13 -18 38 -39 26 -47 27 -47 7 0 -8
-9 -15 -20 -15 -15 0 -20 -7 -20 -25 0 -14 -2 -25 -5 -25 -9 0 -85 80 -85 90
0 26 -19 6 -24 -26 -5 -24 -12 -34 -21 -31 -8 4 -16 -4 -20 -21 -3 -15 -9 -21
-13 -15 -4 6 -16 13 -27 15 -14 3 -19 11 -18 26 3 28 -25 42 -41 21 -6 -9 -18
-18 -27 -21 -12 -5 -15 -14 -12 -32 3 -15 1 -26 -6 -26 -6 0 -11 14 -11 30 0
39 -11 38 -35 -2 -10 -18 -20 -27 -23 -20 -2 7 -8 12 -13 12 -15 0 -10 -42 7
-61 10 -11 14 -25 10 -36 -6 -15 -8 -15 -17 -3 -8 12 -9 11 -7 -5 4 -27 46
-33 55 -8 4 10 12 24 19 30 10 10 14 4 19 -27 8 -47 -2 -120 -17 -120 -6 0 -8
9 -5 20 7 25 -30 55 -49 39 -8 -7 -13 -6 -16 3 -4 10 -8 10 -22 -1 -14 -12
-19 -11 -35 4 -13 11 -27 14 -40 10 -14 -4 -21 -2 -21 7 0 10 -2 10 -8 1 -5
-8 -13 -9 -22 -3 -22 14 -30 12 -24 -5 10 -24 -12 -17 -29 9 -13 20 -14 25 -3
29 8 3 17 20 21 37 13 61 62 48 56 -15 -3 -39 8 -44 39 -18 14 12 16 19 8 24
-16 10 -4 22 25 24 31 2 32 27 2 63 -15 18 -21 33 -15 37 5 3 10 -2 10 -11 0
-13 3 -15 11 -7 8 8 8 17 0 32 -14 25 -34 27 -55 5 -15 -14 -16 -14 -16 6 l0
21 -22 -21 -23 -21 -3 21 c-2 11 -12 26 -22 32 -19 12 -16 38 5 38 7 0 15 5
17 11 4 13 47 -7 61 -29 12 -19 47 4 59 38 6 19 15 27 24 23 8 -3 17 2 20 12
5 13 8 14 15 3 5 -7 12 -13 16 -13 4 0 23 -11 41 -25 22 -17 30 -29 26 -42 -4
-12 0 -18 11 -18 9 0 13 5 10 10 -3 6 -2 10 3 10 5 0 9 17 10 37 1 20 5 39 10
42 5 3 11 14 15 24 5 14 1 17 -23 17 -23 0 -30 5 -30 20 0 10 -7 23 -15 27
-16 10 -24 93 -11 130 6 18 2 22 -24 28 -16 4 -30 12 -31 18 0 7 -4 3 -9 -9
-11 -29 -1 -73 20 -84 12 -6 16 -17 13 -30 -3 -11 2 -26 11 -35 25 -25 21 -48
-6 -39 -22 6 -22 6 -5 -13 9 -11 17 -26 17 -33 0 -10 -4 -8 -13 4 -7 9 -19 16
-27 14 -9 -2 -15 5 -16 17 -2 41 -5 45 -28 45 -28 0 -43 35 -19 44 8 4 13 13
9 21 -3 8 -1 15 4 15 14 0 12 57 -2 66 -22 14 -63 10 -75 -5 -11 -14 -12 -14
-13 2 0 9 -4 17 -8 17 -16 0 -31 47 -19 59 8 8 8 11 0 11 -17 0 -63 -63 -63
-86 0 -11 -5 -25 -11 -31 -22 -22 -2 -43 40 -43 41 0 61 13 39 26 -8 5 -6 10
8 14 10 4 24 3 31 -2 7 -5 16 -7 22 -4 5 3 11 -1 15 -9 3 -8 0 -17 -5 -21 -6
-3 -9 -17 -6 -31 3 -19 -1 -27 -19 -35 -14 -7 -27 -22 -30 -35 -4 -12 -10 -20
-15 -17 -5 3 -7 9 -4 13 7 13 -30 51 -54 56 -13 2 -26 -4 -36 -17 -14 -20 -15
-21 -21 -3 -4 10 0 46 10 79 9 34 21 76 25 94 12 46 35 68 90 89 25 9 63 27
83 40 20 12 49 25 65 29 15 4 37 12 48 18 18 9 17 11 -15 16 -22 3 -36 11 -38
22 -3 15 2 17 27 12 20 -4 31 -2 31 4 0 6 14 27 31 46 17 20 28 39 25 44 -7
12 61 60 100 72 42 12 51 12 57 -5z m-1113 -10 c0 -8 -7 -15 -15 -15 -8 0 -15
7 -15 15 0 8 7 15 15 15 8 0 15 -7 15 -15z m-692 -307 l-3 -213 -165 0 -165 0
-3 213 -2 212 170 0 170 0 -2 -212z m437 194 c0 -18 -20 -15 -23 4 -3 10 1 15
10 12 7 -3 13 -10 13 -16z m-880 -102 c3 -5 1 -10 -4 -10 -6 0 -11 5 -11 10 0
6 2 10 4 10 3 0 8 -4 11 -10z m65 0 c0 -5 -4 -10 -10 -10 -5 0 -10 5 -10 10 0
6 5 10 10 10 6 0 10 -4 10 -10z m785 -120 c3 -5 1 -10 -4 -10 -6 0 -11 5 -11
10 0 6 2 10 4 10 3 0 8 -4 11 -10z m-135 -10 c0 -5 -4 -10 -10 -10 -5 0 -10 5
-10 10 0 6 5 10 10 10 6 0 10 -4 10 -10z m400 -75 c0 -14 -5 -25 -11 -25 -6 0
-9 7 -5 15 3 9 0 15 -10 15 -8 0 -12 -4 -9 -10 10 -17 -12 -11 -26 7 -8 9 -9
14 -2 10 6 -4 22 -3 35 2 12 6 24 10 26 10 1 1 2 -10 2 -24z m-440 -1 c0 -8
-4 -12 -10 -9 -5 3 -10 10 -10 16 0 5 5 9 10 9 6 0 10 -7 10 -16z m140 12 c0
-11 -19 -15 -25 -6 -3 5 1 10 9 10 9 0 16 -2 16 -4z m50 -12 c0 -8 -4 -12 -10
-9 -5 3 -10 10 -10 16 0 5 5 9 10 9 6 0 10 -7 10 -16z m140 0 c0 -9 -5 -14
-12 -12 -18 6 -21 28 -4 28 9 0 16 -7 16 -16z m30 0 c0 -8 -4 -12 -10 -9 -5 3
-10 10 -10 16 0 5 5 9 10 9 6 0 10 -7 10 -16z m-490 -64 c0 -5 -4 -10 -10 -10
-5 0 -10 5 -10 10 0 6 5 10 10 10 6 0 10 -4 10 -10z m230 0 c0 -5 -4 -10 -9
-10 -6 0 -13 5 -16 10 -3 6 1 10 9 10 9 0 16 -4 16 -10z m30 -5 c0 -8 -4 -15
-8 -15 -5 0 -9 7 -9 15 0 8 4 15 9 15 4 0 8 -7 8 -15z m180 0 c0 -8 -2 -15 -4
-15 -2 0 -6 7 -10 15 -3 8 -1 15 4 15 6 0 10 -7 10 -15z m130 4 c0 -5 -5 -7
-10 -4 -6 4 -17 1 -25 -5 -15 -13 -39 -4 -30 11 8 13 65 11 65 -2z m100 1 c0
-5 -4 -10 -9 -10 -6 0 -13 5 -16 10 -3 6 1 10 9 10 9 0 16 -4 16 -10z m-2 -89
c3 -10 0 -12 -13 -7 -25 9 -58 -3 -51 -20 3 -8 0 -14 -7 -15 -7 0 -31 -2 -54
-5 -38 -4 -43 -3 -48 18 -5 20 -11 23 -41 20 -27 -3 -34 -1 -34 12 0 15 14 17
122 14 93 -2 122 -6 126 -17z m520 -179 c-4 -2 -8 -11 -8 -20 0 -12 -3 -13
-11 -5 -8 8 -9 30 -4 70 l8 58 12 -50 c6 -27 8 -51 3 -53z m92 78 c0 -5 -4
-10 -10 -10 -5 0 -10 5 -10 10 0 6 5 10 10 10 6 0 10 -4 10 -10z m-1347 -30
c8 0 7 -4 -1 -12 -7 -7 -12 -29 -12 -50 0 -31 5 -41 25 -50 14 -6 25 -15 25
-19 0 -12 -76 -50 -84 -42 -8 9 -8 168 1 177 4 3 13 4 21 1 7 -3 19 -5 25 -5z
m372 -100 l0 -105 -80 0 -80 0 -3 94 c-1 52 0 101 2 108 4 10 25 13 83 11 l78
-3 0 -105z m265 0 l0 -111 -87 3 -88 3 -3 108 -3 107 91 0 90 0 0 -110z m-520
15 c0 -77 -8 -102 -25 -75 -3 6 -15 10 -27 10 -17 0 -19 4 -14 26 4 15 14 33
21 41 20 19 19 42 -2 65 -15 17 -14 18 15 18 l32 0 0 -85z m-407 -2 c-5 -33
-23 -36 -23 -4 0 15 20 45 26 38 1 -1 -1 -17 -3 -34z m37 -3 c0 -10 -4 -22
-10 -25 -6 -4 -10 7 -10 25 0 18 4 29 10 25 6 -3 10 -15 10 -25z m1214 -102
c29 -45 40 -110 30 -189 l-9 -74 -340 -3 c-187 -2 -336 0 -332 4 4 4 39 20 78
36 58 23 85 28 154 28 58 0 85 -4 88 -12 2 -9 21 -12 52 -11 29 1 57 -4 71
-14 13 -8 29 -11 35 -7 9 5 6 10 -9 15 -25 9 -21 30 10 65 12 14 15 23 8 26
-6 2 -11 29 -11 63 -1 77 18 95 102 95 50 0 61 -3 73 -22z m-620 -69 c-3 -5
-10 -7 -15 -3 -5 3 -7 10 -3 15 3 5 10 7 15 3 5 -3 7 -10 3 -15z m906 -44 c0
-8 -4 -15 -10 -15 -5 0 -7 7 -4 15 4 8 8 15 10 15 2 0 4 -7 4 -15z m200 -45
c0 -5 -5 -10 -11 -10 -5 0 -7 5 -4 10 3 6 8 10 11 10 2 0 4 -4 4 -10z m-1194
-48 c-9 -17 -20 -33 -25 -36 -5 -4 0 12 12 33 25 46 36 48 13 3z m984 -38 c0
-22 -4 -24 -47 -24 -75 0 -82 14 -21 37 60 23 68 22 68 -13z m210 -4 c0 -5 -5
-10 -11 -10 -5 0 -7 5 -4 10 3 6 8 10 11 10 2 0 4 -4 4 -10z m120 -2 c0 -4 -9
-8 -20 -8 -11 0 -20 4 -20 8 0 4 9 8 20 8 11 0 20 -4 20 -8z"/>
<path d="M2055 940 c-9 -15 6 -39 28 -46 12 -4 25 -12 29 -18 4 -6 8 1 8 16 0
17 6 28 18 30 9 2 -4 8 -31 14 -26 6 -50 8 -52 4z"/>
<path d="M1922 883 c2 -10 13 -19 26 -21 12 -2 20 -8 17 -13 -4 -5 -2 -9 3 -9
5 0 9 14 9 30 0 26 -4 30 -29 30 -23 0 -29 -4 -26 -17z"/>
<path d="M2143 802 c-3 -13 -11 -18 -19 -15 -16 6 -18 -5 -5 -26 5 -7 14 -10
20 -6 17 10 41 -14 41 -40 0 -13 7 -26 16 -29 9 -3 12 -11 8 -18 -4 -7 -7 -29
-5 -50 1 -29 -1 -36 -13 -32 -8 3 -17 1 -20 -4 -10 -16 5 -43 23 -40 24 3 61
-20 55 -36 -3 -8 -1 -17 5 -21 7 -4 11 4 11 19 0 24 31 52 43 40 3 -3 3 3 0
14 -2 11 -13 22 -23 25 -22 6 -61 87 -66 135 -2 26 1 32 12 28 27 -10 14 14
-18 34 -18 10 -39 24 -46 30 -10 10 -14 8 -19 -8z"/>
<path d="M2477 674 c-3 -4 -3 -20 0 -37 5 -22 3 -28 -6 -22 -9 5 -12 1 -9 -15
2 -15 15 -27 43 -38 22 -9 44 -21 48 -29 11 -17 27 -17 27 2 0 7 7 18 16 23
14 8 14 12 -7 31 -19 18 -21 25 -12 40 16 26 4 34 -23 16 -25 -16 -38 -7 -28
19 5 12 0 16 -18 16 -14 0 -27 -3 -31 -6z"/>
<path d="M2347 664 c-3 -3 -3 -21 0 -40 4 -27 2 -34 -10 -34 -22 0 -10 -30 12
-30 26 -1 52 -26 45 -44 -3 -9 -1 -16 5 -16 6 0 11 8 11 18 0 9 7 30 15 46 20
38 19 44 -7 48 -13 2 -21 8 -18 13 3 6 8 9 13 8 19 -7 4 8 -23 22 -33 17 -34
17 -43 9z"/>
<path d="M2170 630 c0 -5 5 -10 10 -10 6 0 10 5 10 10 0 6 -4 10 -10 10 -5 0
-10 -4 -10 -10z"/>
<path d="M2115 600 c3 -5 8 -10 11 -10 2 0 4 5 4 10 0 6 -5 10 -11 10 -5 0 -7
-4 -4 -10z"/>
<path d="M2520 530 c0 -5 5 -10 10 -10 6 0 10 5 10 10 0 6 -4 10 -10 10 -5 0
-10 -4 -10 -10z"/>
<path d="M2055 451 c-6 -11 9 -23 19 -14 9 9 7 23 -3 23 -6 0 -12 -4 -16 -9z"/>
<path d="M2545 441 c3 -11 -1 -25 -10 -34 -20 -21 -19 -29 6 -50 16 -14 19
-25 14 -48 -6 -28 -5 -30 13 -20 17 9 20 7 25 -15 3 -20 0 -28 -14 -31 -13 -4
-19 -14 -19 -33 0 -16 -7 -30 -15 -34 -30 -11 -16 -41 30 -61 24 -10 46 -25
47 -32 2 -7 11 -3 24 12 19 21 20 27 9 48 -7 14 -10 37 -8 51 3 15 1 26 -5 26
-14 0 -12 103 1 112 7 4 -1 18 -19 36 -45 46 -59 65 -56 79 2 7 -4 13 -13 13
-11 0 -15 -6 -10 -19z"/>
<path d="M2420 429 c0 -5 5 -7 10 -4 6 3 10 8 10 11 0 2 -4 4 -10 4 -5 0 -10
-5 -10 -11z"/>
<path d="M2330 286 c0 -16 5 -26 15 -26 8 0 15 6 15 14 0 7 -7 19 -15 26 -13
11 -15 8 -15 -14z"/>
<path d="M1840 254 c0 -8 5 -12 10 -9 6 3 10 10 10 16 0 5 -4 9 -10 9 -5 0
-10 -7 -10 -16z"/>
<path d="M2580 80 c0 -5 4 -10 9 -10 6 0 13 5 16 10 3 6 -1 10 -9 10 -9 0 -16
-4 -16 -10z"/>
<path d="M2450 54 c0 -17 22 -14 28 4 2 7 -3 12 -12 12 -9 0 -16 -7 -16 -16z"/>
<path d="M260 1024 c-19 -13 -38 -32 -41 -42 -4 -10 -9 -74 -10 -143 -3 -111
-2 -124 14 -127 9 -2 17 -12 17 -23 0 -25 45 -26 60 -1 10 16 10 16 20 0 15
-25 60 -24 60 1 0 10 8 21 18 23 15 4 16 15 11 109 -4 57 -7 120 -8 140 -1 30
-7 40 -42 62 -49 33 -55 33 -99 1z"/>
<path d="M800 445 c-6 -8 -13 -40 -15 -72 -2 -32 -5 -65 -6 -73 -2 -8 3 -15
11 -15 8 0 17 15 22 39 5 22 13 45 19 53 12 14 4 83 -10 83 -5 0 -14 -7 -21
-15z"/>
<path d="M1032 440 c-18 -17 -22 -32 -22 -85 0 -68 7 -79 50 -81 41 -1 50 13
50 82 0 52 -4 67 -22 84 -27 25 -29 25 -56 0z"/>
<path d="M2846 1923 c-3 -4 -6 -438 -6 -965 l0 -958 1365 0 1365 0 0 964 0
965 -1359 0 c-747 0 -1362 -3 -1365 -6z m1502 -180 c-3 -55 -4 -58 -30 -61
-22 -3 -28 -9 -28 -28 0 -20 5 -24 29 -24 28 0 29 3 40 63 6 35 11 73 11 85 0
17 6 22 25 22 29 0 29 1 15 -125 -16 -136 -23 -146 -70 -105 -13 11 -37 20
-55 20 -17 0 -36 5 -43 12 -9 9 -12 6 -12 -14 0 -30 -14 -43 -32 -31 -19 11
-62 3 -71 -13 -5 -8 -24 -14 -47 -14 -21 0 -42 -4 -45 -10 -9 -15 -25 -12 -25
5 0 12 -4 13 -19 4 -36 -23 -51 -5 -51 61 0 64 0 64 58 74 27 5 32 3 32 -14 0
-30 20 -24 31 10 13 37 22 38 37 5 16 -34 33 -32 26 4 -7 34 -2 38 56 42 l45
4 -3 -36 c-2 -21 1 -40 7 -44 7 -4 11 11 11 44 0 50 1 51 29 51 41 0 50 29 11
37 -51 10 -37 33 20 33 l51 0 -3 -57z m179 -120 c-3 -10 -5 -4 -5 12 0 17 2
24 5 18 2 -7 2 -21 0 -30z m-219 -185 c-3 -90 -5 -103 -21 -106 -10 -2 -27 4
-38 14 -17 15 -22 16 -45 3 l-27 -14 44 -8 c116 -23 104 -115 -16 -125 -72 -6
-108 15 -103 60 2 23 11 35 37 49 35 19 33 21 -20 33 -33 7 -54 49 -38 78 8
15 8 22 0 27 -6 4 -10 18 -8 32 3 17 11 25 30 27 15 2 27 8 27 13 0 5 14 9 30
9 17 0 30 -4 30 -10 0 -5 11 -10 25 -10 16 0 25 -6 25 -15 0 -8 5 -15 10 -15
6 0 10 11 10 23 0 29 7 37 32 37 17 0 18 -8 16 -102z m112 31 c0 -45 6 -74 25
-111 41 -82 29 -105 -22 -41 l-30 36 -21 -21 c-12 -12 -26 -22 -32 -22 -5 0
-10 -5 -10 -11 0 -5 5 -7 12 -3 7 4 8 3 4 -4 -4 -6 -13 -9 -20 -6 -11 4 -8 15
12 51 18 33 26 65 30 119 4 70 6 74 28 74 23 0 24 -4 24 -61z m-960 -29 c0 -5
-2 -10 -4 -10 -3 0 -8 5 -11 10 -3 6 -1 10 4 10 6 0 11 -4 11 -10z m-373 -55
c3 -11 -63 -11 -89 0 -12 5 -18 3 -18 -6 0 -7 -3 -10 -6 -6 -3 3 -3 11 1 17 8
13 107 9 112 -5z m1433 -25 c0 -5 -2 -10 -4 -10 -3 0 -8 5 -11 10 -3 6 -1 10
4 10 6 0 11 -4 11 -10z m-1465 -35 c0 -5 -9 -10 -20 -10 -15 0 -20 -7 -20 -28
1 -41 -20 -26 -23 17 -3 37 -3 37 30 34 18 -2 33 -7 33 -13z m1405 -151 c0 -8
-4 -12 -10 -9 -5 3 -10 10 -10 16 0 5 5 9 10 9 6 0 10 -7 10 -16z m-1100 -4
c0 -5 -8 -10 -17 -10 -15 0 -16 2 -3 10 19 12 20 12 20 0z m820 -90 c0 -5 -2
-10 -4 -10 -3 0 -8 5 -11 10 -3 6 -1 10 4 10 6 0 11 -4 11 -10z m778 -2 c7 -9
6 -17 -3 -25 -10 -10 -16 -9 -25 2 -12 14 -6 35 9 35 5 0 13 -6 19 -12z
m-1610 -15 c-10 -2 -18 -9 -18 -15 0 -6 -3 -9 -6 -5 -10 10 6 27 24 26 15 -1
15 -2 0 -6z m823 -36 c-8 -8 -11 -7 -11 4 0 20 13 34 18 19 3 -7 -1 -17 -7
-23z m-715 -4 c-7 -7 -26 7 -26 19 0 6 6 6 15 -2 9 -7 13 -15 11 -17z m1098
-28 c2 -28 8 -66 12 -85 6 -31 6 -33 -8 -22 -23 18 -43 129 -27 148 16 19 17
17 23 -41z m-372 -87 c-14 -35 -28 -91 -30 -125 -3 -48 -8 -63 -19 -63 -13 0
-14 9 -9 43 18 129 44 207 69 207 12 0 9 -13 -11 -62z m86 43 c3 -8 -1 -12 -9
-9 -7 2 -15 10 -17 17 -3 8 1 12 9 9 7 -2 15 -10 17 -17z m-1222 -26 c24 -22
26 -28 16 -50 -6 -14 -18 -25 -26 -25 -18 0 -49 47 -36 55 6 3 10 15 10 26 0
25 3 24 36 -6z m1436 -47 c-3 -23 -12 -55 -22 -72 -17 -32 -50 -48 -50 -25 0
17 60 139 69 139 3 0 5 -19 3 -42z m167 -96 c0 -29 -3 -51 -7 -48 -5 3 -9 40
-9 83 1 87 14 57 16 -35z m-64 -19 c6 -36 4 -43 -9 -43 -13 0 -16 12 -15 63 0
66 10 58 24 -20z m-125 -23 c0 -5 -2 -10 -4 -10 -3 0 -8 5 -11 10 -3 6 -1 10
4 10 6 0 11 -4 11 -10z m-1400 -52 c0 7 9 12 20 12 14 0 20 -7 20 -21 0 -15
-5 -19 -15 -15 -8 3 -15 1 -15 -4 0 -6 5 -10 12 -10 6 0 8 -3 5 -6 -4 -4 -13
-2 -20 5 -8 6 -21 9 -30 5 -21 -8 -30 12 -16 38 11 21 12 21 25 3 8 -10 14
-13 14 -7z m150 -2 c0 -25 -12 -46 -26 -46 -8 0 -14 5 -14 11 0 8 -4 8 -15 -1
-17 -14 -35 -5 -35 19 0 26 9 31 52 31 26 0 38 -4 38 -14z m104 5 c3 -5 -5
-16 -18 -24 -23 -15 -24 -15 -20 6 l5 22 -12 -22 c-7 -13 -18 -23 -24 -23 -13
0 -27 35 -17 44 9 10 80 7 86 -3z m2066 -17 c0 -14 -4 -23 -10 -19 -5 3 -10
15 -10 26 0 10 5 19 10 19 6 0 10 -12 10 -26z m36 -10 c-5 -13 -10 -14 -18 -6
-6 6 -8 18 -4 28 5 13 10 14 18 6 6 -6 8 -18 4 -28z m-79 11 c0 -8 -6 -15 -13
-15 -6 0 -14 7 -18 15 -3 10 1 15 13 15 10 0 18 -7 18 -15z m-2009 -267 l-3
-183 -32 -3 c-34 -3 -41 6 -22 25 8 8 10 53 7 139 l-4 127 -34 29 c-39 32 -58
34 -101 13 -40 -21 -48 -46 -56 -181 -5 -103 -4 -116 13 -135 18 -20 18 -20
-21 -17 l-40 3 -3 183 -2 182 150 0 150 0 -2 -182z m672 -2 l0 -173 -44 -5
c-24 -3 -87 -3 -140 0 l-96 5 0 173 0 174 140 0 140 0 0 -174z m-345 -11 c0
-118 -2 -130 -18 -130 -10 0 -21 -5 -25 -12 -8 -13 -28 -16 -100 -14 -46 1
-54 4 -64 26 -9 20 -9 34 1 61 7 19 15 51 17 71 6 45 13 58 26 45 11 -11 34 8
54 44 6 10 26 24 45 31 64 23 64 22 64 -122z"/>
<path d="M4178 1682 c-10 -2 -18 -8 -18 -13 0 -13 27 -11 35 2 9 13 4 16 -17
11z"/>
<path d="M4165 1626 c-10 -7 -15 -18 -12 -24 9 -14 47 -3 47 14 0 20 -15 25
-35 10z"/>
<path d="M3960 1590 c0 -22 5 -40 10 -40 6 0 10 18 10 40 0 22 -4 40 -10 40
-5 0 -10 -18 -10 -40z"/>
<path d="M4051 1601 c-27 -21 -23 -58 5 -47 9 3 29 6 45 6 37 0 40 32 4 48
-31 14 -25 15 -54 -7z"/>
<path d="M4135 1410 c-8 -13 20 -24 41 -16 20 8 9 26 -16 26 -10 0 -22 -5 -25
-10z"/>
<path d="M4240 1410 c0 -5 5 -10 10 -10 6 0 10 5 10 10 0 6 -4 10 -10 10 -5 0
-10 -4 -10 -10z"/>
<path d="M4173 1283 c-21 -8 -15 -41 8 -48 27 -9 69 2 69 18 0 30 -40 45 -77
30z"/>
<path d="M3850 535 c0 -14 5 -25 10 -25 6 0 10 11 10 25 0 14 -4 25 -10 25 -5
0 -10 -11 -10 -25z"/>
<path d="M3848 253 c6 -2 18 -2 25 0 6 3 1 5 -13 5 -14 0 -19 -2 -12 -5z"/>
<path d="M3475 400 c-4 -6 3 -22 16 -36 l23 -25 25 25 c14 14 22 28 19 31 -13
13 -76 17 -83 5z"/>
</g>
</svg>
