<?xml version="1.0" standalone="no"?>
<!DOCTYPE svg PUBLIC "-//W3C//DTD SVG 20010904//EN"
 "http://www.w3.org/TR/2001/REC-SVG-20010904/DTD/svg10.dtd">
<svg version="1.0" xmlns="http://www.w3.org/2000/svg"
 width="454.000000pt" height="800.000000pt" viewBox="0 0 454.000000 800.000000"
 preserveAspectRatio="xMidYMid meet">

<g transform="translate(0.000000,800.000000) scale(0.100000,-0.100000)"
fill="#000000" stroke="none">
<path d="M0 5115 l0 -2885 43 0 c23 0 534 -2 1135 -4 l1092 -3 0 211 c-1 167
-3 208 -13 196 -7 -8 -33 -17 -60 -18 -38 -3 -47 -1 -47 12 0 9 8 16 17 16 14
0 13 4 -7 24 -23 26 -22 56 4 56 9 0 12 -7 9 -20 -3 -12 1 -22 11 -26 9 -3 16
-12 16 -20 0 -8 7 -14 16 -14 12 0 15 7 12 30 -4 26 -2 30 16 28 19 -3 21 3
24 61 3 55 0 65 -17 78 -12 8 -21 24 -21 36 1 20 2 20 11 4 6 -9 14 -15 20
-12 13 8 11 75 -2 75 -6 0 -8 -9 -4 -20 3 -11 2 -20 -3 -20 -5 0 -12 9 -15 19
-6 25 -70 24 -75 -2 -2 -9 1 -17 7 -17 6 0 11 -11 11 -25 0 -18 -5 -25 -19
-25 -17 0 -19 5 -14 35 5 30 3 34 -10 29 -13 -5 -15 -15 -10 -50 4 -35 2 -49
-12 -64 -14 -16 -16 -23 -7 -32 15 -15 16 -85 1 -94 -6 -3 -9 -17 -6 -31 5
-25 -13 -41 -32 -28 -7 4 -6 16 5 36 14 28 14 32 -1 43 -12 9 -15 23 -12 54 2
23 1 42 -4 42 -11 0 -44 -45 -59 -80 -14 -34 -53 -49 -81 -31 -10 6 -28 11
-39 11 -16 0 -19 -6 -17 -37 2 -36 0 -38 -28 -38 -27 0 -31 4 -35 34 -3 19
-10 36 -15 38 -12 4 -14 -41 -2 -53 14 -14 7 -24 -18 -24 -22 0 -24 3 -16 18
7 13 7 22 -1 30 -8 8 -8 15 2 27 7 8 8 15 2 15 -8 0 -2 24 26 110 3 9 9 0 15
-22 6 -21 14 -38 19 -38 4 0 17 -9 28 -20 11 -11 20 -16 20 -11 0 5 -7 14 -15
21 -9 7 -14 19 -11 26 3 8 0 13 -7 11 -7 -1 -12 5 -13 13 0 8 -3 22 -7 30 -3
8 -8 23 -11 32 -8 26 -25 22 -20 -4 5 -21 4 -22 -8 -5 -7 10 -21 28 -30 39
-10 12 -18 27 -18 33 0 19 -27 26 -56 15 -33 -13 -34 -13 -34 5 0 9 7 18 15
21 8 4 15 11 15 16 0 6 -6 5 -15 -2 -12 -10 -15 -9 -15 5 0 11 -5 15 -15 11
-23 -8 -19 27 6 59 18 22 20 29 8 36 -19 12 -29 11 -29 -1 0 -5 -7 -10 -15
-10 -8 0 -15 -5 -15 -10 0 -7 -6 -7 -19 0 -30 16 -36 12 -16 -10 10 -11 21
-17 25 -15 5 3 8 -11 7 -30 -1 -40 -3 -41 -29 -18 -10 9 -18 12 -18 7 0 -15
14 -30 35 -42 21 -10 26 -59 10 -94 -9 -21 -30 -24 -22 -4 4 10 1 13 -7 10 -7
-3 -18 7 -24 20 -10 22 -8 27 9 39 16 12 17 16 5 26 -7 6 -16 25 -20 41 -3 17
-12 30 -21 30 -12 0 -11 7 6 40 14 26 18 46 13 58 -4 9 -8 22 -9 27 0 6 -4 16
-8 23 -5 6 -5 17 -2 22 3 5 -3 10 -14 10 -16 0 -21 -6 -21 -24 0 -14 -4 -27
-9 -30 -16 -11 -19 -61 -4 -89 13 -27 13 -29 -6 -34 -29 -7 -27 -15 19 -61 47
-47 55 -99 19 -123 -13 -9 -18 -20 -14 -31 10 -25 32 -22 58 5 25 28 47 25 47
-6 0 -11 8 -29 18 -40 16 -19 16 -19 -5 -13 -18 6 -22 4 -17 -8 7 -18 -27 -29
-71 -24 -26 3 -30 -1 -46 -46 -10 -26 -20 -50 -23 -53 -3 -3 -46 -8 -96 -11
-88 -5 -90 -4 -90 17 0 29 -17 61 -34 61 -12 0 -28 -24 -40 -63 -5 -17 -42
-23 -62 -9 -13 9 -36 96 -29 114 3 7 1 19 -4 27 -8 12 -12 12 -25 2 -22 -18
-20 -63 3 -105 11 -19 17 -37 14 -40 -4 -3 -42 -6 -85 -6 -60 0 -78 3 -78 14
0 8 -7 16 -15 20 -18 7 -20 37 -3 54 9 9 4 12 -26 12 -33 0 -37 3 -30 18 4 9
9 39 12 65 4 46 2 50 -37 83 -35 30 -40 40 -34 62 3 15 17 37 29 49 17 16 23
32 22 59 -1 31 -3 34 -13 20 -7 -9 -17 -16 -22 -16 -23 0 -35 -28 -22 -51 9
-19 9 -24 -5 -34 -21 -16 -20 -49 1 -81 13 -21 14 -30 5 -45 -18 -28 -14 -73
8 -102 24 -30 25 -37 5 -37 -21 0 -19 -20 7 -47 30 -32 14 -45 -52 -41 l-53 3
-14 47 c-14 50 -49 83 -75 73 -20 -8 -38 -48 -38 -85 0 -25 -4 -30 -25 -30
-14 0 -24 3 -24 8 4 22 -3 33 -18 30 -10 -1 -23 1 -30 5 -7 5 -16 0 -23 -13
-8 -15 -8 -20 2 -20 9 0 9 -3 -2 -10 -8 -5 -43 -9 -78 -9 -50 1 -67 5 -82 22
l-19 20 -9 -23 c-6 -15 -11 -19 -16 -12 -4 7 -16 12 -26 12 -14 0 -18 -5 -14
-17 5 -14 4 -15 -4 -4 -6 8 -6 23 1 41 13 33 3 60 -23 67 -11 3 -20 9 -20 14
0 16 23 10 46 -12 l23 -21 15 37 c21 49 20 68 -4 90 -24 21 -25 43 -5 69 15
19 21 46 8 33 -3 -4 -12 -2 -20 4 -10 9 -13 5 -13 -20 0 -39 -14 -40 -30 -1
-7 16 -16 28 -20 25 -10 -6 -1 -46 15 -65 7 -8 15 -26 17 -40 2 -16 9 -25 19
-24 13 1 17 -7 16 -33 -1 -31 -2 -33 -14 -16 -7 10 -17 23 -23 30 -5 7 -10 21
-10 33 0 11 -7 20 -15 20 -10 0 -15 10 -15 28 0 15 -5 33 -11 39 -8 8 -7 17 3
32 13 22 38 29 38 11 0 -5 5 -10 10 -10 6 0 10 7 10 15 0 20 20 19 35 -2 11
-15 13 -14 20 8 9 30 26 41 41 28 7 -6 21 -6 38 1 22 8 26 14 21 32 -6 16 -4
20 8 15 18 -7 37 11 37 35 0 21 11 23 28 6 8 -8 13 -1 18 30 4 23 10 42 14 42
4 0 19 11 33 24 18 17 22 26 14 30 -9 5 -9 7 0 12 7 3 13 23 13 44 0 32 5 43
32 61 17 13 26 25 20 27 -7 2 -12 10 -12 18 0 9 4 12 10 9 5 -3 7 0 4 8 -3 9
8 22 30 35 20 12 36 26 36 32 0 6 5 8 10 5 6 -4 10 -3 9 2 -5 31 3 33 111 33
91 0 110 3 110 15 0 19 36 20 47 1 4 -7 22 -21 39 -29 31 -16 32 -16 37 4 4
13 10 18 17 14 7 -4 16 -1 21 6 4 8 13 15 19 15 5 1 14 2 19 3 5 0 13 13 19
29 6 18 17 28 32 29 12 1 30 9 39 17 10 9 29 16 42 16 14 0 29 4 35 9 5 6 54
13 109 17 98 6 101 6 130 -20 33 -28 51 -33 58 -13 3 9 10 7 25 -6 20 -18 32
-70 32 -139 -1 -20 9 -54 21 -77 18 -35 23 -39 40 -30 11 5 17 14 14 20 -4 5
-3 18 0 29 5 16 10 18 26 9 11 -5 18 -13 15 -17 -2 -4 0 -17 5 -30 6 -16 14
-22 26 -18 10 3 25 1 33 -5 13 -8 12 -12 -7 -26 -13 -8 -23 -21 -23 -29 0 -7
-7 -20 -16 -29 -15 -15 -15 -17 2 -36 17 -19 18 -22 2 -50 -13 -22 -15 -35 -7
-58 12 -34 9 -49 -13 -75 -24 -26 -18 -29 21 -10 24 12 30 21 26 33 -17 40
-17 51 -1 51 9 0 21 12 26 26 13 32 13 77 1 69 -13 -8 -43 24 -39 43 2 8 15
16 29 18 24 2 26 -1 37 -69 13 -74 34 -110 58 -100 8 3 14 19 14 39 0 79 52
114 101 68 14 -13 30 -24 36 -24 21 0 43 -31 43 -61 0 -16 -4 -29 -9 -29 -23
0 -41 14 -41 30 0 17 -2 17 -30 3 -17 -8 -35 -23 -40 -34 -6 -10 -17 -19 -25
-19 -8 0 -15 -4 -15 -9 0 -4 11 -6 24 -4 13 3 26 1 30 -5 3 -5 -12 -12 -34
-16 -58 -9 -83 -23 -103 -59 -15 -25 -20 -28 -28 -16 -13 21 -12 -11 2 -48 23
-62 103 -97 145 -62 20 16 17 29 -7 29 -11 0 -17 -5 -14 -10 9 -14 -19 -12
-33 2 -18 18 -14 30 8 23 26 -8 28 22 3 41 -17 13 -17 14 1 7 13 -4 17 -3 12
5 -4 7 -23 12 -42 12 -61 0 -32 31 54 58 48 15 84 2 106 -41 19 -36 19 -37 1
-57 -15 -17 -16 -20 -2 -20 8 0 17 5 19 12 2 6 10 8 16 4 18 -11 15 -26 -5
-27 -10 0 -13 -3 -6 -5 7 -3 9 -12 6 -21 -5 -13 -3 -13 15 -2 15 10 18 16 9
21 -11 7 -10 9 11 12 14 2 36 28 55 66 15 28 17 41 8 63 -9 24 -14 26 -31 17
-17 -9 -20 -8 -20 9 0 11 8 25 18 30 9 6 11 11 5 11 -23 0 -13 30 13 40 38 15
48 12 61 -17 17 -35 8 -42 -16 -12 -29 34 -28 1 0 -35 12 -15 19 -30 15 -33
-3 -4 -6 -1 -6 6 0 7 -5 9 -11 5 -13 -8 -3 -53 18 -77 15 -16 17 -16 35 -1 15
14 16 20 5 32 -10 13 -9 15 7 9 16 -6 17 -4 11 20 -3 15 -11 31 -18 35 -7 4
-5 15 8 34 17 26 18 27 31 9 12 -16 14 -16 14 -3 0 9 -7 24 -16 32 -14 15 -14
17 0 22 9 3 16 15 16 27 0 19 -1 20 -20 2 -26 -24 -26 -5 0 23 11 12 20 27 20
34 -1 21 -28 51 -40 43 -7 -4 -13 1 -16 12 -3 10 -15 23 -27 28 -23 10 -37 55
-18 55 6 0 11 -6 11 -12 0 -7 7 -2 16 10 19 28 34 28 34 2 0 -11 7 -23 15 -26
19 -8 19 -34 0 -34 -20 0 -19 -16 1 -24 9 -3 17 -6 19 -6 2 0 4 1060 5 2355
l0 2355 -1135 0 -1135 0 0 -2885z m1095 2818 c4 -25 -12 -34 -40 -22 -11 4
-14 8 -6 8 8 1 11 4 8 7 -3 4 -2 16 4 26 12 23 27 14 34 -19z m-481 19 c3 -5
-9 -7 -27 -6 -18 2 -23 1 -12 -2 30 -9 42 -24 14 -18 -13 2 -18 2 -11 -2 6 -3
12 -11 12 -17 0 -6 -11 0 -24 13 -15 17 -19 27 -12 32 15 10 54 10 60 0z m411
-2 c4 -6 2 -17 -5 -24 -8 -11 -8 -15 2 -19 7 -3 -3 -5 -22 -5 -19 0 -29 2 -22
5 10 4 10 8 2 19 -15 17 -4 34 20 34 10 0 22 -5 25 -10z m142 3 c-4 -3 -2 -12
4 -19 13 -16 3 -34 -19 -33 -14 0 -13 2 3 8 18 7 18 8 1 18 -19 10 -14 33 6
33 6 0 8 -3 5 -7z m532 -11 c12 -23 -1 -45 -25 -40 -23 4 -31 37 -12 49 19 13
26 11 37 -9z m241 8 c0 -5 -7 -7 -15 -4 -8 4 -15 8 -15 10 0 2 7 4 15 4 8 0
15 -4 15 -10z m270 -20 l0 -30 -75 0 c-72 0 -75 1 -75 23 0 34 6 37 82 37 l68
0 0 -30z m-2130 -6 c0 -8 -7 -14 -15 -14 -15 0 -21 21 -9 33 10 9 24 -2 24
-19z m50 0 c0 -8 -7 -14 -15 -14 -15 0 -21 21 -9 33 10 9 24 -2 24 -19z m50 0
c0 -8 -7 -14 -15 -14 -15 0 -21 21 -9 33 10 9 24 -2 24 -19z m50 0 c0 -8 -7
-14 -15 -14 -15 0 -21 21 -9 33 10 9 24 -2 24 -19z m50 0 c0 -8 -7 -14 -15
-14 -15 0 -21 21 -9 33 10 9 24 -2 24 -19z m970 1 c0 -27 -6 -30 -29 -16 -12
8 -12 12 -2 25 19 23 31 20 31 -9z m50 -6 c0 -21 -7 -23 -29 -10 -12 8 -12 12
-2 25 16 19 31 12 31 -15z m587 -15 c-3 -3 -12 -4 -19 -1 -8 3 -5 6 6 6 11 1
17 -2 13 -5z m-1130 -162 c20 12 33 16 29 10 -4 -7 -21 -19 -37 -27 -35 -18
-31 -28 19 -55 20 -10 30 -19 21 -20 -8 0 -24 7 -35 15 -27 20 -32 19 -37 -12
l-4 -28 -8 33 c-6 25 -12 32 -24 27 -12 -5 -13 -3 -4 6 9 9 7 16 -10 31 l-22
19 23 -11 c27 -13 42 -6 43 23 2 17 3 15 6 -6 l4 -28 36 23z m210 -16 l-29
-23 28 -22 c15 -12 24 -24 20 -28 -3 -3 -16 3 -29 15 -29 27 -37 28 -37 2 0
-11 -4 -20 -10 -20 -5 0 -10 23 -10 50 0 28 5 50 10 50 6 0 10 -7 10 -15 0
-20 7 -19 37 5 15 11 29 18 32 14 3 -3 -7 -16 -22 -28z m473 19 c10 -12 10
-18 0 -30 -10 -12 -10 -15 4 -15 9 0 16 -4 16 -10 0 -5 -19 -10 -42 -10 -47 0
-42 -16 7 -23 24 -3 21 -4 -12 -6 -24 0 -43 3 -43 8 0 5 -3 16 -6 25 -4 11 -1
16 11 16 14 0 15 3 5 15 -15 18 2 45 30 45 10 0 23 -7 30 -15z m114 3 c3 3 6
-8 6 -24 0 -22 -3 -26 -10 -14 -6 9 -10 10 -10 3 0 -6 5 -15 10 -18 16 -10 12
-42 -6 -49 -30 -12 -56 4 -51 30 3 16 0 24 -10 24 -22 0 -28 31 -9 46 12 8 27
9 46 4 16 -4 31 -6 34 -2z m-458 -31 c1 -15 4 -30 7 -34 14 -14 -18 -33 -54
-33 l-39 0 0 51 0 50 43 -3 c38 -3 42 -5 43 -31z m137 13 c4 -15 0 -20 -14
-20 -10 0 -19 -4 -19 -10 0 -5 7 -10 15 -10 8 0 15 -9 15 -20 0 -11 -4 -20
-10 -20 -5 0 -10 7 -10 15 0 10 -11 15 -37 16 -34 1 -35 2 -13 9 25 7 24 9
-20 23 -8 3 4 6 28 6 52 1 56 18 5 24 -36 3 -35 4 8 5 39 2 48 -1 52 -18z m84
3 c4 -10 -2 -23 -15 -34 -31 -24 -27 -37 11 -42 27 -3 25 -4 -12 -5 -39 -2
-43 0 -38 18 3 11 1 23 -4 26 -5 3 -9 16 -9 30 0 20 5 24 30 24 19 0 33 -6 37
-17z m33 -13 c0 -16 -4 -30 -10 -30 -5 0 -10 14 -10 30 0 17 5 30 10 30 6 0
10 -13 10 -30z m760 -5 c0 -13 -4 -27 -10 -30 -6 -4 -10 8 -10 30 0 22 4 34
10 30 6 -3 10 -17 10 -30z m-40 7 c0 -4 -5 -13 -11 -19 -15 -15 -2 -51 21 -58
24 -8 60 11 60 31 0 8 -5 25 -11 36 -9 16 -8 19 3 16 7 -3 17 -17 23 -32 8
-22 5 -31 -17 -53 -32 -31 -69 -26 -94 13 -14 20 -15 30 -6 49 11 24 32 35 32
17z m-1275 -12 c-3 -5 -2 -10 4 -10 6 0 8 -7 5 -15 -4 -8 -10 -15 -15 -15 -10
0 -12 33 -2 43 10 10 15 8 8 -3z m51 -39 c-4 -6 -12 -11 -18 -11 -7 0 -7 4 1
13 6 8 9 16 7 19 -1 3 1 2 7 -2 5 -5 6 -13 3 -19z m122 -376 c0 -35 7 -40 37
-27 29 13 32 29 8 35 -10 3 -4 5 14 6 26 1 30 -2 26 -19 -3 -11 0 -20 6 -20 6
0 11 12 11 28 1 26 1 26 16 7 8 -11 11 -26 8 -35 -4 -8 -7 -26 -8 -40 -1 -21
-7 -26 -34 -28 -23 -2 -34 2 -39 13 -7 21 15 37 42 31 19 -5 19 -4 2 9 -15 11
-22 11 -45 -1 -15 -8 -33 -14 -41 -14 -10 0 -11 -3 -2 -13 15 -19 4 -27 -35
-27 -36 0 -54 17 -33 31 11 7 10 9 -3 9 -10 0 -18 5 -18 10 0 6 4 10 10 10 5
0 7 7 4 15 -11 28 4 45 39 45 30 0 35 -3 35 -25z m-733 -6 c-10 -15 7 -10 27
8 20 18 25 4 6 -15 -10 -10 -8 -19 5 -42 10 -17 14 -30 8 -30 -6 0 -15 9 -21
20 -12 23 -35 27 -27 5 4 -8 2 -17 -3 -20 -6 -4 -10 15 -10 45 0 32 4 49 10
45 6 -4 8 -11 5 -16z m120 -4 c1 -11 4 -26 9 -33 12 -19 -14 -43 -43 -40 -22
3 -26 8 -27 38 -2 50 5 61 35 58 18 -2 26 -9 26 -23z m138 -5 c21 -1 21 -1 4
-15 -14 -10 -17 -20 -11 -37 6 -21 5 -22 -10 -9 -14 12 -21 12 -38 2 -17 -11
-19 -10 -16 7 2 10 -3 26 -11 35 -12 15 -11 17 7 17 11 0 23 8 27 18 6 16 7
16 16 0 6 -10 20 -18 32 -18z m107 19 c0 -5 -4 -7 -10 -4 -5 3 -15 3 -21 -1
-7 -4 -1 -15 17 -29 18 -14 25 -27 21 -38 -7 -19 -52 -23 -63 -6 -4 7 0 9 14
5 32 -10 37 13 7 35 -20 17 -23 24 -14 35 13 16 49 19 49 3z m46 -14 c11 -10
21 -12 32 -6 24 14 52 -5 52 -35 0 -46 -61 -43 -68 5 -2 11 -8 21 -13 21 -14
0 -11 -47 4 -54 6 -3 3 -5 -8 -3 -20 2 -36 47 -27 75 5 16 10 15 28 -3z m160
-27 l7 -23 10 23 c19 42 25 22 7 -25 -11 -29 -25 -49 -36 -52 -16 -3 -16 -2
-1 14 15 15 16 19 1 46 -18 36 -37 33 -45 -7 -6 -27 -7 -27 -8 9 -1 35 1 37
28 37 22 0 32 -6 37 -22z m-404 -135 c25 -22 23 -37 -12 -77 l-31 -35 26 -3
c44 -5 32 -23 -17 -26 -51 -3 -64 12 -33 38 9 7 25 26 36 42 17 23 18 32 9 43
-9 11 -17 12 -32 4 -27 -14 -38 -1 -14 17 26 18 45 18 68 -3z m109 -2 c20 -16
22 -23 12 -39 -7 -12 -8 -24 -2 -33 10 -15 10 -15 47 44 14 22 32 37 43 37 16
0 19 -7 19 -43 0 -24 5 -48 12 -55 8 -8 8 -12 1 -12 -6 0 -13 -9 -16 -20 -3
-11 -10 -20 -15 -20 -5 0 -12 9 -15 20 -4 14 -14 20 -34 20 -16 0 -36 -9 -46
-20 -25 -29 -87 -25 -87 6 0 12 4 12 21 4 11 -7 27 -9 35 -6 21 8 17 37 -6 43
-11 3 -20 9 -20 13 0 5 9 12 20 15 23 7 25 16 8 33 -7 7 -17 8 -29 2 -24 -13
-35 5 -12 19 26 15 38 13 64 -8z m333 13 c22 -8 20 -26 -1 -23 -31 3 -41 -1
-47 -17 -5 -12 -2 -15 10 -10 28 11 54 -12 54 -47 0 -39 -15 -57 -47 -57 -54
0 -70 103 -22 143 23 19 30 20 53 11z m220 -9 c21 -22 29 -52 22 -90 -18 -96
-114 -59 -102 40 7 57 47 82 80 50z m450 -4 c20 -21 11 -55 -23 -85 -27 -24
-27 -32 2 -31 37 0 30 -20 -9 -23 -57 -5 -62 11 -20 59 20 23 36 48 36 55 0
17 -22 23 -43 12 -26 -14 -36 1 -13 18 27 19 50 18 70 -5z m110 3 c18 -18 21
-40 6 -49 -6 -4 -5 -13 2 -25 11 -17 14 -15 43 28 16 26 38 48 48 50 14 3 17
-4 17 -41 0 -27 5 -47 13 -50 8 -4 9 -8 1 -14 -6 -4 -13 -16 -17 -26 -8 -20
-27 -14 -27 9 0 21 -56 18 -80 -6 -23 -23 -62 -26 -79 -7 -14 18 -2 30 15 16
8 -6 21 -9 29 -5 20 7 20 46 0 46 -8 0 -15 4 -15 9 0 5 7 11 15 15 18 7 20 33
3 39 -7 2 -21 0 -30 -5 -13 -6 -18 -5 -18 6 0 13 16 22 47 25 6 0 19 -6 27
-15z m330 10 c22 -9 20 -27 -2 -20 -12 4 -26 -2 -38 -15 -18 -20 -18 -20 8
-14 20 5 29 2 42 -16 20 -30 20 -48 -1 -71 -18 -21 -53 -24 -71 -6 -20 20 -15
105 8 128 21 21 29 23 54 14z m-1684 -69 c0 -36 0 -68 0 -72 0 -5 -6 -8 -12
-8 -9 0 -13 18 -13 58 0 39 -4 57 -12 57 -31 0 -7 27 25 29 8 1 12 -18 12 -64z
m475 55 c-3 -5 -17 -10 -30 -10 -33 0 -41 -28 -8 -32 33 -4 48 -27 39 -61 -7
-29 -40 -43 -75 -32 -33 10 -25 28 8 20 23 -5 32 -2 40 13 13 25 -9 47 -39 39
-17 -4 -20 0 -20 34 l0 39 46 0 c27 0 43 -4 39 -10z m415 -65 c0 -43 -4 -75
-10 -75 -6 0 -10 27 -10 60 0 47 -3 60 -15 60 -18 0 -20 16 -2 23 33 14 37 7
37 -68z m228 3 c-2 -46 -7 -73 -15 -76 -10 -3 -13 13 -13 57 0 50 -3 61 -16
61 -14 0 -14 3 -4 15 7 8 21 15 32 15 17 0 19 -7 16 -72z m472 62 c0 -5 -13
-10 -30 -10 -35 0 -42 -27 -9 -32 59 -9 53 -90 -7 -96 -20 -2 -36 3 -45 14
-12 15 -11 16 17 10 22 -5 34 -2 44 9 17 20 -3 45 -36 45 -20 0 -24 5 -24 28
0 16 3 32 7 35 10 11 83 8 83 -3z m-895 -55 c0 -5 -19 -11 -42 -13 -34 -3 -43
0 -43 13 0 13 9 16 43 13 23 -2 42 -7 42 -13z m335 0 c0 -11 -11 -15 -39 -15
-38 0 -57 10 -44 24 3 3 24 6 45 6 27 0 38 -4 38 -15z m-934 -206 c-3 -16 -2
-29 3 -29 5 0 11 14 15 30 3 17 10 30 15 30 17 0 -15 -75 -32 -78 -10 -2 -17
1 -17 7 0 6 -9 11 -19 11 -10 0 -21 7 -25 15 -7 20 -26 19 -26 -1 0 -13 -3
-14 -15 -4 -8 7 -22 10 -30 6 -17 -6 -21 9 -4 20 8 4 7 9 -2 15 -10 6 -8 9 9
9 14 0 22 -6 23 -17 1 -17 2 -17 6 -1 4 15 8 16 25 7 11 -6 22 -8 26 -5 3 3 0
6 -7 6 -7 0 -10 4 -7 8 3 5 19 7 37 4 28 -4 30 -7 25 -33z m88 10 c-3 -5 0 -9
5 -9 6 0 12 8 12 18 1 16 2 16 6 0 6 -25 23 -23 23 2 0 26 30 23 46 -4 13 -23
6 -66 -12 -73 -20 -7 -44 15 -37 34 4 11 2 14 -5 9 -7 -4 -12 -13 -12 -20 0
-8 -12 -11 -36 -8 -28 3 -34 8 -29 21 4 9 8 25 10 36 4 29 4 29 20 15 8 -7 12
-16 9 -21z m156 8 c0 -8 -9 -22 -20 -32 -21 -19 -28 -7 -8 13 10 10 10 15 -2
22 -12 8 -10 10 8 10 12 0 22 -6 22 -13z m30 -3 c0 -8 5 -12 10 -9 6 4 8 11 4
16 -4 7 7 9 27 7 30 -3 33 -6 33 -37 1 -25 -4 -35 -16 -37 -10 -1 -18 2 -18 7
0 5 -9 9 -20 9 -11 0 -20 -4 -20 -10 0 -5 -4 -10 -9 -10 -10 0 -18 38 -13 63
4 21 22 23 22 1z m1320 -19 c7 -8 18 -15 25 -15 7 0 18 7 25 15 7 8 20 15 29
15 11 -1 5 -10 -18 -30 l-34 -29 -28 22 c-29 20 -37 37 -20 37 5 0 14 -7 21
-15z m-1680 -41 c0 -2 -11 -4 -25 -4 -14 0 -25 4 -25 9 0 4 11 6 25 3 14 -2
25 -6 25 -8z m1770 -101 c0 -5 -412 -9 -915 -11 -613 -1 -915 1 -915 8 0 7
304 10 915 10 503 0 915 -3 915 -7z m-945 -263 l0 -145 -400 0 -400 0 -3 134
c-1 74 0 141 2 148 4 11 82 13 403 11 l398 -3 0 -145z m865 0 l0 -150 -404 0
-403 0 -7 133 c-4 72 -4 140 -1 150 7 16 36 17 411 17 l404 0 0 -150z m-1197
-280 c52 -41 44 -136 -14 -165 -103 -54 -201 74 -120 156 37 36 94 40 134 9z
m558 -9 c31 -31 39 -83 19 -122 -13 -24 -61 -49 -96 -49 -35 0 -94 59 -94 95
0 92 107 140 171 76z m300 0 c78 -79 -13 -206 -114 -160 -28 13 -57 58 -57 89
0 28 26 76 47 89 10 6 35 11 56 11 29 0 45 -7 68 -29z m-645 -67 c-8 -21 -15
-32 -15 -23 -1 22 22 86 26 73 2 -5 -3 -28 -11 -50z m-56 11 c0 -19 -4 -35
-10 -35 -5 0 -10 16 -10 35 0 19 5 35 10 35 6 0 10 -16 10 -35z m130 0 c0 -19
-4 -35 -9 -35 -5 0 -11 16 -13 35 -3 24 0 35 9 35 8 0 13 -13 13 -35z m-462
-540 c17 -6 17 -316 0 -333 -8 -8 -60 -12 -170 -12 -145 0 -158 1 -168 19 -15
30 -13 306 3 319 21 18 284 22 335 7z m476 -11 c12 -31 7 -309 -6 -322 -8 -8
-60 -12 -170 -12 -145 0 -158 1 -168 19 -15 28 -13 304 2 319 8 8 61 12 174
12 138 0 163 -2 168 -16z m464 4 c15 -15 17 -291 2 -319 -10 -18 -23 -19 -168
-19 -110 0 -162 4 -170 12 -13 13 -18 291 -6 322 5 14 30 16 168 16 113 0 166
-4 174 -12z m471 -1 c17 -21 13 -286 -5 -314 -14 -22 -20 -23 -167 -23 -106 0
-157 4 -165 12 -13 13 -18 319 -5 331 3 4 79 7 168 7 124 0 165 -3 174 -13z
m-1868 -171 l-23 -25 23 -33 c16 -23 18 -29 6 -19 -35 28 -39 49 -16 81 13 16
25 28 27 25 3 -3 -5 -16 -17 -29z m2019 -28 c0 -4 -12 -20 -26 -35 l-26 -28
22 33 c20 29 20 35 8 50 -8 9 -18 24 -23 32 -4 8 4 2 19 -15 14 -16 25 -33 26
-37z m-1753 -216 c1 -11 -7 -17 -23 -18 -20 -2 -23 1 -13 12 9 11 9 14 0 14
-7 0 -10 4 -7 9 9 14 42 1 43 -17z m61 -5 c5 -37 20 -34 25 6 3 29 4 29 5 -8
l2 -40 -75 -2 c-41 -1 -75 1 -75 6 0 13 37 20 47 10 14 -14 43 0 36 17 -7 20
5 46 20 42 6 -3 13 -17 15 -31z m392 -2 c0 -32 -20 -42 -36 -20 -9 12 -10 23
-3 36 13 24 39 13 39 -16z m86 22 c12 16 13 14 14 -24 0 -47 -1 -49 -30 -31
-15 10 -22 10 -32 0 -20 -20 -28 -14 -28 23 0 19 5 35 10 35 6 0 10 -12 10
-26 0 -15 4 -23 10 -19 6 4 10 14 9 23 -3 31 1 37 12 19 10 -18 11 -18 25 0z
m301 -3 c8 -21 -13 -42 -28 -27 -13 13 -5 43 11 43 6 0 13 -7 17 -16z m30 -31
c-3 -10 -5 -2 -5 17 0 19 2 27 5 18 2 -10 2 -26 0 -35z m71 26 c13 -20 14 -20
27 -2 11 13 14 14 15 4 0 -13 2 -12 13 0 8 11 21 14 42 8 17 -3 23 -7 15 -8
-13 -1 -13 -2 0 -11 13 -9 13 -10 0 -10 -11 -1 -10 -4 4 -15 25 -19 5 -19 -44
-2 -40 15 -75 9 -75 -13 0 -9 -9 -15 -25 -15 -24 0 -26 6 -21 68 2 24 33 21
49 -4z m161 -21 c0 -38 -1 -40 -10 -19 -8 22 -4 61 7 61 2 0 4 -19 3 -42z
m278 31 c14 -14 6 -39 -12 -39 -18 0 -28 17 -21 35 6 18 18 19 33 4z m142 -10
c-11 -7 -11 -9 1 -9 13 0 13 -1 0 -10 -13 -9 -7 -14 13 -11 4 0 7 -3 7 -9 0
-14 -25 -12 -66 5 -20 8 -40 13 -44 10 -5 -3 -6 4 -3 16 3 11 11 18 19 15 7
-3 16 -2 18 3 3 4 19 6 37 3 22 -3 27 -7 18 -13z m48 -41 c-3 -20 -4 -21 -11
-5 -5 9 -5 29 0 45 7 25 8 26 11 5 3 -13 3 -33 0 -45z m-237 30 c0 -10 -5 -18
-12 -18 -6 0 -3 -7 8 -15 18 -13 17 -14 -18 -15 -21 0 -38 5 -38 11 0 5 5 7
10 4 6 -3 10 -1 10 4 0 6 -4 11 -10 11 -5 0 -10 8 -10 18 0 14 8 19 30 19 22
0 30 -5 30 -19z m83 -8 c-7 -28 -13 -25 -13 6 0 14 4 23 9 20 5 -3 7 -15 4
-26z m-567 -33 c8 3 14 0 14 -7 0 -16 -43 -8 -48 10 -3 12 -2 12 8 3 7 -6 19
-9 26 -6z m164 -2 c5 3 10 1 10 -4 0 -6 -11 -11 -25 -11 -16 0 -25 6 -25 16 0
13 3 14 15 4 8 -6 19 -9 25 -5z m390 -7 c0 -13 -43 -6 -47 8 -2 7 6 10 22 7
14 -3 25 -10 25 -15z m80 -1 c9 -3 3 -6 -12 -6 -20 -1 -28 4 -28 15 0 12 4 14
13 7 6 -6 19 -13 27 -16z m-1479 -298 c32 -16 39 -24 33 -37 -5 -9 -9 -39 -10
-67 -1 -59 -13 -105 -25 -105 -21 0 -6 -18 36 -44 25 -16 45 -33 45 -37 0 -5
-45 -9 -100 -9 -127 0 -140 10 -140 101 0 55 3 64 31 90 29 27 27 34 -9 30
-19 -3 -26 27 -13 55 21 46 87 56 152 23z m351 -37 c7 -25 -2 -82 -13 -82 -5
0 -9 7 -9 15 0 10 -10 15 -30 15 -27 0 -30 3 -30 30 0 17 5 30 10 30 6 0 10
-12 10 -26 0 -36 34 -29 38 9 4 31 17 36 24 9z m68 -12 c0 -24 -25 -33 -40
-14 -10 11 -10 17 0 28 15 19 40 10 40 -14z m30 -20 c0 -27 -4 -50 -10 -50 -5
0 -10 5 -10 10 0 6 -13 10 -30 10 -16 0 -30 5 -30 11 0 5 5 7 10 4 22 -14 50
6 50 36 0 16 5 29 10 29 6 0 10 -22 10 -50z m120 30 c0 -13 7 -20 19 -20 12 0
18 7 17 17 -1 12 7 19 23 21 30 5 52 -15 31 -28 -12 -8 -11 -10 5 -10 13 0 16
-3 8 -8 -6 -4 -11 -16 -10 -27 2 -16 -4 -20 -28 -20 -23 0 -31 5 -33 23 -3 20
-9 22 -60 24 -36 1 -45 3 -24 5 34 5 45 23 13 23 -11 0 -23 5 -26 10 -4 6 8
10 29 10 29 0 36 -4 36 -20z m185 10 c3 -5 -2 -10 -12 -10 -15 0 -14 -3 6 -19
16 -12 22 -24 18 -35 -7 -19 -42 -22 -53 -4 -5 8 -2 9 9 5 25 -9 29 7 6 27
-16 14 -18 20 -9 32 14 16 26 18 35 4z m305 -15 c0 -20 -5 -25 -25 -25 -18 0
-25 5 -25 18 0 24 8 32 32 32 13 0 18 -7 18 -25z m33 11 c7 -18 -3 -56 -14
-56 -5 0 -9 16 -9 35 0 35 13 47 23 21z m72 4 c-21 -5 -24 -8 -9 -9 30 -2 41
-18 36 -51 -4 -26 -8 -30 -37 -30 -28 0 -33 4 -36 28 -8 58 -1 72 39 71 l37
-1 -30 -8z m125 -40 c0 -27 -4 -50 -10 -50 -5 0 -10 23 -10 50 0 28 5 50 10
50 6 0 10 -22 10 -50z m90 35 c10 -13 10 -19 -4 -33 -20 -23 -20 -29 2 -35 9
-3 2 -5 -16 -6 -29 -1 -32 1 -22 18 5 11 15 23 20 26 15 9 12 25 -6 25 -8 0
-12 5 -9 10 9 14 21 12 35 -5z m60 -5 c0 -11 -5 -20 -12 -20 -6 0 -9 -2 -6 -5
11 -11 38 8 38 26 0 24 16 25 22 2 7 -30 -2 -55 -19 -49 -8 3 -26 6 -39 6 -20
0 -24 5 -24 30 0 23 4 30 20 30 13 0 20 -7 20 -20z m-636 -34 c1 -20 -3 -35
-9 -33 -14 5 -23 50 -12 65 14 17 19 9 21 -32z m456 30 c0 -19 -37 -63 -45
-54 -4 4 0 14 9 23 21 21 20 32 -1 38 -11 3 -7 5 10 6 17 1 27 -4 27 -13z
m-1100 -76 c0 -79 -13 -106 -26 -54 -6 23 -8 24 -22 10 -13 -12 -14 -18 -4
-28 15 -15 16 -32 1 -22 -6 3 -15 1 -19 -6 -17 -27 -40 -2 -40 44 0 25 -4 47
-10 51 -14 9 21 45 45 45 36 0 65 12 65 26 0 8 2 14 5 14 3 0 5 -36 5 -80z
m789 52 c10 -16 10 -16 11 1 0 9 5 17 10 17 13 0 13 -4 -4 -44 -16 -39 -42
-61 -31 -27 8 28 -3 61 -21 61 -8 0 -14 -10 -14 -25 0 -14 -4 -25 -10 -25 -5
0 -10 5 -10 11 0 8 -5 8 -15 -1 -19 -16 -45 -6 -45 18 0 27 6 30 65 31 41 0
57 -4 64 -17z m596 -2 c-3 -5 -14 -6 -25 -3 -11 3 -18 9 -15 13 3 5 14 6 25 3
11 -3 18 -9 15 -13z m-975 -30 c0 -16 -7 -20 -35 -20 -28 0 -35 4 -35 20 0 16
7 20 35 20 28 0 35 -4 35 -20z m520 -11 c0 -12 -57 -12 -64 0 -3 4 -3 10 -1
13 8 8 65 -4 65 -13z m366 11 c8 0 14 -4 14 -10 0 -5 -13 -10 -30 -10 -21 0
-30 5 -30 16 0 11 5 14 16 10 9 -3 22 -6 30 -6z m-1161 -100 c11 9 12 7 8 -8
-2 -11 0 -23 6 -26 7 -5 11 3 11 18 0 20 5 26 21 26 17 0 20 -5 17 -32 -4 -38
-30 -49 -58 -23 -14 13 -19 13 -23 3 -3 -7 -5 3 -5 22 0 19 2 29 5 22 4 -9 8
-10 18 -2z m111 -10 c8 0 14 5 14 11 0 6 7 4 15 -5 8 -8 15 -22 15 -30 0 -22
-26 -20 -35 2 -6 16 -7 16 -21 -2 -13 -19 -14 -18 -13 15 0 19 3 28 6 22 2 -7
11 -13 19 -13z m61 -12 c-3 -7 -5 -2 -5 12 0 14 2 19 5 13 2 -7 2 -19 0 -25z
m65 23 c-10 -6 -10 -10 3 -21 12 -10 15 -10 15 4 0 9 5 16 11 16 6 0 8 -9 4
-22 -5 -20 -4 -21 5 -5 13 19 90 25 90 6 0 -8 5 -8 15 1 13 11 13 8 4 -19 -6
-17 -16 -34 -22 -38 -6 -4 -8 0 -4 10 7 20 -1 47 -14 47 -5 0 -9 -7 -9 -15 0
-8 -6 -15 -12 -16 -7 0 -23 -2 -36 -3 -13 -2 -25 1 -28 6 -3 5 -12 4 -20 -3
-11 -9 -18 -9 -26 -1 -9 9 -7 12 8 12 18 1 18 1 0 15 -20 15 -14 35 12 35 13
0 14 -2 4 -9z m208 -5 c0 -8 -6 -17 -12 -19 -7 -3 -3 -6 9 -6 15 -1 21 3 17
13 -3 8 -1 17 5 20 7 4 10 -6 9 -29 -1 -19 -5 -35 -10 -35 -4 0 -8 4 -8 9 0 5
-12 12 -26 15 -20 5 -23 10 -15 20 6 7 8 16 4 19 -3 4 1 7 10 7 10 0 17 -6 17
-14z m97 -21 c-1 -31 -4 -35 -28 -35 -22 0 -26 4 -26 26 0 15 3 21 7 15 5 -9
10 -8 19 3 10 12 9 15 -6 19 -12 3 -9 5 9 6 24 1 26 -2 25 -34z m84 13 l2 -23
4 23 c7 35 19 26 15 -12 -4 -37 -20 -50 -42 -36 -11 7 -11 11 0 24 11 14 10
16 -6 9 -16 -6 -17 -4 -7 9 7 8 10 18 6 21 -3 4 1 7 10 7 11 0 18 -9 18 -22z
m69 13 c0 -18 -12 -41 -22 -41 -6 0 -5 7 3 16 10 13 10 17 -2 25 -11 7 -11 9
4 9 9 0 17 -4 17 -9z m40 -3 c0 6 4 12 9 12 5 0 7 -10 5 -22 l-5 -23 10 23
c10 22 41 31 41 12 0 -5 8 -11 18 -11 16 -1 16 -2 0 -6 -10 -2 -18 -13 -18
-24 0 -10 -7 -19 -15 -19 -8 0 -15 5 -15 11 0 5 -5 7 -11 3 -6 -3 -15 0 -20 7
-7 11 -9 10 -9 -3 0 -10 -4 -18 -10 -18 -11 0 -13 30 -4 55 5 13 8 14 15 3 7
-10 9 -10 9 0z m123 -2 c11 -27 -4 -56 -29 -56 -30 0 -31 21 -2 39 22 14 22
14 3 22 -19 7 -19 8 1 8 12 1 24 -5 27 -13z m67 1 c0 -8 -9 -22 -20 -32 -24
-22 -27 -11 -4 13 15 15 15 16 -2 23 -17 7 -17 8 4 8 12 1 22 -5 22 -12z m34
2 c4 6 14 11 23 11 11 0 14 -6 9 -24 -3 -14 -2 -28 4 -31 10 -6 14 6 11 38 -1
9 3 17 8 17 6 0 11 -16 11 -36 0 -33 -2 -35 -27 -32 -20 2 -27 8 -25 21 4 25
-17 21 -28 -5 -7 -20 -9 -17 -9 17 -1 26 2 35 8 26 6 -9 11 -10 15 -2z m121
-19 c0 -27 -22 -39 -31 -16 -8 22 3 49 19 43 6 -2 12 -14 12 -27z m22 -22 c-2
-13 -4 -5 -4 17 -1 22 1 32 4 23 2 -10 2 -28 0 -40z m75 28 c2 -16 12 -22 43
-27 22 -3 31 -7 19 -8 -12 0 -43 -4 -69 -8 -32 -4 -46 -3 -42 4 4 6 19 9 34 7
16 -2 20 -1 11 2 -10 3 -18 9 -18 14 0 4 -9 6 -20 3 -15 -4 -20 0 -20 13 0 29
58 29 62 0z m65 4 c-1 -14 -8 -20 -24 -20 -16 0 -23 6 -23 20 0 15 7 20 24 20
19 0 24 -5 23 -20z m-498 -316 c18 -13 22 -23 17 -44 -3 -18 0 -33 9 -40 8 -7
15 -20 15 -29 0 -11 -8 -7 -24 14 -17 21 -23 38 -19 57 7 34 -20 49 -44 25
-13 -13 -14 -19 -4 -31 11 -13 9 -21 -11 -45 -12 -17 -26 -30 -30 -30 -14 -1
-8 19 11 38 13 13 17 27 13 46 -3 20 0 32 13 42 24 17 26 16 54 -3z m-1171
-31 c3 -32 2 -33 -32 -33 -33 0 -36 3 -36 28 0 36 8 44 40 40 20 -2 26 -9 28
-35z m80 0 c3 -32 2 -33 -32 -33 -33 0 -36 3 -36 28 0 36 8 44 40 40 20 -2 26
-9 28 -35z m1659 17 c3 -11 12 -20 19 -20 10 0 14 -14 14 -51 0 -31 -4 -48
-10 -44 -5 3 -10 22 -10 41 0 34 0 34 -45 34 l-45 0 0 -41 c0 -24 -4 -38 -10
-34 -5 3 -10 24 -10 47 0 31 4 41 19 45 11 3 21 13 24 24 7 26 47 25 54 -1z
m-1107 -95 c-6 -29 -8 -33 -10 -15 -3 46 -8 62 -27 82 -17 20 -18 20 -35 -2
-10 -12 -18 -37 -18 -56 0 -46 -17 -51 -23 -6 -4 31 0 42 26 70 l31 32 32 -32
c30 -30 32 -36 24 -73z m-632 3 c-3 -29 -6 -33 -33 -33 -27 0 -30 4 -33 33 -3
31 -2 32 33 32 35 0 36 -1 33 -32z m80 0 c-3 -29 -6 -33 -33 -33 -27 0 -30 4
-33 33 -3 31 -2 32 33 32 35 0 36 -1 33 -32z m976 -75 c3 -10 9 -24 12 -30 4
-8 -2 -13 -15 -13 -17 0 -21 6 -21 30 0 33 14 40 24 13z m47 -5 c11 -11 19
-16 19 -10 0 7 4 12 9 12 6 0 6 -12 0 -30 -6 -16 -15 -30 -21 -30 -5 0 -6 4
-3 10 3 5 1 18 -4 27 -10 17 -10 16 -11 -2 0 -17 -2 -17 -10 -5 -11 17 -13 50
-4 50 4 0 15 -10 25 -22z m82 11 c9 7 12 1 12 -19 0 -20 -3 -26 -12 -19 -7 7
-13 5 -16 -3 -3 -7 -5 3 -5 22 0 19 2 29 5 22 3 -8 9 -10 16 -3z m65 -18 c4
-23 -15 -44 -30 -35 -4 3 -8 19 -8 35 0 24 4 30 18 27 9 -2 19 -14 20 -27z
m381 12 c9 -17 11 -17 24 1 16 22 47 16 47 -9 0 -8 5 -15 10 -15 6 0 10 6 10
13 0 9 12 14 30 15 23 0 30 -4 30 -18 0 -24 -17 -35 -34 -21 -16 13 -42 5 -50
-15 -8 -21 -31 -17 -49 9 l-16 22 0 -22 c-1 -16 -7 -23 -21 -23 -12 0 -24 9
-29 23 -7 19 -5 23 18 28 24 6 24 7 3 8 -13 0 -20 6 -17 11 10 16 33 12 44 -7z
m-1699 -21 c0 -18 -4 -23 -16 -18 -9 3 -23 6 -31 6 -12 0 -13 3 -4 14 9 11 9
15 -1 19 -7 3 2 5 20 4 27 0 32 -4 32 -25z m70 17 c0 -6 5 -7 13 -2 6 4 22 9
35 11 16 2 22 -2 22 -18 0 -11 5 -20 11 -20 6 0 9 7 6 15 -4 8 -2 17 3 20 6 4
10 1 10 -4 0 -6 6 -11 14 -11 20 0 28 -14 20 -35 -6 -13 -9 -14 -16 -3 -8 11
-10 11 -15 -1 -5 -11 -7 -11 -14 0 -7 11 -11 11 -17 1 -7 -10 -14 -10 -38 3
-26 13 -29 13 -32 0 -4 -17 -18 -20 -27 -4 -4 6 -13 8 -20 5 -10 -3 -12 3 -10
22 2 15 4 27 4 27 13 6 51 2 51 -6z m602 -12 c7 -34 -1 -47 -27 -47 -26 0 -34
13 -27 47 3 16 11 23 27 23 16 0 24 -7 27 -23z m1208 13 c-13 -8 -12 -10 3
-10 9 0 17 5 17 10 0 6 3 10 8 10 9 0 8 -57 -1 -67 -4 -3 -7 -1 -7 5 0 7 -9
12 -20 12 -15 0 -20 7 -20 25 0 17 5 25 18 25 14 0 15 -2 2 -10z m-50 -53 c10
-4 8 -6 -7 -6 -16 -1 -23 5 -23 17 0 10 3 13 8 6 4 -6 14 -14 22 -17z m-1830
-3 c0 -2 -11 -4 -25 -4 -14 0 -25 4 -25 9 0 4 11 6 25 3 14 -2 25 -6 25 -8z
m773 -174 c14 -37 20 -38 33 -4 12 35 60 43 70 12 6 -21 6 -21 24 2 26 35 46
16 20 -20 -11 -15 -20 -40 -20 -55 0 -40 -24 -25 -31 19 -10 59 -28 67 -26 11
1 -31 -3 -49 -10 -52 -8 -3 -13 4 -13 17 l0 22 -19 -23 -20 -24 -10 25 -10 25
0 -23 c-1 -41 -26 -18 -29 27 -5 73 20 98 41 41z m217 15 c0 -19 16 -20 23 -2
7 20 82 20 102 1 12 -12 13 -19 4 -30 -8 -10 -8 -14 0 -14 19 0 12 -39 -8 -50
-37 -19 -78 -12 -100 18 l-20 27 -1 -28 c0 -46 -25 -26 -28 22 -2 24 -1 50 2
57 7 19 26 18 26 -1z m910 -15 c0 -16 -4 -30 -10 -30 -5 0 -10 14 -10 30 0 17
5 30 10 30 6 0 10 -13 10 -30z m-1940 12 c0 -4 -5 -13 -12 -20 -9 -9 1 -12 45
-12 31 0 57 -4 57 -10 0 -5 -25 -10 -56 -10 -49 0 -55 -2 -44 -15 23 -28 0
-30 -27 -2 l-27 26 24 26 c23 25 40 32 40 17z m1900 3 c0 -2 -5 -15 -11 -29
-15 -33 4 -58 39 -54 34 4 51 32 35 58 -15 23 -1 36 17 15 18 -22 8 -66 -22
-88 -23 -17 -31 -19 -53 -9 -35 16 -52 55 -37 87 10 21 32 35 32 20z m100
-203 c0 -4 -12 -9 -27 -10 -26 -1 -27 -1 -9 13 18 14 36 12 36 -3z m-675 -2
c4 -7 -191 -10 -579 -10 -379 0 -587 4 -591 10 -4 7 191 10 579 10 379 0 587
-4 591 -10z m-735 -40 c0 -5 -2 -10 -4 -10 -3 0 -8 5 -11 10 -3 6 -1 10 4 10
6 0 11 -4 11 -10z m1445 -50 c3 -5 1 -10 -4 -10 -6 0 -11 5 -11 10 0 6 2 10 4
10 3 0 8 -4 11 -10z m-23 -45 c0 -5 -5 -11 -11 -13 -6 -2 -11 4 -11 13 0 9 5
15 11 13 6 -2 11 -8 11 -13z m48 -25 c0 -5 -7 -10 -16 -10 -8 0 -12 5 -9 10 3
6 10 10 16 10 5 0 9 -4 9 -10z m20 -92 c0 -6 -7 -5 -15 2 -8 7 -15 17 -15 22
0 6 7 5 15 -2 8 -7 15 -17 15 -22z m-121 -70 c-8 -14 -14 -18 -17 -10 -4 13
17 46 25 38 3 -2 -1 -15 -8 -28z m30 -72 c0 -7 -2 -6 -6 2 -2 6 -11 12 -19 12
-9 0 -12 5 -9 10 8 13 35 -6 34 -24z m-11 -68 c19 -19 14 -30 -8 -18 -11 6
-20 15 -20 20 0 14 14 12 28 -2z m-98 -142 c0 -2 -7 -9 -15 -16 -12 -10 -15
-10 -15 4 0 9 7 16 15 16 8 0 15 -2 15 -4z m25 -53 c10 -23 13 -53 6 -53 -16
1 -27 18 -26 43 0 31 9 35 20 10z m-374 -122 c8 -20 7 -23 -11 -18 -11 3 -20
1 -20 -4 0 -15 -17 -10 -24 7 -8 20 12 46 32 42 8 -2 19 -14 23 -27z m-86 -51
c10 -11 16 -20 13 -20 -3 0 -13 9 -23 20 -10 11 -16 20 -13 20 3 0 13 -9 23
-20z m-1483 -22 c-7 -7 -12 -8 -12 -2 0 14 12 26 19 19 2 -3 -1 -11 -7 -17z
m1562 0 c-4 -6 0 -14 7 -19 7 -4 10 -11 6 -16 -5 -4 -12 -1 -17 7 -13 20 -13
53 0 45 6 -4 7 -11 4 -17z m36 -8 c0 -5 -2 -10 -4 -10 -3 0 -8 5 -11 10 -3 6
-1 10 4 10 6 0 11 -4 11 -10z m-79 -37 c-8 -15 -10 -15 -11 -2 0 17 10 32 18
25 2 -3 -1 -13 -7 -23z m89 -23 c0 -5 -5 -10 -11 -10 -5 0 -8 -4 -4 -9 3 -6
-4 -15 -15 -21 -11 -6 -18 -16 -14 -21 4 -7 -1 -7 -15 0 -24 13 -28 31 -8 31
8 0 22 9 32 20 20 22 35 26 35 10z m-160 -60 c0 -5 -5 -10 -11 -10 -5 0 -7 5
-4 10 3 6 8 10 11 10 2 0 4 -4 4 -10z m70 -29 c0 -17 -4 -33 -10 -36 -5 -3
-10 -1 -10 6 0 6 -8 18 -17 25 -17 13 -17 13 0 14 9 0 17 5 17 10 0 6 5 10 10
10 6 0 10 -13 10 -29z m80 -1 c0 -5 -4 -10 -10 -10 -5 0 -10 5 -10 10 0 6 5
10 10 10 6 0 10 -4 10 -10z m-50 -4 c0 -3 -4 -8 -10 -11 -5 -3 -10 -1 -10 4 0
6 5 11 10 11 6 0 10 -2 10 -4z m-95 -15 c-6 -5 -21 -12 -35 -15 -24 -7 -24 -6
-6 8 21 17 57 23 41 7z m-1300 -164 c16 -31 16 -35 1 -64 -20 -40 -62 -73 -92
-73 -33 0 -74 18 -74 32 0 14 120 136 136 137 6 1 19 -14 29 -32z m255 -12 c6
-8 9 -19 5 -25 -3 -5 1 -10 9 -10 9 0 13 6 10 13 -8 21 23 42 40 28 11 -9 16
-9 22 1 12 20 23 -35 14 -74 -6 -26 -9 -30 -15 -15 -5 11 -14 16 -25 12 -10
-3 -21 -1 -25 5 -3 5 -24 10 -46 10 -24 0 -38 -4 -34 -10 3 -5 17 -10 31 -10
14 0 22 -4 19 -10 -13 -21 -55 -11 -65 15 -12 31 -37 33 -36 3 1 -31 -38 -37
-54 -9 -6 12 -7 21 -3 21 4 0 2 4 -5 9 -12 7 -12 12 -1 30 17 27 50 27 69 1
17 -24 42 -27 33 -4 -11 29 35 45 57 19z m194 3 c17 -54 16 -68 -4 -68 -12 0
-20 -7 -20 -17 -1 -17 -1 -17 -14 0 -7 9 -19 17 -26 17 -7 0 -10 7 -6 16 3 9
6 27 6 40 0 20 5 24 30 24 17 0 32 -6 34 -12z m641 -43 l0 -50 -120 0 -120 0
-3 44 c-2 28 1 47 10 53 7 4 63 7 123 6 l110 -3 0 -50z m194 41 c15 -18 3 -46
-19 -46 -24 0 -33 15 -25 40 7 23 28 26 44 6z m33 -40 c-9 -18 -11 -16 -11 19
0 33 1 37 10 21 8 -12 8 -25 1 -40z m98 9 c0 -3 -8 -2 -17 3 -20 10 -43 5 -43
-9 0 -19 64 -8 97 17 33 25 35 25 48 8 19 -25 18 -34 -2 -35 -10 -1 -29 -2
-43 -3 -14 -1 -35 -3 -47 -4 -14 -1 -23 -9 -24 -19 -1 -17 -2 -17 -6 0 -2 9
-11 17 -19 17 -19 0 -18 16 4 45 17 22 17 23 35 4 9 -10 17 -21 17 -24z m50
41 c0 -3 -4 -8 -10 -11 -5 -3 -10 -1 -10 4 0 6 5 11 10 11 6 0 10 -2 10 -4z
m236 -14 c-3 -3 -1 -11 5 -19 9 -9 8 -17 0 -27 -10 -11 -8 -15 6 -19 10 -2 -2
-4 -27 -4 -25 0 -37 2 -27 5 12 2 16 9 13 19 -4 9 -1 23 6 31 11 13 10 15 -6
9 -16 -6 -17 -5 -7 7 7 8 19 12 27 9 8 -3 12 -8 10 -11z m-476 -18 c0 -12 -6
-25 -12 -27 -8 -3 -6 -6 5 -6 9 -1 17 -5 17 -11 0 -5 -20 -10 -45 -10 -25 0
-45 4 -45 10 0 5 7 7 15 4 8 -4 15 -1 15 5 0 6 -4 11 -10 11 -5 0 -10 10 -10
23 0 18 6 22 35 23 30 0 35 -3 35 -22z m363 1 c-1 -11 4 -23 10 -27 7 -4 8 -8
2 -8 -20 1 -58 37 -51 49 12 19 41 8 39 -14z m44 5 c-5 -31 -17 -36 -17 -7 0
15 4 27 10 27 5 0 9 -9 7 -20z m-361 -49 c5 -5 18 -11 29 -14 13 -3 10 -5 -11
-6 -20 -1 -34 5 -38 14 -6 17 5 20 20 6z m304 -1 c0 -13 37 -13 43 0 3 6 4 5
3 -2 -3 -17 -58 -17 -63 0 -3 6 0 12 6 12 6 0 11 -4 11 -10z m-61 -16 c2 -2
-12 -4 -32 -4 -20 0 -38 4 -42 9 -5 9 64 4 74 -5z"/>
<path d="M985 7940 c3 -5 13 -10 21 -10 8 0 14 5 14 10 0 6 -9 10 -21 10 -11
0 -17 -4 -14 -10z"/>
<path d="M1390 7730 c0 -5 9 -10 20 -10 11 0 20 5 20 10 0 6 -9 10 -20 10 -11
0 -20 -4 -20 -10z"/>
<path d="M1517 7720 c-3 -11 -1 -20 4 -20 5 0 9 9 9 20 0 11 -2 20 -4 20 -2 0
-6 -9 -9 -20z"/>
<path d="M1485 7720 c3 -5 8 -10 11 -10 2 0 4 5 4 10 0 6 -5 10 -11 10 -5 0
-7 -4 -4 -10z"/>
<path d="M1505 7670 c3 -5 13 -10 21 -10 8 0 14 5 14 10 0 6 -9 10 -21 10 -11
0 -17 -4 -14 -10z"/>
<path d="M1030 7726 c0 -11 9 -16 26 -16 31 0 28 23 -4 28 -15 2 -22 -2 -22
-12z"/>
<path d="M1030 7681 c0 -6 5 -13 10 -16 14 -9 52 4 45 16 -8 12 -55 12 -55 0z"/>
<path d="M1270 7725 c0 -8 7 -15 15 -15 8 0 15 7 15 15 0 8 -7 15 -15 15 -8 0
-15 -7 -15 -15z"/>
<path d="M914 7219 c-3 -5 6 -9 20 -9 31 0 34 6 6 13 -11 3 -23 1 -26 -4z"/>
<path d="M1030 7220 c0 -5 9 -10 20 -10 11 0 20 5 20 10 0 6 -9 10 -20 10 -11
0 -20 -4 -20 -10z"/>
<path d="M316 7293 c-11 -11 -6 -23 9 -23 8 0 15 4 15 9 0 13 -16 22 -24 14z"/>
<path d="M314 7249 c-10 -17 13 -36 27 -22 12 12 4 33 -11 33 -5 0 -12 -5 -16
-11z"/>
<path d="M682 7248 c5 -32 28 -35 28 -4 0 17 -5 26 -16 26 -10 0 -14 -7 -12
-22z"/>
<path d="M576 7065 c-16 -24 -16 -25 4 -25 15 0 20 7 20 25 0 14 -2 25 -4 25
-2 0 -11 -11 -20 -25z"/>
<path d="M801 7056 c-16 -19 -10 -51 8 -51 8 0 19 8 25 17 8 14 7 21 -5 33
-14 14 -17 14 -28 1z"/>
<path d="M1016 7094 c-19 -50 11 -118 33 -75 19 35 11 91 -14 91 -7 0 -16 -7
-19 -16z"/>
<path d="M1687 7065 c-17 -24 -17 -25 3 -25 15 0 20 6 20 25 0 30 -1 30 -23 0z"/>
<path d="M1910 7049 c-10 -17 -9 -24 4 -38 15 -14 18 -14 26 -1 14 21 12 36
-4 49 -12 10 -17 8 -26 -10z"/>
<path d="M660 6850 c0 -5 5 -10 10 -10 6 0 10 5 10 10 0 6 -4 10 -10 10 -5 0
-10 -4 -10 -10z"/>
<path d="M474 6489 c-10 -4 -13 -8 -6 -8 6 -1 12 -7 12 -15 0 -8 -6 -16 -12
-19 -7 -2 -10 -8 -5 -12 4 -5 13 -3 19 3 18 18 28 15 28 -8 0 -11 7 -20 15
-20 8 0 15 5 15 10 0 6 9 10 20 10 11 0 20 -4 20 -10 0 -5 9 -10 20 -10 11 0
20 6 20 14 0 9 7 12 20 9 11 -3 20 -9 20 -14 0 -5 9 -9 20 -9 17 0 20 7 20 45
0 38 -3 45 -20 45 -15 0 -20 -7 -20 -25 0 -14 -4 -25 -10 -25 -5 0 -10 11 -10
23 0 23 -3 24 -73 24 -41 0 -82 -4 -93 -8z"/>
<path d="M715 6490 c-11 -18 7 -60 26 -60 10 0 19 -4 19 -10 0 -5 5 -10 10
-10 6 0 10 20 10 43 0 42 -1 44 -30 45 -16 0 -32 -3 -35 -8z"/>
<path d="M805 6490 c-3 -6 0 -10 7 -10 9 -1 7 -5 -4 -14 -10 -7 -18 -21 -18
-30 0 -13 11 -16 64 -16 35 0 71 -3 80 -6 13 -5 16 2 16 40 0 43 -12 61 -23
34 -4 -10 -6 -10 -6 0 -1 6 -10 12 -21 12 -20 0 -24 -9 -21 -42 1 -10 -3 -18
-8 -18 -10 0 -13 6 -15 39 -1 16 -42 25 -51 11z m122 -42 c-3 -8 -6 -5 -6 6
-1 11 2 17 5 13 3 -3 4 -12 1 -19z"/>
<path d="M1420 6488 c0 -4 8 -12 18 -18 15 -10 14 -10 -5 -5 -12 3 -24 1 -28
-5 -3 -5 -1 -10 5 -10 6 0 8 -4 5 -10 -3 -6 5 -10 19 -10 13 0 27 -6 30 -12 4
-7 4 -3 2 10 -2 12 0 22 4 22 4 0 3 10 -3 23 -9 21 -47 33 -47 15z"/>
<path d="M1543 6455 c0 -27 2 -38 4 -22 2 15 2 37 0 50 -2 12 -4 0 -4 -28z"/>
<path d="M1704 6492 c-7 -4 -14 -16 -17 -27 -4 -18 -5 -18 -6 3 -1 23 -15 30
-26 12 -3 -5 -1 -10 5 -10 8 0 8 -6 0 -20 -8 -16 -8 -18 5 -14 8 3 22 -2 32
-12 17 -17 18 -17 21 9 5 41 -1 68 -14 59z"/>
<path d="M1500 6472 c0 -10 -6 -24 -12 -32 -11 -12 -10 -12 4 -1 9 7 21 10 26
7 5 -3 7 6 4 19 -5 29 -22 34 -22 7z"/>
<path d="M1574 6475 c-8 -21 3 -48 19 -43 19 7 22 58 2 58 -8 0 -18 -7 -21
-15z m26 -15 c0 -11 -4 -20 -10 -20 -5 0 -10 9 -10 20 0 11 5 20 10 20 6 0 10
-9 10 -20z"/>
<path d="M1620 6456 c0 -19 5 -38 10 -41 6 -4 10 10 10 34 0 23 -4 41 -10 41
-5 0 -10 -15 -10 -34z"/>
<path d="M667 6169 c-26 -15 -50 -68 -43 -95 16 -62 102 -87 143 -41 29 31 34
52 21 87 -16 48 -79 73 -121 49z m43 -64 c-10 -12 -10 -18 0 -30 20 -24 6 -28
-15 -5 -17 19 -17 21 0 40 21 23 35 19 15 -5z"/>
<path d="M1225 6168 c-32 -17 -45 -39 -45 -78 0 -76 90 -111 145 -55 35 34 33
78 -4 116 -31 30 -62 36 -96 17z m47 -100 c-12 -12 -22 -17 -22 -11 0 6 7 16
15 23 14 11 14 15 -2 34 -15 18 -14 18 7 -1 l24 -23 -22 -22z"/>
<path d="M1522 6170 c-32 -14 -55 -71 -42 -106 14 -36 38 -53 77 -54 45 0 62
9 79 42 38 73 -37 150 -114 118z m68 -40 c13 0 19 -40 10 -63 -5 -12 -9 -18
-9 -13 -1 5 -8 3 -17 -5 -12 -10 -17 -10 -23 0 -5 7 -11 12 -15 12 -3 -1 -6 2
-5 5 0 4 -5 10 -12 15 -10 6 -10 11 0 23 8 9 10 16 5 17 -5 0 0 4 11 9 11 5
26 7 33 4 8 -2 17 -4 22 -4z"/>
<path d="M1550 6096 c0 -9 7 -16 16 -16 17 0 14 22 -4 28 -7 2 -12 -3 -12 -12z"/>
<path d="M391 5473 l-22 -18 32 -1 c18 -1 38 -9 45 -19 12 -16 14 -17 20 -2 3
9 10 14 15 11 5 -3 7 -10 4 -15 -4 -5 0 -9 7 -9 10 0 10 -2 1 -8 -6 -4 -17
-20 -22 -35 -11 -29 -31 -28 -31 1 0 14 -2 13 -13 -3 -13 -17 -15 -17 -30 6
-10 13 -17 19 -17 14 0 -6 -5 -3 -10 5 -8 12 -10 11 -10 -7 0 -37 26 -54 78
-49 65 5 87 41 61 99 -11 24 -47 47 -73 47 -8 0 -23 -8 -35 -17z"/>
<path d="M930 5420 c0 -37 -4 -50 -15 -50 -11 0 -10 -7 6 -35 12 -19 25 -37
29 -40 5 -3 21 11 36 31 25 33 26 37 11 46 -12 6 -17 22 -17 53 0 41 -2 45
-25 45 -23 0 -25 -3 -25 -50z"/>
<path d="M821 5431 c-26 -36 -26 -45 -3 -39 17 5 18 1 11 -39 -10 -52 -6 -63
22 -63 18 0 20 6 18 55 -1 30 1 58 6 62 4 5 5 2 1 -4 -4 -8 -1 -13 8 -13 9 0
16 3 16 6 0 11 -41 64 -50 64 -5 0 -18 -13 -29 -29z m43 -21 c-6 -6 -18 -8
-27 -4 -13 5 -14 10 -6 26 10 19 12 19 27 4 11 -11 13 -19 6 -26z"/>
<path d="M1285 5495 c-14 -13 -25 -32 -24 -42 0 -14 2 -15 6 -3 3 8 17 27 31
43 32 34 20 36 -13 2z"/>
<path d="M1425 5508 c11 -6 23 -16 27 -22 5 -8 8 -7 8 1 0 7 -9 17 -19 23 -27
14 -41 12 -16 -2z"/>
<path d="M1260 5389 c0 -8 6 -23 13 -33 11 -15 17 -17 35 -7 12 6 22 17 22 24
0 9 -3 8 -9 -1 -11 -18 -33 -11 -48 13 -9 15 -12 16 -13 4z"/>
<path d="M1461 5357 c-13 -21 -12 -21 5 -5 10 10 16 20 13 22 -3 3 -11 -5 -18
-17z"/>
<path d="M1794 5351 c24 -27 68 -27 92 0 l19 21 -33 -19 c-31 -17 -33 -17 -64
0 l-33 19 19 -21z"/>
<path d="M1798 5308 c5 -5 16 -8 23 -6 8 3 3 7 -10 11 -17 4 -21 3 -13 -5z"/>
<path d="M830 5135 c0 -8 5 -15 10 -15 6 0 10 7 10 15 0 8 -4 15 -10 15 -5 0
-10 -7 -10 -15z"/>
<path d="M1220 5140 c0 -5 5 -10 10 -10 6 0 10 5 10 10 0 6 -4 10 -10 10 -5 0
-10 -4 -10 -10z"/>
<path d="M1310 5100 c0 -5 5 -10 10 -10 6 0 10 5 10 10 0 6 -4 10 -10 10 -5 0
-10 -4 -10 -10z"/>
<path d="M1765 5140 c3 -5 8 -10 11 -10 2 0 4 5 4 10 0 6 -5 10 -11 10 -5 0
-7 -4 -4 -10z"/>
<path d="M339 4656 c8 -10 24 -22 35 -28 20 -11 20 -10 5 13 -9 13 -25 26 -35
28 -16 3 -17 1 -5 -13z"/>
<path d="M316 4581 c-4 -7 -5 -15 -2 -18 9 -9 19 4 14 18 -4 11 -6 11 -12 0z"/>
<path d="M800 4740 c0 -5 5 -10 10 -10 6 0 10 5 10 10 0 6 -4 10 -10 10 -5 0
-10 -4 -10 -10z"/>
<path d="M1030 4750 c0 -5 4 -10 9 -10 6 0 13 5 16 10 3 6 -1 10 -9 10 -9 0
-16 -4 -16 -10z"/>
<path d="M1030 4690 c0 -5 4 -10 9 -10 6 0 13 5 16 10 3 6 -1 10 -9 10 -9 0
-16 -4 -16 -10z"/>
<path d="M1440 4740 c0 -5 5 -10 10 -10 6 0 10 5 10 10 0 6 -4 10 -10 10 -5 0
-10 -4 -10 -10z"/>
<path d="M1247 4724 c-9 -9 4 -35 14 -28 5 3 9 12 9 20 0 14 -12 19 -23 8z"/>
<path d="M938 4693 c7 -3 16 -2 19 1 4 3 -2 6 -13 5 -11 0 -14 -3 -6 -6z"/>
<path d="M995 4561 c-6 -11 9 -23 19 -14 9 9 7 23 -3 23 -6 0 -12 -4 -16 -9z"/>
<path d="M1760 4576 c0 -9 5 -16 10 -16 6 0 10 4 10 9 0 6 -4 13 -10 16 -5 3
-10 -1 -10 -9z"/>
<path d="M227 4236 c-7 -16 1 -26 20 -26 7 0 13 9 13 20 0 23 -25 27 -33 6z"/>
<path d="M302 4233 c5 -26 38 -29 38 -4 0 15 -6 21 -21 21 -14 0 -19 -5 -17
-17z"/>
<path d="M1977 4254 c-8 -8 1 -24 14 -24 5 0 9 7 9 15 0 15 -12 20 -23 9z"/>
<path d="M227 4174 c-9 -10 4 -34 19 -34 8 0 14 9 14 20 0 19 -19 27 -33 14z"/>
<path d="M307 4173 c-14 -13 -6 -33 13 -33 13 0 20 7 20 20 0 19 -20 27 -33
13z"/>
<path d="M2088 4053 c7 -3 16 -2 19 1 4 3 -2 6 -13 5 -11 0 -14 -3 -6 -6z"/>
<path d="M1233 3842 c-9 -15 -7 -23 8 -43 l19 -24 0 43 c0 45 -8 53 -27 24z"/>
<path d="M1285 3840 c4 -6 11 -8 16 -5 14 9 11 15 -7 15 -8 0 -12 -5 -9 -10z"/>
<path d="M1285 3800 c3 -5 10 -10 16 -10 5 0 9 5 9 10 0 6 -7 10 -16 10 -8 0
-12 -4 -9 -10z"/>
<path d="M150 2370 c0 -5 5 -10 11 -10 5 0 7 5 4 10 -3 6 -8 10 -11 10 -2 0
-4 -4 -4 -10z"/>
<path d="M500 2440 c0 -5 5 -10 10 -10 6 0 10 5 10 10 0 6 -4 10 -10 10 -5 0
-10 -4 -10 -10z"/>
<path d="M1160 2434 c-11 -12 -10 -18 3 -32 16 -15 18 -15 34 0 13 14 14 20 3
32 -7 9 -16 16 -20 16 -4 0 -13 -7 -20 -16z m25 -14 c3 -5 1 -10 -4 -10 -6 0
-11 5 -11 10 0 6 2 10 4 10 3 0 8 -4 11 -10z"/>
<path d="M1230 2428 c0 -7 5 -20 10 -28 8 -13 11 -13 26 2 9 9 13 21 10 27
-10 15 -46 14 -46 -1z m30 -8 c0 -5 -4 -10 -10 -10 -5 0 -10 5 -10 10 0 6 5
10 10 10 6 0 10 -4 10 -10z"/>
<path d="M1304 2429 c-3 -6 0 -17 8 -25 13 -13 16 -13 27 0 7 8 10 20 6 26 -8
13 -32 13 -41 -1z m31 -9 c3 -5 -1 -10 -9 -10 -9 0 -16 5 -16 10 0 6 4 10 9
10 6 0 13 -4 16 -10z"/>
<path d="M1540 2440 c0 -5 5 -10 10 -10 6 0 10 5 10 10 0 6 -4 10 -10 10 -5 0
-10 -4 -10 -10z"/>
<path d="M1758 2423 c7 -3 16 -2 19 1 4 3 -2 6 -13 5 -11 0 -14 -3 -6 -6z"/>
<path d="M1960 2420 c0 -5 7 -10 16 -10 8 0 12 5 9 10 -3 6 -10 10 -16 10 -5
0 -9 -4 -9 -10z"/>
<path d="M1465 2430 c-3 -5 1 -10 10 -10 9 0 13 5 10 10 -3 6 -8 10 -10 10 -2
0 -7 -4 -10 -10z"/>
<path d="M1850 2440 c0 -5 5 -10 10 -10 6 0 10 5 10 10 0 6 -4 10 -10 10 -5 0
-10 -4 -10 -10z"/>
<path d="M2280 4875 l0 -3125 1125 0 1125 0 0 1160 0 1160 -100 0 -100 0 0
-50 0 -50 -42 0 c-33 0 -39 3 -30 12 17 17 15 28 -4 21 -8 -3 -25 3 -37 14
-31 28 -103 29 -118 2 -8 -16 -17 -19 -37 -14 -26 6 -26 6 -8 -14 19 -21 19
-21 -27 -21 l-47 0 0 108 c0 71 4 112 12 120 8 8 47 12 109 12 l96 0 6 45 c8
55 29 88 72 115 27 17 49 20 144 20 l111 0 0 1805 0 1805 -1125 0 -1125 0 0
-3125z m1084 3059 c2 -10 -2 -25 -10 -32 -8 -7 -14 -8 -14 -2 0 5 -8 10 -17
10 -15 0 -16 2 -3 10 8 5 11 10 7 10 -4 0 -3 9 4 21 12 23 27 15 33 -17z
m-471 20 c3 -4 0 -13 -8 -20 -7 -8 -15 -19 -18 -26 -2 -7 -8 -9 -13 -5 -5 4
-2 13 6 18 11 8 9 9 -10 4 -27 -8 -18 9 10 18 8 2 2 3 -13 1 -17 -2 -26 0 -22
6 7 11 58 14 68 4z m402 -4 c4 -6 2 -17 -5 -24 -8 -11 -8 -15 2 -19 7 -3 -3
-5 -22 -6 -28 0 -31 2 -15 9 11 5 14 9 8 9 -7 1 -13 10 -13 21 0 21 34 29 45
10z m142 3 c-4 -3 -2 -12 4 -19 13 -16 3 -34 -19 -33 -14 0 -13 2 3 8 18 7 18
8 1 18 -19 10 -14 33 6 33 6 0 8 -3 5 -7z m125 -18 c6 -29 -2 -38 -21 -26 -10
7 -10 12 0 30 8 11 14 21 15 21 1 0 4 -11 6 -25z m396 16 c21 -13 10 -46 -16
-49 -27 -4 -40 22 -22 43 14 17 20 18 38 6z m185 2 c-7 -2 -13 -9 -13 -15 0
-6 7 -8 15 -4 8 3 15 1 15 -4 0 -6 -9 -10 -20 -10 -11 0 -20 6 -20 13 0 17 10
27 24 26 6 0 5 -3 -1 -6z m57 -3 c0 -5 -7 -7 -15 -4 -8 4 -15 8 -15 10 0 2 7
4 15 4 8 0 15 -4 15 -10z m270 -20 l0 -30 -75 0 c-72 0 -75 1 -75 23 0 34 6
37 82 37 l68 0 0 -30z m-2110 -6 c0 -8 -7 -14 -15 -14 -15 0 -21 21 -9 33 10
9 24 -2 24 -19z m50 0 c0 -8 -7 -14 -15 -14 -15 0 -21 21 -9 33 10 9 24 -2 24
-19z m50 0 c0 -8 -7 -14 -15 -14 -15 0 -21 21 -9 33 10 9 24 -2 24 -19z m50 0
c0 -14 -21 -19 -33 -7 -9 9 13 34 24 27 5 -3 9 -12 9 -20z m47 11 c7 -20 -2
-29 -21 -22 -9 4 -13 13 -10 22 8 19 23 19 31 0z m963 -10 c0 -27 -6 -30 -29
-16 -12 8 -12 12 -2 25 19 23 31 20 31 -9z m-914 -5 c0 -12 -4 -16 -9 -11 -5
5 -6 14 -3 20 10 15 12 14 12 -9z m151 14 c-3 -3 -12 -4 -19 -1 -8 3 -5 6 6 6
11 1 17 -2 13 -5z m1390 -30 c-3 -3 -12 -4 -19 -1 -8 3 -5 6 6 6 11 1 17 -2
13 -5z m-397 -145 c0 -22 -5 -26 -25 -26 -21 0 -25 4 -25 27 0 23 4 28 25 26
20 -1 25 -6 25 -27z m-1177 -48 c-8 -36 -11 -37 -27 -15 -14 18 -15 18 -21 2
-10 -24 -25 -23 -25 2 0 11 -5 20 -12 20 -6 0 1 13 17 30 l29 30 23 -22 c17
-16 21 -28 16 -47z m624 5 c-7 -20 -25 -17 -20 3 3 12 1 21 -6 21 -6 0 -11
-16 -11 -35 l0 -35 -35 18 c-45 22 -46 52 -2 72 30 14 33 14 55 -9 12 -14 21
-29 19 -35z m784 54 c5 0 9 -9 9 -20 0 -11 4 -20 9 -20 5 0 4 -11 -2 -24 -20
-43 -73 -43 -93 -1 -7 13 -9 27 -5 30 3 4 6 12 6 18 0 7 5 12 12 12 6 0 15 4
19 8 4 4 14 5 22 2 7 -3 18 -5 23 -5z m-643 -43 c3 -22 -1 -27 -17 -27 -15 0
-21 6 -21 23 0 46 33 49 38 4z m34 -24 c-7 -35 -23 -28 -20 10 1 17 4 36 6 41
8 15 19 -25 14 -51z m53 47 l-20 -9 20 -1 20 -1 -20 -8 c-19 -8 -18 -9 5 -13
21 -5 20 -5 -7 -7 -26 -1 -33 3 -33 17 0 24 9 32 34 31 21 0 21 -1 1 -9z m78
-18 c-2 -14 1 -21 7 -17 6 3 10 16 10 28 0 13 4 17 9 12 5 -6 7 -25 4 -42 -5
-31 -12 -36 -50 -32 -5 0 -7 7 -5 15 2 9 -2 22 -8 29 -15 18 -3 37 18 33 11
-3 16 -12 15 -26z m85 6 c2 -9 -5 -18 -15 -21 -14 -4 -13 -5 5 -6 17 -1 22 4
22 24 0 14 5 25 10 25 6 0 10 -18 10 -40 0 -22 -4 -40 -10 -40 -5 0 -10 5 -10
10 0 6 -11 8 -25 4 -21 -5 -25 -3 -25 14 0 11 6 23 13 25 9 4 8 8 -3 17 -13 9
-12 11 5 8 11 -2 21 -11 23 -20z m80 -11 c3 -22 -1 -27 -17 -27 -15 0 -21 6
-21 23 0 46 33 49 38 4z m435 14 c7 -27 -4 -41 -31 -42 l-27 -1 25 -8 25 -8
-27 -1 c-16 -1 -28 2 -29 7 0 4 -2 18 -4 32 -4 34 1 39 34 38 18 -1 31 -7 34
-17z m75 -23 c-1 -21 -7 -39 -15 -42 -20 -8 -45 5 -39 20 3 8 0 14 -6 14 -6 0
-3 8 6 19 13 15 14 20 4 24 -7 3 2 4 19 4 31 -2 33 -4 31 -39z m69 33 c10 9
13 3 13 -30 0 -37 -2 -41 -25 -41 -16 0 -25 6 -25 15 0 8 5 15 10 15 6 0 10 5
10 11 0 6 -9 8 -21 4 -18 -6 -19 -5 -7 14 8 13 16 17 22 11 6 -6 14 -5 23 1z
m66 -10 c3 -13 -1 -21 -14 -24 -21 -6 -26 8 -8 19 8 4 7 9 -2 15 -11 7 -11 9
2 9 9 0 19 -9 22 -19z m18 -64 c-12 -12 -41 -2 -41 14 0 6 9 13 20 16 11 3 20
10 19 17 -1 6 0 18 1 26 2 8 5 -2 7 -24 3 -21 0 -43 -6 -49z m-1704 41 c-3 -7
-5 -2 -5 12 0 14 2 19 5 13 2 -7 2 -19 0 -25z m658 -6 c-2 -3 -11 1 -19 7 -10
8 -16 9 -21 1 -3 -5 -11 -10 -17 -10 -6 0 -3 9 7 20 17 19 19 19 37 3 10 -9
16 -18 13 -21z m411 -29 c-10 -10 -19 5 -10 18 6 11 8 11 12 0 2 -7 1 -15 -2
-18z m-418 10 c-10 -2 -28 -2 -40 0 -13 2 -5 4 17 4 22 1 32 -1 23 -4z m165 0
c-13 -2 -33 -2 -45 0 -13 2 -3 4 22 4 25 0 35 -2 23 -4z m-883 -275 c0 -6 6
-5 16 2 12 11 18 10 32 -3 15 -16 15 -18 0 -34 -14 -13 -20 -14 -32 -3 -14 11
-16 8 -16 -18 0 -25 -4 -30 -20 -29 -16 1 -20 9 -20 37 l-1 35 -15 -27 c-8
-16 -19 -28 -24 -28 -15 0 -12 11 8 33 12 15 14 21 5 24 -26 9 -12 21 27 21
22 0 40 -4 40 -10z m181 -11 l2 -22 4 23 c4 18 11 22 44 22 l40 0 -5 -42 c-2
-24 -5 -46 -5 -50 -1 -5 -14 -8 -31 -8 -23 0 -30 5 -30 19 0 12 8 21 22 23 11
2 22 11 24 21 3 22 -2 22 -28 -3 -12 -11 -27 -20 -34 -20 -6 0 -11 -8 -10 -17
1 -12 -7 -19 -23 -21 -30 -5 -48 12 -33 30 8 10 4 16 -15 25 -20 10 -24 10
-19 -2 3 -8 1 -17 -4 -20 -6 -4 -10 8 -10 27 l0 33 55 2 c51 2 55 1 56 -20z
m-115 -57 c8 0 14 -4 14 -10 0 -5 -13 -10 -30 -10 -21 0 -30 5 -30 16 0 11 5
14 16 10 9 -3 22 -6 30 -6z m178 -136 c13 -13 16 -42 16 -160 0 -81 -5 -154
-10 -165 -10 -18 -23 -19 -168 -19 -110 0 -162 4 -170 12 -8 8 -12 60 -12 168
0 108 4 160 12 168 8 8 59 12 164 12 125 0 155 -3 168 -16z m504 4 c17 -17 17
-319 0 -336 -8 -8 -59 -12 -163 -12 -104 0 -155 4 -163 12 -17 17 -17 319 0
336 8 8 59 12 163 12 104 0 155 -4 163 -12z m510 0 c8 -8 12 -59 12 -164 0
-125 -3 -155 -16 -168 -13 -13 -42 -16 -164 -16 -189 0 -180 -10 -180 187 0
115 3 144 16 157 13 13 43 16 168 16 105 0 156 -4 164 -12z m506 -4 c13 -13
16 -40 14 -163 -2 -108 -7 -152 -17 -164 -20 -24 -301 -25 -325 -1 -13 13 -16
43 -16 168 0 105 4 156 12 164 8 8 59 12 164 12 125 0 155 -3 168 -16z m-1624
-428 l0 -32 -70 -2 c-43 -2 -70 1 -70 8 0 5 8 10 18 11 15 0 15 1 -2 8 -19 7
-19 8 -1 15 16 6 17 9 5 16 -12 8 -9 10 11 10 19 0 26 -5 25 -17 0 -10 -5 -21
-11 -25 -5 -4 0 -8 13 -8 16 0 22 6 22 23 0 31 5 35 35 29 20 -3 25 -10 25
-36z m443 -9 c4 6 4 18 1 27 -7 19 7 21 24 4 9 -9 12 -9 12 0 0 7 5 12 10 12
6 0 10 -16 10 -35 0 -36 -8 -43 -27 -24 -8 8 -17 8 -32 0 -20 -11 -21 -9 -20
31 l2 43 6 -35 c4 -21 9 -30 14 -23z m453 11 c2 -38 -12 -53 -40 -42 -15 6
-18 44 -3 44 5 0 5 9 2 21 -6 17 -3 20 17 17 19 -2 23 -9 24 -40z m142 25 c14
-28 -1 -68 -26 -71 -17 -3 -22 2 -22 17 0 23 -17 29 -22 8 -2 -8 -13 -11 -32
-7 -28 5 -29 6 -13 22 16 16 16 17 0 27 -15 9 -12 10 15 9 17 -1 32 -6 32 -10
0 -4 12 -7 28 -7 16 1 20 3 10 6 -24 6 -23 23 2 23 10 0 23 -8 28 -17z m-631
-13 c2 -8 -1 -22 -7 -30 -8 -13 -11 -13 -25 1 -9 9 -13 23 -9 33 8 20 38 17
41 -4z m974 3 c1 -17 2 -17 6 0 2 9 11 17 19 17 17 0 18 -12 2 -28 -9 -9 -8
-12 5 -12 11 0 17 8 18 23 1 16 2 18 6 5 5 -20 5 -20 28 -12 13 5 14 8 3 15
-9 6 -5 9 14 9 15 0 30 -4 33 -10 3 -5 11 -10 16 -10 6 0 7 5 4 10 -3 6 1 10
9 10 19 0 21 -26 4 -33 -7 -2 -10 -8 -6 -12 11 -11 28 4 28 26 0 10 5 19 10
19 6 0 10 -16 10 -35 0 -19 -4 -35 -10 -35 -5 0 -10 4 -10 9 0 4 -11 6 -25 3
-14 -2 -25 0 -25 5 0 5 -9 9 -20 8 -28 -2 -38 -15 -12 -15 12 0 22 -4 22 -10
0 -19 -42 -10 -47 10 -3 11 -9 20 -13 20 -4 0 -10 -9 -13 -20 -3 -11 -13 -20
-22 -20 -9 0 -19 9 -22 20 -7 26 -19 26 -26 -1 -7 -25 -43 -22 -41 4 1 9 -2
17 -7 17 -5 0 -9 8 -9 18 0 26 69 31 71 5z m-1273 -261 c15 -20 17 -284 2
-313 -10 -18 -23 -19 -170 -19 -147 0 -160 1 -170 19 -16 30 -13 306 3 319 14
12 188 20 272 14 29 -3 55 -11 63 -20z m500 6 c17 -17 17 -309 0 -326 -8 -8
-59 -12 -163 -12 -104 0 -155 4 -163 12 -13 13 -18 319 -5 331 12 13 318 8
331 -5z m510 0 c8 -8 12 -59 12 -164 0 -126 -3 -154 -16 -165 -12 -10 -54 -12
-167 -11 -129 2 -154 5 -164 19 -16 21 -18 285 -3 314 10 18 23 19 168 19 110
0 162 -4 170 -12z m511 -6 c13 -24 1 -321 -13 -329 -18 -12 -308 -4 -322 8
-19 15 -20 309 -2 327 8 8 60 12 170 12 141 0 158 -2 167 -18z m-1799 -397
c14 -16 50 -21 50 -6 0 5 -8 12 -17 14 -13 4 -12 5 5 6 12 0 25 -6 28 -14 6
-14 8 -13 20 2 10 15 15 16 26 5 10 -10 10 -16 0 -32 -11 -18 -10 -22 10 -30
23 -9 23 -9 -3 -9 -19 -1 -28 5 -32 19 -3 11 -13 20 -23 20 -14 0 -15 -3 -6
-12 17 -17 15 -33 -3 -18 -8 6 -19 9 -25 5 -5 -3 -10 2 -11 12 0 14 -2 14 -9
-4 -10 -24 -53 -32 -65 -12 -4 6 -13 8 -21 5 -10 -4 -14 3 -14 22 0 21 5 28
20 28 15 0 18 -5 14 -18 -3 -10 -1 -18 5 -18 6 0 11 8 11 18 0 33 20 42 40 17z
m490 0 c0 -9 9 -15 25 -15 14 0 25 5 25 11 0 5 -4 8 -9 4 -5 -3 -12 -1 -16 5
-4 6 5 10 19 10 16 0 26 -6 26 -15 0 -18 20 -20 21 -2 0 8 2 8 6 -2 5 -11 7
-11 14 0 7 11 9 10 9 -3 0 -10 5 -18 10 -18 6 0 10 6 10 13 0 16 42 20 51 5 4
-7 3 -20 -2 -31 -8 -14 -13 -16 -25 -6 -11 9 -14 8 -14 -6 0 -17 -1 -17 -20 0
-11 10 -20 15 -20 11 0 -4 -9 -2 -20 4 -17 9 -20 8 -20 -10 0 -15 -7 -20 -25
-20 -18 0 -25 5 -25 18 0 15 -6 18 -30 14 -35 -5 -39 -19 -7 -25 19 -4 18 -4
-6 -6 -33 -1 -42 15 -28 52 11 29 51 38 51 12z m290 -25 c0 -29 -4 -40 -15
-40 -8 0 -15 5 -15 10 0 14 -37 12 -43 -2 -3 -7 -5 5 -5 27 0 22 3 30 5 17 2
-12 8 -20 13 -17 5 3 7 12 3 20 -3 8 0 15 6 15 6 0 11 -5 11 -11 0 -6 7 -3 16
5 22 23 24 21 24 -24z m227 6 c-4 -9 -11 -16 -17 -16 -17 0 -24 31 -9 41 18
11 34 -5 26 -25z m115 6 c4 8 23 15 48 16 38 3 42 1 37 -17 -3 -11 0 -22 7
-25 6 -2 1 -5 -12 -5 -13 -1 -32 4 -43 10 -24 12 -59 3 -59 -17 0 -8 -5 -14
-11 -14 -5 0 -7 5 -4 10 3 6 1 10 -4 10 -6 0 -11 -4 -11 -10 0 -5 -4 -10 -10
-10 -5 0 -10 9 -10 20 0 13 -5 18 -15 14 -10 -4 -15 0 -15 15 0 23 16 29 22 9
3 -9 10 -7 23 6 18 17 19 17 35 -4 13 -17 18 -19 22 -8z m593 -3 c-2 -10 2
-19 8 -19 8 0 7 -3 -2 -9 -14 -9 -49 -4 -67 11 -16 12 -44 -1 -37 -18 3 -8 0
-14 -6 -14 -6 0 -11 4 -11 9 0 5 -11 12 -24 15 -18 4 -23 11 -19 26 6 23 48
28 57 8 5 -10 7 -10 12 -1 3 7 11 10 19 7 7 -3 16 -1 19 4 3 5 17 7 30 5 18
-4 23 -10 21 -24z m-1565 2 c0 -11 -4 -23 -10 -26 -6 -4 -10 5 -10 19 0 14 5
26 10 26 6 0 10 -9 10 -19z m62 7 c3 -7 1 -24 -3 -38 -7 -25 -7 -25 -8 4 -1
28 -2 28 -19 13 -25 -23 -30 -21 -24 8 3 18 11 25 27 25 13 0 25 -6 27 -12z
m49 5 l-24 -5 28 -24 28 -24 -34 1 c-28 0 -31 2 -14 9 17 7 17 9 3 9 -11 1
-18 9 -18 21 0 15 6 20 28 19 25 -2 25 -2 3 -6z m988 -30 c0 -34 -1 -36 -11
-16 -6 12 -8 29 -5 37 11 27 17 18 16 -21z m291 21 c0 -12 -4 -14 -12 -7 -7 6
-20 13 -28 16 -9 3 -3 6 13 6 19 1 27 -4 27 -15z m220 -13 c0 -17 -4 -33 -10
-36 -6 -4 -10 8 -10 29 0 20 5 36 10 36 6 0 10 -13 10 -29z m-221 -28 c2 -2
-10 -3 -28 -3 -27 0 -30 2 -19 14 10 11 17 11 28 3 8 -6 17 -13 19 -14z m-524
-3 c18 -8 17 -9 -7 -9 -16 -1 -28 4 -28 9 0 12 8 12 35 0z m165 -6 c0 -2 -11
-4 -25 -4 -14 0 -25 4 -25 9 0 4 11 6 25 3 14 -2 25 -6 25 -8z m485 6 c18 -8
17 -9 -7 -9 -16 -1 -28 4 -28 9 0 12 8 12 35 0z m-1388 -212 c21 -17 14 -315
-8 -329 -8 -5 -82 -9 -166 -9 -140 0 -153 2 -163 19 -11 22 -14 300 -2 317 12
18 25 19 178 17 99 -2 151 -6 161 -15z m511 -152 c2 -108 -1 -163 -9 -172 -15
-19 -309 -20 -327 -2 -13 13 -18 319 -5 332 4 3 81 5 172 4 l166 -3 3 -159z
m500 152 c15 -15 17 -291 2 -319 -10 -17 -23 -19 -163 -19 -106 0 -157 4 -165
12 -13 13 -18 319 -5 331 12 13 318 8 331 -5z m-1220 -400 c9 -9 12 -9 12 2 0
9 5 8 15 -6 9 -12 14 -14 15 -5 0 7 6 11 15 7 8 -3 15 -1 15 4 0 5 13 8 30 8
26 -1 29 -4 26 -25 -3 -15 0 -23 10 -23 8 0 14 9 14 19 0 11 5 23 10 26 6 4
10 -8 10 -30 0 -30 -3 -35 -17 -32 -98 27 -125 31 -133 18 -6 -11 -9 -10 -11
4 -4 17 -5 17 -18 2 -12 -15 -10 -18 10 -26 l24 -10 -26 0 c-22 -1 -28 5 -33
30 -9 45 6 63 32 37z m428 -33 c5 -24 4 -28 -6 -18 -11 10 -17 10 -29 0 -12
-10 -14 -9 -7 8 5 11 11 28 13 38 7 23 20 11 29 -28z m34 13 c0 -36 -4 -35
-14 5 -4 16 -2 27 4 27 5 0 10 -14 10 -32z m40 6 c0 -8 5 -14 10 -14 6 0 10
-7 10 -15 0 -8 -4 -15 -10 -15 -5 0 -10 6 -10 13 0 9 -3 8 -9 -2 -6 -9 -10 -4
-13 18 -3 17 -2 33 0 36 8 8 22 -5 22 -21z m51 -4 c5 0 9 7 9 15 0 8 9 15 20
15 11 0 20 -7 20 -15 0 -10 10 -15 30 -15 33 0 41 15 13 24 -11 3 -7 4 7 3 22
-2 25 -7 25 -37 0 -31 -3 -35 -25 -35 -18 0 -24 5 -22 18 4 24 -14 22 -21 -3
-3 -12 -14 -20 -26 -20 -14 0 -21 6 -21 20 0 25 -20 27 -21 3 0 -13 -3 -11
-10 6 -5 14 -7 32 -3 40 6 14 8 14 11 -1 3 -10 9 -18 14 -18z m389 15 c-10
-12 -10 -15 1 -16 10 0 11 -2 2 -6 -17 -6 -16 -23 1 -23 7 0 16 10 19 21 5 17
11 20 29 16 13 -4 36 0 52 8 36 19 40 19 32 -1 -5 -12 -1 -14 17 -8 12 4 23
10 25 15 6 15 52 -23 52 -42 0 -27 -20 -24 -21 4 l-2 22 -4 -22 c-4 -23 -15
-27 -64 -23 -14 0 -31 -6 -38 -14 -7 -9 -18 -13 -23 -10 -6 4 -5 10 3 15 11 7
11 9 -2 9 -9 0 -20 10 -23 23 l-7 22 -11 -22 c-7 -14 -20 -23 -35 -23 -20 0
-23 5 -23 35 0 26 4 35 16 35 14 0 14 -3 4 -15z m-990 -10 c0 -8 -5 -17 -11
-21 -8 -4 -7 -9 2 -15 9 -6 2 -8 -21 -8 -19 0 -30 3 -24 5 6 3 9 15 7 27 -4
18 0 22 21 23 16 1 26 -3 26 -11z m125 -45 c19 -8 19 -9 -2 -9 -12 -1 -25 4
-28 9 -7 12 2 12 30 0z m-39 -366 c-3 -8 1 -14 10 -14 9 0 18 9 21 21 5 16 8
18 15 7 7 -10 11 -10 15 0 6 15 33 16 33 2 0 -7 7 -7 21 0 24 13 41 4 19 -10
-12 -8 -12 -10 -1 -10 11 0 11 -3 1 -15 -11 -13 -8 -15 14 -15 15 0 25 4 22 9
-4 5 -2 20 3 33 8 18 10 12 9 -32 0 -30 -2 -47 -5 -37 -3 11 -15 18 -36 18
-57 3 -62 4 -84 17 -13 7 -24 8 -28 2 -3 -5 -13 -6 -21 -3 -13 5 -15 1 -10
-15 8 -25 -7 -36 -40 -28 -19 5 -24 11 -19 26 5 15 2 20 -13 20 -13 0 -18 -7
-18 -22 1 -18 -5 -24 -27 -26 -31 -4 -50 24 -26 39 11 7 10 9 -4 9 -10 0 -15
5 -12 10 3 6 17 10 31 10 33 0 31 18 -3 23 -23 3 -22 4 8 6 29 1 38 -3 42 -19
3 -11 13 -20 22 -20 14 0 15 3 6 14 -10 11 -8 16 6 24 22 13 57 -4 49 -24z
m76 -54 c10 0 18 -5 18 -11 0 -20 -55 -5 -58 16 -3 16 -1 18 9 8 7 -7 21 -13
31 -13z m89 -137 c17 -20 16 -310 -1 -327 -17 -17 -303 -15 -323 3 -24 20 -25
301 -1 325 24 24 305 23 325 -1z m507 5 c15 -15 17 -305 2 -328 -8 -12 -37
-15 -165 -15 -128 0 -157 3 -165 15 -15 23 -13 313 2 328 17 17 309 17 326 0z
m510 0 c15 -15 17 -291 2 -319 -10 -17 -23 -19 -160 -19 -81 0 -155 3 -164 6
-14 5 -16 30 -16 169 0 121 3 165 13 168 28 12 313 7 325 -5z m496 6 c14 -5
16 -30 16 -170 0 -147 -2 -165 -17 -172 -10 -4 -81 -7 -159 -7 -105 0 -145 4
-157 14 -15 11 -17 36 -17 165 0 105 4 156 12 164 13 13 291 18 322 6z m-1700
-417 c-2 -22 22 -22 30 0 6 14 8 14 21 -3 14 -19 14 -19 15 1 0 12 3 16 10 9
11 -11 -1 -66 -16 -71 -5 -1 -15 1 -23 6 -13 8 -13 12 0 27 13 16 12 17 -4 11
-10 -4 -21 -7 -23 -7 -2 0 -4 -6 -4 -14 0 -16 -27 -29 -41 -20 -5 3 -9 12 -9
20 0 21 -17 17 -23 -6 -7 -28 -36 -25 -47 6 -13 33 -13 34 5 28 8 -3 20 -2 27
2 9 6 6 10 -12 15 l-25 7 26 1 c17 1 30 -6 34 -16 6 -16 8 -15 16 5 10 27 45
26 43 -1z m1589 2 c20 -28 10 -59 -19 -59 -15 0 -24 6 -24 15 0 8 -4 15 -10
15 -5 0 -10 -7 -10 -15 0 -16 -12 -20 -24 -7 -4 4 -13 7 -19 7 -7 0 -13 12
-15 28 -2 15 1 27 6 27 6 0 8 -9 5 -20 -4 -14 0 -20 11 -20 9 0 16 8 16 20 0
11 5 20 10 20 6 0 10 -7 10 -15 0 -22 21 -18 27 5 7 26 18 25 36 -1z m-1441
-6 c7 -33 -3 -50 -28 -50 -22 0 -24 4 -22 33 2 28 6 34 24 34 13 0 24 -7 26
-17z m368 -19 c0 -19 -4 -34 -10 -34 -5 0 -10 5 -10 11 0 6 -6 9 -14 6 -18 -7
-38 16 -31 35 3 8 19 15 35 16 28 1 30 -2 30 -34z m68 1 c-2 -49 -39 -60 -51
-15 -4 15 0 20 13 20 28 0 34 18 8 23 -20 4 -20 4 4 6 25 1 27 -2 26 -34z
m413 23 c0 -10 2 -10 6 0 8 20 23 14 23 -11 0 -20 -4 -23 -34 -19 -27 3 -33 7
-29 23 6 21 33 26 34 7z m69 0 l-25 -11 25 -8 25 -8 -25 2 c-15 1 -26 9 -28
20 -3 13 3 17 25 16 l28 0 -25 -11z m-50 -58 c0 -5 -9 -6 -20 -3 -11 3 -20 9
-20 13 0 5 9 6 20 3 11 -3 20 -9 20 -13z m-820 -209 c5 -11 10 -65 10 -120 l0
-101 -82 1 c-67 0 -79 2 -60 11 31 15 29 55 -3 70 -32 14 -29 44 3 40 29 -4
29 15 0 24 -13 4 -26 12 -30 18 -6 8 -10 8 -15 0 -5 -6 -18 -16 -31 -23 -29
-15 -26 -52 6 -66 12 -5 22 -18 22 -28 0 -15 -5 -18 -25 -13 -18 5 -25 2 -25
-8 0 -8 10 -17 23 -19 12 -2 -15 -5 -60 -6 l-83 -1 0 108 c0 71 4 112 12 120
8 8 60 12 170 12 145 0 158 -1 168 -19z m498 7 c8 -8 12 -49 12 -120 l0 -108
-35 0 c-25 0 -33 4 -29 14 3 8 1 17 -5 20 -6 4 -8 14 -5 24 5 14 4 14 -4 2 -6
-8 -8 -18 -6 -22 3 -4 0 -8 -5 -8 -10 0 -16 22 -12 43 1 5 -3 6 -9 2 -6 -3 -8
-11 -5 -16 4 -5 -1 -17 -10 -26 -13 -13 -14 -18 -3 -24 9 -6 7 -9 -9 -9 -17 0
-23 6 -24 23 -2 21 -2 21 -6 1 -3 -16 -11 -21 -31 -21 -15 0 -21 2 -14 4 15 6
16 33 2 33 -6 0 -10 6 -9 13 3 25 -1 38 -11 32 -6 -4 -8 -11 -5 -16 4 -5 2 -9
-4 -9 -5 0 -15 8 -20 18 -8 14 -11 9 -12 -23 -1 -22 -1 -43 0 -47 0 -5 -17 -8
-39 -8 l-40 0 0 113 c0 63 3 117 7 120 12 13 318 8 331 -5z m510 0 c8 -8 12
-49 12 -120 l0 -108 -87 0 -88 1 60 54 c33 30 56 55 51 55 -9 0 -119 -90 -124
-102 -2 -5 -40 -8 -85 -8 l-82 0 1 109 c1 60 5 114 9 120 9 16 317 15 333 -1z
m-1188 -118 c0 -5 -4 -10 -10 -10 -5 0 -10 5 -10 10 0 6 5 10 10 10 6 0 10 -4
10 -10z m42 -65 c0 -5 -5 -11 -11 -13 -6 -2 -11 4 -11 13 0 9 5 15 11 13 6 -2
11 -8 11 -13z m1493 -35 c3 -5 -1 -10 -10 -10 -9 0 -13 5 -10 10 3 6 8 10 10
10 2 0 7 -4 10 -10z m195 -125 c0 -19 -4 -35 -10 -35 -11 0 -14 53 -3 63 11
12 13 8 13 -28z m-1146 -18 c8 -6 8 -10 -1 -14 -7 -2 -13 -20 -13 -39 0 -21
-4 -33 -10 -29 -12 7 -14 108 -2 119 4 4 9 0 11 -11 2 -10 8 -22 15 -26z m254
16 c2 -16 10 -23 26 -23 17 0 22 6 22 23 -1 18 5 23 32 25 35 4 57 -23 31 -39
-11 -6 -8 -9 9 -9 12 0 22 -4 22 -10 0 -5 -7 -10 -15 -10 -11 0 -14 -7 -9 -24
4 -19 1 -26 -15 -31 -35 -11 -64 4 -59 30 6 28 -10 34 -92 36 -52 2 -53 2 -16
8 52 8 60 31 11 31 -23 0 -34 4 -30 11 4 5 23 9 43 7 30 -2 38 -8 40 -25z
m252 -20 c0 -47 -17 -57 -47 -28 -9 10 -23 13 -35 9 -15 -4 -19 -2 -14 7 3 8
9 22 12 32 7 18 24 24 24 7 0 -5 5 -10 10 -10 6 0 10 6 10 14 0 9 9 14 20 13
17 -1 20 -8 20 -44z m120 -18 c0 -30 -4 -57 -10 -60 -6 -4 -10 8 -10 29 0 19
-6 37 -12 40 -10 5 -10 7 0 12 6 3 12 15 12 25 0 11 5 17 10 14 6 -3 10 -30
10 -60z m-1401 29 c-10 -12 -3 -14 40 -14 28 0 51 -4 51 -10 0 -5 -22 -10 -50
-10 -51 0 -60 -6 -38 -28 7 -7 8 -12 2 -12 -6 0 -21 11 -34 25 l-23 25 23 25
c24 25 50 25 29 -1z m629 -5 c16 -20 19 -29 10 -29 -8 0 -19 5 -26 12 -9 9
-15 9 -24 0 -7 -7 -19 -12 -27 -12 -11 0 -9 5 7 16 12 8 22 22 22 30 0 21 12
16 38 -17z m102 -9 c0 -38 -2 -40 -30 -40 -28 0 -30 2 -30 40 0 38 2 40 30 40
28 0 30 -2 30 -40z m118 33 c-16 -2 -28 -9 -28 -14 0 -5 12 -10 28 -10 24 -2
23 -2 -8 -9 l-35 -7 33 -2 c17 0 32 -6 32 -12 0 -6 -16 -9 -37 -7 -35 3 -38 6
-41 36 -3 32 -3 32 40 31 30 -2 34 -3 16 -6z m502 -3 c0 -5 -10 -10 -22 -11
-22 0 -22 -1 2 -11 21 -9 22 -12 8 -15 -28 -7 -21 -23 10 -24 l27 0 -24 -10
c-38 -15 -51 -4 -51 41 0 36 2 40 25 40 14 0 25 -4 25 -10z m530 1 c0 -6 -4
-13 -10 -16 -19 -12 -10 -54 15 -71 23 -15 27 -15 51 1 23 15 26 21 20 57 -6
36 -5 40 9 28 21 -18 19 -66 -5 -90 -56 -56 -147 10 -110 81 11 20 30 26 30
10z m-852 -78 c3 -21 -1 -23 -42 -23 -38 0 -46 3 -46 18 0 27 10 33 50 30 28
-2 36 -8 38 -25z m192 3 c0 -9 13 -16 33 -19 28 -3 26 -4 -10 -5 -37 -2 -43 1
-43 18 0 11 5 20 10 20 6 0 10 -6 10 -14z m-560 -6 c0 -5 -25 -10 -55 -10 -30
0 -55 5 -55 10 0 6 25 10 55 10 30 0 55 -4 55 -10z m230 0 c0 -5 -25 -10 -55
-10 -30 0 -55 5 -55 10 0 6 25 10 55 10 30 0 55 -4 55 -10z m-150 -494 c6 -8
21 -16 33 -18 20 -3 22 -9 22 -63 l0 -60 -90 0 -90 0 0 60 c0 54 2 60 22 63
12 2 27 10 33 18 7 8 23 14 35 14 12 0 28 -6 35 -14z m-503 -18 c38 -35 29
-89 -18 -114 -35 -18 -74 -10 -94 19 -52 74 47 157 112 95z m1487 6 c7 -19 -2
-37 -15 -29 -12 8 -12 45 0 45 5 0 12 -7 15 -16z m-554 -49 l0 -55 67 0 c47 0
64 -3 56 -11 -5 -5 -38 -9 -74 -7 l-64 3 -3 63 c-2 38 1 62 8 62 6 0 10 -23
10 -55z m120 36 c0 -6 -12 -22 -26 -38 -24 -26 -26 -26 -36 -10 -9 18 -11 18
-30 0 -21 -18 -21 -18 -9 4 17 33 29 36 41 12 l12 -21 14 21 c9 12 12 26 9 31
-3 6 1 10 9 10 9 0 16 -4 16 -9z m510 -26 c0 -8 -4 -15 -10 -15 -5 0 -10 7
-10 15 0 8 5 15 10 15 6 0 10 -7 10 -15z m-23 -23 c2 -10 14 -22 26 -27 33
-15 29 -49 -6 -53 -16 -2 -34 1 -41 7 -9 7 -16 7 -23 0 -6 -6 -23 -9 -39 -7
-36 4 -40 38 -7 53 12 5 24 17 26 27 3 12 15 18 32 18 17 0 29 -6 32 -18z
m-1602 -200 c2 -22 -2 -32 -11 -32 -8 0 -14 5 -14 11 0 6 -7 8 -15 5 -9 -3
-18 1 -21 9 -10 25 2 41 31 40 24 -1 28 -6 30 -33z m73 3 c-1 -34 -18 -63 -18
-31 0 9 -5 16 -11 16 -6 0 -9 -7 -5 -15 3 -8 1 -15 -4 -15 -6 0 -10 11 -10 25
0 16 6 25 15 25 8 0 15 7 15 15 0 8 4 15 10 15 5 0 9 -16 8 -35z m422 5 c0 -3
-9 -6 -20 -7 -17 -1 -18 1 -8 17 9 14 14 16 20 7 4 -7 8 -14 8 -17z m17 -7
c-3 -10 -5 -4 -5 12 0 17 2 24 5 18 2 -7 2 -21 0 -30z m56 15 l4 -23 8 23 c10
30 24 10 17 -24 -3 -18 -8 -22 -17 -14 -6 5 -15 7 -19 3 -9 -9 -26 16 -26 40
0 25 28 21 33 -5z m447 5 c0 -15 2 -14 15 3 14 18 14 18 15 -8 0 -42 -10 -58
-37 -58 -18 0 -24 4 -20 15 4 8 2 17 -2 20 -14 8 -1 45 15 45 8 0 14 -8 14
-17z m78 10 c-10 -2 -18 -11 -18 -19 0 -8 5 -12 10 -9 12 7 40 -12 40 -26 0
-5 -16 -9 -36 -9 -29 0 -35 3 -30 16 3 9 6 24 6 35 0 13 7 19 23 18 16 -1 18
-2 5 -6z m467 -3 c4 -6 4 -24 0 -40 -5 -23 -12 -30 -31 -30 -14 0 -24 6 -24
14 0 8 -3 22 -7 32 -5 13 -3 15 7 9 10 -6 12 -4 7 8 -5 13 -1 17 18 17 13 0
27 -5 30 -10z m70 0 c-3 -5 -13 -10 -21 -10 -10 0 -5 -9 13 -25 l28 -24 -36
-1 c-35 0 -37 1 -34 33 2 17 3 33 4 35 1 1 13 2 27 2 14 0 23 -4 19 -10z
m-1130 -60 c19 -8 19 -9 -2 -9 -12 -1 -25 4 -28 9 -7 12 2 12 30 0z m-397
-392 l3 -58 -96 0 -95 0 0 53 c0 30 3 57 7 61 4 4 46 5 93 4 l85 -3 3 -57z
m476 40 c8 -13 16 -49 18 -80 l5 -58 -72 0 -72 0 5 58 c6 76 23 102 67 102 25
0 38 -6 49 -22z m523 -4 c21 -21 24 -32 20 -61 -7 -38 -32 -73 -54 -73 -7 0
-13 -4 -13 -10 0 -5 -9 -10 -20 -10 -11 0 -20 -4 -20 -9 0 -5 9 -11 20 -14 11
-3 20 -10 20 -17 0 -6 -5 -8 -11 -4 -7 4 -10 1 -7 -6 2 -8 19 -14 39 -14 38 1
50 -16 42 -59 -4 -20 -11 -27 -29 -27 -13 0 -28 8 -33 18 -10 16 -10 16 -11
-2 0 -15 -3 -16 -15 -6 -8 7 -24 10 -35 7 -23 -6 -39 12 -20 23 8 5 9 10 2 14
-6 3 -13 -2 -16 -11 -11 -33 -65 -83 -83 -76 -11 4 -14 3 -9 -5 5 -8 -4 -11
-29 -10 -34 1 -35 2 -36 42 -1 23 0 48 1 55 1 13 -1 13 -14 2 -9 -8 -16 -25
-15 -40 l1 -26 8 25 c7 23 8 23 9 3 1 -12 -3 -25 -9 -28 -5 -3 -10 -18 -10
-33 0 -15 -4 -32 -8 -37 -8 -12 -222 -18 -222 -6 0 11 53 39 85 44 38 6 85 28
85 39 0 5 12 26 26 48 20 29 32 39 45 35 14 -5 18 0 21 22 2 23 14 33 68 60
84 41 107 47 113 31 2 -7 2 -4 0 7 -16 81 -16 83 10 109 15 15 37 26 52 26 15
0 37 -11 52 -26z m431 -25 c-2 -6 -8 -10 -13 -10 -5 0 -11 4 -13 10 -2 6 4 11
13 11 9 0 15 -5 13 -11z m92 1 c0 -5 -7 -10 -15 -10 -8 0 -15 5 -15 10 0 6 7
10 15 10 8 0 15 -4 15 -10z m-13 -46 c3 -8 14 -14 25 -14 17 0 18 -3 8 -15
-14 -17 -56 -20 -66 -4 -4 8 -9 8 -17 0 -16 -16 -52 -14 -67 4 -10 12 -10 15
3 15 8 0 20 6 26 14 7 8 28 14 47 14 21 0 38 -6 41 -14z m-477 -54 c0 -11 -4
-20 -9 -20 -11 0 -22 26 -14 34 12 12 23 5 23 -14z m-45 -28 c12 -8 15 -53 3
-46 -4 3 -8 14 -8 24 0 10 -6 21 -12 23 -7 3 -8 6 -3 6 6 0 15 -3 20 -7z
m-1023 -85 c20 -30 7 -68 -20 -60 -24 6 -35 39 -21 65 13 24 24 23 41 -5z
m428 8 c6 4 10 -7 10 -29 0 -31 -3 -36 -24 -36 -19 0 -26 7 -31 30 -8 37 1 56
20 40 8 -7 19 -9 25 -5z m116 -27 c1 -23 -3 -39 -12 -42 -21 -8 -46 5 -40 20
3 7 0 15 -7 18 -7 2 -4 5 6 5 14 1 17 6 12 22 -6 17 -3 20 17 17 19 -2 23 -9
24 -40z m-659 2 c0 -16 -4 -27 -9 -24 -4 3 -8 16 -8 30 0 13 4 24 8 24 5 0 9
-13 9 -30z m49 -10 c2 -20 -2 -30 -11 -30 -21 0 -26 16 -15 46 12 32 23 25 26
-16z m384 25 c0 -8 5 -15 10 -15 6 0 10 7 10 15 0 8 5 15 10 15 15 0 12 -30
-6 -47 -14 -14 -16 -14 -29 3 -17 22 -19 44 -5 44 6 0 10 -7 10 -15z m154 -7
c-10 -36 -26 -58 -20 -28 3 14 6 31 6 38 0 6 5 12 11 12 6 0 8 -9 3 -22z m156
-14 c0 -24 -5 -34 -15 -34 -8 0 -15 5 -15 11 0 6 -9 9 -20 6 -21 -5 -27 7 -9
18 6 4 8 13 6 20 -4 8 5 12 24 13 27 1 29 -2 29 -34z m767 3 c1 -17 -3 -27
-11 -27 -15 0 -29 38 -20 52 11 17 29 2 31 -25z m25 15 c3 -9 1 -26 -3 -37 -6
-15 -8 -11 -8 18 -1 40 4 48 11 19z m48 4 c0 -8 -6 -17 -12 -19 -9 -4 -7 -6 3
-6 9 -1 21 9 26 22 10 20 11 18 10 -15 -1 -21 -5 -38 -9 -38 -4 0 -8 4 -8 9 0
5 -9 11 -19 14 -14 3 -18 11 -14 26 6 24 23 29 23 7z m105 -4 c7 -20 -5 -36
-17 -24 -6 6 -16 8 -23 6 -15 -6 -29 12 -21 25 9 13 55 8 61 -7z m70 -24 c-1
-12 -7 -24 -15 -26 -7 -3 -10 0 -6 6 3 6 2 13 -4 17 -5 3 -10 -1 -10 -9 0 -9
-4 -16 -10 -16 -5 0 -10 9 -10 20 0 13 7 20 20 20 12 0 20 7 20 18 0 12 2 14
8 4 5 -7 8 -22 7 -34z m-75 -24 c0 -2 -11 -4 -25 -4 -14 0 -25 4 -25 9 0 4 11
6 25 3 14 -2 25 -6 25 -8z m-810 -86 c0 -10 2 -10 9 0 6 10 10 10 19 -1 10
-11 6 -14 -18 -15 -20 0 -30 4 -30 14 0 8 5 14 10 14 6 0 10 -6 10 -12z m-112
-63 c3 -11 0 -15 -7 -10 -11 6 -8 -91 5 -140 5 -19 4 -19 -7 -2 -6 11 -13 55
-17 99 -4 66 -3 80 9 76 8 -3 16 -13 17 -23z m775 10 c20 -8 38 -18 40 -22 8
-13 -22 -75 -32 -69 -5 4 -11 0 -14 -6 -6 -15 -27 34 -34 80 -6 37 -7 37 40
17z m-901 -9 c16 -11 14 -15 -14 -39 -18 -16 -42 -27 -59 -27 -28 0 -29 2 -18
22 14 25 49 57 64 57 6 0 18 -5 27 -13z m-692 -291 c0 -29 -13 -45 -36 -45
-19 0 -26 7 -31 31 -4 19 -9 27 -15 21 -6 -6 -6 -18 1 -31 7 -12 8 -21 2 -21
-5 0 -12 8 -16 18 -7 16 -8 15 -15 -3 -7 -15 -9 -11 -9 20 -1 26 2 35 8 26 6
-10 10 -10 16 -1 4 6 13 9 19 7 7 -3 19 -1 26 3 17 11 50 -6 50 -25z m55 25
c3 -5 -2 -10 -11 -10 -16 0 -15 -2 2 -21 l19 -21 6 28 c3 19 10 28 20 25 8 -2
22 -4 32 -5 13 0 17 -8 16 -36 -1 -23 -3 -27 -6 -12 -5 27 -13 28 -39 5 -10
-10 -35 -19 -54 -20 -19 -1 -27 1 -17 3 21 7 22 20 2 28 -18 7 -20 32 -2 39
19 8 25 8 32 -3z m204 -32 c-1 -31 -1 -31 -8 -8 -5 14 -6 28 -4 33 9 15 13 6
12 -25z m56 -3 c0 -17 -6 -30 -15 -32 -12 -4 -12 -3 -1 5 11 8 10 11 -4 20
-12 6 -16 16 -12 27 10 26 32 12 32 -20z m50 25 c3 -5 1 -18 -4 -29 -8 -14 -8
-21 2 -24 6 -3 2 -6 -10 -6 -27 -1 -29 6 -6 31 15 17 15 20 3 28 -9 6 -10 10
-3 10 6 0 15 -4 18 -10z m38 3 c-18 -7 -16 -23 3 -23 23 0 13 -34 -11 -37 -16
-1 -16 -1 -2 3 21 7 22 13 0 29 -17 13 -10 36 10 34 9 0 9 -2 0 -6z m77 -3
c-13 -9 -13 -11 0 -20 11 -7 17 -4 22 10 9 25 24 25 38 1 19 -37 -10 -67 -38
-39 -9 9 -12 9 -12 0 0 -7 -8 -12 -17 -12 -16 0 -16 2 -3 10 13 9 13 12 -2 20
-20 12 -13 40 11 40 14 0 14 -2 1 -10z m1420 -25 c0 -19 -4 -35 -10 -35 -5 0
-10 16 -10 35 0 19 5 35 10 35 6 0 10 -16 10 -35z m30 -2 c0 -20 -3 -33 -7
-29 -9 9 -14 38 -8 54 8 23 15 12 15 -25z"/>
<path d="M3260 7940 c0 -5 7 -10 15 -10 8 0 15 5 15 10 0 6 -7 10 -15 10 -8 0
-15 -4 -15 -10z"/>
<path d="M3936 7732 c-3 -6 -1 -14 5 -17 15 -10 25 3 12 16 -7 7 -13 7 -17 1z"/>
<path d="M3315 7737 c-4 -10 -5 -21 -1 -24 10 -10 18 4 13 24 -4 17 -4 17 -12
0z"/>
<path d="M3640 7725 c0 -8 5 -15 10 -15 6 0 10 7 10 15 0 8 -4 15 -10 15 -5 0
-10 -7 -10 -15z"/>
<path d="M4140 7725 c-10 -13 -9 -15 8 -15 15 0 20 5 16 15 -4 8 -7 15 -9 15
-1 0 -8 -7 -15 -15z"/>
<path d="M4145 7690 c3 -5 8 -10 11 -10 2 0 4 5 4 10 0 6 -5 10 -11 10 -5 0
-7 -4 -4 -10z"/>
<path d="M4305 7690 c4 -6 11 -8 16 -5 14 9 11 15 -7 15 -8 0 -12 -5 -9 -10z"/>
<path d="M2580 7400 c0 -5 5 -10 10 -10 6 0 10 5 10 10 0 6 -4 10 -10 10 -5 0
-10 -4 -10 -10z"/>
<path d="M2695 7350 c3 -5 8 -10 11 -10 2 0 4 5 4 10 0 6 -5 10 -11 10 -5 0
-7 -4 -4 -10z"/>
<path d="M2603 7133 c-21 -8 -15 -20 14 -28 15 -3 33 -14 40 -23 12 -16 12
-16 13 1 0 9 4 17 9 17 17 0 18 -35 1 -64 -20 -37 -41 -46 -33 -14 5 19 3 21
-8 11 -17 -17 -39 -16 -39 1 0 7 -9 16 -20 19 -18 4 -20 2 -14 -16 9 -31 33
-47 69 -47 49 0 75 25 75 70 0 57 -55 95 -107 73z"/>
<path d="M3067 7087 c-31 -41 -33 -47 -12 -47 11 0 15 -12 15 -45 0 -41 2 -45
25 -45 23 0 25 4 25 45 0 25 5 45 10 45 17 0 11 23 -13 54 l-23 28 -27 -35z
m43 -6 c15 -29 13 -33 -12 -25 -30 9 -30 8 -22 28 8 21 21 20 34 -3z"/>
<path d="M3171 7078 c2 -26 -1 -43 -9 -46 -18 -6 -14 -24 13 -57 l25 -30 25
30 c28 34 32 55 10 55 -11 0 -15 12 -15 45 0 42 -2 45 -26 45 -24 0 -25 -3
-23 -42z"/>
<path d="M4145 7190 c-3 -6 1 -7 9 -4 18 7 21 14 7 14 -6 0 -13 -4 -16 -10z"/>
<path d="M4285 7187 c15 -12 17 -18 7 -29 -6 -8 -9 -18 -5 -21 3 -4 -13 -7
-37 -7 -54 0 -49 -5 13 -14 l48 -7 -3 43 c-2 34 -7 44 -23 46 -20 4 -20 4 0
-11z"/>
<path d="M3080 6796 c0 -9 5 -16 10 -16 6 0 10 4 10 9 0 6 -4 13 -10 16 -5 3
-10 -1 -10 -9z"/>
<path d="M2660 6491 c0 -5 -10 -11 -22 -13 -18 -2 -24 -11 -28 -38 -4 -31 -9
-35 -37 -38 -19 -2 -33 1 -33 7 0 18 -16 12 -17 -7 -1 -9 -3 -23 -5 -30 -2
-10 15 -14 67 -14 l70 -2 0 60 c0 44 4 59 14 59 8 0 16 -6 19 -12 2 -7 -4 -13
-15 -13 -15 0 -16 -2 -3 -10 16 -10 17 -13 19 -58 1 -25 5 -28 36 -29 l35 -1
0 64 0 64 -40 0 c-22 0 -40 5 -40 10 0 6 -4 10 -10 10 -5 0 -10 -4 -10 -9z"/>
<path d="M3188 6435 c-2 -25 0 -45 4 -45 5 0 8 20 8 45 0 25 -2 45 -4 45 -2 0
-6 -20 -8 -45z"/>
<path d="M3571 6481 c-17 -16 -31 -35 -31 -42 0 -8 8 -2 17 11 18 27 37 42 68
52 19 6 19 6 -1 7 -12 1 -36 -12 -53 -28z"/>
<path d="M3720 6479 c19 -19 37 -33 39 -32 7 4 -32 44 -54 56 -11 5 -4 -5 15
-24z"/>
<path d="M3540 6381 c0 -6 5 -21 11 -35 10 -21 15 -23 35 -14 31 15 31 27 -1
20 -18 -3 -25 0 -25 11 0 9 -4 19 -10 22 -5 3 -10 2 -10 -4z"/>
<path d="M3751 6368 c-1 -9 -8 -21 -17 -26 -11 -6 -13 -12 -6 -16 13 -8 35 30
28 47 -2 7 -5 4 -5 -5z"/>
<path d="M3185 6131 c-3 -5 -1 -12 5 -16 5 -3 10 1 10 9 0 18 -6 21 -15 7z"/>
<path d="M4100 6120 c0 -5 5 -10 10 -10 6 0 10 5 10 10 0 6 -4 10 -10 10 -5 0
-10 -4 -10 -10z"/>
<path d="M2603 5665 c21 -18 35 -24 50 -19 28 8 47 23 47 37 0 5 -8 3 -18 -6
-23 -21 -51 -21 -82 -1 -21 13 -21 12 3 -11z"/>
<path d="M2996 5673 c-3 -4 -6 -18 -6 -32 1 -25 1 -25 12 -6 6 11 15 23 20 26
6 3 3 9 -5 12 -8 3 -18 3 -21 0z"/>
<path d="M3165 5670 c-84 -8 -82 -11 8 -13 49 -2 67 1 67 10 0 7 -1 12 -2 11
-2 -1 -34 -4 -73 -8z"/>
<path d="M3260 5668 c0 -4 6 -8 14 -8 8 0 17 -12 19 -27 3 -24 4 -23 6 7 1 30
-2 36 -19 36 -11 0 -20 -4 -20 -8z"/>
<path d="M3107 5623 c-4 -3 -7 -15 -7 -25 0 -16 9 -18 85 -18 84 0 85 0 85 25
0 25 -1 25 -78 25 -43 0 -82 -3 -85 -7z"/>
<path d="M3626 5795 c-3 -8 -1 -15 4 -15 4 0 14 -17 20 -37 7 -21 17 -42 23
-48 7 -7 8 -4 2 10 -4 11 -14 39 -22 63 -17 47 -18 49 -27 27z"/>
<path d="M3607 5751 c-4 -17 -3 -21 5 -13 5 5 8 16 6 23 -3 8 -7 3 -11 -10z"/>
<path d="M3752 5730 c0 -19 2 -27 5 -17 2 9 2 25 0 35 -3 9 -5 1 -5 -18z"/>
<path d="M3591 5704 c0 -11 3 -14 6 -6 3 7 2 16 -1 19 -3 4 -6 -2 -5 -13z"/>
<path d="M3240 5430 c0 -5 5 -10 10 -10 6 0 10 5 10 10 0 6 -4 10 -10 10 -5 0
-10 -4 -10 -10z"/>
<path d="M3620 5446 c0 -9 5 -16 10 -16 6 0 10 4 10 9 0 6 -4 13 -10 16 -5 3
-10 -1 -10 -9z"/>
<path d="M3680 5440 c0 -5 5 -10 11 -10 5 0 7 5 4 10 -3 6 -8 10 -11 10 -2 0
-4 -4 -4 -10z"/>
<path d="M2598 5063 c7 -3 16 -2 19 1 4 3 -2 6 -13 5 -11 0 -14 -3 -6 -6z"/>
<path d="M2508 5003 c7 -3 16 -2 19 1 4 3 -2 6 -13 5 -11 0 -14 -3 -6 -6z"/>
<path d="M2595 5000 c4 -6 11 -8 16 -5 14 9 11 15 -7 15 -8 0 -12 -5 -9 -10z"/>
<path d="M2661 4701 c-25 -25 -27 -48 -5 -79 30 -43 94 -18 94 37 0 32 -23 57
-41 46 -6 -4 -15 -2 -19 5 -6 9 -13 7 -29 -9z m66 -30 c14 -22 8 -31 -23 -31
-27 0 -52 35 -31 43 25 11 42 7 54 -12z"/>
<path d="M3177 4822 c-9 -2 -15 -7 -12 -12 3 -4 -11 -34 -30 -66 -56 -96 -54
-94 -54 -42 -1 38 -4 46 -16 42 -11 -4 -15 0 -15 16 0 19 2 20 15 10 13 -11
15 -8 15 13 l0 26 -35 -20 -35 -21 26 -41 c14 -23 31 -54 36 -68 11 -25 104
-87 115 -76 16 16 101 172 97 179 -11 18 -91 63 -107 60z"/>
<path d="M3098 4813 c7 -3 16 -2 19 1 4 3 -2 6 -13 5 -11 0 -14 -3 -6 -6z"/>
<path d="M3630 4744 c-32 -52 -30 -51 -45 -31 -20 28 -24 5 -4 -27 l17 -29 26
52 c15 28 28 51 31 51 3 0 12 -17 21 -37 l16 -38 10 28 c10 29 23 35 31 15 6
-16 13 -9 22 22 7 22 6 23 -8 12 -12 -10 -16 -10 -20 0 -5 13 -16 4 -32 -27
-3 -6 -7 -6 -10 1 -3 6 -12 19 -19 29 -12 16 -15 14 -36 -21z"/>
<path d="M4014 4847 c-8 -5 -14 -23 -14 -42 l0 -33 66 -8 c52 -5 143 -3 242 6
1 0 2 18 2 40 0 38 -2 40 -32 42 -103 4 -251 2 -264 -5z m114 -31 c2 -10 -2
-23 -8 -30 -10 -8 -11 -5 -5 14 7 22 6 23 -8 12 -17 -14 -33 0 -22 19 10 16
39 6 43 -15z m35 -6 c3 -11 1 -20 -4 -20 -5 0 -9 9 -9 20 0 11 2 20 4 20 2 0
6 -9 9 -20z m57 3 c10 -16 11 -16 6 -1 -4 13 1 16 22 15 20 -2 27 -8 27 -22 0
-17 -7 -20 -43 -20 -46 0 -57 7 -48 30 7 20 23 19 36 -2z"/>
<path d="M2585 4460 c-3 -5 -1 -10 4 -10 6 0 11 5 11 10 0 6 -2 10 -4 10 -3 0
-8 -4 -11 -10z"/>
<path d="M2515 4410 c3 -5 8 -10 11 -10 2 0 4 5 4 10 0 6 -5 10 -11 10 -5 0
-7 -4 -4 -10z"/>
<path d="M3075 4440 c3 -5 8 -10 11 -10 2 0 4 5 4 10 0 6 -5 10 -11 10 -5 0
-7 -4 -4 -10z"/>
<path d="M3166 4421 c-4 -7 -5 -15 -2 -18 9 -9 19 4 14 18 -4 11 -6 11 -12 0z"/>
<path d="M3110 4120 c0 -11 4 -20 8 -20 4 0 8 9 8 20 0 11 -4 20 -8 20 -4 0
-8 -9 -8 -20z"/>
<path d="M3174 4125 c4 -24 16 -30 16 -7 0 12 -4 22 -9 22 -5 0 -8 -7 -7 -15z"/>
<path d="M3165 4040 c3 -5 8 -10 11 -10 2 0 4 5 4 10 0 6 -5 10 -11 10 -5 0
-7 -4 -4 -10z"/>
<path d="M3620 4040 c-19 -17 -30 -30 -24 -30 6 0 23 14 39 30 36 38 30 38
-15 0z"/>
<path d="M3535 3860 c-4 -6 3 -10 14 -10 25 0 27 6 6 13 -8 4 -17 2 -20 -3z"/>
<path d="M3530 3780 c0 -5 9 -10 20 -10 11 0 20 5 20 10 0 6 -9 10 -20 10 -11
0 -20 -4 -20 -10z"/>
<path d="M3665 3830 c3 -5 8 -10 11 -10 2 0 4 5 4 10 0 6 -5 10 -11 10 -5 0
-7 -4 -4 -10z"/>
<path d="M3130 3825 c0 -14 5 -25 10 -25 6 0 10 11 10 25 0 14 -4 25 -10 25
-5 0 -10 -11 -10 -25z"/>
<path d="M3405 3780 c3 -5 15 -10 26 -10 10 0 19 5 19 10 0 6 -12 10 -26 10
-14 0 -23 -4 -19 -10z"/>
<path d="M3133 3273 c9 -2 23 -2 30 0 6 3 -1 5 -18 5 -16 0 -22 -2 -12 -5z"/>
<path d="M3070 3226 c0 -15 7 -26 18 -29 16 -4 16 -5 0 -6 -10 0 -18 -8 -18
-16 0 -12 15 -15 75 -15 l75 0 0 45 0 45 -75 0 c-73 0 -75 -1 -75 -24z m103 6
c2 7 8 10 12 6 12 -12 0 -20 -34 -24 -17 -2 -33 2 -37 8 -4 6 -3 8 4 4 6 -3
14 -2 17 4 5 8 11 8 20 0 10 -8 14 -7 18 2z m22 -42 c-11 -5 -36 -8 -55 -8
l-35 1 40 7 c57 10 74 10 50 0z"/>
<path d="M2599 3266 c-45 -22 -29 -106 20 -106 30 0 61 30 61 59 0 44 -41 67
-81 47z m44 -35 c5 -1 7 -8 5 -18 -4 -19 -39 -27 -50 -10 -14 22 -8 34 15 31
12 -1 26 -3 30 -3z"/>
<path d="M4178 3203 c7 -3 16 -2 19 1 4 3 -2 6 -13 5 -11 0 -14 -3 -6 -6z"/>
<path d="M4120 3160 c0 -5 9 -10 20 -10 11 0 20 5 20 10 0 6 -9 10 -20 10 -11
0 -20 -4 -20 -10z"/>
<path d="M4210 3160 c0 -5 9 -10 20 -10 11 0 20 5 20 10 0 6 -9 10 -20 10 -11
0 -20 -4 -20 -10z"/>
<path d="M2560 3014 c0 -8 5 -12 10 -9 6 4 8 11 5 16 -9 14 -15 11 -15 -7z"/>
<path d="M3620 2995 c0 -9 6 -12 15 -9 8 4 12 10 9 15 -8 14 -24 10 -24 -6z"/>
<path d="M2552 2589 l3 -41 70 0 70 0 3 41 3 41 -76 0 -76 0 3 -41z m88 6 c10
-12 9 -15 -8 -15 -11 0 -22 7 -26 15 -3 9 0 15 8 15 7 0 19 -7 26 -15z"/>
<path d="M3116 2624 c-10 -10 -16 -33 -16 -64 l0 -48 45 0 45 0 0 48 c0 49
-17 80 -45 80 -7 0 -21 -7 -29 -16z m64 -64 c0 -15 -20 -22 -46 -16 -36 9 -29
24 11 24 19 0 35 -4 35 -8z"/>
<path d="M3627 2612 c-10 -10 -17 -31 -17 -46 0 -58 102 -61 108 -2 7 55 -56
87 -91 48z m48 -43 c0 -18 -5 -34 -11 -36 -7 -2 -10 10 -9 34 3 45 3 46 13 39
4 -2 8 -19 7 -37z"/>
<path d="M3600 2416 c0 -2 9 -6 20 -9 11 -3 20 -1 20 4 0 5 -9 9 -20 9 -11 0
-20 -2 -20 -4z"/>
<path d="M3661 2374 c0 -11 3 -14 6 -6 3 7 2 16 -1 19 -3 4 -6 -2 -5 -13z"/>
<path d="M3698 2343 c7 -3 16 -2 19 1 4 3 -2 6 -13 5 -11 0 -14 -3 -6 -6z"/>
<path d="M4200 2380 c0 -5 5 -10 10 -10 6 0 10 5 10 10 0 6 -4 10 -10 10 -5 0
-10 -4 -10 -10z"/>
<path d="M2460 1885 c0 -16 6 -25 15 -25 9 0 15 9 15 25 0 16 -6 25 -15 25 -9
0 -15 -9 -15 -25z"/>
<path d="M2590 1900 c0 -5 5 -10 10 -10 6 0 10 5 10 10 0 6 -4 10 -10 10 -5 0
-10 -4 -10 -10z"/>
<path d="M2800 1901 c0 -6 5 -13 10 -16 6 -3 10 1 10 9 0 9 -4 16 -10 16 -5 0
-10 -4 -10 -9z"/>
<path d="M3023 1894 c-3 -8 -1 -20 6 -27 8 -8 11 -4 11 16 0 30 -7 35 -17 11z"/>
<path d="M4307 4272 c-15 -15 -27 -33 -27 -38 0 -14 43 -54 58 -54 18 0 14 15
-8 35 l-20 18 20 22 c20 22 27 45 12 45 -5 0 -20 -13 -35 -28z"/>
<path d="M4377 4272 c-35 -36 -34 -44 5 -77 37 -32 52 -16 19 19 l-21 23 20
18 c20 18 27 45 12 45 -5 0 -20 -13 -35 -28z"/>
<path d="M4080 4090 c0 -5 5 -10 10 -10 6 0 10 5 10 10 0 6 -4 10 -10 10 -5 0
-10 -4 -10 -10z"/>
<path d="M4210 4090 c0 -5 5 -10 10 -10 6 0 10 5 10 10 0 6 -4 10 -10 10 -5 0
-10 -4 -10 -10z"/>
<path d="M4378 4093 c29 -2 74 -2 100 0 26 2 2 3 -53 3 -55 0 -76 -1 -47 -3z"/>
<path d="M1465 3491 c-6 -11 9 -23 19 -14 9 9 7 23 -3 23 -6 0 -12 -4 -16 -9z"/>
<path d="M1473 3420 c-23 -29 -31 -80 -13 -80 6 0 10 13 10 29 0 20 8 34 25
45 14 9 25 21 25 26 0 19 -25 9 -47 -20z"/>
<path d="M908 3413 c7 -3 16 -2 19 1 4 3 -2 6 -13 5 -11 0 -14 -3 -6 -6z"/>
<path d="M803 3403 c15 -2 39 -2 55 0 15 2 2 4 -28 4 -30 0 -43 -2 -27 -4z"/>
<path d="M942 3352 c-1 -35 2 -54 11 -56 36 -12 77 -14 77 -6 0 6 -18 10 -39
10 l-40 0 -4 53 -3 52 -2 -53z"/>
<path d="M874 3355 c-9 -20 -28 -42 -43 -50 -16 -9 -20 -14 -10 -15 20 0 65
48 72 78 8 32 0 27 -19 -13z"/>
<path d="M793 3353 c10 -3 14 -9 10 -16 -4 -7 2 -5 13 3 10 8 21 16 23 17 2 2
-11 2 -30 2 -19 -1 -26 -3 -16 -6z"/>
<path d="M1003 3353 c15 -2 39 -2 55 0 15 2 2 4 -28 4 -30 0 -43 -2 -27 -4z"/>
<path d="M1198 3353 c7 -3 16 -2 19 1 4 3 -2 6 -13 5 -11 0 -14 -3 -6 -6z"/>
<path d="M1540 3329 c0 -11 4 -18 10 -14 5 3 7 12 3 20 -7 21 -13 19 -13 -6z"/>
<path d="M1570 3322 c0 -22 4 -32 12 -30 18 6 20 22 3 43 -14 19 -14 18 -15
-13z"/>
<path d="M1262 3320 c0 -14 2 -19 5 -12 2 6 2 18 0 25 -3 6 -5 1 -5 -13z"/>
<path d="M1070 3292 c0 -4 16 -6 35 -4 19 2 35 6 35 8 0 2 -16 4 -35 4 -19 0
-35 -4 -35 -8z"/>
<path d="M1540 3269 c0 -40 6 -50 26 -42 19 7 17 23 -6 53 l-20 25 0 -36z"/>
<path d="M1178 3283 c6 -2 18 -2 25 0 6 3 1 5 -13 5 -14 0 -19 -2 -12 -5z"/>
<path d="M1620 3280 c0 -5 5 -10 10 -10 6 0 10 5 10 10 0 6 -4 10 -10 10 -5 0
-10 -4 -10 -10z"/>
<path d="M942 3245 c0 -16 2 -22 5 -12 2 9 2 23 0 30 -3 6 -5 -1 -5 -18z"/>
<path d="M840 3248 c0 -4 14 -8 32 -8 17 0 28 3 25 7 -10 9 -57 10 -57 1z"/>
<path d="M1437 3254 c-9 -10 2 -24 19 -24 8 0 14 7 14 15 0 15 -21 21 -33 9z"/>
<path d="M1528 3208 c-7 -17 8 -46 18 -35 4 4 3 17 -3 29 -7 17 -11 19 -15 6z"/>
<path d="M1576 3205 c-11 -8 -16 -21 -13 -30 4 -9 1 -15 -8 -15 -8 0 -15 -7
-15 -16 0 -14 -3 -14 -15 -4 -24 20 -17 -5 10 -34 24 -26 26 -26 49 -10 14 8
29 13 34 10 13 -8 22 28 12 44 -4 7 -13 9 -20 5 -8 -5 -9 3 -5 29 8 39 1 44
-29 21z"/>
<path d="M838 3193 c17 -2 47 -2 65 0 17 2 3 4 -33 4 -36 0 -50 -2 -32 -4z"/>
<path d="M750 3140 c0 -35 17 -40 29 -7 10 26 6 37 -15 37 -9 0 -14 -11 -14
-30z"/>
<path d="M1830 3059 c0 -5 10 -9 22 -9 12 0 18 3 14 7 -10 11 -36 12 -36 2z"/>
<path d="M1750 3052 c0 -16 27 -45 33 -35 3 5 -3 17 -14 26 -10 9 -19 13 -19
9z"/>
<path d="M904 3021 c3 -5 15 -7 26 -4 28 7 25 13 -6 13 -14 0 -23 -4 -20 -9z"/>
<path d="M1915 3010 c-7 -12 2 -30 16 -30 12 0 12 27 0 35 -5 3 -12 1 -16 -5z"/>
<path d="M1730 3000 c0 -5 5 -10 10 -10 6 0 10 5 10 10 0 6 -4 10 -10 10 -5 0
-10 -4 -10 -10z"/>
<path d="M532 2968 c-17 -17 -15 -42 7 -69 l20 -24 16 38 c12 30 13 42 4 53
-14 17 -31 18 -47 2z"/>
<path d="M1690 2959 c0 -5 5 -7 10 -4 6 3 10 8 10 11 0 2 -4 4 -10 4 -5 0 -10
-5 -10 -11z"/>
<path d="M1930 2928 c0 -11 5 -18 13 -16 18 7 20 35 2 35 -8 0 -15 -9 -15 -19z"/>
<path d="M1107 2903 c3 -10 15 -26 26 -37 12 -12 17 -27 14 -44 -6 -33 1 -52
20 -52 11 0 13 6 8 23 -4 12 -9 38 -10 57 -2 50 -14 70 -41 70 -18 0 -22 -4
-17 -17z"/>
<path d="M1970 2880 c0 -7 -7 -10 -15 -6 -20 7 -19 4 6 -25 11 -13 28 -24 36
-24 30 0 24 -22 -17 -64 -27 -27 -50 -41 -67 -41 -15 0 -24 -3 -20 -6 13 -14
80 9 109 36 33 32 38 61 17 106 -14 29 -49 46 -49 24z m30 -20 c0 -5 -5 -10
-11 -10 -5 0 -7 5 -4 10 3 6 8 10 11 10 2 0 4 -4 4 -10z"/>
<path d="M914 2796 c-3 -9 -3 -36 0 -61 8 -51 31 -61 46 -19 12 32 14 25 -15
64 -20 27 -26 30 -31 16z"/>
<path d="M1277 2774 c-7 -7 12 -75 25 -91 6 -7 17 -13 25 -13 13 0 13 3 3 16
-11 13 -10 16 8 21 24 6 30 33 8 33 -7 0 -25 9 -38 20 -14 10 -28 17 -31 14z"/>
<path d="M227 2734 c-9 -9 4 -35 14 -28 5 3 9 12 9 20 0 14 -12 19 -23 8z"/>
<path d="M180 2020 c0 -27 5 -50 10 -50 6 0 10 23 10 50 0 28 -4 50 -10 50 -5
0 -10 -22 -10 -50z"/>
<path d="M230 2051 c0 -12 5 -21 10 -21 20 0 10 -19 -12 -23 -13 -2 2 -4 32
-5 38 0 47 2 30 7 -23 7 -24 8 -6 17 11 7 16 18 13 30 -4 17 -5 17 -12 -3 -8
-25 -35 -32 -35 -9 0 8 -4 18 -10 21 -5 3 -10 -3 -10 -14z"/>
<path d="M340 2059 c0 -5 5 -9 12 -9 7 0 5 -7 -5 -17 -14 -17 -14 -18 8 -18
18 0 23 5 21 24 -3 22 -36 41 -36 20z"/>
<path d="M396 2054 c-3 -9 -2 -23 4 -32 7 -14 9 -10 10 16 0 35 -5 41 -14 16z"/>
<path d="M128 2053 c27 -5 28 -15 2 -38 -11 -10 -18 -20 -15 -23 9 -9 45 31
45 50 0 13 -7 18 -27 17 -24 -2 -25 -2 -5 -6z"/>
<path d="M440 2033 c0 -14 6 -23 15 -23 23 0 18 -18 -7 -23 -13 -2 2 -4 32 -4
30 0 45 2 33 4 -25 5 -31 19 -11 25 6 2 12 13 13 24 1 16 -5 19 -37 19 -33 0
-38 -3 -38 -22z m55 -3 c3 -5 -3 -10 -14 -10 -12 0 -21 5 -21 10 0 6 6 10 14
10 8 0 18 -4 21 -10z"/>
<path d="M363 1999 c-30 -11 -29 -27 1 -35 28 -7 46 1 46 21 0 18 -20 24 -47
14z m32 -19 c-3 -5 -13 -10 -21 -10 -8 0 -14 5 -14 10 0 6 9 10 21 10 11 0 17
-4 14 -10z"/>
<path d="M230 1976 c0 -12 9 -16 36 -16 22 0 33 4 29 11 -4 6 -14 8 -22 5 -9
-4 -22 -1 -29 5 -11 9 -14 8 -14 -5z"/>
<path d="M172 1780 c0 -19 2 -27 5 -17 2 9 2 25 0 35 -3 9 -5 1 -5 -18z"/>
<path d="M291 1784 c0 -11 3 -14 6 -6 3 7 2 16 -1 19 -3 4 -6 -2 -5 -13z"/>
<path d="M321 1784 c0 -11 3 -14 6 -6 3 7 2 16 -1 19 -3 4 -6 -2 -5 -13z"/>
<path d="M1080 1769 c0 -5 5 -7 10 -4 6 3 10 8 10 11 0 2 -4 4 -10 4 -5 0 -10
-5 -10 -11z"/>
<path d="M1120 1770 c0 -5 5 -10 10 -10 6 0 10 5 10 10 0 6 -4 10 -10 10 -5 0
-10 -4 -10 -10z"/>
<path d="M1210 1770 c0 -5 5 -10 10 -10 6 0 10 5 10 10 0 6 -4 10 -10 10 -5 0
-10 -4 -10 -10z"/>
<path d="M215 1750 c-3 -5 -1 -10 4 -10 6 0 11 5 11 10 0 6 -2 10 -4 10 -3 0
-8 -4 -11 -10z"/>
<path d="M405 1750 c-3 -5 -1 -10 4 -10 6 0 11 5 11 10 0 6 -2 10 -4 10 -3 0
-8 -4 -11 -10z"/>
<path d="M171 1594 c0 -11 3 -14 6 -6 3 7 2 16 -1 19 -3 4 -6 -2 -5 -13z"/>
<path d="M1160 1589 c0 -5 5 -7 10 -4 6 3 10 8 10 11 0 2 -4 4 -10 4 -5 0 -10
-5 -10 -11z"/>
<path d="M1200 1590 c0 -5 5 -10 10 -10 6 0 10 5 10 10 0 6 -4 10 -10 10 -5 0
-10 -4 -10 -10z"/>
<path d="M1290 1590 c0 -5 5 -10 10 -10 6 0 10 5 10 10 0 6 -4 10 -10 10 -5 0
-10 -4 -10 -10z"/>
<path d="M2400 1560 c-18 -11 -4 -40 20 -40 13 0 20 7 20 19 0 22 -21 33 -40
21z m30 -21 c0 -5 -7 -9 -15 -9 -15 0 -20 12 -9 23 8 8 24 -1 24 -14z"/>
<path d="M2450 1540 c0 -16 5 -30 10 -30 6 0 10 14 10 30 0 17 -4 30 -10 30
-5 0 -10 -13 -10 -30z"/>
<path d="M2510 1558 c0 -9 -6 -18 -12 -21 -7 -2 -11 -7 -8 -10 3 -3 14 1 24 9
16 11 17 17 8 26 -9 9 -12 8 -12 -4z"/>
<path d="M2549 1565 c-3 -5 -5 -27 -4 -47 1 -26 -3 -38 -12 -38 -16 0 -17 12
-1 28 9 9 8 12 -4 12 -21 0 -32 -31 -16 -42 20 -12 38 -10 44 6 7 18 1 94 -7
81z"/>
<path d="M2704 1558 c-3 -4 -2 -12 1 -18 3 -5 1 -10 -4 -10 -6 0 -11 7 -11 15
0 8 -4 15 -9 15 -4 0 -3 -18 3 -40 9 -36 14 -41 36 -38 22 3 25 9 28 43 3 36
0 41 -18 41 -12 0 -24 -4 -26 -8z m36 -39 c0 -5 -7 -9 -15 -9 -9 0 -12 6 -9
15 6 15 24 11 24 -6z"/>
<path d="M2828 1563 c34 -7 27 -31 -10 -36 -21 -2 -13 -4 22 -5 42 -1 51 1 38
9 -10 5 -18 17 -18 24 0 10 -10 15 -27 14 -24 -2 -25 -2 -5 -6z"/>
<path d="M2895 1561 c-3 -5 -1 -12 4 -16 7 -4 7 -15 0 -32 -7 -20 -6 -28 3
-35 34 -21 62 0 49 35 -7 17 -7 28 0 32 15 10 0 25 -26 25 -13 0 -26 -4 -30
-9z m45 -11 c0 -5 -7 -10 -15 -10 -8 0 -15 5 -15 10 0 6 7 10 15 10 8 0 15 -4
15 -10z m0 -62 c0 -5 -7 -8 -15 -8 -17 0 -18 2 -9 25 5 13 8 14 15 3 5 -7 9
-16 9 -20z"/>
<path d="M2986 1562 c-6 -10 -3 -33 8 -50 13 -21 34 4 28 33 -4 24 -25 34 -36
17z"/>
<path d="M3040 1536 c0 -20 2 -36 4 -36 8 0 12 61 4 66 -4 3 -8 -11 -8 -30z"/>
<path d="M3083 1555 c-3 -10 -1 -25 5 -35 8 -13 7 -21 -1 -29 -8 -8 -8 -11 1
-11 7 0 12 5 12 10 0 6 7 10 15 10 8 0 15 -4 15 -10 0 -5 4 -10 9 -10 5 0 7 8
4 19 -3 10 0 22 5 25 12 7 4 46 -9 46 -5 0 -9 -13 -9 -30 0 -16 -4 -30 -8 -30
-4 0 -8 12 -7 27 0 30 -22 43 -32 18z"/>
<path d="M2580 1530 c0 -23 4 -30 20 -30 11 0 20 -4 20 -8 0 -4 9 -8 20 -9 18
-2 20 3 18 38 -2 29 -7 39 -20 39 -13 0 -18 -8 -18 -25 0 -16 -6 -25 -15 -25
-18 0 -20 36 -2 43 7 3 5 6 -5 6 -13 1 -18 -7 -18 -29z m65 -20 c3 -5 1 -10
-4 -10 -6 0 -11 5 -11 10 0 6 2 10 4 10 3 0 8 -4 11 -10z"/>
<path d="M2800 1495 c0 -8 5 -15 10 -15 6 0 10 7 10 15 0 8 -4 15 -10 15 -5 0
-10 -7 -10 -15z"/>
<path d="M2850 1494 c0 -8 5 -12 10 -9 6 4 8 11 5 16 -9 14 -15 11 -15 -7z"/>
<path d="M2410 1490 c0 -5 5 -10 11 -10 5 0 7 5 4 10 -3 6 -8 10 -11 10 -2 0
-4 -4 -4 -10z"/>
<path d="M2390 1036 l0 -364 89 -1 c76 -1 91 2 106 19 17 19 17 21 0 40 -9 10
-22 18 -28 17 -6 -1 -12 7 -14 18 -3 17 -2 17 6 5 10 -13 12 -13 21 0 5 8 11
20 14 25 2 6 14 0 27 -13 21 -19 22 -25 11 -43 -16 -26 -13 -29 16 -18 19 7
21 12 13 28 -11 20 -5 31 16 31 15 0 18 -31 3 -46 -7 -7 -2 -18 16 -35 22 -21
37 -24 115 -27 l89 -4 0 366 0 366 -250 0 -250 0 0 -364z m225 254 c4 6 12 7
23 1 9 -5 25 -5 40 0 32 12 42 4 42 -37 0 -35 -16 -44 -38 -22 -10 10 -17 10
-34 -1 -19 -12 -23 -11 -40 10 l-19 24 7 -24 c5 -20 3 -23 -11 -18 -9 4 -19 7
-22 7 -3 0 0 7 7 15 7 8 10 21 7 29 -8 19 3 28 19 15 8 -7 14 -7 19 1z m43
-270 c3 -9 -2 -11 -17 -7 -11 3 -21 1 -21 -4 0 -12 27 -12 49 1 13 6 24 5 37
-5 16 -12 17 -17 7 -34 -15 -25 -17 -71 -3 -71 21 0 9 -47 -18 -73 l-28 -27
-33 30 c-29 27 -32 34 -26 68 5 29 2 42 -9 52 -18 14 -22 50 -6 50 6 0 10 8
10 18 0 10 3 21 6 25 9 9 47 -8 52 -23z m-62 -196 c-6 -16 -8 -16 -21 2 -14
19 -14 19 -28 0 -14 -19 -15 -19 -26 2 -13 24 -10 26 34 35 26 5 50 -17 41
-39z m180 27 c33 6 41 -5 24 -31 -9 -13 -12 -12 -22 4 -11 19 -11 19 -25 0
-12 -16 -15 -17 -23 -4 -13 21 7 55 25 40 7 -6 17 -10 21 -9z m-29 -74 c9 -18
7 -28 -7 -46 l-17 -24 -16 23 c-15 21 -14 25 1 46 21 29 26 30 39 1z m34 -24
c-8 -15 -10 -15 -11 -2 0 17 10 32 18 25 2 -3 -1 -13 -7 -23z"/>
<path d="M2620 1260 c0 -5 5 -10 10 -10 6 0 10 5 10 10 0 6 -4 10 -10 10 -5 0
-10 -4 -10 -10z"/>
<path d="M600 1280 c0 -5 5 -10 10 -10 6 0 10 5 10 10 0 6 -4 10 -10 10 -5 0
-10 -4 -10 -10z"/>
<path d="M635 1280 c3 -5 8 -10 11 -10 2 0 4 5 4 10 0 6 -5 10 -11 10 -5 0 -7
-4 -4 -10z"/>
<path d="M690 1279 c11 -8 12 -12 3 -16 -16 -6 -17 -33 -2 -33 5 0 8 4 4 9 -3
6 2 14 11 19 20 11 10 32 -14 32 -15 0 -15 -2 -2 -11z"/>
<path d="M738 1260 c-3 -16 -1 -35 4 -42 4 -8 8 4 8 30 0 49 -6 55 -12 12z"/>
<path d="M770 1260 c0 -25 4 -31 18 -28 11 2 17 12 17 28 0 16 -6 26 -17 28
-14 3 -18 -3 -18 -28z m30 -6 c0 -8 -4 -14 -10 -14 -5 0 -10 9 -10 21 0 11 5
17 10 14 6 -3 10 -13 10 -21z"/>
<path d="M833 1250 c0 -25 2 -35 4 -22 2 12 2 32 0 45 -2 12 -4 2 -4 -23z"/>
<path d="M860 1275 c0 -19 11 -24 43 -18 39 8 34 29 -8 30 -23 1 -35 -4 -35
-12z m30 -5 c0 -5 -4 -10 -10 -10 -5 0 -10 5 -10 10 0 6 5 10 10 10 6 0 10 -4
10 -10z"/>
<path d="M967 1270 c-20 -24 -23 -37 -3 -21 7 6 22 9 32 5 11 -3 15 -2 8 3 -6
4 -13 14 -15 21 -3 9 -9 6 -22 -8z"/>
<path d="M1030 1260 c0 -16 5 -30 10 -30 6 0 10 3 11 8 0 4 2 17 3 30 2 13 -3
22 -11 22 -8 0 -13 -12 -13 -30z"/>
<path d="M1088 1263 c-2 -18 -1 -38 2 -44 10 -15 18 33 10 57 -6 15 -8 13 -12
-13z"/>
<path d="M1790 1275 c0 -8 2 -15 4 -15 2 0 6 7 10 15 3 8 1 15 -4 15 -6 0 -10
-7 -10 -15z"/>
<path d="M1847 1283 c-14 -14 -6 -25 9 -12 13 10 17 10 24 -1 9 -15 3 -40 -10
-40 -5 0 -11 6 -13 13 -3 7 -6 5 -6 -5 -1 -23 28 -24 36 -2 6 15 7 15 19 -1
18 -24 44 -12 44 20 0 29 -27 45 -42 24 -7 -11 -11 -11 -15 -1 -5 13 -35 17
-46 5z m93 -28 c0 -26 -14 -33 -25 -15 -9 14 1 40 15 40 5 0 10 -11 10 -25z"/>
<path d="M1976 1275 c4 -8 2 -21 -2 -28 -5 -7 2 -1 14 13 l24 25 -4 -32 c-3
-21 0 -33 7 -33 7 0 12 16 13 35 1 32 -1 35 -28 35 -22 0 -28 -4 -24 -15z"/>
<path d="M162 1255 c0 -16 2 -22 5 -12 2 9 2 23 0 30 -3 6 -5 -1 -5 -18z"/>
<path d="M115 1260 c-3 -5 -1 -10 4 -10 6 0 11 5 11 10 0 6 -2 10 -4 10 -3 0
-8 -4 -11 -10z"/>
<path d="M600 1249 c0 -5 5 -7 10 -4 6 3 10 8 10 11 0 2 -4 4 -10 4 -5 0 -10
-5 -10 -11z"/>
<path d="M1530 1250 c-9 -6 -10 -10 -3 -10 6 0 15 5 18 10 8 12 4 12 -15 0z"/>
<path d="M1816 1245 c4 -10 0 -15 -12 -16 -12 0 -14 -3 -6 -6 15 -6 44 16 36
28 -9 15 -24 10 -18 -6z"/>
<path d="M871 1224 c0 -11 3 -14 6 -6 3 7 2 16 -1 19 -3 4 -6 -2 -5 -13z"/>
<path d="M906 1225 c4 -8 10 -12 15 -9 11 6 2 24 -11 24 -5 0 -7 -7 -4 -15z"/>
<path d="M3680 1103 c-20 -7 -40 -33 -40 -52 0 -12 3 -11 13 3 9 13 23 17 52
14 34 -3 40 -7 51 -38 9 -28 13 -32 19 -17 9 22 -12 75 -36 87 -19 11 -35 11
-59 3z"/>
<path d="M3137 1089 c-25 -15 -48 -65 -53 -116 -5 -50 7 -73 38 -73 18 0 18 2
4 22 -22 31 -20 80 5 112 29 37 59 31 82 -17 17 -37 17 -38 -8 -71 -40 -52
-27 -75 23 -40 16 11 22 25 22 52 0 47 -16 107 -33 120 -20 17 -61 23 -80 11z"/>
<path d="M4170 1089 c0 -6 -6 -9 -13 -6 -17 6 -42 -32 -29 -45 5 -5 14 -3 22
7 15 18 44 20 58 2 6 -7 15 -32 21 -55 9 -41 8 -44 -20 -64 -32 -24 -37 -38
-14 -38 8 0 15 -4 15 -9 0 -5 12 -11 28 -13 24 -4 25 -5 7 -12 -64 -26 -105
-53 -105 -69 0 -16 6 -14 39 12 51 40 62 40 50 -1 -12 -43 -11 -47 6 -24 8 11
15 27 15 37 0 9 7 22 15 29 12 10 12 5 -1 -35 -19 -55 -11 -72 10 -21 18 43
28 47 16 7 -6 -21 -4 -35 7 -50 13 -20 13 -21 -17 -21 -20 0 -29 -4 -24 -11 3
-6 1 -15 -6 -19 -8 -5 3 -10 29 -15 23 -4 45 -4 49 -1 9 10 15 122 8 161 -5
27 -13 36 -34 41 -15 3 -37 10 -49 16 -22 11 -22 11 -4 37 10 14 21 35 24 46
9 29 -9 97 -29 112 -22 16 -74 17 -74 2z"/>
<path d="M4117 1005 c-4 -8 -2 -17 3 -20 6 -4 10 3 10 14 0 25 -6 27 -13 6z"/>
<path d="M336 929 c-30 -24 -34 -58 -10 -94 16 -25 16 -25 -19 -25 -31 0 -35
-3 -39 -30 -4 -24 -1 -30 13 -30 10 0 21 -4 24 -10 12 -20 22 -9 31 31 8 38
12 42 42 44 45 4 62 21 62 66 0 28 -6 42 -22 53 -30 21 -50 20 -82 -5z m69
-42 c1 -15 -5 -33 -12 -39 -15 -12 -47 -3 -38 12 4 6 11 8 16 5 5 -4 9 -1 9 4
0 6 -6 11 -12 11 -9 0 -8 4 2 10 10 6 11 10 3 10 -7 0 -13 5 -13 11 0 6 10 9
23 7 17 -2 22 -10 22 -31z m-108 -109 c-3 -8 -6 -5 -6 6 -1 11 2 17 5 13 3 -3
4 -12 1 -19z"/>
<path d="M4180 939 c0 -5 5 -7 10 -4 6 3 10 8 10 11 0 2 -4 4 -10 4 -5 0 -10
-5 -10 -11z"/>
<path d="M3687 899 c8 -8 16 -8 30 0 16 9 14 10 -11 11 -22 0 -27 -3 -19 -11z"/>
<path d="M3742 887 c-11 -12 -30 -38 -42 -57 l-22 -35 7 37 c5 31 3 37 -10 32
-10 -4 -15 0 -15 11 0 13 -6 15 -32 10 -58 -12 -63 -14 -77 -46 -7 -17 -28
-50 -47 -75 -18 -24 -36 -55 -40 -69 -6 -25 -6 -25 64 -25 49 0 73 4 79 14 10
17 168 32 178 17 3 -6 -1 -11 -10 -11 -9 0 -13 -4 -10 -10 11 -19 64 -11 75
10 15 28 31 131 24 152 -3 9 -19 20 -35 23 -17 4 -39 15 -49 25 -18 18 -19 17
-38 -3z m-72 -109 c0 -10 -4 -18 -10 -18 -5 0 -10 15 -10 33 0 24 3 28 10 17
5 -8 10 -23 10 -32z m-106 -43 c3 -9 0 -15 -9 -15 -8 0 -15 7 -15 15 0 8 4 15
9 15 5 0 11 -7 15 -15z"/>
<path d="M810 881 c0 -5 7 -11 15 -15 11 -4 15 -22 15 -71 0 -42 4 -65 11 -65
8 0 10 19 5 65 -6 61 -5 66 15 74 16 6 19 10 10 16 -8 4 -17 2 -22 -6 -6 -11
-11 -11 -21 -1 -14 14 -28 16 -28 3z"/>
<path d="M4140 854 c0 -6 -10 -9 -24 -7 -42 8 -64 -12 -68 -62 -2 -25 0 -45 3
-45 11 0 29 27 22 33 -3 4 -2 7 4 7 5 0 15 11 21 25 10 21 17 24 37 19 14 -3
25 -2 25 2 0 14 -20 41 -20 28z"/>
<path d="M1376 821 c-6 -9 35 -24 43 -15 6 5 -18 24 -31 24 -4 0 -9 -4 -12 -9z"/>
<path d="M1435 800 c0 -33 9 -39 19 -13 4 9 1 22 -6 29 -11 11 -13 8 -13 -16z"/>
<path d="M2015 800 c-11 -12 -13 -20 -5 -25 6 -4 8 -16 4 -27 -5 -16 -2 -19
17 -16 12 2 23 10 25 18 1 8 5 22 8 30 4 9 -2 20 -13 27 -16 10 -22 9 -36 -7z"/>
<path d="M238 782 c-5 -32 0 -52 11 -52 4 0 8 18 9 40 2 46 -14 55 -20 12z"/>
<path d="M1375 780 c-3 -5 1 -10 10 -10 9 0 13 5 10 10 -3 6 -8 10 -10 10 -2
0 -7 -4 -10 -10z"/>
<path d="M3410 485 c0 -20 5 -25 25 -25 20 0 25 5 25 25 0 20 -5 25 -25 25
-20 0 -25 -5 -25 -25z"/>
<path d="M3851 484 c0 -11 3 -14 6 -6 3 7 2 16 -1 19 -3 4 -6 -2 -5 -13z"/>
<path d="M3877 481 c-4 -17 -3 -21 5 -13 5 5 8 16 6 23 -3 8 -7 3 -11 -10z"/>
<path d="M3921 484 c0 -11 3 -14 6 -6 3 7 2 16 -1 19 -3 4 -6 -2 -5 -13z"/>
<path d="M3947 481 c-4 -17 -3 -21 5 -13 5 5 8 16 6 23 -3 8 -7 3 -11 -10z"/>
<path d="M2843 382 l-563 -2 0 -190 0 -190 1125 0 1125 0 0 190 0 190 -267 1
c-148 0 -401 1 -563 2 -162 1 -548 1 -857 -1z m347 -159 c0 -18 -4 -33 -10
-33 -5 0 -10 15 -10 33 0 21 -8 41 -20 52 -19 17 -21 17 -40 0 -12 -11 -20
-31 -20 -52 0 -43 -18 -43 -22 0 -2 25 4 39 27 62 l30 30 33 -29 c24 -22 32
-38 32 -63z m-681 17 l0 -70 -29 0 -29 0 0 70 0 70 29 0 29 0 0 -70z m81 40
c0 -17 -5 -30 -12 -31 -10 0 -10 -2 0 -6 6 -2 12 -20 12 -39 0 -34 -1 -35 -32
-32 -26 2 -34 8 -36 26 -2 13 2 30 8 38 9 10 9 14 1 14 -12 0 -15 42 -4 53 3
4 19 7 35 7 24 0 28 -4 28 -30z m1156 -6 c0 -17 8 -41 17 -54 22 -32 13 -39
-13 -9 -12 14 -18 33 -15 45 5 24 -18 50 -35 39 -6 -4 -9 -19 -5 -35 4 -20 2
-29 -9 -33 -9 -4 -16 -13 -16 -22 0 -8 -4 -15 -10 -15 -14 0 -12 12 6 38 8 12
12 26 9 32 -12 20 15 51 43 48 23 -2 27 -8 28 -34z m564 21 c7 -8 19 -15 26
-15 10 0 14 -14 14 -47 0 -51 -13 -52 -14 0 -1 31 -2 32 -48 35 l-48 3 0 -40
c0 -23 -4 -41 -10 -41 -5 0 -10 20 -10 45 0 32 4 45 14 45 7 0 19 7 26 15 7 8
18 15 25 15 7 0 18 -7 25 -15z m-1166 -178 c-1 -9 2 -17 6 -17 5 0 6 -9 3 -20
-7 -26 -49 -27 -55 -2 -8 29 10 64 29 60 10 -2 17 -11 17 -21z m1068 -1 c5 -7
12 -5 20 7 16 21 48 13 48 -12 1 -14 2 -14 13 -1 7 9 22 16 35 17 17 1 22 -4
22 -23 0 -24 -14 -32 -25 -14 -9 15 -23 12 -42 -10 -21 -24 -41 -26 -49 -5 -4
8 -10 15 -15 15 -5 0 -9 -7 -9 -15 0 -9 -9 -15 -24 -15 -33 0 -44 49 -12 51
17 1 18 2 3 6 -9 2 -15 8 -12 13 7 11 37 1 47 -14z m207 -18 c0 -24 -3 -37 -6
-30 -2 6 -16 12 -29 12 -19 0 -24 5 -24 25 0 15 6 25 14 25 9 0 13 -7 11 -20
-6 -29 12 -25 19 5 10 38 16 30 15 -17z m-1969 5 c0 -21 -3 -22 -20 -13 -14 8
-20 8 -20 0 0 -6 10 -15 23 -20 21 -9 21 -9 -4 -9 -19 -1 -28 5 -32 19 -3 11
-1 23 5 26 6 4 5 10 -3 15 -8 5 -1 7 19 7 27 -1 32 -5 32 -25z m140 12 c0 -8
4 -15 10 -15 5 0 7 7 4 15 -4 8 -1 15 5 15 6 0 11 -4 11 -9 0 -5 9 -11 19 -14
14 -3 18 -11 14 -26 -4 -17 -8 -19 -19 -10 -11 9 -14 8 -14 -2 0 -8 -6 -5 -15
7 -13 17 -14 17 -15 2 0 -22 -1 -22 -36 -3 -26 13 -29 13 -32 0 -4 -18 -4 -18
-33 -2 -13 7 -25 21 -26 33 -2 18 4 20 62 22 51 1 65 -2 65 -13z m1058 1 c9
17 11 17 27 1 9 -10 21 -15 26 -12 11 8 11 3 -1 -29 -13 -34 -28 -33 -23 2 3
23 2 24 -6 7 -7 -14 -10 -15 -10 -5 -1 10 -4 11 -9 4 -4 -6 -15 -11 -24 -11
-13 0 -18 8 -18 31 1 29 2 30 14 13 14 -17 15 -17 24 -1z m122 7 c0 -1 -5 -14
-12 -28 -15 -34 -28 -32 -28 4 0 24 4 29 20 28 11 -1 20 -2 20 -4z m52 -18 c3
-13 3 -27 0 -30 -10 -10 -62 -5 -62 6 0 5 5 7 10 4 6 -4 10 5 10 19 0 35 36
36 42 1z m513 -35 c19 -8 19 -9 -2 -9 -12 -1 -25 4 -28 9 -7 12 2 12 30 0z"/>
<path d="M2460 280 c0 -13 7 -20 20 -20 13 0 20 7 20 20 0 13 -7 20 -20 20
-13 0 -20 -7 -20 -20z"/>
<path d="M2473 223 c-21 -7 -15 -33 7 -33 11 0 20 6 20 14 0 18 -11 25 -27 19z"/>
<path d="M2540 280 c0 -15 5 -20 18 -18 9 2 17 10 17 18 0 8 -8 16 -17 18 -13
2 -18 -3 -18 -18z"/>
<path d="M2553 223 c-21 -7 -15 -33 7 -33 11 0 20 6 20 14 0 18 -11 25 -27 19z"/>
<path d="M4280 290 c0 -5 5 -10 10 -10 6 0 10 5 10 10 0 6 -4 10 -10 10 -5 0
-10 -4 -10 -10z"/>
<path d="M0 190 l0 -190 1135 0 1135 0 0 190 0 190 -1135 0 -1135 0 0 -190z
m260 90 c0 -27 -3 -30 -30 -30 -27 0 -30 3 -30 30 0 27 3 30 30 30 27 0 30 -3
30 -30z m80 0 c0 -27 -3 -30 -30 -30 -18 0 -33 6 -36 15 -11 27 4 45 36 45 27
0 30 -3 30 -30z m1100 15 c7 -8 10 -25 7 -37 -4 -15 1 -30 14 -44 12 -13 18
-28 14 -35 -6 -8 -12 -4 -22 15 -7 14 -18 26 -24 26 -6 0 -7 13 -4 34 5 24 3
35 -8 39 -22 8 -40 -9 -34 -32 5 -21 -29 -90 -45 -91 -15 0 -8 27 11 44 12 11
16 25 13 41 -2 14 1 32 8 40 16 19 54 19 70 0z m565 -5 c3 -11 13 -20 21 -20
10 0 14 -13 14 -51 0 -31 -4 -48 -10 -44 -5 3 -10 22 -10 41 0 34 0 34 -45 34
l-45 0 0 -41 c0 -24 -4 -38 -10 -34 -5 3 -10 24 -10 47 0 31 4 41 19 45 11 3
21 13 24 24 7 25 44 25 52 -1z m-1133 -17 c29 -27 39 -85 18 -98 -6 -4 -10 9
-10 33 0 26 -7 45 -20 57 -19 17 -21 17 -40 0 -13 -12 -20 -31 -20 -57 0 -46
-16 -43 -22 4 -4 24 1 38 20 60 31 35 39 35 74 1z m-612 -68 c0 -32 -2 -35
-30 -35 -28 0 -30 3 -30 35 0 32 2 35 30 35 28 0 30 -3 30 -35z m80 -1 c0 -34
-1 -35 -32 -32 -54 5 -53 68 2 68 28 0 30 -3 30 -36z m-170 -76 c0 -10 2 -10
9 0 7 11 10 10 15 -3 9 -24 0 -33 -27 -28 -24 5 -33 43 -10 43 7 0 13 -6 13
-12z m60 0 c0 -9 3 -10 8 -2 4 6 28 11 55 11 41 1 47 -2 48 -21 l2 -21 4 21
c4 19 7 20 28 10 29 -13 36 -28 24 -47 -8 -12 -10 -12 -19 1 -9 13 -10 13 -10
0 0 -13 -1 -13 -11 0 -8 11 -12 12 -16 3 -6 -15 -33 -17 -33 -3 0 6 -9 10 -20
10 -11 0 -20 -4 -20 -10 0 -5 -7 -10 -15 -10 -8 0 -15 5 -15 11 0 7 -9 9 -21
6 -16 -4 -18 -3 -9 8 6 7 8 20 4 29 -3 9 -1 16 5 16 6 0 11 -6 11 -12z m632
-11 c7 -34 -1 -47 -28 -47 -20 0 -24 5 -24 28 0 33 7 42 31 42 9 0 19 -10 21
-23z m452 6 c6 -15 8 -15 19 1 12 16 14 16 26 2 7 -8 19 -12 27 -9 17 6 17 3
4 -31 -11 -30 -31 -35 -23 -6 3 11 0 20 -6 20 -6 0 -11 -4 -11 -10 0 -5 -13
-10 -30 -10 -27 0 -30 3 -30 30 0 32 14 40 24 13z m141 -4 c-3 -10 -1 -20 5
-24 6 -4 10 4 10 19 0 33 27 35 39 4 12 -31 -12 -50 -46 -37 -14 5 -29 7 -34
3 -5 -3 -9 8 -9 23 0 22 5 29 20 29 14 0 18 -5 15 -17z m445 6 c0 -8 4 -15 9
-15 5 0 11 7 15 15 7 20 33 19 45 -2 9 -15 12 -16 20 -4 5 7 13 11 19 7 6 -3
12 -2 14 3 1 5 15 7 30 4 19 -4 25 -10 23 -24 -6 -29 10 -23 22 9 l11 27 1
-36 1 -36 -57 13 c-76 18 -80 18 -86 -6 -3 -11 -13 -20 -22 -20 -9 0 -19 9
-22 20 -7 26 -19 26 -26 -1 -6 -24 -42 -23 -42 1 0 8 -4 18 -10 22 -5 4 1 8
14 8 24 0 24 0 5 15 -18 14 -18 14 9 15 17 0 27 -5 27 -15z m-1710 -51 c0 -2
-9 -4 -20 -4 -11 0 -20 4 -20 9 0 5 9 7 20 4 11 -3 20 -7 20 -9z m1850 -5 c0
-10 -12 -11 -34 -3 -9 3 -14 10 -11 14 6 10 45 1 45 -11z"/>
<path d="M210 280 c0 -13 7 -20 20 -20 13 0 20 7 20 20 0 13 -7 20 -20 20 -13
0 -20 -7 -20 -20z"/>
<path d="M290 281 c0 -15 6 -21 21 -21 14 0 19 5 17 17 -5 26 -38 29 -38 4z"/>
<path d="M1966 293 c-11 -11 -6 -23 9 -23 8 0 15 4 15 9 0 13 -16 22 -24 14z"/>
<path d="M217 224 c-14 -15 -6 -34 14 -34 14 0 19 5 17 17 -3 18 -20 27 -31
17z"/>
<path d="M297 224 c-14 -15 -6 -34 14 -34 14 0 19 5 17 17 -3 18 -20 27 -31
17z"/>
</g>
</svg>
