<?xml version="1.0" standalone="no"?>
<!DOCTYPE svg PUBLIC "-//W3C//DTD SVG 20010904//EN"
 "http://www.w3.org/TR/2001/REC-SVG-20010904/DTD/svg10.dtd">
<svg version="1.0" xmlns="http://www.w3.org/2000/svg"
 width="408.000000pt" height="449.000000pt" viewBox="0 0 408.000000 449.000000"
 preserveAspectRatio="xMidYMid meet">
<metadata>
Created by potrace 1.13, written by Peter Selinger 2001-2015
</metadata>
<g transform="translate(0.000000,449.000000) scale(0.100000,-0.100000)"
fill="#000000" stroke="none">
<path d="M0 4268 l0 -223 213 212 212 211 93 7 c51 4 151 4 223 0 l130 -7 210
-210 c116 -115 212 -208 214 -206 2 2 5 101 7 221 l3 217 -652 0 -653 0 0
-222z"/>
<path d="M1390 3845 c0 -357 4 -645 9 -645 4 0 10 129 13 288 3 212 8 293 18
312 12 23 14 24 21 5 5 -13 8 1 8 41 1 33 6 65 13 72 7 7 44 13 88 14 48 1 60
3 32 5 -32 3 -41 7 -34 16 5 7 15 28 21 49 11 32 21 47 75 110 8 9 20 26 26
38 6 12 14 19 17 16 4 -3 13 3 20 14 8 11 19 18 24 14 5 -3 8 0 7 6 -2 7 5 14
15 15 10 2 24 10 30 18 14 17 57 33 112 42 22 4 45 11 52 17 7 5 18 6 25 2 7
-5 40 -7 74 -5 63 3 164 -20 187 -44 7 -7 32 -22 56 -34 47 -25 121 -96 121
-118 0 -8 5 -11 10 -8 6 3 10 -1 10 -9 0 -9 9 -25 20 -36 11 -11 20 -30 20
-42 0 -12 7 -30 17 -40 15 -17 14 -18 -25 -18 -22 0 -44 -4 -47 -10 -3 -5 -1
-10 5 -10 6 0 18 -7 27 -15 12 -12 18 -13 29 -4 10 8 14 8 14 0 0 -6 -4 -11
-10 -11 -5 0 -10 -6 -10 -14 0 -8 -9 -21 -21 -29 -13 -9 -16 -17 -10 -22 6 -3
11 -11 11 -16 0 -6 -8 -3 -17 7 -16 16 -16 18 2 33 11 9 21 23 23 31 1 10 -3
8 -13 -5 -14 -17 -18 -18 -38 -6 -21 13 -22 13 -4 -6 22 -25 10 -39 -15 -16
-26 24 -22 8 6 -20 l23 -23 -25 -29 c-20 -23 -23 -25 -18 -8 4 13 2 22 -7 26
-9 3 -13 -2 -13 -17 1 -12 -5 -22 -14 -22 -8 -1 -19 -3 -25 -4 -5 -1 -13 -2
-17 -1 -4 0 -5 -6 -2 -14 5 -12 -1 -14 -25 -11 -26 3 -29 1 -20 -11 10 -11 14
-11 21 -1 7 10 9 10 5 -2 -2 -8 -12 -15 -22 -15 -11 0 -22 -11 -28 -28 -7 -23
-4 -38 17 -79 21 -40 24 -53 14 -60 -9 -5 -8 -8 6 -8 11 0 17 -3 14 -6 -4 -3
0 -21 8 -40 11 -27 11 -34 2 -34 -9 0 -10 -3 -2 -8 17 -11 15 -92 -3 -92 -10
0 -11 5 -5 18 11 20 -7 100 -38 170 -15 33 -24 43 -36 38 -13 -5 -15 -2 -11
14 3 11 3 20 0 20 -6 0 -93 -62 -93 -67 0 -6 44 18 63 35 15 14 17 14 17 0 0
-9 -7 -21 -15 -28 -8 -7 -15 -9 -15 -4 0 4 -6 -1 -14 -11 -7 -10 -11 -26 -9
-36 3 -9 -1 -20 -8 -24 -9 -6 -11 -2 -7 13 7 26 -7 39 -16 16 -4 -9 -13 -14
-21 -10 -15 5 -19 -8 -16 -45 1 -9 -5 -22 -14 -29 -12 -10 -15 -10 -15 2 0 8
5 19 12 26 9 9 9 12 0 12 -23 0 -12 29 19 50 16 12 27 25 24 28 -3 4 -9 2 -13
-3 -4 -6 -18 -17 -32 -26 -16 -11 -24 -25 -25 -44 0 -16 -6 -30 -14 -33 -10
-3 -13 2 -9 21 3 14 1 32 -3 39 -6 9 -9 7 -9 -7 0 -11 -9 -26 -20 -33 -17 -10
-20 -10 -20 5 0 9 -3 14 -6 10 -4 -3 -6 -24 -6 -47 1 -30 -4 -43 -19 -50 -16
-9 -19 -7 -19 8 0 10 6 24 13 31 10 11 10 13 0 7 -8 -5 -13 -1 -13 10 0 10 -3
14 -7 11 -3 -4 -6 -23 -5 -42 1 -19 -2 -35 -6 -35 -15 1 -41 27 -34 35 4 5 2
5 -4 2 -6 -4 -9 -19 -6 -33 4 -21 2 -25 -9 -19 -11 6 -12 5 -1 -6 6 -7 12 -19
12 -27 0 -12 -5 -11 -26 3 -14 9 -28 14 -32 11 -3 -3 0 -6 6 -6 7 0 12 -7 12
-15 0 -19 -9 -19 -34 0 -29 22 -45 19 -40 -7 2 -13 2 -17 -2 -10 -3 6 -10 12
-15 12 -6 0 -7 -4 -4 -10 3 -5 -6 -12 -20 -16 -14 -3 -22 -11 -18 -17 4 -6 0
-8 -9 -5 -8 4 -21 -2 -28 -13 -10 -13 -17 -15 -27 -7 -7 6 -13 6 -13 1 0 -10
-1 -11 -73 -14 -28 -1 -45 -5 -40 -10 5 -5 258 -8 573 -7 529 3 565 4 568 21
3 14 -4 17 -51 17 -40 0 -58 5 -71 18 -15 18 -14 19 20 20 49 2 50 4 53 58 1
22 3 25 16 14 10 -8 15 -9 15 -2 0 6 -8 15 -17 21 -15 8 -15 11 -3 27 8 10 10
15 4 11 -8 -4 -14 6 -18 28 -7 35 -7 35 -60 35 -52 0 -53 0 -52 -30 1 -26 5
-30 41 -36 22 -4 43 -7 48 -6 4 1 7 -5 7 -13 0 -8 -4 -15 -10 -15 -5 0 -10 -5
-10 -11 0 -5 5 -7 10 -4 6 3 10 1 10 -4 0 -6 -9 -11 -19 -11 -14 0 -18 5 -14
20 6 23 -9 27 -26 6 -9 -11 -9 -15 1 -19 7 -3 -6 -6 -29 -6 -29 -1 -42 3 -40
12 1 8 -12 13 -38 14 -22 1 -33 -1 -25 -5 19 -9 26 -62 8 -62 -28 0 17 -20 47
-20 23 0 27 -3 15 -10 -13 -8 -12 -10 3 -10 9 0 17 5 17 10 0 6 5 10 10 10 7
0 7 -6 1 -18 -7 -13 -24 -18 -73 -20 l-63 -3 -2 145 -2 146 149 0 c136 0 150
2 150 18 1 36 11 168 16 198 2 18 10 31 19 31 13 0 15 -29 15 -189 0 -103 3
-188 8 -188 21 1 32 20 30 58 -1 23 -5 42 -10 42 -5 0 -6 6 -1 13 4 6 8 231 8
499 l0 488 -657 0 -658 0 0 -645z"/>
<path d="M2760 4390 l0 -100 660 0 660 0 0 100 0 100 -660 0 -660 0 0 -100z"/>
<path d="M0 3137 l0 -837 655 2 655 3 0 829 c0 456 -2 832 -5 834 -2 3 -297 5
-655 6 l-650 1 0 -838z m420 534 c15 -29 13 -116 -4 -130 -9 -7 -40 -11 -78
-9 l-63 3 -3 69 c-4 82 0 86 80 86 47 0 59 -4 68 -19z m198 10 c9 -5 12 -28
10 -77 l-3 -69 -70 0 -70 0 -3 69 c-3 81 1 86 73 86 28 0 56 -4 63 -9z m210 0
c9 -5 12 -28 10 -77 l-3 -69 -69 -3 c-49 -2 -72 1 -77 10 -15 23 -10 115 7
132 17 17 109 22 132 7z m211 -5 c7 -9 11 -40 9 -78 l-3 -63 -75 0 -75 0 -3
65 c-2 52 0 67 14 77 24 18 118 17 133 -1z"/>
<path d="M2900 3828 c-1 -2 -2 -94 -4 -205 -2 -141 0 -206 8 -212 19 -16 66
-24 66 -12 0 6 19 11 45 11 25 0 45 -4 45 -10 0 -19 28 -10 41 13 11 17 13 66
11 220 l-2 197 -34 0 c-18 0 -36 -3 -40 -7 -11 -11 -75 -31 -81 -25 -10 10 -5
21 13 25 9 3 -2 5 -25 6 -24 0 -43 0 -43 -1z"/>
<path d="M3808 3703 c-21 -2 -38 -8 -38 -12 0 -4 -16 -16 -35 -27 -29 -15 -35
-24 -35 -51 l0 -33 115 0 c129 0 121 -6 109 84 -7 51 -6 50 -116 39z"/>
<path d="M1604 3121 c-2 -2 -4 -28 -4 -58 0 -35 4 -53 13 -54 6 -1 201 -1 432
0 231 1 426 1 433 1 8 0 12 18 12 55 0 37 -4 55 -12 55 -7 0 -206 1 -441 2
-236 2 -431 1 -433 -1z"/>
<path d="M1792 2738 l3 -63 253 -3 253 -2 -3 62 -3 63 -253 3 -253 2 3 -62z"/>
<path d="M1400 2430 l0 -120 644 0 c355 0 647 3 649 8 2 4 2 50 -2 104 l-6 96
-39 -19 c-22 -10 -50 -19 -63 -19 -13 0 -23 -4 -23 -10 0 -5 -13 -10 -29 -10
-17 0 -33 -5 -36 -10 -5 -8 -11 -8 -20 0 -15 13 -305 11 -305 -2 0 -5 -6 -6
-12 -1 -22 13 -51 14 -59 1 -7 -10 -11 -10 -21 0 -16 16 -48 16 -48 0 0 -10
-3 -9 -9 1 -6 9 -10 10 -16 2 -4 -8 -11 -9 -18 -3 -7 5 -95 9 -197 8 -157 -1
-185 -3 -185 -16 0 -9 13 -17 35 -21 31 -6 32 -7 7 -8 -15 0 -38 6 -51 14 -13
9 -28 15 -32 14 -27 -6 -75 19 -116 62 l-48 49 0 -120z"/>
<path d="M0 2140 l0 -100 665 0 665 0 0 100 0 100 -665 0 -665 0 0 -100z"/>
<path d="M2732 2139 l3 -100 673 -2 672 -2 0 103 0 102 -675 0 -676 0 3 -101z"/>
<path d="M1390 2125 l0 -95 654 0 655 0 3 95 3 95 -657 0 -658 0 0 -95z"/>
<path d="M1434 1816 c-3 -8 -4 -25 -2 -38 3 -23 5 -23 141 -26 l137 -3 0 25
c0 13 3 31 6 40 5 12 0 16 -19 16 -14 0 -28 -7 -31 -16 -4 -10 -14 -14 -26
-11 -11 3 -22 1 -25 -3 -7 -11 -109 0 -113 12 -2 5 -10 4 -18 -3 -11 -9 -14
-8 -14 5 0 20 -29 21 -36 2z"/>
<path d="M1432 1583 l3 -38 136 -3 137 -3 4 41 c3 36 1 40 -19 40 -13 0 -22
-5 -20 -12 1 -10 -20 -13 -80 -13 -67 0 -83 3 -83 15 0 13 -1 13 -11 0 -8 -11
-12 -12 -16 -2 -2 6 -16 12 -29 12 -23 0 -25 -3 -22 -37z"/>
<path d="M1675 1400 c-7 -23 -65 -25 -65 -3 0 12 -3 12 -16 -1 -18 -19 -64
-21 -64 -3 0 9 -2 9 -9 -1 -12 -19 -15 -19 -35 1 -28 28 -51 18 -51 -23 l0
-35 136 -3 137 -3 4 40 c3 31 0 41 -14 44 -11 3 -20 -2 -23 -13z"/>
<path d="M406 794 c-3 -8 -6 -31 -6 -49 0 -68 -14 -65 262 -65 l249 0 -3 63
-3 62 -246 3 c-218 2 -247 1 -253 -14z"/>
<path d="M2070 530 l0 -60 273 2 272 3 3 24 c2 13 1 39 -3 57 l-6 34 -269 0
-270 0 0 -60z"/>
<path d="M277 493 c-4 -3 -7 -34 -7 -69 0 -47 4 -63 16 -68 9 -3 181 -6 383
-6 272 0 370 3 379 12 16 16 16 110 0 126 -9 9 -109 12 -388 12 -207 0 -380
-3 -383 -7z"/>
</g>
</svg>
