<?xml version="1.0" standalone="no"?>
<!DOCTYPE svg PUBLIC "-//W3C//DTD SVG 20010904//EN"
 "http://www.w3.org/TR/2001/REC-SVG-20010904/DTD/svg10.dtd">
<svg version="1.0" xmlns="http://www.w3.org/2000/svg"
 width="514.000000pt" height="487.000000pt" viewBox="0 0 514.000000 487.000000"
 preserveAspectRatio="xMidYMid meet">
<metadata>
Created by potrace 1.13, written by Peter Selinger 2001-2015
</metadata>
<g transform="translate(0.000000,487.000000) scale(0.100000,-0.100000)"
fill="#000000" stroke="none">
<path d="M0 4080 l0 -790 1250 0 1250 0 0 790 0 790 -1250 0 -1250 0 0 -790z
m1761 213 c0 -38 2 -99 5 -138 3 -38 2 -139 -2 -222 l-6 -153 -504 0 -504 0 0
290 0 290 505 0 505 0 1 -67z"/>
<path d="M1490 4083 l0 -73 70 0 70 0 0 73 0 72 -70 0 -70 0 0 -72z"/>
<path d="M2590 4815 l0 -55 1275 0 1275 0 0 55 0 55 -1275 0 -1275 0 0 -55z"/>
<path d="M3588 4192 c-44 -14 -47 -18 -41 -41 9 -39 12 -41 40 -30 18 6 30 6
39 -2 8 -7 17 -9 21 -5 3 3 1 6 -6 6 -7 0 -10 4 -7 9 3 4 16 7 28 6 13 -1 33
-3 46 -4 32 -2 27 -18 -8 -23 -22 -3 -30 -1 -31 11 0 11 -3 10 -11 -5 -5 -12
-27 -27 -48 -33 -38 -11 -38 -11 -27 -46 12 -39 26 -43 81 -20 24 10 36 22 36
35 0 16 7 20 30 20 29 0 30 1 26 38 -2 23 -9 36 -16 34 -33 -8 -69 10 -79 39
-11 33 -9 33 -73 11z"/>
<path d="M4370 4101 l0 -101 40 0 40 0 0 75 c0 47 4 75 11 75 6 0 9 10 7 23
-3 19 -10 22 -50 25 l-48 3 0 -100z"/>
<path d="M4740 4110 l0 -60 105 0 105 0 0 60 0 60 -105 0 -105 0 0 -60z"/>
<path d="M2670 3774 l0 -207 -40 6 c-46 6 -53 -10 -19 -44 45 -45 74 -49 204
-27 66 11 127 20 135 19 90 -8 110 -9 110 -1 0 11 -57 23 -70 15 -6 -4 -17 -1
-25 5 -12 10 -15 48 -15 200 l0 187 -87 18 c-49 9 -101 21 -117 26 -16 5 -40
9 -52 9 l-24 0 0 -206z m170 148 l85 -18 3 -170 2 -171 -82 -11 c-46 -7 -95
-12 -110 -12 l-28 0 0 164 0 164 30 6 c27 5 30 8 20 26 -6 11 -17 20 -25 20
-7 0 -17 5 -20 10 -9 14 27 12 125 -8z"/>
<path d="M2590 3335 l0 -45 1275 0 1275 0 0 45 0 45 -1275 0 -1275 0 0 -45z"/>
<path d="M0 2455 l0 -785 1255 0 1255 0 0 85 0 85 -437 0 c-241 0 -700 0
-1020 0 l-583 0 0 645 0 645 648 0 c356 0 815 0 1020 0 l372 0 0 55 0 55
-1255 0 -1255 0 0 -785z"/>
<path d="M2580 2455 l0 -785 1270 0 1270 0 0 85 0 85 -322 0 c-178 0 -641 0
-1030 0 l-708 0 0 644 0 645 100 -1 c86 0 100 -3 100 -17 1 -14 2 -14 14 2 11
15 31 17 138 17 80 0 128 -4 136 -12 8 -8 15 -8 28 3 16 13 16 12 5 -8 -12
-24 -6 -29 18 -14 7 5 11 13 8 17 -3 5 5 9 18 9 19 0 21 -3 12 -14 -9 -11 -7
-12 8 -9 11 2 19 10 18 16 -4 15 14 16 19 1 2 -7 12 -7 32 1 37 14 244 12 253
-3 3 -6 1 -7 -5 -3 -7 4 -12 3 -12 -3 0 -21 22 -22 27 -2 5 21 10 22 153 20
119 -2 147 -5 143 -16 -7 -17 8 -17 33 2 29 22 409 22 418 0 7 -19 26 -20 26
-1 0 11 12 14 49 13 l50 -2 -20 -21 c-28 -30 -23 -38 11 -17 17 10 28 23 26
30 -4 10 23 13 124 13 l130 0 0 55 0 55 -1270 0 -1270 0 0 -785z"/>
<path d="M4170 1950 c0 -6 -50 -10 -129 -10 -71 0 -136 -3 -145 -6 -20 -8 -21
-47 -2 -63 15 -13 406 -15 405 -3 -3 20 2 32 12 27 6 -4 8 -13 5 -20 -3 -9 2
-11 15 -8 33 9 35 25 3 23 -3 -1 -13 9 -22 20 -17 21 -95 45 -113 35 -5 -4 -9
-1 -9 4 0 6 -4 11 -10 11 -5 0 -10 -4 -10 -10z"/>
<path d="M1296 1924 c-9 -8 -16 -19 -16 -24 0 -5 7 -16 16 -24 13 -13 45 -16
190 -16 179 0 214 6 214 38 0 38 -18 42 -206 42 -153 0 -185 -3 -198 -16z"/>
<path d="M2600 810 l0 -780 1250 0 1250 0 0 45 0 45 -1015 0 -1015 0 0 680 0
680 1015 0 1015 0 0 55 0 55 -1250 0 -1250 0 0 -780z"/>
<path d="M0 785 l0 -785 1250 0 1250 0 0 45 0 45 -1015 0 -1015 0 0 685 0 685
1015 0 1015 0 0 55 0 55 -1250 0 -1250 0 0 -785z"/>
</g>
</svg>
