<?xml version="1.0" standalone="no"?>
<!DOCTYPE svg PUBLIC "-//W3C//DTD SVG 20010904//EN"
 "http://www.w3.org/TR/2001/REC-SVG-20010904/DTD/svg10.dtd">
<svg version="1.0" xmlns="http://www.w3.org/2000/svg"
 width="268.000000pt" height="440.000000pt" viewBox="0 0 268.000000 440.000000"
 preserveAspectRatio="xMidYMid meet">
<metadata>
Created by potrace 1.13, written by Peter Selinger 2001-2015
</metadata>
<g transform="translate(0.000000,440.000000) scale(0.100000,-0.100000)"
fill="#000000" stroke="none">
<path d="M1380 3320 l0 -1080 650 0 650 0 0 1080 0 1080 -650 0 -650 0 0
-1080z m1040 -795 l0 -65 -390 0 -390 0 0 65 0 65 390 0 390 0 0 -65z"/>
<path d="M2 4283 l3 -108 643 -3 642 -2 0 110 0 110 -645 0 -646 0 3 -107z"/>
<path d="M0 3085 l0 -845 645 0 645 0 0 845 0 845 -645 0 -645 0 0 -845z"/>
<path d="M1380 1090 l0 -1080 645 0 645 0 0 1080 0 1080 -645 0 -645 0 0
-1080z m1240 -210 l0 -110 -590 0 -590 0 0 110 0 110 590 0 590 0 0 -110z"/>
<path d="M0 2055 l0 -105 635 0 635 1 0 104 0 105 -635 0 -635 0 0 -105z"/>
</g>
</svg>
