<?xml version="1.0" standalone="no"?>
<!DOCTYPE svg PUBLIC "-//W3C//DTD SVG 20010904//EN"
 "http://www.w3.org/TR/2001/REC-SVG-20010904/DTD/svg10.dtd">
<svg version="1.0" xmlns="http://www.w3.org/2000/svg"
 width="750.000000pt" height="478.000000pt" viewBox="0 0 750.000000 478.000000"
 preserveAspectRatio="xMidYMid meet">
<metadata>
Created by potrace 1.13, written by Peter Selinger 2001-2015
</metadata>
<g transform="translate(0.000000,478.000000) scale(0.100000,-0.100000)"
fill="#000000" stroke="none">
<path d="M3741 4733 c1 -38 3 -43 8 -23 8 27 15 27 67 5 24 -10 32 -19 28 -29
-4 -10 -1 -16 7 -16 8 -1 28 -7 44 -16 28 -13 26 -14 -46 -9 -42 2 -83 7 -93
11 -15 6 -16 -36 -16 -527 0 -328 -4 -540 -10 -549 -9 -13 -10 -13 -10 0 -1
12 -3 12 -14 -2 -10 -13 -28 -17 -77 -17 -35 0 -104 -10 -154 -21 -49 -12
-101 -23 -115 -25 -14 -2 -42 -8 -63 -14 -37 -9 -38 -8 -52 26 -8 20 -15 38
-15 41 0 14 -79 106 -105 122 -49 29 -141 35 -195 12 -47 -20 -123 -95 -152
-151 -10 -18 -22 -29 -28 -26 -13 8 -26 -25 -14 -34 5 -3 9 -42 9 -86 0 -69 3
-85 25 -115 l25 -35 3 28 c3 25 17 33 46 28 14 -3 36 21 36 40 0 10 8 24 18
31 10 7 36 39 57 71 21 31 41 57 45 57 16 0 100 -100 106 -127 24 -109 26
-111 54 -93 10 6 11 10 3 10 -8 0 -13 13 -13 33 0 25 6 36 28 49 50 29 66 1
38 -67 -10 -22 -22 -35 -34 -35 -26 0 -41 -34 -47 -111 -4 -54 -3 -68 10 -73
8 -3 15 -15 15 -26 0 -21 -12 -39 -125 -193 -34 -45 -75 -105 -94 -134 -34
-54 -45 -63 -73 -55 -19 5 -18 23 9 97 8 22 20 62 27 89 6 26 19 53 28 60 18
13 32 68 23 95 -3 10 -14 21 -25 24 -10 3 -27 18 -37 34 -28 46 -70 93 -83 93
-7 0 -10 7 -6 15 5 15 -5 19 -33 15 -9 -1 -12 4 -7 15 4 12 0 18 -13 22 -23 6
-34 42 -19 60 8 10 5 13 -15 13 -14 0 -29 -4 -32 -10 -3 -5 -15 -10 -26 -10
-11 0 -17 5 -14 10 8 13 -16 13 -49 0 -22 -8 -26 -16 -26 -48 0 -20 -7 -47
-15 -60 -15 -20 -14 -26 14 -79 25 -47 28 -60 18 -74 -74 -101 -140 -178 -150
-176 -7 1 -11 -4 -9 -11 2 -13 -92 -159 -113 -175 -5 -4 -26 -6 -45 -5 -32 3
-35 5 -33 33 2 17 4 59 7 93 2 48 9 69 25 85 l21 21 1 -22 c1 -12 3 -26 4 -32
1 -5 4 -20 5 -32 1 -16 6 -10 16 22 10 33 23 51 46 65 l33 20 -43 3 c-39 3
-46 8 -78 53 -20 27 -39 49 -43 49 -10 0 -42 -37 -65 -73 -9 -16 -23 -26 -29
-24 -7 3 -24 -7 -39 -21 -19 -17 -28 -21 -28 -11 1 25 27 50 63 60 33 9 55 34
41 48 -3 3 -30 5 -60 4 -56 -3 -69 8 -34 27 11 6 20 17 20 25 0 8 7 15 16 15
9 0 14 6 12 12 -6 17 -70 29 -85 16 -18 -15 -5 -31 22 -26 16 3 22 1 18 -8 -2
-7 -10 -11 -16 -9 -18 7 -152 -31 -150 -41 2 -5 29 -11 60 -14 58 -5 58 -5 21
-13 -37 -8 -55 -31 -20 -25 10 2 33 -9 50 -24 l32 -26 -20 -44 c-11 -24 -20
-53 -20 -65 0 -27 -7 -28 -34 -8 -25 19 -60 19 -76 0 -16 -19 -30 -19 -30 -1
0 7 -6 19 -14 25 -11 9 -18 6 -35 -18 -29 -41 -26 -51 14 -51 38 0 47 -15 15
-25 -31 -10 -23 -22 13 -19 17 2 24 1 15 -2 -10 -3 -18 -12 -18 -19 0 -11 -23
-14 -105 -13 -57 0 -109 -3 -115 -7 -15 -9 -30 3 -31 28 -1 20 -2 20 -8 -3 -8
-27 -41 -41 -41 -17 0 9 6 18 13 20 7 3 5 6 -5 6 -12 1 -18 -6 -18 -19 0 -30
-18 -24 -23 8 l-4 27 -2 -26 c-1 -24 -4 -26 -50 -25 -44 1 -50 3 -48 21 1 12
-4 20 -13 20 -10 0 -14 -8 -12 -23 3 -31 -20 -24 -29 9 l-7 24 -7 -23 c-5 -13
-14 -22 -24 -20 -9 1 -22 -1 -28 -5 -9 -6 -13 -2 -13 12 0 17 -6 21 -27 20
-25 -2 -25 -2 -5 -6 13 -3 21 -10 19 -16 -5 -16 -107 -18 -107 -3 0 6 -6 3
-14 -6 -10 -13 -15 -15 -24 -6 -7 7 -12 17 -12 24 0 15 -28 26 -35 14 -4 -6 1
-10 9 -10 9 0 16 -4 16 -10 0 -19 -21 -10 -51 23 -29 32 -30 32 -135 35 -143
5 -168 0 -193 -43 l-20 -35 -361 0 -360 0 0 -110 0 -110 1000 0 c884 0 999 -2
994 -15 -8 -19 5 -19 30 0 29 22 63 18 78 -7 7 -13 11 -27 9 -32 -3 -13 21
-59 37 -69 7 -5 10 -12 7 -18 -4 -5 -422 -9 -1081 -9 l-1074 0 0 -311 c0 -285
1 -313 18 -325 16 -13 16 -15 0 -25 -26 -15 -24 -42 2 -34 15 5 18 3 14 -9 -3
-9 -12 -16 -20 -16 -8 0 -14 -4 -14 -9 0 -5 8 -7 19 -4 10 3 22 0 25 -6 4 -6
2 -11 -4 -11 -40 0 -40 5 -40 -789 l0 -761 2091 0 2090 0 -2 52 -3 53 648 0
c356 0 650 -3 653 -7 2 -5 -2 -8 -10 -8 -16 0 -47 -31 -47 -48 0 -14 22 -20
98 -27 37 -3 62 -2 62 4 0 17 79 36 92 23 7 -7 32 -12 56 -12 24 0 41 -4 38
-9 -12 -20 119 -28 174 -11 22 6 23 8 7 15 -10 4 -21 5 -24 1 -4 -3 -15 1 -25
11 -20 18 -24 63 -5 63 6 0 311 0 677 0 640 0 713 -3 672 -29 -14 -8 -2 -23
28 -34 8 -3 -4 -6 -27 -6 -24 -1 -43 -5 -43 -10 0 -11 100 -21 211 -21 l89 0
0 330 0 330 -166 -1 c-92 0 -171 4 -176 9 -5 5 -4 19 3 35 12 26 16 27 98 29
123 2 172 -2 203 -18 15 -8 30 -14 33 -14 3 0 5 117 4 260 l-1 260 -30 0 c-17
0 -27 4 -23 10 3 6 17 10 31 10 l24 0 0 535 c0 337 -4 535 -10 535 -5 0 -21
-17 -35 -37 -24 -36 -25 -36 -26 -13 -1 17 -3 19 -6 8 -7 -27 -23 -22 -23 7 0
16 -6 25 -15 25 -13 0 -15 -31 -15 -217 0 -224 -7 -474 -15 -576 -3 -32 -1
-56 4 -53 14 9 20 -33 14 -101 -6 -61 -17 -81 -26 -45 -4 13 -5 11 -6 -5 -1
-21 9 -28 32 -24 10 1 9 -347 -1 -353 -5 -3 -8 9 -9 27 0 30 -11 173 -17 227
-2 14 -4 35 -5 46 -1 20 -6 21 -69 19 -58 -3 -69 0 -69 13 0 19 15 32 36 32
11 0 11 -3 0 -16 -11 -14 -8 -15 30 -10 50 5 58 11 43 29 -6 7 -12 61 -13 125
-1 62 -5 112 -10 112 -5 0 -9 -24 -10 -52 -1 -60 -13 -103 -23 -78 -3 8 -12
96 -21 195 -8 99 -19 218 -25 265 -5 47 -10 92 -11 100 0 9 -4 5 -9 -7 -7 -18
-18 -23 -50 -25 -22 -1 -48 -2 -57 -2 -10 -1 -21 -5 -24 -11 -4 -5 1 -122 12
-259 14 -190 22 -252 34 -265 8 -10 15 -24 14 -32 0 -8 -3 -6 -8 5 -9 22 -61
34 -61 14 0 -18 20 -47 20 -30 0 18 27 15 34 -4 3 -9 6 -17 6 -18 0 -3 -6 -4
-46 -8 -9 -1 -26 -16 -38 -34 -21 -33 -59 -55 -49 -28 4 10 -4 14 -26 14 -33
0 -43 -16 -13 -23 9 -2 6 -3 -7 -2 -14 2 -35 -1 -48 -6 -13 -5 -40 -5 -61 -1
l-37 8 43 7 42 7 -2 118 -2 117 -5 -85 c-8 -111 -18 -62 -22 105 -1 66 -3 138
-5 160 -1 22 -3 84 -3 138 -1 90 -2 97 -21 97 -11 0 -20 5 -20 10 0 6 16 10
35 10 24 0 35 5 35 15 0 10 -11 15 -37 15 -21 0 -63 1 -93 1 -78 2 -676 -40
-940 -66 -25 -3 -92 -9 -150 -15 -142 -13 -250 -32 -250 -43 0 -5 13 -6 29 -2
37 8 49 -10 25 -36 -11 -13 -13 -19 -4 -19 7 0 10 -7 6 -15 -3 -8 -1 -15 3
-15 5 0 11 6 14 13 5 14 41 -2 38 -18 -1 -10 -5 -11 -58 -13 -35 -2 -47 -22
-13 -22 16 0 20 -7 21 -37 7 -186 7 -240 -1 -276 -8 -41 -8 -40 -10 23 -4 153
-18 170 -20 24 0 -60 -1 -117 -1 -126 -1 -71 -169 163 -169 236 0 32 -28 66
-55 66 -21 0 -24 4 -20 31 2 20 -1 32 -11 36 -8 3 -14 11 -14 19 0 8 6 11 15
8 12 -5 15 3 15 39 0 54 -10 84 -39 115 -33 34 -74 29 -120 -15 -50 -50 -55
-70 -36 -145 l16 -63 -51 -47 c-50 -47 -51 -49 -65 -135 -8 -49 -15 -101 -15
-116 0 -38 -71 -186 -89 -187 -11 0 -12 -3 -4 -11 8 -8 8 -21 0 -46 -10 -32
-9 -36 21 -59 26 -21 32 -32 32 -65 0 -22 5 -49 10 -60 6 -10 8 -19 6 -19 -3
0 -12 12 -20 28 -22 41 -30 7 -12 -46 14 -40 14 -44 -4 -60 -28 -23 -36 -76
-16 -106 16 -25 16 -25 -18 -19 -28 4 -34 2 -39 -17 -4 -16 2 -29 21 -46 32
-27 20 -30 -43 -9 -50 17 -65 14 -60 -13 2 -9 4 -27 4 -39 1 -19 9 -22 74 -30
54 -7 82 -5 115 5 24 8 45 13 47 11 2 -2 9 -42 15 -89 6 -46 16 -92 20 -101
18 -32 -21 -40 -53 -12 -11 10 -17 13 -14 6 10 -17 -22 -24 -58 -14 l-30 9 31
1 c25 1 30 5 29 23 -1 12 -11 25 -25 30 -31 11 -156 6 -152 -6 6 -16 -71 -50
-110 -49 -40 0 -54 -21 -20 -30 13 -4 11 -5 -5 -6 -13 0 -23 4 -23 9 0 13
-127 13 -135 0 -3 -6 1 -10 9 -10 27 0 18 -18 -15 -29 -44 -15 -52 -14 -46 9
3 11 -2 25 -10 32 -12 10 -17 9 -28 -5 -13 -19 -31 -22 -37 -7 -2 5 -18 2 -37
-7 -31 -16 -34 -16 -46 0 -7 10 -19 15 -29 11 -9 -3 -16 -1 -16 5 0 6 -4 11
-10 11 -5 0 -10 -7 -10 -15 0 -8 7 -15 15 -15 20 0 19 -26 -1 -34 -34 -13 -44
-7 -44 29 0 32 -2 35 -19 25 -26 -13 -31 -13 -31 5 0 8 -9 15 -19 15 -10 0
-22 7 -25 16 -8 21 12 46 33 39 16 -5 41 33 41 63 0 12 10 13 48 8 170 -22
179 -21 336 25 l148 44 -6 200 c-4 110 -9 254 -11 320 -3 66 -5 230 -4 365 0
135 0 259 -2 275 -1 17 -2 86 -3 155 l-1 125 25 -1 c14 -1 41 -4 60 -8 39 -7
-145 60 -257 94 -70 22 -91 23 -85 8 1 -5 -5 -8 -13 -8 -13 0 -15 -22 -15
-135 0 -101 3 -135 13 -135 8 0 8 -3 -2 -9 -11 -7 -14 -69 -12 -352 1 -234 -2
-339 -9 -329 -5 8 -10 10 -10 5 0 -6 5 -16 11 -22 19 -19 1 -51 -26 -49 -14 0
-25 6 -25 11 0 6 -5 17 -10 25 -9 13 -11 13 -19 0 -6 -8 -13 -12 -16 -8 -3 3
-9 156 -11 339 -6 334 -7 364 -21 356 -5 -3 -46 -8 -92 -11 -70 -6 -82 -5 -73
7 6 7 9 23 5 35 -3 13 -1 22 6 22 7 0 10 4 7 8 -2 4 -1 14 5 22 7 12 9 11 10
-5 2 -51 18 -99 20 -59 2 45 6 65 17 76 9 9 12 1 13 -33 l1 -44 9 40 c13 56
29 68 29 23 0 -20 5 -40 12 -44 6 -4 8 -3 5 3 -12 18 7 108 23 108 12 0 15 16
17 75 0 41 2 94 2 118 1 51 21 57 21 5 0 -35 1 -36 15 -17 8 11 15 14 15 7 0
-18 20 -16 20 1 0 7 -9 16 -21 19 -29 8 -18 32 13 32 15 0 24 4 21 11 -2 6 5
14 16 17 14 3 21 0 21 -9 0 -8 5 -14 11 -14 5 0 8 4 5 9 -11 17 21 28 166 56
82 16 146 31 143 34 -18 17 -91 35 -161 38 l-81 4 -9 101 c-7 78 -6 104 3 114
14 13 17 37 7 47 -3 3 -26 0 -50 -8 -34 -10 -50 -10 -68 -2 -29 14 -36 46 -36
174 l0 93 28 -6 c15 -2 70 -8 122 -13 102 -9 79 -14 334 62 l80 23 -2 60 c-17
489 -23 731 -23 939 0 138 -3 312 -6 388 -3 85 -1 143 5 149 6 6 28 4 63 -6
54 -16 76 -20 67 -11 -7 8 -293 104 -352 119 -45 12 -51 11 -68 -6 -18 -18
-19 -34 -18 -166 0 -81 1 -311 1 -511 0 -201 2 -368 4 -372 3 -4 -3 -10 -13
-14 -16 -7 -15 -8 3 -15 17 -7 17 -9 3 -9 -10 -1 -18 -7 -18 -13 0 -9 -3 -8
-10 2 -8 13 -11 12 -22 -3 -13 -17 -14 -17 -15 4 -1 13 2 29 8 35 7 8 7 14 -1
19 -5 3 -10 1 -10 -5 0 -7 -7 -10 -15 -6 -10 4 -15 -1 -15 -16 0 -39 -9 -13
-14 41 -2 30 -8 200 -12 378 l-7 324 -32 -5 c-17 -3 -60 -8 -96 -11 -35 -4
-71 -8 -80 -11 -13 -3 -15 1 -12 21 3 13 9 22 14 19 5 -3 7 -10 4 -15 -4 -5 1
-9 11 -9 12 0 15 7 12 30 -3 17 -2 30 2 30 3 0 11 12 17 28 l11 27 1 -37 c1
-51 19 -57 23 -8 4 55 22 51 28 -7 l6 -48 8 53 c9 59 26 70 26 17 0 -19 5 -35
10 -35 6 0 10 25 10 56 0 47 3 57 20 61 21 6 24 31 20 191 -1 38 3 62 9 62 6
0 11 -19 11 -42 1 -41 2 -42 16 -23 11 15 17 17 23 7 8 -13 41 -6 41 9 0 4 -7
6 -15 3 -8 -4 -15 -1 -15 5 0 6 -6 11 -14 11 -8 0 -16 7 -20 15 -4 12 6 21 17
13 1 -1 13 4 26 11 13 7 21 8 17 3 -4 -6 2 -8 15 -5 16 4 17 8 7 14 -9 6 -8 9
8 9 11 0 24 4 30 8 5 5 77 22 159 37 83 16 154 32 158 35 4 4 -25 19 -65 33
l-73 27 -442 0 -443 0 1 -47z m-963 -1745 c-3 -7 -13 -39 -23 -71 -10 -33 -25
-62 -34 -65 -32 -12 -38 -25 -25 -50 10 -20 10 -27 -1 -39 -9 -8 -12 -24 -9
-42 4 -20 1 -30 -10 -34 -20 -8 -21 12 -2 58 12 29 13 35 2 35 -15 0 -26 -21
-27 -53 0 -19 -2 -18 -11 6 -5 15 -14 27 -20 27 -5 0 -8 5 -6 11 2 6 7 10 11
9 12 -1 37 27 37 41 0 10 -3 10 -12 1 -7 -7 -15 -12 -19 -12 -6 0 -3 12 30 96
14 35 52 55 44 23 -5 -16 -2 -17 20 -6 15 7 21 14 15 19 -8 4 -6 14 6 32 17
26 42 36 34 14z m736 -95 c4 -10 30 -12 116 -9 l110 4 0 -68 c0 -37 -3 -82 -6
-99 l-6 -31 -169 0 c-164 0 -169 1 -169 21 0 11 -4 18 -10 14 -5 -3 -7 -12 -3
-20 3 -8 1 -15 -3 -15 -5 -1 -32 -3 -61 -5 -30 -3 -54 -1 -58 5 -4 6 -16 8
-28 5 -20 -5 -19 -3 6 19 15 14 36 26 46 26 26 0 32 10 16 27 -8 8 -19 22 -24
31 -9 16 -12 15 -33 -5 -12 -13 -17 -23 -11 -23 7 0 15 5 18 10 10 16 21 11
21 -10 0 -11 -5 -19 -10 -17 -5 2 -25 -13 -43 -32 l-34 -36 6 30 6 30 -16 -28
c-9 -16 -18 -27 -21 -24 -7 7 8 67 16 62 13 -8 40 6 40 21 0 8 7 17 15 20 8 4
15 15 15 25 0 14 7 19 30 19 17 0 30 5 30 11 0 7 -9 9 -21 6 -15 -4 -19 -3
-12 4 6 6 24 11 41 11 21 1 29 5 25 14 -6 16 15 18 36 5 16 -10 6 -31 -14 -31
-8 0 -17 -4 -20 -10 -4 -6 1 -7 12 -3 31 11 44 25 38 42 -4 14 4 17 60 17 44
0 66 -4 69 -13z m-3162 -261 c-3 -18 1 -22 15 -20 14 2 19 -5 21 -35 3 -34 1
-38 -26 -43 -27 -5 -41 -33 -18 -35 6 0 2 -4 -9 -9 -11 -5 -86 -9 -167 -9
l-148 -1 0 90 0 90 168 -2 167 -3 -3 -23z m2807 -198 c7 4 11 -1 11 -13 0 -11
5 -23 10 -26 6 -3 10 -19 10 -36 0 -31 17 -40 26 -14 9 22 21 18 29 -7 7 -22
7 -22 12 -3 3 11 9 25 15 30 6 6 7 4 2 -8 -3 -9 -1 -24 6 -32 11 -13 8 -15
-14 -15 l-27 0 5 -100 c2 -55 1 -102 -2 -104 -4 -2 -26 -7 -49 -11 l-42 -7 -5
44 c-3 24 -8 71 -11 106 l-6 62 28 0 c20 0 24 3 14 9 -8 5 -11 16 -7 27 5 15
2 15 -13 -3 -14 -16 -29 -22 -55 -21 -20 1 -36 2 -36 4 0 1 4 15 10 29 6 17
14 24 22 19 8 -5 7 -1 -2 10 -13 16 -12 20 5 32 23 17 39 13 43 -9 3 -12 -1
-15 -14 -10 -11 4 -15 2 -11 -4 8 -13 57 -14 57 -2 0 5 -9 18 -20 29 -11 11
-20 26 -20 33 0 9 3 8 9 -2 5 -7 14 -10 20 -7z m-361 -118 c2 -3 12 -19 21
-38 10 -18 28 -38 40 -44 13 -7 18 -14 12 -18 -6 -4 -7 -16 -2 -29 4 -12 8
-92 9 -177 1 -85 5 -183 8 -218 5 -53 4 -61 -9 -56 -19 7 -29 55 -15 72 10 12
9 13 -12 16 -5 0 -10 4 -10 9 0 4 0 12 0 18 0 5 3 8 8 5 7 -4 7 8 -4 128 -5
50 -4 70 6 76 9 6 7 13 -10 30 -12 12 -19 28 -16 36 3 8 0 25 -6 39 -8 19 -8
31 0 50 10 21 0 47 -11 28 -2 -5 -2 -2 0 5 1 8 0 24 -3 38 -6 22 -11 24 -66
24 -40 0 -57 4 -52 11 6 10 101 5 112 -5z m-596 -53 c0 -21 1 -61 1 -90 -1
-37 3 -53 14 -57 24 -10 -2 -33 -45 -40 -37 -7 -396 -85 -507 -111 -33 -7
-105 -23 -160 -35 -163 -36 -263 -59 -388 -91 -64 -16 -122 -27 -127 -24 -6 3
-10 42 -10 86 0 73 2 80 23 89 25 12 245 75 417 120 63 17 167 46 230 64 63
19 192 52 285 75 210 50 204 48 238 50 25 1 27 -2 29 -36z m821 -15 c3 -13 7
-56 8 -97 3 -81 -3 -89 -62 -90 -31 -1 -39 24 -39 125 0 61 1 64 28 70 15 3
32 7 37 9 20 7 23 5 28 -17z m-2661 -73 c-4 -22 -1 -25 24 -26 17 -1 22 -3 12
-6 -21 -5 -24 -23 -4 -23 7 0 20 -8 27 -17 12 -16 12 -17 -1 -7 -25 19 -60 24
-60 9 0 -8 5 -17 11 -21 8 -5 8 -8 0 -13 -10 -7 -18 -228 -20 -604 l-1 -128
-55 -25 c-89 -39 -95 -36 -95 45 l0 69 51 12 c45 11 50 15 45 34 -3 12 1 34 9
50 8 16 15 48 15 73 l0 45 -32 -7 c-18 -4 -43 -9 -55 -12 -21 -5 -23 -2 -23
40 0 45 0 45 -41 52 l-40 7 3 69 c1 38 6 69 10 69 4 0 8 -5 8 -11 0 -7 10 -5
25 5 48 31 57 23 50 -44 -4 -33 -5 -60 -3 -60 2 0 23 6 48 14 l45 13 9 107 c8
89 7 109 -5 117 -12 7 -12 10 -1 18 17 10 11 57 -6 54 -8 -2 -12 10 -12 35 0
27 3 33 10 22 13 -21 18 -11 21 40 1 25 5 49 7 54 9 17 29 -24 24 -49z m289
-25 c5 0 9 -7 9 -16 0 -8 -4 -12 -10 -9 -6 3 -10 -4 -10 -17 0 -18 2 -20 10
-8 8 13 10 13 10 -2 0 -9 -4 -19 -8 -22 -5 -3 -12 -92 -15 -199 -7 -213 -13
-257 -33 -257 -26 0 -32 37 -28 195 2 88 4 170 4 183 0 15 6 22 20 22 28 0 35
25 23 72 -6 21 -6 38 -2 38 5 0 10 15 10 33 1 23 3 26 6 10 2 -13 9 -23 14
-23z m322 -218 c-8 -193 -13 -217 -43 -217 -43 -1 -75 21 -78 51 -1 15 -9 36
-18 45 -19 21 -13 75 11 93 10 7 15 34 17 81 l3 70 45 11 c25 6 50 9 57 7 8
-3 10 -42 6 -141z m1374 -44 c4 -81 9 -118 18 -118 6 0 36 5 66 10 30 6 91 14
135 18 l82 8 6 -51 c3 -27 6 -111 6 -187 l0 -136 -75 -6 c-245 -19 -222 -20
-229 6 -3 13 -6 71 -6 131 0 105 0 107 -23 107 -30 0 -55 20 -57 45 -1 11 -2
89 -1 174 l1 153 25 -6 c19 -5 25 -2 26 11 3 55 21 -59 26 -159z m4393 45 c0
-14 2 -14 20 2 19 18 20 17 20 -2 0 -25 -27 -38 -46 -22 -7 6 -18 8 -25 4 -18
-12 9 -24 43 -20 26 4 28 2 28 -30 l0 -35 -52 0 c-29 0 -242 -14 -473 -30
-461 -33 -519 -35 -510 -20 3 6 20 10 36 10 17 0 39 5 50 10 13 7 19 7 19 0 0
-17 57 -12 64 7 5 12 9 14 18 5 18 -18 89 -15 110 5 14 13 21 14 30 5 17 -17
79 -15 99 4 12 11 25 14 36 9 35 -15 93 -16 93 -1 0 21 26 27 47 11 22 -17 83
-20 83 -4 0 6 -6 9 -14 6 -9 -4 -16 3 -20 19 -6 22 -21 29 -55 24 -13 -1 -13
1 -1 15 9 11 15 13 20 5 5 -8 9 -7 13 4 4 10 19 16 42 16 41 0 45 -11 10 -30
-14 -7 -25 -17 -25 -21 0 -16 46 -20 75 -8 l30 13 -27 4 -27 3 20 20 c14 14
39 22 77 25 l57 5 -22 -19 c-26 -23 -29 -38 -10 -45 19 -7 67 4 67 15 0 6 -11
7 -25 4 -19 -5 -23 -3 -19 8 15 38 144 65 144 29z m-4991 -92 c0 -76 -3 -91
-17 -95 -20 -6 -132 -26 -144 -26 -4 0 -8 40 -8 89 l0 90 58 11 c31 7 62 14
67 15 41 13 44 8 44 -84z m-189 -41 l0 -90 -29 0 c-16 0 -41 -3 -57 -6 l-29
-5 0 82 0 82 35 13 c19 7 45 13 58 13 21 1 22 -2 22 -89z m660 -66 c0 -8 -5
-12 -11 -8 -7 4 -9 -2 -7 -17 2 -17 11 -25 28 -28 14 -1 28 -7 31 -12 9 -16
10 -157 0 -163 -5 -3 -2 -21 7 -40 14 -31 17 -33 29 -18 7 10 12 12 13 5 0 -7
7 -10 15 -7 10 4 15 0 15 -15 0 -12 5 -21 10 -21 6 0 10 -11 10 -25 0 -14 -5
-25 -11 -25 -6 0 -9 7 -5 15 3 10 -1 15 -11 15 -9 0 -13 -3 -10 -6 3 -4 2 -15
-4 -25 -8 -15 -6 -17 7 -12 12 4 15 3 10 -5 -10 -17 -49 -15 -43 2 6 15 -11
36 -30 36 -7 0 -20 -11 -29 -25 -13 -19 -14 -30 -5 -52 l11 -28 -3 32 c-3 24
1 33 15 36 13 4 18 0 18 -14 0 -11 7 -22 15 -25 8 -4 12 -10 9 -15 -3 -5 0 -9
5 -9 6 0 11 -15 11 -32 1 -35 20 -68 39 -68 7 0 11 -6 8 -12 -2 -7 -11 -12
-21 -10 -9 2 -16 -1 -16 -6 0 -5 -15 -7 -32 -4 -48 6 -27 -8 75 -53 48 -21 90
-41 92 -46 10 -15 -120 28 -209 70 -63 29 -102 41 -135 41 -33 0 -42 3 -31 10
8 5 11 10 7 10 -15 0 -212 42 -220 47 -18 11 6 21 33 13 39 -11 39 4 0 27 -16
9 -30 23 -30 31 0 10 -8 12 -30 7 -23 -5 -30 -3 -30 9 0 9 -9 21 -20 28 -11 7
-20 21 -20 32 0 20 43 65 63 67 7 0 8 3 2 5 -6 2 -10 53 -10 121 l0 117 45 9
c25 5 110 19 190 32 80 12 148 23 153 24 4 0 7 -6 7 -15z m1388 -99 c12 -19
22 -42 22 -50 0 -12 4 -14 19 -5 12 6 22 6 25 1 4 -5 -6 -14 -21 -20 l-28 -11
27 5 c14 3 28 2 31 -3 2 -4 2 -2 1 5 -2 6 2 14 9 17 9 3 8 7 -2 14 -11 8 -10
12 8 23 11 8 21 23 21 34 0 14 3 16 9 7 4 -7 7 -30 5 -50 -1 -20 -2 -54 -3
-74 -1 -36 -2 -37 -45 -43 -41 -6 -45 -10 -48 -37 -4 -42 -35 -62 -68 -45 -31
16 -32 65 -1 96 36 36 37 79 5 159 -11 26 12 10 34 -23z m-1840 -76 c3 -75 -1
-79 -85 -79 -54 0 -73 -8 -73 -31 0 -15 -8 -19 -37 -20 -40 -1 -85 -5 -143
-12 -149 -18 -190 -19 -190 -3 0 9 -7 16 -15 16 -13 0 -15 11 -13 63 3 61 3
62 33 64 30 3 217 30 390 57 134 21 129 23 133 -55z m-23 -149 c11 -35 -2 -55
-39 -57 -29 -3 -36 1 -44 25 l-10 27 -7 -27 c-7 -26 -35 -40 -35 -18 0 14 -23
8 -37 -10 -10 -13 -12 -13 -18 3 -7 16 -9 16 -19 2 -7 -10 -34 -16 -81 -19
-60 -4 -65 -3 -37 6 26 9 32 16 32 40 0 28 2 29 38 27 20 -2 43 -7 50 -12 8
-6 12 -5 12 3 0 8 9 11 25 8 14 -3 25 -1 25 5 0 5 11 7 25 5 14 -3 27 -2 30 1
2 4 22 8 44 9 32 2 41 -1 46 -18z m1945 -50 c0 -5 -4 -10 -9 -10 -11 0 6 -57
19 -65 4 -3 7 10 6 27 -1 22 4 33 14 35 14 3 15 -13 13 -119 -3 -129 -6 -148
-22 -148 -5 0 -8 35 -6 83 4 89 -4 118 -27 100 -7 -6 -30 -13 -51 -16 l-37 -6
4 45 c2 26 0 44 -6 44 -6 0 -5 6 2 15 7 9 21 13 35 9 13 -3 26 -1 29 5 9 14
36 14 36 1z m-1930 -65 c0 -18 6 -36 13 -38 6 -3 -6 -3 -28 0 -49 7 -40 -7 12
-18 132 -28 190 -42 203 -50 20 -13 -26 -7 -160 20 -57 12 -161 28 -230 36
-184 21 -220 27 -220 36 0 12 9 13 105 14 44 0 92 4 108 9 23 7 27 5 27 -10 1
-18 1 -18 15 0 9 12 22 17 35 13 13 -3 20 0 20 8 0 9 15 15 43 17 55 4 57 3
57 -37z m1364 39 c9 -3 16 -16 16 -27 0 -19 -1 -19 -12 -4 -11 15 -22 3 -83
-93 -38 -61 -76 -110 -82 -110 -18 0 -16 17 2 24 19 7 20 36 1 36 -8 0 -17 -8
-19 -17 -3 -12 -5 -8 -6 9 0 14 -5 28 -10 30 -4 2 -10 24 -13 50 -5 39 -3 47
13 51 11 3 19 14 19 25 0 17 8 22 43 25 77 7 115 7 131 1z m2233 -145 c19 -12
32 -26 30 -33 -2 -6 -1 -21 4 -33 5 -15 3 -25 -7 -34 -11 -9 -14 -28 -11 -78
5 -73 -1 -105 -20 -108 -9 -2 -13 13 -13 52 l0 55 -40 0 -41 0 3 92 c3 80 5
91 21 94 11 1 21 5 25 8 8 9 12 8 49 -15z m-2698 -118 l2 -109 -33 -7 c-49
-12 -339 -12 -368 -1 -23 9 -21 10 25 17 28 4 74 8 103 8 52 1 76 21 25 21
-16 0 -35 5 -43 11 -14 10 13 8 105 -6 31 -5 31 -6 10 -14 -17 -7 -14 -10 20
-20 55 -15 82 -14 89 5 3 9 6 48 6 87 0 95 7 117 35 117 21 0 22 -4 24 -109z
m3621 -356 c265 -9 404 -16 407 -19 2 -2 -3 -16 -12 -32 -8 -16 -11 -30 -7
-32 4 -2 61 -22 126 -45 66 -23 121 -47 123 -53 2 -7 -51 8 -119 32 -68 24
-126 44 -130 44 -5 0 -8 -20 -8 -45 0 -35 4 -47 18 -51 25 -8 65 -27 79 -37 9
-7 9 -13 1 -27 -11 -17 -13 -17 -23 -3 -14 19 -45 11 -45 -11 0 -14 29 -26 63
-26 9 0 17 7 17 15 0 17 16 20 25 5 9 -15 25 -12 25 5 0 8 7 15 15 15 9 0 15
-9 15 -21 0 -16 5 -20 20 -16 22 6 36 -9 32 -35 -2 -9 2 -19 8 -23 16 -10 12
-43 -7 -47 -25 -5 -71 19 -84 44 -6 11 -13 17 -16 14 -3 -3 -13 -1 -22 3 -30
17 -54 -13 -54 -66 1 -41 -1 -45 -10 -26 -5 13 -19 25 -29 29 -15 4 -18 12
-14 30 7 26 -3 31 -23 12 -11 -10 -14 -10 -18 0 -8 22 -23 13 -23 -15 0 -16
-7 -36 -14 -45 -12 -16 -14 -16 -34 5 -12 13 -22 27 -22 32 0 4 8 -2 19 -13
25 -30 31 -28 31 12 l0 34 -117 -1 -118 -2 -3 45 c-2 25 -8 49 -13 55 -12 12
-119 16 -119 4 0 -5 -4 -9 -10 -9 -5 0 -7 7 -4 15 8 19 -9 19 -79 1 -59 -15
-100 -12 -118 11 -11 12 -8 13 17 8 l29 -6 -30 14 c-17 8 -34 11 -39 6 -6 -5
-19 -9 -29 -9 -17 0 -17 2 -6 16 11 13 9 14 -16 8 -24 -6 -27 -4 -22 10 4 10
1 16 -8 16 -8 0 -15 9 -15 20 0 11 -7 23 -15 26 -26 10 -17 48 15 67 38 23 41
57 5 57 -14 0 -25 5 -25 11 0 8 36 10 128 6 70 -4 197 -9 282 -12z m-3274 -43
c26 -18 41 -112 17 -112 -7 0 -39 -11 -71 -24 -104 -43 -99 -44 -112 19 -7 31
-9 68 -6 81 5 20 12 24 46 24 21 0 41 -4 45 -10 9 -14 34 0 28 16 -6 15 33 20
53 6z m579 -209 c78 -14 110 -19 136 -22 13 -2 19 -34 13 -68 l-6 -34 -127 5
c-155 7 -231 22 -231 46 0 10 6 23 14 29 7 6 16 25 19 41 7 34 6 34 182 3z"/>
<path d="M977 4713 c-15 -7 -27 -10 -27 -6 0 4 -14 -6 -30 -22 -18 -17 -28
-35 -25 -45 6 -19 -30 -56 -59 -62 -64 -11 -95 -182 -41 -224 8 -6 16 -23 17
-38 1 -14 7 -26 13 -26 19 -1 77 -98 70 -119 -3 -10 -1 -22 5 -26 6 -3 8 -10
5 -15 -3 -5 -1 -11 4 -15 16 -9 4 -62 -18 -84 -12 -12 -21 -26 -21 -32 0 -6
-20 -33 -45 -61 -56 -63 -135 -226 -135 -280 0 -51 15 -78 43 -78 12 0 67 9
122 19 55 11 138 22 185 25 133 10 160 16 160 33 0 10 6 13 16 9 19 -7 15 6
-32 116 -42 99 -97 179 -175 258 -52 52 -61 65 -52 79 17 27 -5 85 -39 104
-30 17 -74 99 -63 117 11 17 23 11 42 -20 14 -24 71 -70 87 -70 2 0 1 33 -2
74 -3 56 0 85 14 122 21 58 38 73 80 74 16 0 35 5 42 12 18 18 86 -20 117 -67
l25 -40 -3 65 c-2 50 -10 75 -30 107 -15 24 -27 49 -27 57 0 14 -56 38 -146
60 -42 11 -55 11 -77 -1z"/>
<path d="M1633 4643 c-51 -18 -120 -91 -128 -137 -10 -50 -2 -121 13 -118 22
4 72 -28 72 -46 0 -9 4 -23 8 -30 13 -19 58 28 82 84 22 50 45 55 45 8 0 -19
6 -30 18 -32 9 -2 17 2 17 8 0 10 4 9 15 0 20 -17 19 -1 -2 22 -15 17 -15 18
8 19 80 4 123 -13 93 -36 -10 -7 -14 -17 -10 -24 5 -8 12 -9 20 -2 9 7 16 5
26 -9 20 -27 26 -25 39 11 33 96 -11 209 -98 254 -27 13 -52 29 -56 35 -3 5
-13 10 -22 10 -13 0 -13 -3 -3 -15 7 -8 10 -15 7 -15 -2 0 -24 7 -47 15 -50
17 -43 18 -97 -2z"/>
<path d="M7392 4365 c-1 -44 5 -161 13 -260 8 -99 15 -203 15 -231 0 -36 6
-59 20 -77 28 -36 25 -51 -5 -22 -36 37 -60 31 -48 -13 6 -25 23 -30 23 -7 0
20 10 19 26 -2 16 -22 18 -37 4 -28 -6 4 -17 1 -25 -5 -8 -6 -18 -9 -24 -6 -5
3 -19 -9 -30 -28 -21 -33 -48 -52 -59 -41 -3 3 0 5 7 5 7 0 9 5 6 10 -3 6 -19
10 -36 10 -16 0 -29 -4 -29 -10 0 -5 10 -10 22 -10 12 0 18 -3 15 -6 -12 -12
-177 -16 -177 -5 0 6 12 12 28 13 15 0 34 1 42 2 21 1 21 11 12 191 l-9 160
-2 -169 c0 -93 -3 -167 -5 -165 -5 6 -14 196 -22 456 -7 221 -7 221 -30 226
-32 6 -34 1 -27 -49 5 -37 3 -44 -12 -44 -9 0 -81 -5 -159 -10 -896 -64 -926
-65 -926 -51 0 6 13 11 29 11 16 0 41 4 55 10 18 6 26 6 26 -1 0 -15 53 -7 67
11 9 12 14 13 24 3 21 -21 87 -16 106 7 20 24 43 26 43 5 0 -12 9 -13 48 -8
26 3 52 13 57 20 10 13 45 9 45 -6 0 -3 22 -4 50 -3 35 3 50 8 50 18 0 9 11
14 28 14 16 0 36 8 45 18 21 23 10 38 -12 18 -10 -9 -23 -11 -36 -6 -17 7 -17
9 -2 9 9 1 17 8 17 17 0 8 4 13 9 9 5 -3 12 -1 16 5 3 5 25 10 48 10 l42 -1
-30 -24 c-35 -29 -29 -38 28 -39 33 -2 43 2 43 14 0 12 -7 15 -25 12 l-24 -5
23 23 c17 17 37 23 84 27 l61 4 -28 -22 c-27 -20 -27 -22 -10 -38 15 -15 21
-16 45 -3 35 17 36 26 3 20 -31 -6 -32 2 -3 27 25 21 105 37 127 25 12 -6 10
-10 -7 -21 -12 -8 -22 -19 -22 -25 0 -13 29 -23 48 -17 18 7 15 23 -5 23 -15
0 -15 2 2 18 13 12 33 17 67 16 35 -1 48 2 48 12 0 10 -13 14 -44 14 -24 0
-46 4 -48 9 -2 5 -116 0 -258 -11 -140 -11 -262 -20 -270 -20 -32 0 -270 -18
-375 -28 -251 -24 -316 -31 -437 -47 -124 -16 -169 -33 -89 -33 33 0 40 -3 38
-19 0 -11 -4 -18 -8 -15 -4 2 -12 -3 -19 -11 -10 -12 -9 -15 4 -15 22 0 21
-20 -1 -21 -12 0 -13 -2 -5 -6 7 -3 19 1 27 7 8 7 22 10 30 6 18 -7 20 -38 3
-35 -7 1 -30 1 -50 0 -42 -1 -53 -21 -13 -21 l25 0 0 -162 c0 -109 -4 -158
-10 -148 -5 8 -10 42 -10 74 0 95 -7 61 -14 -72 -4 -83 -3 -122 4 -117 6 3 7
0 4 -9 -4 -12 -10 -13 -22 -4 -22 14 -100 106 -117 138 -32 59 -55 118 -55
139 0 39 -18 61 -50 61 -27 0 -29 2 -27 38 2 30 -1 36 -15 34 -12 -2 -15 3
-11 17 3 11 10 18 17 15 8 -3 12 13 11 53 0 77 -33 133 -76 133 -40 0 -67 -15
-106 -59 -38 -41 -41 -70 -18 -148 l15 -51 -55 -54 c-60 -57 -64 -68 -82 -243
-4 -39 -20 -88 -46 -142 -33 -70 -43 -83 -63 -83 -13 0 -24 -4 -24 -9 0 -5 9
-7 20 -4 23 6 26 -12 8 -52 -10 -23 -8 -28 25 -59 31 -28 37 -40 37 -74 0 -22
2 -49 5 -59 3 -11 1 -9 -6 5 -7 12 -18 22 -26 22 -16 0 -16 -3 2 -47 21 -50
19 -80 -5 -88 -17 -5 -20 -15 -20 -60 0 -30 5 -57 10 -60 6 -3 10 -11 10 -17
0 -7 -4 -7 -12 0 -26 21 -51 18 -58 -8 -6 -24 12 -51 41 -63 8 -3 1 -6 -16 -6
-16 -1 -43 6 -59 14 -44 23 -58 13 -54 -37 l3 -43 78 -9 c63 -7 89 -6 127 6
l49 16 5 -37 c3 -20 8 -59 11 -86 l6 -50 -240 1 -239 0 -4 -120 c-2 -67 -2
-127 0 -134 5 -13 256 -12 895 3 l228 6 -3 -33 c-3 -28 -10 -36 -49 -55 -42
-19 -67 -48 -55 -61 17 -17 166 -29 166 -13 0 27 183 18 201 -10 17 -29 189
-22 189 8 0 12 -3 13 -13 4 -10 -8 -19 -6 -35 10 -25 22 -27 42 -10 89 10 29
9 35 -8 47 -15 11 75 13 594 13 l612 -1 -5 -27 c-3 -15 -2 -21 1 -14 3 6 13
12 22 12 15 0 15 -2 2 -10 -13 -8 -12 -10 4 -10 13 0 17 5 13 19 -3 14 -1 18
10 14 11 -4 13 -14 9 -36 -3 -16 -6 -34 -6 -39 0 -6 -9 -8 -19 -5 -12 3 -18 0
-15 -7 4 -10 30 -13 68 -7 5 0 4 7 -2 14 -6 6 -10 23 -10 37 1 14 -2 32 -6 42
-6 14 -2 16 38 11 l46 -4 0 185 c0 131 -3 186 -11 186 -8 0 -8 4 -1 13 7 8 11
61 11 135 -1 103 -4 121 -15 111 -20 -16 -19 21 1 47 9 12 14 42 15 81 l0 62
-32 4 -33 4 33 1 c24 2 32 7 32 21 0 15 -8 21 -32 24 l-33 4 32 1 32 2 1 501
0 502 -50 -5 -49 -5 -4 41 c-2 23 -4 5 -5 -39z m-1804 -795 c25 -15 32 -27 32
-50 0 -16 5 -30 10 -30 6 0 10 -5 10 -11 0 -5 -4 -8 -9 -4 -24 14 -40 -77 -19
-102 7 -9 7 -13 1 -13 -6 0 -10 -17 -10 -39 0 -21 -4 -44 -8 -51 -13 -20 -25
10 -25 63 l0 47 -40 0 -40 0 0 99 c0 107 -3 102 55 110 6 0 25 -8 43 -19z
m996 -505 c224 -8 411 -16 413 -19 3 -3 -2 -19 -10 -36 -18 -36 -28 -30 125
-80 96 -32 128 -46 128 -59 0 -5 -55 11 -122 35 -68 24 -129 44 -135 44 -7 0
-13 -9 -14 -20 -1 -11 -2 -30 -2 -42 -1 -11 5 -24 13 -28 8 -4 39 -20 67 -34
29 -15 83 -38 120 -51 l68 -24 -333 -1 c-203 0 -331 4 -327 9 11 18 -19 24
-149 28 -71 2 -135 8 -140 13 -7 7 -3 10 12 10 12 0 22 4 22 9 0 12 -64 24
-68 12 -5 -16 -57 4 -67 27 -5 12 -15 22 -22 22 -7 0 -13 8 -13 19 0 10 -7 24
-15 31 -25 21 -17 47 20 70 36 22 48 59 20 61 -8 1 -19 3 -25 4 -5 1 -13 3
-16 4 -3 0 -3 5 0 10 3 5 14 7 24 5 9 -2 201 -11 426 -19z m-1530 -374 c13
-15 16 -29 11 -63 -6 -44 8 -83 23 -62 4 6 18 15 30 19 20 6 23 12 18 39 -6
31 -6 31 34 31 22 0 40 -3 40 -8 0 -4 5 -5 10 -2 15 9 12 -19 -5 -41 -21 -28
-18 -40 15 -54 17 -7 30 -20 30 -30 0 -15 -9 -18 -65 -17 -36 0 -65 5 -65 10
0 5 -6 4 -13 -2 -10 -8 -19 -7 -33 4 -10 8 -15 15 -11 15 4 0 3 9 -4 21 -7 15
-14 18 -21 11 -14 -14 -61 16 -54 34 3 7 1 16 -4 19 -13 8 -13 51 0 76 14 24
42 24 64 0z m-184 -22 c0 -5 5 -7 10 -4 6 3 10 -1 10 -11 0 -13 3 -14 15 -4
12 10 15 9 15 -7 0 -10 -5 -24 -12 -31 -9 -9 -7 -16 7 -32 10 -11 13 -20 8
-20 -6 0 -13 -13 -16 -30 -6 -29 -9 -30 -57 -30 -50 0 -60 6 -40 26 8 8 6 15
-4 23 -13 11 -18 10 -31 -3 -26 -25 -39 -19 -57 27 -20 47 -23 77 -8 77 6 0
10 -4 10 -10 0 -5 11 -12 25 -16 15 -4 28 -16 31 -30 6 -22 7 -23 35 -8 20 10
29 22 29 38 0 14 3 31 6 40 7 18 24 22 24 5z"/>
<path d="M1304 4253 c4 -60 7 -116 7 -127 0 -13 5 -17 20 -13 12 3 19 0 19 -8
0 -8 4 -17 10 -20 6 -4 9 4 7 17 -1 17 3 22 15 20 27 -4 32 17 6 27 -20 8 -17
10 20 10 40 1 54 -10 31 -24 -6 -4 -8 -14 -4 -23 3 -9 1 -57 -6 -106 -9 -68
-20 -102 -42 -138 -19 -30 -32 -66 -35 -98 -2 -27 -7 -50 -11 -50 -3 0 -21 45
-40 101 -22 65 -37 95 -42 87 -13 -20 -11 -42 15 -130 30 -103 37 -120 53
-136 7 -7 13 -24 13 -38 0 -31 25 -41 49 -20 10 9 23 16 29 16 10 0 103 29
152 47 8 3 22 7 30 8 61 8 108 17 125 25 27 11 78 24 89 21 31 -7 -113 247
-170 299 -15 14 -40 45 -55 69 -25 38 -29 55 -29 111 0 58 -3 70 -25 90 -14
13 -25 28 -25 34 0 10 -166 56 -199 56 -11 0 -13 -19 -7 -107z"/>
<path d="M3137 4333 c-25 -6 -17 -37 11 -41 25 -4 26 -10 12 -46 -13 -34 -27
-33 -35 3 -9 42 -30 57 -60 43 -14 -7 -25 -16 -25 -22 0 -14 33 -13 48 2 18
18 40 -37 24 -63 -13 -20 -16 -59 -5 -59 4 0 17 10 30 22 l23 21 0 -42 c0 -23
-7 -52 -16 -65 -25 -39 0 -40 66 -5 70 37 80 57 14 28 -25 -12 -48 -19 -50
-16 -2 2 2 28 9 58 11 43 19 55 38 59 16 4 20 8 11 14 -7 4 -21 4 -32 1 -18
-6 -19 -3 -14 39 6 42 -6 78 -25 75 -3 -1 -14 -3 -24 -6z"/>
<path d="M0 4012 l0 -210 40 9 c40 9 75 6 115 -11 11 -4 29 -12 40 -16 23 -8
27 -7 -102 -25 l-93 -13 0 -134 c0 -136 8 -176 35 -166 10 4 15 0 15 -12 1
-15 4 -13 15 7 10 18 26 29 50 33 31 6 85 35 121 65 22 18 171 101 182 101 6
0 26 6 44 14 18 8 52 19 76 25 50 14 55 31 10 32 -40 1 -141 26 -112 28 11 0
29 8 40 16 22 16 110 20 119 5 3 -5 24 -10 46 -10 37 0 40 2 33 23 -4 12 -6
41 -5 64 2 38 -1 43 -24 49 -25 6 -25 6 -19 93 5 83 4 87 -21 114 -14 15 -30
27 -35 27 -5 0 -87 14 -182 31 -95 16 -217 36 -270 43 -53 8 -101 17 -107 21
-8 4 -11 -56 -11 -203z"/>
<path d="M2230 3597 c-76 -31 -89 -48 -120 -145 -16 -51 -2 -150 31 -213 18
-36 39 -52 39 -29 0 16 22 12 37 -7 10 -12 16 -14 19 -6 4 8 12 8 32 -3 34
-17 50 -4 34 30 -6 13 -9 26 -6 29 7 7 54 -5 49 -13 -2 -4 4 -15 14 -24 16
-15 21 -15 46 -2 l27 14 -23 4 c-23 4 -23 5 6 18 41 19 41 20 25 30 -12 7 -11
12 5 29 18 21 18 21 50 -34 32 -58 45 -61 45 -13 0 16 4 38 10 48 5 10 10 51
11 91 1 87 -21 155 -54 165 -12 3 -38 16 -57 29 -57 37 -134 38 -220 2z"/>
</g>
</svg>
