<?xml version="1.0" standalone="no"?>
<!DOCTYPE svg PUBLIC "-//W3C//DTD SVG 20010904//EN"
 "http://www.w3.org/TR/2001/REC-SVG-20010904/DTD/svg10.dtd">
<svg version="1.0" xmlns="http://www.w3.org/2000/svg"
 width="348.000000pt" height="518.000000pt" viewBox="0 0 348.000000 518.000000"
 preserveAspectRatio="xMidYMid meet">
<metadata>
Created by potrace 1.13, written by Peter Selinger 2001-2015
</metadata>
<g transform="translate(0.000000,518.000000) scale(0.100000,-0.100000)"
fill="#000000" stroke="none">
<path d="M0 5125 l0 -55 363 -1 c222 -1 352 -4 337 -10 -22 -7 -21 -8 5 -2 17
3 247 8 513 10 l482 4 0 55 0 54 -850 0 -850 0 0 -55z"/>
<path d="M1790 5125 l0 -55 363 -1 c222 -1 352 -4 337 -10 -22 -7 -21 -8 5 -2
17 3 245 8 508 10 l477 4 0 55 0 54 -845 0 -845 0 0 -55z"/>
<path d="M368 4913 l-368 -3 0 -75 0 -75 850 0 850 0 0 75 0 75 -447 0 c-247
0 -464 2 -483 3 -19 2 -200 2 -402 0z"/>
<path d="M2158 4913 l-368 -3 0 -75 0 -75 845 0 845 0 0 75 0 75 -449 0 c-247
0 -461 1 -477 3 -16 2 -194 2 -396 0z"/>
<path d="M135 4603 c-5 -4 -16 -19 -24 -33 -14 -24 -13 -25 6 -7 23 20 54 22
71 5 9 -9 15 -10 20 -2 4 6 19 14 35 18 25 6 27 4 27 -28 0 -19 5 -38 10 -41
23 -14 7 -22 -45 -22 -30 0 -55 3 -55 8 0 15 -22 10 -37 -8 -10 -13 -16 -15
-19 -6 -3 7 -14 23 -24 35 -16 18 -19 20 -20 7 0 -9 8 -27 19 -40 21 -26 44
-28 194 -12 94 9 107 17 107 65 0 37 -36 60 -91 57 -24 -1 -71 1 -104 5 -33 4
-64 3 -70 -1z"/>
<path d="M1924 4603 c-6 -4 -17 -19 -24 -33 -13 -24 -12 -25 7 -7 23 20 54 22
72 5 11 -10 14 -10 18 0 9 23 23 12 24 -20 l2 -33 6 34 c8 48 31 53 31 7 0
-19 5 -38 10 -41 24 -15 6 -23 -45 -22 -30 1 -55 5 -55 9 0 4 -9 8 -20 8 -11
0 -19 -5 -17 -11 5 -26 -19 -17 -37 14 -11 19 -21 27 -23 19 -3 -7 2 -24 11
-37 19 -29 73 -41 117 -26 18 6 60 11 94 11 67 0 95 17 95 58 0 39 -35 63 -88
61 -26 -1 -74 1 -107 5 -33 4 -65 3 -71 -1z"/>
<path d="M1857 4313 c-4 -3 -7 -33 -7 -65 l0 -58 785 0 786 0 -3 63 -3 62
-776 3 c-426 1 -779 -1 -782 -5z m1551 -60 l3 -53 -447 0 c-356 0 -444 3 -437
13 19 24 21 54 3 69 -16 15 -84 16 -118 3 -8 -3 -21 0 -28 6 -8 6 -21 8 -31 4
-10 -5 -30 -8 -45 -9 -14 -1 -30 -4 -34 -8 -4 -4 -13 -3 -20 3 -7 5 -36 8 -66
6 l-53 -3 59 -2 c47 -2 57 -5 52 -17 -3 -8 -1 -15 4 -15 6 0 10 -5 10 -11 0
-6 -22 -9 -55 -8 -30 1 -58 -1 -62 -5 -5 -5 30 -6 77 -4 47 3 95 1 107 -3 16
-6 21 -5 17 5 -3 7 -15 12 -27 11 -12 -1 -28 0 -34 3 -14 4 -18 32 -5 33 4 0
17 2 30 5 16 3 22 -1 23 -14 0 -12 3 -11 10 6 5 15 15 22 26 20 10 -2 16 -7
15 -12 -2 -5 2 -12 9 -17 10 -6 6 -14 -14 -33 l-28 -26 -245 0 -244 0 0 48 c0
27 3 52 7 55 3 4 351 6 772 5 l766 -3 3 -52z"/>
<path d="M592 3978 c-7 -7 -9 -28 -5 -57 l6 -46 -25 23 -26 23 -24 -31 c-21
-27 -28 -30 -45 -22 -15 8 -22 7 -31 -9 -7 -11 -8 -19 -2 -19 5 0 10 -4 10
-10 0 -5 -17 -10 -37 -11 l-38 -1 30 -9 c17 -5 72 -8 122 -8 l93 2 -5 35 c-2
19 -5 61 -6 94 -1 32 -3 58 -3 58 -1 0 -7 -5 -14 -12z"/>
<path d="M1056 3975 c-9 -9 -16 -21 -16 -26 0 -6 -10 -3 -22 5 -31 22 -51 20
-76 -7 -16 -17 -22 -36 -22 -70 0 -25 5 -49 11 -53 6 -3 9 -17 6 -30 -4 -23
-2 -24 49 -24 51 0 54 1 42 20 -10 15 -10 22 0 32 14 14 16 58 2 58 -5 0 -10
-6 -10 -13 0 -27 -26 -67 -43 -67 -10 0 -15 5 -12 10 4 6 3 16 -2 23 -12 16
-16 67 -6 68 48 7 63 6 68 -2 9 -14 25 0 25 22 0 17 5 19 30 15 16 -2 32 0 36
5 8 14 24 0 24 -21 0 -10 6 -20 13 -23 9 -3 9 -7 -1 -20 -18 -21 -6 -63 12
-47 7 5 11 21 9 34 -6 29 15 38 58 26 18 -5 34 -8 36 -6 10 10 -12 59 -33 72
-20 14 -27 14 -52 2 -27 -14 -29 -13 -38 6 -12 27 -65 34 -88 11z"/>
<path d="M131 3255 c1 -49 4 -81 6 -69 3 14 16 25 41 32 40 13 57 5 42 -18 -8
-12 -12 -12 -18 -2 -12 18 -41 4 -48 -24 -3 -13 -9 -22 -13 -20 -3 2 -6 -13
-7 -35 0 -23 5 -40 13 -43 7 -3 13 -1 13 4 0 6 14 10 30 10 32 0 36 -9 20 -41
-13 -24 -36 -25 -49 -1 -10 16 -10 16 -11 -1 0 -38 54 -64 66 -32 4 8 11 15
17 15 5 0 2 -9 -7 -19 -11 -12 -13 -21 -7 -25 5 -4 14 1 18 9 8 14 12 14 37 1
16 -8 48 -14 73 -14 37 0 46 3 53 24 12 30 61 33 81 5 12 -16 29 -20 109 -23
l95 -3 0 105 c-1 84 -4 111 -18 130 l-17 25 -6 -22 c-7 -27 -17 -29 -34 -8
-11 13 -17 8 -43 -32 -21 -31 -27 -48 -19 -51 8 -2 9 -9 2 -22 -7 -13 -6 -20
3 -23 6 -2 10 -7 7 -10 -8 -8 -87 16 -101 30 -7 7 -21 8 -42 2 -42 -12 -77
-11 -77 1 0 6 7 10 15 10 10 0 15 10 15 29 0 20 9 36 27 51 16 12 29 17 31 11
2 -6 10 -11 17 -11 8 0 17 -15 21 -35 3 -19 10 -35 14 -35 5 0 16 -7 24 -16
15 -14 16 -12 17 18 3 58 4 63 12 76 5 7 5 12 0 11 -4 -1 -16 1 -26 6 -10 4
-23 2 -32 -5 -16 -13 -38 -4 -32 13 9 25 -14 47 -47 47 -19 0 -43 9 -56 20
-13 11 -27 20 -32 20 -4 0 -8 6 -8 13 0 9 -24 12 -85 12 l-85 0 1 -90z"/>
<path d="M0 1275 l0 -1275 503 0 502 0 -3 1070 -4 1070 351 0 351 0 0 70 0 70
-345 0 -345 0 0 80 0 80 345 0 345 0 0 55 0 55 -850 0 -850 0 0 -1275z"/>
<path d="M1790 2495 l0 -55 845 0 845 0 0 55 0 55 -845 0 -845 0 0 -55z"/>
<path d="M1790 2280 c0 -10 50 -14 118 -10 17 1 32 -3 32 -9 0 -6 16 -11 35
-11 19 0 35 5 35 10 0 6 13 10 29 10 26 0 30 -4 34 -32 l4 -33 1 33 2 32 700
0 c460 0 700 3 700 10 0 7 -288 10 -845 10 -557 0 -845 -3 -845 -10z"/>
<path d="M1116 1949 c-15 -31 -15 -32 2 -16 22 20 63 22 80 5 9 -9 12 -9 12 3
0 11 10 16 30 16 27 0 30 -3 30 -34 0 -18 5 -33 10 -33 6 0 10 -6 10 -14 0 -8
14 -17 30 -21 42 -9 80 16 80 54 0 48 -23 58 -152 65 l-116 7 -16 -32z"/>
<path d="M3210 1765 c0 -36 4 -65 9 -65 5 0 24 6 42 14 29 12 39 12 68 0 18
-8 37 -14 42 -14 5 0 9 29 9 65 l0 65 -85 0 -85 0 0 -65z"/>
<path d="M1399 1460 c-23 -22 -28 -30 -14 -25 11 4 29 9 40 12 16 4 17 3 5 -6
-12 -9 -9 -11 15 -11 59 0 123 -58 112 -101 -4 -16 -1 -19 14 -14 16 5 19 1
19 -26 l0 -32 -23 21 -22 21 -20 -30 c-16 -25 -25 -29 -47 -25 -28 5 -30 3
-32 -34 -1 -9 -15 -17 -36 -21 -20 -4 9 -7 72 -8 58 0 114 -4 122 -7 14 -6 16
3 13 70 -2 41 -6 78 -9 82 -4 3 -4 13 -1 22 5 14 3 14 -15 -2 -23 -20 -31 -9
-9 13 10 10 8 15 -9 29 -12 9 -25 27 -28 38 -10 31 -39 54 -78 61 -30 4 -40 0
-69 -27z"/>
<path d="M2284 1449 c-14 -16 -31 -19 -96 -19 -74 0 -78 -1 -78 -22 1 -21 2
-21 11 -5 15 26 40 21 71 -15 29 -35 35 -53 18 -63 -17 -10 -11 -32 10 -38 14
-4 18 -10 14 -22 -4 -11 -10 -13 -17 -6 -16 16 -38 -10 -23 -28 9 -12 7 -13
-11 -9 -29 8 -29 4 4 -26 22 -21 25 -28 15 -38 -11 -11 -18 -7 -40 20 -38 45
-66 42 -124 -14 -43 -41 -48 -50 -48 -91 l0 -45 31 6 c17 3 35 6 40 6 5 0 9
11 9 25 0 16 6 25 15 25 15 0 19 10 15 44 -1 11 3 15 9 12 14 -9 14 -4 1 28
-5 14 -6 26 -1 26 21 0 29 -95 9 -103 -7 -3 5 -6 27 -6 69 -2 84 -9 79 -39 -3
-15 0 -31 8 -37 7 -5 20 -23 28 -38 28 -56 43 -58 358 -55 262 3 291 5 317 22
23 15 45 18 119 17 50 -1 98 3 105 8 14 9 17 33 14 116 -4 108 -3 117 15 110
14 -5 15 -4 4 7 -10 10 -17 10 -32 0 -16 -9 -21 -9 -28 5 -9 16 -34 15 -89 -2
-17 -6 -23 -3 -23 8 0 9 -5 19 -12 23 -8 5 -9 0 -5 -15 3 -14 1 -21 -6 -18
-15 5 -26 64 -26 148 -1 57 -4 70 -27 92 l-25 25 -309 0 c-291 0 -309 -1 -326
-19z m606 -244 l0 -205 -280 0 -280 1 2 68 c1 68 2 68 35 80 27 10 37 10 49 0
21 -17 42 4 25 25 -14 16 -6 40 10 31 5 -3 6 1 3 9 -8 22 24 21 48 -1 19 -17
19 -16 12 12 -9 39 -13 43 -24 25 -6 -9 -10 -10 -10 -3 0 12 56 63 70 63 9 0
25 -19 33 -41 3 -9 -1 -28 -8 -43 -17 -33 -4 -42 21 -14 11 12 13 18 5 13 -10
-6 -12 -4 -6 4 4 8 18 11 36 7 22 -4 29 -1 34 15 5 15 14 19 33 17 23 -2 27
-8 27 -33 0 -25 -4 -30 -27 -33 -35 -4 -37 -22 -2 -22 15 0 23 -4 18 -11 -3
-6 -17 -8 -30 -5 -13 4 -24 2 -24 -3 0 -5 -16 -7 -36 -5 -23 2 -42 -2 -51 -11
-8 -8 -24 -15 -36 -15 -17 0 -18 -3 -9 -12 10 -10 19 -9 43 5 33 18 99 23 99
7 0 -14 32 -12 53 4 15 12 17 18 7 36 -13 25 2 52 26 43 8 -3 14 0 14 6 0 6 7
11 16 11 8 0 13 4 10 9 -3 5 -15 7 -26 4 -18 -5 -19 -2 -14 25 4 17 3 43 0 57
l-6 25 -165 0 -165 0 0 -79 c0 -86 -6 -97 -58 -107 l-32 -6 0 126 0 126 280 0
280 0 0 -205z"/>
<path d="M1131 633 c0 -60 3 -81 9 -67 5 12 23 27 41 33 41 14 39 15 39 -16
-1 -25 -2 -26 -14 -11 -11 15 -16 15 -31 5 -23 -18 -46 -107 -31 -123 8 -9 12
-9 14 2 4 18 62 19 62 1 0 -7 -6 -22 -14 -33 -13 -16 -18 -17 -35 -6 -14 8
-21 8 -21 1 0 -5 -4 -7 -10 -4 -5 3 -10 1 -10 -4 0 -6 9 -11 20 -11 11 0 20
-4 20 -10 0 -16 40 -12 46 5 4 8 11 15 16 15 6 0 3 -11 -6 -25 -9 -14 -12 -25
-7 -25 6 0 15 8 20 18 10 16 12 16 25 0 10 -14 28 -18 70 -18 45 0 58 4 63 18
14 36 52 43 80 13 14 -14 40 -20 117 -25 l99 -7 -5 111 c-4 87 -8 115 -22 128
-16 16 -17 16 -23 -6 -5 -22 -6 -22 -24 -6 -18 16 -20 16 -34 -2 -28 -35 -46
-74 -35 -74 7 0 8 -6 1 -17 -7 -13 -5 -21 7 -30 14 -10 15 -12 2 -13 -18 0
-87 24 -96 33 -14 13 -53 7 -71 -12 -10 -10 -28 -22 -41 -25 -12 -4 -20 -11
-17 -16 3 -5 1 -11 -4 -14 -5 -3 -11 3 -14 14 -3 12 -14 20 -25 20 -11 0 -30
12 -42 27 -18 24 -19 28 -5 35 8 5 24 6 35 3 17 -5 20 -2 20 23 0 24 -6 31
-32 40 l-33 11 39 -2 c36 -3 41 -6 49 -37 6 -26 11 -30 18 -19 7 11 9 11 9 -3
0 -10 -7 -18 -16 -18 -10 0 -14 -7 -12 -22 2 -17 11 -24 31 -26 15 -2 27 1 27
7 0 6 -10 11 -22 11 -21 1 -22 2 -5 14 9 7 17 23 17 35 0 11 9 30 20 41 21 21
40 26 40 10 0 -5 6 -7 13 -4 18 6 38 -51 23 -66 -8 -8 -7 -10 5 -5 9 3 24 -1
33 -10 15 -15 16 -14 18 12 1 15 2 36 3 45 0 9 4 20 8 24 9 10 9 24 0 22 -5 0
-16 2 -27 7 -11 5 -21 3 -26 -5 -10 -16 -41 -5 -35 12 8 22 -10 39 -49 44 -36
4 -96 39 -96 56 0 4 -38 8 -85 8 l-85 0 1 -87z"/>
<path d="M3210 580 l0 -70 41 17 c39 15 45 15 85 0 l44 -16 0 69 0 70 -85 0
-85 0 0 -70z"/>
</g>
</svg>
