<?xml version="1.0" standalone="no"?>
<!DOCTYPE svg PUBLIC "-//W3C//DTD SVG 20010904//EN"
 "http://www.w3.org/TR/2001/REC-SVG-20010904/DTD/svg10.dtd">
<svg version="1.0" xmlns="http://www.w3.org/2000/svg"
 width="316.000000pt" height="542.000000pt" viewBox="0 0 316.000000 542.000000"
 preserveAspectRatio="xMidYMid meet">
<metadata>
Created by potrace 1.13, written by Peter Selinger 2001-2015
</metadata>
<g transform="translate(0.000000,542.000000) scale(0.100000,-0.100000)"
fill="#000000" stroke="none">
<path d="M0 5355 l0 -65 790 0 790 0 0 65 0 65 -790 0 -790 0 0 -65z"/>
<path d="M1590 5315 l0 -105 111 0 c89 0 110 3 106 13 -3 8 -1 20 4 28 7 11 9
11 9 1 0 -7 5 -10 11 -6 8 4 9 0 4 -15 l-6 -21 505 0 c499 0 506 0 506 20 0
11 7 20 15 20 18 0 20 -26 3 -33 -7 -3 53 -6 135 -6 l147 -1 0 105 0 105 -775
0 -775 0 0 -105z"/>
<path d="M0 5185 l0 -95 790 0 790 0 0 95 0 95 -790 0 -790 0 0 -95z"/>
<path d="M2845 5170 c-17 -19 -31 -20 -386 -20 -245 0 -370 -3 -374 -10 -11
-18 -7 -142 5 -154 12 -12 1010 -13 1029 -1 15 9 14 138 -1 153 -8 8 -46 12
-103 12 -79 0 -94 3 -110 20 -10 11 -23 20 -30 20 -7 0 -20 -9 -30 -20z m3
-87 c37 -4 43 -8 40 -27 -3 -24 31 -22 -343 -18 -135 1 -215 6 -215 12 0 6 74
10 203 10 195 0 203 1 215 21 10 16 19 19 35 14 12 -4 41 -10 65 -12z"/>
<path d="M2311 4933 c-1 -28 -18 -39 -24 -16 -3 14 -7 11 -16 -12 -18 -42 -27
-135 -13 -135 6 0 13 6 16 13 7 19 37 -23 31 -44 -3 -10 -2 -20 3 -23 6 -3 12
3 15 14 4 15 14 20 39 22 47 2 50 2 75 16 23 13 26 49 5 74 -6 8 -17 27 -24
43 -12 29 -13 27 -16 -37 -2 -38 -5 -68 -9 -68 -9 0 -48 54 -45 63 1 5 -4 19
-12 32 -8 12 -16 35 -19 51 -3 20 -4 23 -6 7z"/>
<path d="M1281 4818 c-5 -13 -10 -32 -12 -42 -2 -11 -10 -21 -17 -24 -11 -3
-12 0 -2 17 6 12 9 27 7 34 -2 7 -11 -2 -20 -20 -16 -30 -16 -33 1 -42 10 -5
19 -23 20 -40 l2 -30 -60 -3 -61 -3 -2 -148 -2 -147 180 0 180 0 -3 150 -3
150 -57 1 c-44 0 -52 2 -34 9 12 5 22 12 22 14 0 3 -7 3 -16 -1 -13 -5 -15 -2
-9 15 4 13 2 22 -4 22 -6 0 -11 -9 -11 -19 0 -23 -16 -36 -25 -21 -3 5 -11 10
-17 10 -7 0 -6 -6 2 -15 11 -13 7 -15 -29 -15 -37 0 -41 2 -41 25 0 14 9 34
20 45 24 24 25 31 4 23 -13 -5 -15 -1 -10 15 3 12 9 31 12 42 7 27 -4 25 -15
-2z"/>
<path d="M824 4795 c-4 -8 -14 -15 -23 -15 -13 -1 -12 -4 5 -18 29 -24 51 -66
32 -60 -7 2 -17 14 -23 26 -12 26 -41 35 -66 19 -16 -10 -21 -9 -28 2 -6 9
-11 10 -15 2 -12 -18 -24 -13 -38 17 -7 15 -23 28 -36 30 l-22 3 0 -163 c0
-90 4 -158 8 -151 4 6 26 10 50 9 24 -1 42 2 42 8 0 14 150 12 159 -2 10 -15
60 -21 54 -6 -3 7 5 14 19 16 22 3 23 6 24 108 2 130 -2 161 -22 153 -11 -4
-12 -8 -3 -19 7 -8 9 -17 6 -20 -3 -3 -10 3 -15 13 -10 18 -12 25 -12 43 0 5
-13 7 -29 4 -16 -4 -32 -1 -35 5 -10 16 -26 14 -32 -4z m-148 -82 c0 -12 6
-18 19 -19 11 -1 25 -2 30 -4 6 -2 19 -3 30 -4 14 -1 20 -8 20 -23 0 -13 5
-22 10 -22 6 1 9 6 7 11 -5 17 20 39 39 33 9 -3 20 -1 24 5 4 7 18 9 32 5 22
-5 25 -3 20 14 -7 27 15 17 30 -14 11 -24 10 -25 -28 -25 -33 0 -39 -3 -39
-21 0 -16 4 -19 20 -14 52 17 74 -20 48 -78 -14 -28 -41 -47 -31 -21 4 10 -2
14 -20 14 -14 0 -29 5 -32 11 -4 6 -14 8 -22 5 -9 -4 -22 -1 -29 5 -11 9 -18
8 -29 -1 -8 -6 -19 -9 -25 -5 -6 4 -17 2 -24 -4 -8 -7 -18 -11 -22 -10 -5 1
-17 1 -28 0 -15 -1 -16 -4 -6 -16 11 -13 10 -14 -1 -10 -19 7 -39 52 -39 87 0
20 4 26 15 22 9 -4 15 -1 15 7 0 10 3 10 12 1 8 -8 15 -9 25 -1 9 8 17 8 28
-1 16 -14 35 -6 35 16 0 14 -10 16 -95 16 -38 -1 -46 2 -32 9 9 6 17 16 17 24
0 7 6 16 13 18 6 3 13 6 13 6 1 1 1 -7 0 -16z"/>
<path d="M2270 4494 c-6 -14 -10 -38 -10 -55 0 -39 -22 -119 -33 -119 -5 0 -6
20 -1 48 16 101 19 97 -68 100 l-77 3 14 -28 c8 -15 15 -33 15 -40 0 -6 6 -14
13 -16 8 -4 4 -12 -13 -26 -14 -11 -22 -23 -18 -27 4 -4 14 -1 22 5 25 21 30
-8 5 -35 -12 -13 -17 -24 -11 -24 6 0 14 5 17 10 10 16 22 11 28 -11 3 -12 10
-18 16 -14 16 9 13 -24 -3 -41 -21 -20 -28 -17 -20 8 6 20 5 21 -10 9 -9 -7
-16 -23 -16 -36 0 -12 -8 -29 -18 -38 -23 -21 -33 -22 -26 -2 4 8 1 15 -5 15
-7 0 -16 10 -21 23 -8 21 -9 21 -11 2 -2 -26 1 -99 6 -103 1 -2 31 21 65 50
35 29 75 63 91 75 l27 23 -5 -42 c-8 -53 13 -44 22 10 14 82 29 143 37 148 4
3 8 -1 8 -9 0 -8 7 -20 15 -27 9 -7 15 -29 15 -54 -1 -38 -2 -40 -15 -22 -15
20 -15 20 -15 0 0 -27 10 -36 26 -24 6 6 16 10 20 8 5 -1 19 4 31 12 16 10 19
18 11 27 -7 9 -5 17 6 28 9 9 16 12 16 6 0 -6 7 -11 15 -11 8 0 15 9 15 21 0
11 -4 17 -10 14 -5 -3 -10 0 -10 8 0 8 6 17 14 20 10 4 16 -5 21 -33 6 -35 45
-89 45 -62 0 7 -4 12 -10 12 -5 0 -10 4 -10 10 0 5 7 7 14 4 11 -4 19 9 31 51
9 31 14 59 11 62 -3 4 -24 -1 -47 -10 -22 -9 -46 -14 -53 -11 -7 3 -25 0 -39
-5 -24 -9 -26 -13 -15 -31 10 -15 10 -22 0 -32 -9 -9 -12 -7 -12 10 0 25 -23
39 -43 26 -7 -5 -3 0 10 11 13 12 23 31 23 43 0 12 5 22 10 22 6 0 10 -7 10
-15 0 -18 14 -19 43 -3 12 7 33 13 47 13 56 3 90 16 90 36 0 10 5 19 10 19 6
0 10 -5 10 -11 0 -5 5 -7 10 -4 29 18 -4 22 -142 17 -151 -5 -151 -5 -145 16
7 31 -11 27 -23 -4z"/>
<path d="M1893 4463 c-68 -2 -123 -7 -123 -11 0 -4 18 -19 39 -33 55 -35 165
-39 221 -8 46 26 52 60 10 57 -14 -1 -80 -4 -147 -5z"/>
<path d="M2745 4465 c-5 -2 -35 -9 -66 -15 l-56 -11 -13 -60 c-7 -33 -17 -62
-21 -65 -5 -3 -9 -16 -9 -30 0 -20 -4 -24 -17 -20 -13 4 -18 0 -19 -17 -1 -12
-6 -46 -11 -74 -9 -48 -8 -53 8 -53 11 0 19 -4 19 -10 0 -5 5 -10 11 -10 7 0
9 16 4 49 -4 31 -3 51 4 56 6 3 11 1 11 -5 0 -6 5 -8 10 -5 6 3 10 19 10 35 0
31 15 48 23 28 5 -12 11 16 8 34 0 4 8 12 19 18 21 11 27 1 11 -15 -12 -13
-27 -93 -15 -82 5 5 9 16 9 25 0 12 7 16 23 15 14 -2 22 3 22 12 0 8 -6 12
-14 9 -11 -4 -13 0 -9 15 3 12 9 21 14 21 5 0 9 6 9 14 0 8 9 24 20 37 15 19
19 20 20 8 0 -24 28 -31 40 -11 10 14 11 13 6 -7 -3 -13 1 -39 9 -57 8 -19 11
-49 8 -74 -6 -41 -5 -42 18 -34 21 6 36 9 72 13 4 1 7 7 7 14 0 6 19 31 41 55
23 23 57 62 77 85 19 23 32 33 28 22 -5 -11 -12 -34 -16 -50 -8 -36 -27 -73
-48 -97 -27 -32 25 -22 54 10 l26 27 -19 -33 c-11 -21 -28 -35 -45 -39 -18 -3
-28 -12 -28 -23 0 -10 -9 -28 -20 -41 -16 -19 -21 -21 -29 -10 -5 8 -11 9 -15
3 -9 -15 4 -43 17 -35 17 10 57 10 57 0 0 -19 27 14 55 67 16 30 32 53 37 50
4 -3 8 1 8 9 0 16 34 50 42 42 3 -3 6 26 7 63 l2 69 -58 31 c-32 17 -88 36
-123 41 -61 10 -193 14 -215 6z"/>
<path d="M1703 4453 l-43 -4 0 -284 c0 -307 -3 -291 54 -302 18 -3 18 -2 2 19
-9 13 -23 33 -32 45 -9 12 -14 28 -12 35 3 8 11 1 20 -16 l15 -30 8 24 c6 19
2 27 -19 43 -33 24 -34 43 -1 21 25 -16 25 -16 25 10 0 15 -4 25 -9 21 -12 -7
-41 34 -41 58 0 13 5 17 15 13 20 -7 19 3 -2 26 -23 26 -11 32 15 8 14 -14 22
-34 23 -58 1 -30 3 -26 11 22 6 38 6 92 0 150 -7 62 -7 93 0 97 10 6 26 111
17 107 -2 -1 -23 -3 -46 -5z"/>
<path d="M2783 4261 c-3 -35 -24 -143 -33 -164 -8 -20 -9 -20 -9 8 -1 22 -4
26 -13 17 -14 -14 -28 -16 -28 -2 0 5 14 16 30 25 17 9 30 20 30 26 0 6 -4 7
-10 4 -6 -3 -7 1 -4 10 8 20 -22 10 -53 -18 -13 -11 -23 -15 -23 -9 0 6 5 14
10 17 6 3 10 18 9 33 l-1 27 -10 -30 c-6 -16 -15 -33 -21 -36 -5 -4 -7 -11 -4
-17 4 -5 -3 -18 -16 -28 -12 -10 -16 -12 -9 -4 16 19 15 31 -2 24 -17 -6 -38
-52 -30 -65 3 -5 23 4 45 22 40 31 46 32 30 1 -16 -29 -71 -149 -71 -156 0 -3
6 -3 14 0 8 3 23 25 33 49 12 29 26 46 41 50 12 3 21 9 18 13 -2 4 6 8 18 8
21 2 22 -1 16 -38 -4 -22 -13 -43 -18 -47 -6 -4 -8 -11 -4 -17 8 -13 44 -15
36 -2 -3 4 0 35 7 68 11 58 13 60 43 60 17 0 38 5 46 10 12 8 9 10 -12 10 -30
0 -37 17 -16 38 7 7 8 12 2 12 -5 0 -15 -5 -22 -12 -20 -20 -22 -4 -7 52 18
67 18 67 2 73 -7 3 -13 -3 -14 -12z"/>
<path d="M81 3948 l-1 -248 180 0 180 0 0 96 c0 61 -4 93 -10 89 -5 -3 -10 -1
-10 4 0 6 5 11 10 11 6 0 10 47 9 125 0 110 -3 125 -17 124 -11 0 -12 -2 -4
-6 16 -6 16 -33 0 -33 -7 0 -32 19 -56 43 -35 33 -43 37 -37 20 6 -22 -4 -27
-41 -22 -4 0 -11 -5 -15 -13 -6 -9 -9 -9 -9 -1 0 6 4 14 10 18 5 3 1 14 -11
26 -16 16 -31 19 -99 17 l-79 -2 0 -248z"/>
<path d="M857 4179 c-11 -7 -58 -10 -115 -8 l-95 4 -8 -29 c-5 -17 -7 -32 -4
-34 2 -2 67 -5 145 -7 132 -2 142 -4 165 -25 14 -13 25 -18 25 -12 0 6 -16 26
-36 44 -60 54 -64 59 -59 69 8 11 5 11 -18 -2z"/>
<path d="M764 4065 c-3 -8 -3 -19 1 -26 5 -6 -5 -21 -21 -35 -22 -17 -25 -23
-12 -24 9 0 20 5 23 10 3 6 11 10 18 10 16 0 -52 -56 -85 -71 -37 -15 -35 -29
5 -30 31 -1 31 -1 6 -8 -14 -5 -35 -14 -47 -20 -23 -12 -30 -3 -11 16 9 9 7
10 -10 6 -19 -5 -21 -12 -21 -89 0 -69 3 -84 16 -84 8 0 12 -4 9 -10 -3 -6 5
-10 19 -10 14 0 28 5 31 10 3 6 1 10 -4 10 -19 0 -11 14 20 39 l30 24 -15 -38
c-20 -47 -20 -45 6 -45 12 0 33 10 46 23 l25 22 -12 -22 -12 -23 96 1 c52 1
98 6 101 11 3 5 -2 18 -11 29 -17 18 -19 18 -31 1 -11 -14 -15 -15 -23 -3 -6
10 -2 21 15 38 19 19 24 34 23 71 -1 26 -4 52 -8 57 -3 6 -6 23 -7 39 -1 19
-11 36 -28 49 -14 10 -26 25 -26 32 0 7 -7 16 -16 19 -22 9 -23 8 -17 -14 4
-15 0 -20 -16 -20 -13 0 -21 6 -21 18 0 14 2 15 10 2 5 -8 10 -10 10 -5 0 15
-29 55 -41 55 -5 0 -12 -7 -15 -15z"/>
<path d="M1410 4065 c14 -17 13 -18 -2 -12 -12 4 -18 2 -18 -7 0 -8 -7 -16
-15 -20 -10 -3 -15 1 -15 13 0 23 -32 23 -42 1 -11 -25 -9 -52 4 -44 8 5 9 2
5 -9 -3 -10 -2 -17 3 -17 15 0 12 -48 -2 -52 -9 -3 -8 -9 5 -22 12 -13 14 -22
7 -35 -5 -10 -11 -36 -14 -57 -2 -21 -5 -41 -5 -43 -1 -2 -8 2 -17 9 -12 11
-18 11 -29 -1 -12 -12 -12 -17 1 -33 14 -20 14 -20 29 0 13 17 14 17 15 2 0
-24 20 -23 20 1 0 24 40 36 41 13 0 -11 2 -13 6 -4 3 7 -1 20 -9 29 -11 14
-11 16 1 9 8 -5 16 -3 21 5 11 17 38 -4 52 -40 7 -21 11 -23 18 -11 6 8 10 11
10 5 0 -21 -17 -35 -33 -29 -9 3 -17 11 -17 16 0 6 -8 7 -17 3 -10 -4 -22 -8
-28 -9 -5 -1 -19 -7 -30 -14 -17 -9 -7 -11 57 -12 l77 0 7 34 c8 45 -2 90 -27
112 -18 16 -19 16 -19 -2 -1 -19 -1 -19 -15 0 -19 25 -19 40 0 32 17 -6 19 2
5 24 -6 10 -4 23 7 40 46 70 50 103 10 75 -30 -21 -40 -19 -25 5 14 22 3 50
-23 59 -12 3 -12 1 1 -14z"/>
<path d="M1874 3932 c6 -11 -11 -149 -20 -161 -1 -1 -9 3 -17 10 -13 12 -13
18 0 42 22 43 9 43 -41 2 l-45 -37 -25 29 c-25 27 -25 27 -26 6 0 -13 -9 -32
-20 -43 -20 -20 -29 -66 -10 -55 6 3 10 1 10 -4 0 -6 -4 -11 -10 -11 -6 0 -10
-31 -10 -74 0 -56 4 -75 15 -80 17 -6 21 9 5 19 -5 3 -10 15 -10 26 0 14 7 19
29 19 42 0 61 -9 61 -30 0 -13 -9 -20 -27 -23 -27 -4 -27 -4 3 -6 24 -1 33 5
42 24 12 25 12 25 44 9 55 -29 89 -35 104 -19 21 21 18 30 -26 77 -22 24 -40
49 -40 56 0 18 9 15 31 -10 14 -17 17 -18 13 -5 -8 24 3 21 29 -7 16 -17 27
-21 42 -15 15 6 16 8 4 8 -10 1 -34 18 -54 38 -29 29 -38 34 -46 22 -5 -9 -9
-9 -9 -2 0 6 7 19 16 28 15 15 18 15 38 -3 11 -10 34 -26 49 -36 15 -9 32 -28
37 -41 10 -26 28 -41 38 -30 4 4 1 10 -5 12 -7 3 -13 15 -13 27 0 21 -40 70
-40 50 0 -5 -5 -1 -11 9 -5 9 -16 17 -24 17 -8 0 -26 15 -40 34 -21 28 -25 40
-19 73 5 30 2 42 -12 53 -12 10 -15 11 -10 2z"/>
<path d="M85 3475 c0 -45 3 -54 15 -50 11 5 12 3 3 -6 -6 -6 -9 -18 -6 -25 3
-8 1 -14 -4 -14 -5 0 -10 -34 -10 -76 0 -59 3 -74 13 -70 8 3 14 -1 14 -9 0
-12 4 -11 19 4 22 22 56 18 83 -10 19 -19 13 -29 -15 -25 -23 3 -34 16 -14 16
9 0 17 4 17 8 0 13 -43 7 -48 -6 -2 -7 -7 -10 -12 -7 -4 3 -7 -3 -6 -12 0 -10
-5 -18 -11 -19 -7 -1 -17 -2 -23 -3 -5 0 -10 -8 -10 -17 0 -13 3 -14 15 -4 12
10 16 9 21 -4 3 -9 10 -13 15 -10 5 3 9 0 9 -5 0 -6 -14 -11 -31 -11 -26 0
-30 -2 -19 -15 6 -8 9 -19 6 -24 -4 -5 -2 -12 4 -16 15 -9 1 -27 -17 -21 -8 3
-11 1 -8 -4 9 -14 21 -12 39 6 9 8 16 12 16 7 0 -12 17 -14 167 -19 l132 -5 0
145 c-1 85 -5 144 -10 140 -5 -3 -9 2 -9 10 0 9 5 16 10 16 6 0 10 7 10 16 0
22 -23 12 -36 -15 -16 -31 -34 -49 -34 -33 0 7 4 12 10 12 5 0 7 7 4 15 -4 8
1 17 10 21 26 10 20 37 -6 28 -20 -6 -21 -5 -9 10 9 11 10 16 2 16 -7 0 -9 5
-5 11 5 8 8 8 14 0 8 -14 36 -5 43 13 8 19 -4 66 -16 66 -6 0 -3 6 6 13 15 10
-7 13 -123 15 -78 1 -140 -2 -140 -7 0 -5 -8 -8 -17 -7 -10 0 -17 -5 -16 -11
5 -21 -19 -14 -24 7 -10 37 -18 20 -18 -35z"/>
<path d="M611 3280 l-1 -250 180 0 181 0 -2 250 -1 251 -56 -3 c-56 -3 -57 -3
-59 -35 -2 -25 1 -31 12 -27 8 4 15 1 15 -5 0 -6 -7 -11 -15 -11 -9 0 -16 -10
-16 -22 -1 -14 -6 -5 -12 20 -9 39 -25 59 -24 30 2 -50 -4 -88 -13 -83 -5 3
-10 15 -10 26 0 36 -30 69 -62 69 -19 0 -27 -4 -22 -12 4 -6 3 -8 -3 -5 -6 4
-18 -8 -28 -26 l-16 -32 6 30 c4 16 10 32 14 35 14 9 23 50 12 50 -6 0 -10 -5
-8 -12 1 -7 -7 -12 -18 -13 -11 0 -19 -6 -17 -12 1 -7 -3 -13 -9 -13 -7 0 -9
10 -5 25 5 18 2 25 -8 25 -12 0 -15 -38 -15 -250z"/>
<path d="M1137 3523 c-2 -5 -4 -116 -3 -248 l1 -240 178 0 c97 0 177 3 177 8
0 4 0 115 0 247 l0 240 -117 0 c-91 0 -114 -3 -105 -12 15 -15 16 -28 2 -28
-6 0 -22 -12 -35 -27 -23 -26 -24 -27 -25 -7 0 11 9 29 20 39 11 10 20 22 20
27 0 10 -107 11 -113 1z"/>
<path d="M2561 3395 c-5 -18 -19 -83 -31 -142 -15 -70 -30 -116 -43 -130 -39
-43 -7 -37 38 7 25 24 47 42 50 39 2 -3 1 -21 -4 -40 -5 -19 -12 -47 -15 -64
-6 -29 -6 -30 11 -10 18 20 47 24 96 11 15 -3 27 -2 27 3 0 13 -26 21 -67 21
-35 0 -36 0 -30 38 3 20 9 53 13 72 l7 35 -30 -27 c-16 -16 -33 -28 -37 -28
-4 0 -5 19 -1 43 5 31 16 50 43 74 20 17 33 35 29 39 -4 4 -13 2 -19 -4 -30
-30 -33 -11 -12 72 10 40 -13 32 -25 -9z"/>
<path d="M1660 3190 l0 -230 -35 0 -35 0 0 -100 0 -100 775 0 775 0 0 125 c0
69 -3 124 -7 124 -21 -3 -22 4 -8 37 8 20 15 53 15 73 0 34 -3 39 -53 64 -30
15 -57 27 -61 27 -17 0 8 -20 49 -40 25 -12 45 -26 45 -30 0 -21 -22 -19 -59
5 -43 27 -51 29 -51 17 0 -4 16 -16 35 -26 19 -11 35 -22 35 -26 0 -4 -25 -15
-55 -25 -30 -9 -55 -19 -55 -22 0 -2 9 -1 20 2 15 5 20 2 20 -13 0 -35 -24
-45 -92 -35 -35 4 -63 13 -63 18 1 11 -45 38 -52 31 -3 -3 11 -21 31 -41 20
-19 36 -40 36 -45 0 -6 -26 -10 -57 -10 l-58 0 -2 35 c-2 28 1 35 15 35 16 1
16 1 0 11 -18 10 -19 50 -3 100 4 11 2 19 -4 19 -5 0 -17 -24 -27 -52 -9 -29
-21 -59 -27 -66 -5 -7 -17 -27 -26 -44 -18 -36 -68 -57 -78 -32 -3 7 -9 11
-14 8 -5 -3 -13 6 -19 20 -14 37 -30 32 -23 -7 5 -31 3 -34 -18 -31 -13 1 -31
3 -40 3 -33 2 -66 141 -45 191 28 70 75 205 71 208 -5 5 -135 -100 -135 -110
0 -14 11 -9 51 23 21 17 39 26 39 20 0 -6 -11 -39 -24 -74 -13 -34 -27 -100
-31 -145 -7 -86 -25 -113 -25 -39 0 23 -5 49 -10 57 -8 12 -10 10 -10 -11 0
-29 -29 -119 -38 -120 -34 -5 -172 -5 -172 0 0 3 14 18 32 33 18 14 30 30 25
34 -4 4 -15 0 -25 -9 -10 -10 -23 -17 -28 -17 -5 0 -15 -9 -22 -20 -7 -11 -21
-20 -32 -20 -20 0 -20 1 -5 31 9 17 14 33 11 36 -3 3 -10 -6 -17 -20 -7 -15
-17 -23 -25 -20 -8 3 -17 -2 -20 -11 -10 -25 -63 -21 -73 6 -12 33 -3 55 30
68 30 13 38 37 18 57 -12 12 -3 53 12 53 5 0 9 6 9 13 -1 6 -10 1 -21 -13 -20
-23 -52 -44 -107 -70 -19 -8 -29 -6 -52 12 -16 13 -29 29 -29 36 -1 6 -8 12
-17 12 -8 0 -12 4 -9 10 3 5 -1 20 -9 32 -9 12 -16 27 -16 33 0 5 37 28 81 50
76 38 114 65 91 65 -5 0 -15 -7 -22 -15 -7 -8 -18 -15 -26 -15 -7 0 -30 -11
-50 -25 -20 -14 -41 -25 -45 -25 -12 0 -11 18 1 22 15 5 25 98 11 98 -8 0 -10
-8 -6 -19 10 -31 -19 -52 -55 -39 -26 9 -29 12 -18 26 12 14 8 15 -27 10 l-40
-6 30 13 c17 8 35 14 42 15 6 0 15 5 18 10 5 8 -10 9 -44 4 -35 -4 -51 -3 -51
5 0 6 -4 11 -10 11 -6 0 -10 -83 -10 -230z m535 -250 c4 -6 158 -10 431 -10
362 0 424 -2 424 -14 0 -8 -4 -17 -9 -20 -11 -7 -810 -4 -1121 4 l-235 6 217
2 c206 2 218 3 228 22 11 21 54 28 65 10z"/>
<path d="M84 2841 c-2 -2 -4 -17 -4 -33 l0 -28 147 0 148 0 -31 31 c-30 30
-32 30 -143 32 -62 1 -115 0 -117 -2z"/>
<path d="M0 2635 l0 -105 790 0 790 0 0 95 0 95 771 0 c561 0 775 -3 785 -11
11 -9 14 -8 14 3 0 13 -156 16 -1177 21 -648 4 -1357 7 -1575 7 l-398 0 0
-105z"/>
<path d="M1030 2493 c-26 -11 -42 -13 -62 -5 -19 7 -28 7 -32 -2 -3 -7 -7 -8
-13 -1 -9 11 -73 14 -73 4 0 -4 -9 -9 -20 -12 -18 -5 -20 -14 -20 -80 0 -59 3
-76 16 -81 9 -3 121 -6 250 -6 234 0 235 0 243 23 10 26 3 127 -10 143 -6 7
-44 10 -102 9 -62 -1 -98 3 -112 12 -23 15 -21 16 -65 -4z"/>
<path d="M2313 955 c-82 -35 -68 -155 22 -185 40 -13 62 -4 94 36 23 29 28 83
10 116 -9 17 -65 49 -86 48 -4 -1 -22 -7 -40 -15z"/>
<path d="M0 145 l0 -125 788 1 c433 0 796 4 807 9 17 7 17 9 3 9 -16 1 -18 13
-18 116 l0 115 -790 0 -790 0 0 -125z m125 85 c4 -7 242 -10 681 -10 l675 0
-3 -22 -3 -23 -700 0 c-666 0 -700 1 -703 18 -7 33 37 63 53 37z"/>
</g>
</svg>
