<?xml version="1.0" standalone="no"?>
<!DOCTYPE svg PUBLIC "-//W3C//DTD SVG 20010904//EN"
 "http://www.w3.org/TR/2001/REC-SVG-20010904/DTD/svg10.dtd">
<svg version="1.0" xmlns="http://www.w3.org/2000/svg"
 width="409.000000pt" height="379.000000pt" viewBox="0 0 409.000000 379.000000"
 preserveAspectRatio="xMidYMid meet">
<metadata>
Created by potrace 1.13, written by Peter Selinger 2001-2015
</metadata>
<g transform="translate(0.000000,379.000000) scale(0.100000,-0.100000)"
fill="#000000" stroke="none">
<path d="M0 3705 l0 -85 1005 0 1005 0 0 85 0 85 -1005 0 -1005 0 0 -85z"/>
<path d="M2080 3650 l0 -140 773 -1 c867 -2 1001 -2 1140 0 l97 1 0 140 0 140
-1005 0 -1005 0 0 -140z m1495 -5 l0 -100 -490 0 -490 0 -3 89 c-2 49 -1 95 2
103 5 11 93 13 493 11 l488 -3 0 -100z"/>
<path d="M800 3445 l0 -105 548 2 547 3 3 103 3 102 -551 0 -550 0 0 -105z
m920 0 l0 -95 -455 0 -455 0 0 95 0 95 455 0 455 0 0 -95z"/>
<path d="M0 3155 l0 -115 190 0 190 0 0 115 0 115 -190 0 -190 0 0 -115z"/>
<path d="M390 3155 l0 -115 200 0 200 0 0 115 0 115 -200 0 -200 0 0 -115z"/>
<path d="M800 3155 l0 -115 195 0 195 0 0 115 0 115 -195 0 -195 0 0 -115z"/>
<path d="M1200 3155 l0 -115 195 0 195 0 0 115 0 115 -195 0 -195 0 0 -115z"/>
<path d="M1610 3155 l0 -115 200 0 200 0 0 115 0 115 -200 0 -200 0 0 -115z"/>
<path d="M2250 1890 l0 -1120 258 0 c224 1 253 3 222 14 -19 7 -48 19 -65 26
-29 13 -29 14 -7 18 13 2 31 0 40 -4 9 -4 25 -6 35 -5 17 2 65 -15 109 -39 10
-6 90 -10 179 -10 l161 0 -6 36 c-4 19 -10 42 -13 50 -3 8 1 14 8 14 7 0 21 8
31 17 17 15 20 15 40 -7 13 -14 23 -19 26 -12 2 7 18 12 36 12 l33 0 -5 -55
-4 -55 63 -1 c35 0 132 0 214 0 83 0 187 1 233 1 l82 0 0 105 c0 58 -3 105 -7
106 -35 3 -123 29 -123 36 0 6 91 -4 115 -13 8 -4 15 -1 15 6 0 6 -9 14 -20
17 -11 3 -20 10 -20 15 0 5 9 6 20 3 20 -6 20 -2 20 979 l0 986 -835 0 -835 0
0 -1120z m592 979 c25 -18 78 -88 78 -104 0 -3 -11 -5 -25 -5 -14 0 -25 -4
-25 -10 0 -5 13 -7 30 -4 26 6 31 3 40 -22 14 -35 6 -68 -26 -116 -32 -49 -35
-169 -6 -190 10 -7 27 -26 37 -41 16 -24 16 -30 4 -38 -33 -21 -87 0 -151 57
-21 18 -49 36 -63 40 -23 6 -36 24 -16 24 16 0 42 82 36 114 -10 49 -27 86
-36 80 -5 -3 -9 -3 -9 0 0 2 -3 12 -7 22 -4 11 -3 15 5 10 7 -4 10 10 9 46 -2
48 2 58 38 106 21 28 43 52 48 52 5 0 22 -9 39 -21z m-142 -501 c30 -49 44
-131 30 -173 -6 -19 -16 -38 -22 -41 -6 -4 -8 1 -3 16 5 15 4 20 -4 16 -14 -9
-47 -84 -78 -176 -13 -41 -29 -80 -34 -86 -12 -15 55 -57 116 -73 136 -36 210
-51 253 -51 41 0 57 -6 97 -36 34 -26 61 -38 98 -43 30 -3 52 -12 55 -20 3
-10 0 -12 -13 -7 -13 4 -16 2 -11 -9 6 -17 -19 -21 -29 -5 -3 6 -12 10 -18 10
-7 0 3 -14 22 -31 26 -24 31 -33 21 -42 -10 -9 -11 -9 -6 0 3 7 -2 14 -14 18
-11 3 -20 12 -21 18 0 13 -75 77 -90 77 -4 0 1 -19 11 -42 21 -46 25 -78 11
-78 -5 0 -14 14 -20 32 -6 17 -13 29 -16 26 -3 -3 -1 -18 5 -33 13 -34 6 -44
-12 -16 -7 12 -17 21 -23 21 -5 0 -19 17 -30 38 -22 41 -26 42 -195 62 -110
13 -129 17 -230 51 -92 30 -102 42 -93 104 6 37 117 397 138 448 26 64 74 75
105 25z m452 -415 c13 -16 35 -44 48 -63 44 -67 124 -150 143 -150 8 0 20 -7
27 -15 15 -18 -1 -21 -32 -4 -24 13 -35 5 -19 -14 6 -8 9 -22 5 -31 -3 -9 -1
-16 5 -16 20 0 11 -26 -9 -27 -14 -1 -20 5 -21 20 -1 17 -3 15 -9 -8 -8 -35
-16 -24 -29 45 l-9 45 -1 -54 c-1 -46 -3 -52 -16 -41 -8 7 -15 29 -15 49 0 20
-5 43 -10 51 -7 11 -10 11 -10 2 0 -7 -4 -10 -10 -7 -5 3 -9 22 -8 41 1 26 -6
43 -28 67 -38 41 -53 76 -47 110 7 34 13 34 45 0z"/>
<path d="M257 2779 c-9 -5 -22 -7 -27 -4 -6 3 -10 1 -10 -4 0 -6 -6 -11 -14
-11 -7 0 -19 -7 -26 -15 -11 -13 -16 -14 -34 -1 -28 18 -76 18 -76 0 0 -8 -6
-14 -12 -14 -7 0 -19 -12 -25 -27 -15 -32 -17 -93 -3 -93 6 0 10 -6 10 -14 0
-8 12 -24 26 -35 l26 -20 -26 -7 c-38 -9 -56 -41 -56 -96 l0 -48 35 0 c30 0
35 3 35 24 0 52 42 132 53 102 3 -8 -3 -22 -14 -32 -10 -9 -19 -22 -19 -27 0
-6 7 -2 15 9 15 18 16 17 9 -16 -3 -19 -11 -41 -16 -47 -8 -10 47 -13 271 -13
l281 0 0 90 c0 53 -4 90 -10 90 -5 0 -10 -4 -10 -10 0 -5 -5 -10 -11 -10 -6 0
-1 15 10 34 17 27 21 50 21 120 l0 86 -36 0 c-19 0 -44 -4 -54 -10 -36 -19
-47 -92 -25 -172 6 -24 3 -29 -19 -38 -19 -7 -26 -17 -26 -35 0 -22 -9 -30
-32 -26 -5 0 -8 -6 -8 -15 0 -9 -5 -12 -12 -8 -7 4 -8 3 -4 -5 10 -15 -11 -41
-34 -41 -16 0 -30 19 -30 41 0 5 7 9 15 9 12 0 13 4 5 19 -13 26 -13 34 2 25
8 -5 9 -2 5 9 -3 10 -2 17 3 17 6 0 10 8 10 19 0 10 9 21 20 24 22 6 27 -12 8
-31 -9 -9 -9 -15 -1 -23 7 -7 12 -2 18 18 3 15 14 36 22 45 12 13 14 29 10 61
-6 45 -1 60 23 70 12 4 12 6 -2 6 -9 1 -20 -3 -23 -9 -11 -17 -38 -12 -31 6 4
11 2 15 -8 11 -10 -4 -13 -1 -9 9 8 22 -28 14 -49 -11 -10 -11 -17 -16 -18
-12 0 11 -24 -14 -38 -40 -14 -25 -16 -79 -3 -87 12 -8 20 -57 14 -89 -4 -22
-8 -25 -19 -16 -8 6 -14 18 -14 25 0 8 -7 14 -15 14 -17 0 -20 23 -5 50 15 28
16 143 2 148 -7 2 -12 12 -12 23 0 21 -7 23 -33 8z"/>
<path d="M802 2746 c-1 -21 -7 -45 -13 -52 -9 -11 -8 -14 2 -14 8 0 21 -13 30
-29 l17 -29 -42 -6 c-36 -6 -44 -4 -63 18 -25 29 -38 34 -29 11 3 -9 0 -15 -9
-15 -12 0 -15 -20 -15 -110 l0 -110 119 0 118 0 6 68 c4 37 7 99 7 139 0 64 3
74 25 91 14 11 49 23 80 27 30 3 57 10 60 15 3 5 15 6 28 1 14 -5 30 -5 40 0
26 15 20 1 -8 -17 -21 -14 -28 -14 -43 -3 -16 13 -16 12 -1 -6 13 -15 15 -34
11 -82 l-4 -62 -52 -21 c-28 -11 -38 -18 -22 -15 15 3 41 8 56 12 19 3 47 -4
85 -21 50 -22 56 -28 53 -52 -2 -15 2 -29 8 -31 6 -2 9 11 7 34 l-4 38 15 -30
c17 -36 21 -17 4 20 -6 14 -14 21 -18 15 -9 -14 -114 43 -118 65 -2 10 -1 41
2 69 8 63 30 81 87 71 55 -10 81 -34 89 -86 6 -36 8 -29 9 43 l1 86 -82 7
c-46 3 -162 5 -259 3 l-176 -3 -1 -39z"/>
<path d="M1340 2600 c0 -210 3 -219 55 -149 37 50 61 48 58 -4 l-2 -37 154 0
c138 0 154 2 158 18 4 16 5 16 6 0 0 -10 8 -18 17 -18 14 0 16 8 10 55 l-6 55
37 1 38 2 -35 6 c-34 6 -35 7 -32 49 3 41 -12 59 -21 25 -4 -16 -5 -16 -6 -1
0 9 4 20 9 23 6 3 10 42 10 86 l0 79 -225 0 -225 0 0 -190z m124 93 c-11 -10
-15 -15 -10 -10 18 13 31 7 48 -20 l17 -28 1 32 c0 17 4 34 10 38 10 6 45 -53
37 -62 -3 -2 -8 5 -12 16 -9 29 -25 26 -25 -3 0 -14 -4 -28 -10 -31 -17 -10
-11 -32 10 -38 11 -3 20 -11 20 -19 0 -10 -3 -9 -10 2 -9 13 -10 13 -11 0 -1
-8 -1 -22 0 -32 1 -9 -4 -20 -10 -24 -9 -5 -10 -2 -6 10 4 10 1 24 -8 32 -13
14 -15 13 -15 -9 0 -21 -4 -24 -31 -22 -40 3 -67 28 -51 48 9 11 9 22 -2 49
-17 39 -14 46 34 75 39 25 52 22 24 -4z"/>
<path d="M644 1832 c-30 -19 -84 -96 -75 -105 5 -5 7 -23 4 -40 -6 -28 -5 -29
16 -18 13 7 26 29 33 56 13 49 23 56 33 24 4 -13 0 -28 -12 -41 -18 -21 -18
-21 7 -7 14 8 33 20 43 28 15 13 20 13 34 -2 11 -11 13 -17 5 -17 -7 0 -12 -7
-12 -16 0 -10 7 -14 18 -12 9 2 16 10 14 16 -3 17 6 15 31 -8 18 -18 19 -22 7
-30 -24 -15 -7 -19 30 -6 33 10 35 14 38 60 4 60 -11 100 -44 115 -28 12 -153
15 -170 3z"/>
<path d="M500 1674 c0 -13 -7 -15 -36 -10 -21 5 -47 2 -65 -6 -27 -12 -29 -16
-29 -72 l0 -59 58 7 c31 4 84 10 117 12 32 3 61 7 63 9 3 2 11 -2 19 -10 16
-17 113 -21 113 -5 0 6 -7 10 -15 10 -8 0 -15 6 -15 13 0 12 -44 37 -65 37 -6
0 -20 -7 -31 -16 -10 -8 -12 -12 -4 -8 12 6 13 4 3 -7 -11 -11 -18 -10 -40 8
-22 16 -29 29 -31 67 -3 38 -7 46 -23 46 -11 0 -19 -7 -19 -16z"/>
<path d="M411 1430 c-2 -34 -2 -34 -17 -15 -15 19 -16 19 -12 -12 4 -26 1 -33
-13 -33 -38 0 -48 -26 -46 -121 2 -96 10 -116 28 -75 7 14 16 23 21 20 4 -3 6
10 4 28 -3 29 0 36 24 46 22 10 32 10 56 -3 25 -12 31 -13 43 -1 21 22 6 60
-33 81 -31 17 -33 20 -18 32 16 11 16 12 0 13 -10 0 -20 14 -26 38 l-10 37 -1
-35z"/>
<path d="M563 1428 c2 -18 0 -43 -4 -55 -10 -28 21 -50 49 -34 14 8 14 11 2
11 -10 1 -9 4 5 10 16 7 17 9 3 9 -28 1 -28 16 0 16 15 0 37 -10 50 -22 25
-26 28 -38 8 -30 -10 4 -13 1 -9 -9 6 -17 20 -18 26 -1 3 9 8 9 21 -2 15 -13
14 -25 -2 -26 -26 -2 -54 -20 -61 -38 -25 -68 -25 -69 11 -65 29 3 37 10 65
62 l31 60 -24 19 c-26 20 -33 57 -10 57 7 0 17 10 21 23 4 14 8 17 12 9 4 -11
8 -10 22 1 14 13 18 12 36 -5 20 -20 20 -20 -9 -12 -26 6 -27 5 -17 -14 6 -12
17 -19 25 -16 11 4 13 0 9 -16 -5 -20 9 -39 30 -40 4 0 7 32 7 70 l0 70 -51 0
c-37 0 -56 -5 -66 -17 -14 -17 -14 -17 -9 0 4 13 0 17 -19 17 -18 0 -25 -6
-25 -18 0 -10 -3 -21 -6 -24 -8 -9 -76 12 -95 28 -24 21 -29 17 -26 -18z"/>
<path d="M327 933 c-3 -81 -4 -150 -1 -155 3 -4 20 -8 39 -8 27 0 34 4 37 22
l3 23 22 -24 c20 -22 27 -23 80 -16 32 4 74 7 94 6 33 -2 37 1 42 29 12 58 8
60 -135 60 -99 0 -133 3 -144 14 -19 20 -19 43 0 27 8 -7 16 -8 19 -4 3 5 43
8 90 8 62 -1 84 2 80 11 -3 8 7 12 28 11 31 -2 33 0 41 42 9 54 21 69 43 51 9
-8 15 -29 15 -57 l0 -45 36 4 36 4 -7 -35 c-4 -20 -4 -33 0 -30 10 11 23 109
14 109 -5 0 -9 7 -9 15 0 8 9 15 20 15 24 0 24 -7 4 -75 -8 -30 -14 -78 -12
-107 l3 -53 41 -3 c52 -4 54 1 54 176 l0 132 -263 0 -264 0 -6 -147z"/>
<path d="M544 544 c-18 -14 -18 -15 4 -4 25 12 38 8 28 -9 -4 -6 -12 -8 -19
-6 -22 9 -35 -9 -30 -43 4 -27 9 -32 25 -26 10 3 27 0 36 -8 15 -12 16 -11 3
5 -12 15 -11 17 2 17 9 0 22 -7 29 -15 31 -34 38 -45 38 -57 0 -7 8 -3 18 10
l18 23 19 -21 c16 -17 29 -21 77 -19 61 2 73 15 41 40 -16 13 -17 12 -5 -3 27
-35 -7 -25 -64 18 -46 34 -65 43 -84 38 -14 -3 -28 -11 -32 -17 -5 -7 -8 -2
-8 13 -1 46 -11 69 -28 63 -10 -4 -13 -2 -8 5 11 18 -37 15 -60 -4z"/>
<path d="M10 190 l0 -180 251 0 250 0 -4 170 c-2 93 -7 173 -11 177 -4 4 -69
9 -145 11 -117 4 -139 2 -150 -12 -11 -13 -11 -22 -3 -41 9 -20 9 -25 -2 -25
-17 0 -38 24 -35 42 4 32 -3 35 -76 36 l-75 2 0 -180z"/>
<path d="M2080 105 l0 -105 405 0 405 0 0 70 c0 70 4 77 43 71 4 0 7 6 7 15 0
8 5 12 11 9 6 -4 8 -13 6 -19 -4 -9 3 -11 19 -8 19 3 24 10 23 31 -2 23 -2 24
-6 4 -2 -13 -8 -23 -13 -23 -4 0 -6 9 -3 20 7 27 -28 27 -45 0 -24 -39 -122
-19 -122 26 0 12 -55 14 -365 14 l-365 0 0 -105z"/>
<path d="M3108 203 l172 -3 0 -100 0 -100 405 0 405 0 0 105 0 105 -165 0
c-157 0 -165 -1 -165 -20 0 -28 -30 -40 -103 -40 -64 0 -97 16 -97 48 0 9 -79
11 -312 10 -188 -2 -244 -4 -140 -5z"/>
</g>
</svg>
