<?xml version="1.0" standalone="no"?>
<!DOCTYPE svg PUBLIC "-//W3C//DTD SVG 20010904//EN"
 "http://www.w3.org/TR/2001/REC-SVG-20010904/DTD/svg10.dtd">
<svg version="1.0" xmlns="http://www.w3.org/2000/svg"
 width="335.000000pt" height="497.000000pt" viewBox="0 0 335.000000 497.000000"
 preserveAspectRatio="xMidYMid meet">
<metadata>
Created by potrace 1.13, written by Peter Selinger 2001-2015
</metadata>
<g transform="translate(0.000000,497.000000) scale(0.100000,-0.100000)"
fill="#000000" stroke="none">
<path d="M1735 4962 c-17 -12 -11 -45 10 -53 18 -7 18 -8 -4 -8 -28 -1 -19
-16 14 -24 15 -3 13 -5 -8 -6 -35 -1 -26 -21 11 -22 23 -1 22 -3 -8 -9 l-35
-7 25 -11 c16 -7 19 -11 9 -11 -11 -1 -16 -10 -16 -26 0 -22 4 -24 51 -28 l51
-3 -52 -2 c-56 -2 -67 -15 -51 -59 4 -13 5 -30 1 -40 -4 -11 -3 -14 5 -9 7 4
12 2 12 -3 0 -6 -8 -11 -17 -12 -12 -1 -10 -4 7 -9 17 -5 19 -8 8 -9 -28 -2
-21 -19 10 -24 l27 -4 -27 -2 c-16 0 -28 -6 -28 -12 0 -7 12 -10 29 -7 17 2
28 1 25 -4 -3 -4 -16 -8 -29 -8 -28 0 -45 -20 -18 -21 10 0 13 -3 6 -6 -7 -2
-13 -9 -13 -14 0 -6 5 -7 10 -4 6 3 10 1 10 -4 0 -6 -4 -11 -10 -11 -5 0 -10
-5 -10 -11 0 -6 8 -8 19 -4 10 3 25 -1 33 -8 7 -8 20 -16 28 -19 12 -5 11 -7
-4 -13 -10 -5 -21 -3 -25 2 -3 6 -16 13 -27 17 -19 6 -22 3 -20 -19 1 -19 6
-25 24 -25 13 0 31 4 40 8 12 6 22 3 35 -10 16 -17 15 -18 -46 -18 l-62 0 3
-45 c3 -26 9 -43 15 -42 19 3 21 -110 3 -137 -13 -20 -20 -55 -17 -80 1 -5 12
1 26 14 17 16 25 19 25 9 0 -32 -13 -59 -31 -64 -10 -4 -19 -16 -19 -27 0 -12
5 -18 13 -15 6 3 29 12 50 21 l37 16 -1 -27 c0 -16 -4 -50 -7 -78 l-7 -50 -45
-6 c-25 -3 321 -7 768 -7 536 -1 812 1 812 8 0 6 -22 10 -48 10 -47 0 -48 1
-44 28 7 49 -22 63 -163 77 -69 7 -129 16 -133 20 -4 4 21 5 56 2 49 -4 65 -2
69 9 6 16 33 19 33 3 0 -5 5 -7 11 -3 8 4 8 9 0 17 -8 8 -6 16 6 29 20 22 12
33 -15 19 -13 -7 -29 -8 -44 -2 -17 7 -19 10 -5 10 19 1 24 21 5 21 -7 0 -23
-18 -36 -40 -16 -28 -29 -40 -45 -40 -12 0 -35 -7 -51 -15 -30 -16 -27 -16
-359 11 -82 7 -108 20 -58 30 29 6 29 7 14 30 -16 25 -4 33 19 12 19 -18 38
-21 54 -7 20 16 17 27 -8 32 -23 4 -23 4 -1 6 14 1 23 9 25 23 3 25 38 38 38
15 0 -16 48 -52 58 -43 3 3 0 6 -8 6 -10 0 -10 3 1 16 8 10 23 14 41 12 15 -3
29 0 31 6 2 6 6 0 9 -12 5 -19 3 -21 -20 -15 -25 6 -25 6 -9 -18 23 -32 21
-48 -5 -58 -18 -7 -13 -9 22 -8 29 1 49 -3 57 -13 14 -19 92 -18 104 1 5 8 12
36 15 62 4 28 13 51 20 53 8 2 22 7 32 11 9 3 22 6 27 5 6 -1 19 17 30 39 10
23 25 44 32 46 7 3 13 15 12 27 0 20 -1 20 -12 2 -23 -38 -89 -105 -108 -111
-11 -4 -27 -1 -35 6 -12 10 -18 8 -35 -9 -19 -22 -76 -32 -64 -12 3 6 14 10
23 10 27 0 72 48 72 76 0 14 -4 23 -9 20 -5 -4 -17 -3 -26 0 -14 6 -12 11 13
38 32 33 72 106 72 130 0 8 6 16 12 18 9 3 8 10 -5 23 -10 9 -16 24 -13 32 3
8 1 11 -4 8 -6 -3 -10 1 -10 9 0 8 5 18 10 21 6 3 10 2 10 -3 0 -4 16 -16 36
-25 34 -17 36 -17 41 1 6 24 44 22 54 -4 4 -10 8 -44 8 -75 1 -30 5 -59 10
-65 4 -5 12 -22 15 -39 7 -29 7 -29 -12 -12 -15 13 -22 15 -27 7 -8 -13 11
-30 33 -30 6 0 12 -6 12 -14 0 -9 16 -16 48 -19 86 -10 122 -8 122 8 0 8 -8
15 -17 15 -17 1 -17 1 0 14 14 11 17 30 17 130 l0 116 -24 0 c-35 0 -43 20 -9
21 26 1 26 1 5 7 -32 9 -32 26 -1 30 20 2 27 9 27 27 0 14 -7 26 -17 28 -14 4
-14 5 2 6 20 1 23 21 3 21 -8 0 -18 -9 -21 -21 -14 -43 -25 0 -29 111 -3 64
-9 116 -15 118 -5 2 -20 -2 -32 -9 -22 -11 -22 -12 -3 -26 18 -14 18 -14 -6
-12 -61 5 -60 7 -60 -101 0 -91 -2 -100 -19 -100 -10 0 -21 7 -25 15 -9 25
-60 18 -92 -12 -16 -15 -32 -27 -36 -26 -3 1 -12 -4 -18 -12 -15 -18 -32 -20
-28 -2 10 52 -52 87 -84 47 -19 -24 -24 -60 -8 -60 6 0 10 4 10 8 0 5 6 16 13
26 14 20 47 12 47 -11 0 -8 -4 -11 -10 -8 -5 3 -10 -1 -10 -10 0 -9 5 -13 10
-10 6 3 10 1 10 -4 0 -6 9 -11 20 -11 11 0 20 5 20 11 0 7 10 9 26 5 21 -6 25
-4 21 8 -9 23 8 28 24 8 43 -54 47 -92 6 -70 -12 6 -42 15 -67 20 -25 4 -60
10 -78 14 -28 5 -31 4 -26 -11 4 -11 14 -15 27 -11 15 4 17 2 8 -7 -9 -9 -16
-9 -31 1 -26 16 -47 15 -54 -3 -3 -8 -16 -16 -28 -16 -18 -1 -19 -2 -5 -6 14
-3 17 -13 15 -36 -4 -42 -13 -47 -78 -46 l-55 1 48 8 c56 10 65 16 49 32 -8 8
-12 9 -12 1 0 -6 -20 -13 -44 -14 -24 -2 -42 0 -39 4 8 13 -18 67 -33 67 -20
0 -32 31 -27 67 4 27 1 34 -25 47 -40 21 -59 20 -70 -1 -15 -30 13 -77 30 -50
4 6 10 9 13 5 10 -10 -4 -45 -20 -52 -9 -3 -12 0 -8 10 3 7 0 14 -6 14 -6 0
-11 -6 -11 -14 0 -8 -5 -18 -12 -22 -8 -5 -9 -2 -5 9 5 14 0 17 -26 16 -23 -1
-26 -3 -9 -6 13 -3 22 -12 22 -23 0 -13 -5 -17 -15 -14 -8 4 -15 2 -15 -4 0
-6 6 -12 13 -15 9 -3 7 -10 -6 -23 -16 -17 -19 -17 -27 -4 -23 38 -29 43 -44
37 -9 -4 -16 -18 -16 -32 0 -16 -6 -25 -15 -25 -8 0 -15 -8 -15 -18 0 -17 4
-17 47 -8 38 9 42 12 20 14 -20 3 -27 9 -27 26 0 36 10 37 40 2 37 -42 46
-125 15 -136 -26 -9 -25 -29 2 -60 20 -21 21 -26 7 -28 -8 -2 -24 4 -35 14
-11 10 -19 12 -19 6 0 -7 -7 -12 -15 -12 -22 0 -18 30 8 58 l22 25 -22 -12
c-13 -6 -23 -16 -23 -21 0 -6 -12 -10 -26 -10 -14 0 -23 4 -20 9 7 10 -22 24
-34 16 -5 -3 -8 7 -7 22 3 30 37 47 37 19 0 -9 8 -16 20 -16 11 0 20 -5 20
-11 0 -5 5 -7 12 -3 8 5 2 15 -16 31 -19 16 -25 29 -21 42 3 11 1 22 -5 26 -5
3 -10 16 -10 28 0 33 -43 118 -57 113 -17 -7 -26 29 -13 54 6 11 20 20 30 20
11 0 20 6 20 13 0 22 -23 37 -57 37 -18 0 -33 5 -33 11 0 5 -4 8 -9 4 -5 -3
-12 -1 -16 5 -3 5 1 10 9 10 9 0 16 5 16 10 0 17 -29 11 -40 -9 -7 -14 -6 -21
3 -24 6 -3 -11 -6 -39 -6 -33 -1 -56 -6 -64 -16 -21 -25 -40 -18 -40 15 0 17
-4 30 -10 30 -5 0 -10 -4 -10 -10 0 -5 -8 -10 -17 -10 -15 0 -16 2 -3 10 13 8
13 10 -2 10 -9 0 -18 -6 -21 -12 -2 -7 -7 16 -12 52 -4 36 -9 59 -12 53 -6
-18 -43 -16 -43 1 0 8 -6 16 -12 19 -27 9 0 16 30 8 l32 -10 0 60 0 59 -102 0
c-57 0 -107 -4 -113 -8z"/>
<path d="M2031 4895 c2 -41 6 -75 9 -75 3 0 4 -29 3 -65 -1 -39 3 -65 9 -65 6
0 8 7 4 15 -3 8 -2 14 2 14 4 -1 12 0 17 1 6 1 25 1 44 0 19 -1 31 2 27 8 -3
5 1 13 10 16 8 3 12 10 9 16 -6 10 7 14 33 11 7 -1 12 10 12 29 0 16 -5 30
-10 30 -7 0 -7 6 0 19 5 11 10 33 10 50 0 16 6 31 12 33 24 8 -86 38 -139 38
l-54 0 2 -75z"/>
<path d="M1283 4522 l1 -60 69 -13 c61 -11 67 -14 51 -26 -23 -16 -16 -23 18
-16 17 3 25 10 21 19 -3 8 1 14 11 14 14 0 16 11 15 65 l-2 65 -78 0 c-42 0
-84 3 -93 6 -13 5 -15 -4 -13 -54z"/>
<path d="M77 4223 c-25 -27 -26 -31 -21 -113 4 -62 10 -87 22 -97 16 -11 15
-13 -3 -14 -11 -1 -2 -5 20 -9 l40 -7 -37 -2 -38 -1 0 -48 0 -49 176 -6 c97
-4 180 -4 185 -1 5 3 7 24 5 47 -3 23 -5 84 -5 135 l-1 93 -35 -3 c-21 -1 -35
-7 -35 -15 0 -7 -4 -13 -10 -13 -5 0 -10 -9 -10 -20 0 -13 5 -18 15 -14 10 4
15 0 15 -11 0 -9 -4 -14 -9 -11 -10 7 -21 -17 -21 -45 0 -10 -5 -19 -11 -19
-5 0 -8 -4 -5 -8 4 -7 -31 -9 -71 -4 -7 1 -13 13 -13 26 0 14 -7 32 -16 41
-15 15 -15 17 0 28 26 20 10 57 -26 57 -16 0 -27 -4 -24 -9 3 -5 16 -7 28 -3
14 3 19 2 14 -7 -4 -6 -12 -8 -18 -5 -7 4 -8 2 -4 -4 4 -7 2 -20 -3 -29 -9
-16 -10 -14 -11 10 0 26 -2 27 -57 27 l-57 0 37 38 c38 39 52 69 18 38 -29
-26 -38 0 -10 30 12 13 18 24 13 24 -6 0 -22 -12 -37 -27z"/>
<path d="M862 4220 c-20 -27 -22 -40 -22 -185 l0 -155 78 0 c44 0 127 -3 185
-7 l107 -6 0 139 0 139 -163 3 c-89 2 -170 5 -179 8 -19 6 -25 34 -7 34 5 0 7
5 4 10 -3 6 0 13 9 16 8 3 17 12 20 20 9 24 -9 15 -32 -16z"/>
<path d="M492 4181 c-19 -21 -25 -23 -32 -11 -6 10 -10 -39 -10 -137 l0 -152
43 -6 c23 -3 105 -5 182 -3 l140 3 3 72 c3 66 1 72 -15 67 -17 -5 -17 -5 0 9
12 10 17 29 17 71 0 51 -12 74 -23 44 -4 -10 -7 -10 -18 0 -16 15 -245 17
-254 2 -7 -11 -55 -14 -55 -3 0 4 12 19 27 35 14 15 25 29 22 32 -2 2 -14 -8
-27 -23z"/>
<path d="M1287 3980 c-3 -12 -14 -20 -25 -20 -14 0 -22 -9 -27 -30 -4 -16 -4
-34 0 -40 4 -6 74 -10 186 -10 l179 0 0 49 c0 48 0 49 -35 53 -19 2 -36 1 -37
-3 -2 -4 -34 -9 -72 -12 -57 -3 -72 -1 -87 14 -12 12 -19 14 -23 6 -5 -9 -7
-9 -12 1 -9 19 -41 14 -47 -8z"/>
<path d="M881 3758 c-18 -23 -26 -26 -32 -16 -5 7 -8 -51 -7 -137 l3 -150 183
-2 182 -3 0 139 0 139 -170 -2 c-94 0 -170 1 -170 3 0 3 10 15 22 28 12 13 20
25 17 27 -2 2 -15 -10 -28 -26z"/>
<path d="M490 3755 c-18 -19 -26 -22 -32 -13 -4 7 -8 -17 -8 -54 0 -39 4 -68
10 -68 6 0 10 -12 10 -26 0 -15 -4 -23 -11 -19 -7 5 -9 -14 -7 -57 l3 -63 183
-3 183 -2 -3 112 c-2 113 -14 171 -33 165 -5 -2 -11 -20 -13 -40 -2 -20 -8
-37 -14 -37 -5 0 -7 7 -4 16 5 14 1 16 -25 10 -17 -3 -36 -6 -41 -6 -5 0 -6
-5 -2 -11 7 -13 -13 -29 -36 -28 -10 0 -8 3 5 9 19 8 19 9 -2 9 -14 1 -23 7
-23 16 0 8 -7 15 -16 15 -8 0 -13 -4 -10 -8 2 -4 0 -14 -5 -22 -7 -12 -11 -13
-18 -2 -4 8 -12 14 -17 15 -5 1 -8 8 -8 15 1 6 -4 12 -12 12 -8 0 -14 7 -14
15 0 9 -9 15 -25 15 -31 0 -31 7 -3 37 12 13 19 23 16 23 -2 0 -15 -11 -28
-25z"/>
<path d="M1235 3602 l0 -147 183 -3 182 -2 0 47 0 48 -40 0 c-22 1 -40 -3 -40
-7 0 -4 -33 -8 -74 -8 -69 0 -76 2 -97 28 -13 16 -23 22 -26 15 -5 -14 -33 -6
-33 9 0 6 7 8 15 4 18 -7 18 -7 4 34 -11 30 -10 35 12 52 13 11 19 17 13 14
-6 -3 -28 0 -50 6 -24 7 -32 13 -22 15 15 4 15 6 -3 24 -10 10 -20 19 -21 19
-2 0 -3 -66 -3 -148z"/>
<path d="M406 3722 c-3 -5 -16 -7 -30 -5 -18 4 -25 0 -29 -14 -4 -16 -5 -16
-6 0 -1 11 -9 17 -23 16 -13 0 -17 -3 -10 -6 17 -7 15 -30 -3 -37 -9 -3 -15
-18 -15 -36 0 -27 -3 -30 -30 -30 -26 0 -30 -4 -30 -28 0 -28 -1 -29 -52 -24
-38 3 -58 10 -69 24 -17 22 -37 9 -23 -14 5 -8 2 -9 -9 -5 -15 6 -17 -2 -17
-54 l0 -59 183 2 182 3 1 133 c1 120 -5 159 -20 134z"/>
<path d="M60 3280 c0 -30 169 -113 232 -114 26 0 45 -3 42 -8 -3 -4 0 -8 5 -8
6 0 11 -9 11 -20 0 -11 -7 -20 -15 -20 -8 0 -15 7 -15 16 0 15 -2 15 -25 0
-18 -12 -50 -16 -130 -16 l-105 0 0 -40 0 -40 179 0 c99 0 182 3 184 8 14 22
-7 69 -41 92 l-36 25 40 6 c28 5 32 7 14 9 -14 1 -29 2 -33 1 -5 -1 -11 8 -14
19 -3 11 -9 17 -14 14 -5 -3 -38 17 -73 45 -63 51 -65 51 -135 51 -64 0 -71
-2 -71 -20z"/>
<path d="M1426 3278 c-3 -13 -6 -42 -6 -65 0 -23 -3 -48 -6 -57 -8 -20 -57
-21 -74 -1 -11 13 -8 15 21 16 32 0 33 1 12 11 -34 16 -30 42 5 34 20 -5 23
-4 12 4 -8 5 -23 10 -32 10 -9 0 -19 4 -22 9 -3 5 0 9 7 8 38 -1 57 5 57 17 0
13 -20 26 -41 26 -5 0 -9 -8 -10 -17 0 -11 -3 -13 -6 -5 -8 20 -30 14 -37 -10
-3 -13 -6 -43 -6 -67 0 -42 -1 -43 -30 -39 -32 5 -30 10 -34 -77 l-1 -40 183
-3 182 -2 0 135 0 135 -24 0 c-29 0 -36 -16 -36 -84 0 -59 -12 -76 -54 -76
-16 0 -26 3 -23 7 4 3 1 13 -5 21 -11 13 -8 14 20 8 21 -5 32 -4 32 3 0 9 -28
16 -52 12 -5 0 -8 3 -8 8 0 17 42 24 51 10 6 -10 9 -8 9 9 0 13 -5 22 -12 20
-17 -3 -58 11 -58 20 0 4 17 7 37 7 27 0 38 4 38 15 0 10 -13 16 -41 18 -36 3
-42 0 -48 -20z"/>
<path d="M904 3191 c-5 -21 -16 -37 -36 -47 -27 -14 -29 -19 -26 -62 l3 -47
167 -9 c93 -4 175 -6 183 -2 10 4 15 20 15 51 0 51 8 48 -115 46 -80 -2 -91 6
-75 53 7 21 10 39 8 42 -3 2 -28 -19 -57 -48 -58 -58 -75 -56 -61 7 5 22 7 41
5 44 -3 2 -8 -10 -11 -28z"/>
<path d="M796 3125 c-4 -13 -34 -15 -176 -15 l-170 0 0 -40 0 -40 185 0 185 0
0 55 c0 53 -11 72 -24 40z"/>
<path d="M450 2762 l0 -149 175 -7 c96 -4 179 -5 185 -1 6 4 10 60 10 141 l0
134 -169 0 c-141 0 -172 3 -185 16 -15 14 -16 2 -16 -134z"/>
<path d="M60 2746 l0 -133 175 -7 c96 -4 179 -5 184 -1 6 3 9 59 7 137 l-3
132 -157 4 c-113 3 -161 0 -171 -8 -11 -9 -15 -9 -15 -1 0 6 -4 11 -10 11 -6
0 -10 -51 -10 -134z"/>
<path d="M1976 2872 c-3 -2 -28 -5 -56 -7 -41 -2 -58 -8 -78 -29 -25 -25 -27
-33 -30 -130 -2 -64 1 -112 7 -125 l12 -21 704 0 c817 0 725 -17 725 135 0
111 -13 147 -60 164 -20 7 -190 10 -493 10 -542 0 -598 0 -608 7 -4 2 -10 1
-13 -4 -3 -5 -28 -6 -56 -2 -27 4 -52 5 -54 2z"/>
<path d="M1330 2365 l0 -95 155 0 155 0 0 95 0 95 -155 0 -155 0 0 -95z"/>
<path d="M1721 1230 l-4 -1230 31 0 31 0 3 118 3 117 752 3 c750 2 752 2 758
-18 4 -12 6 -38 4 -58 -1 -20 -1 -65 0 -99 1 -60 2 -63 26 -63 l25 0 0 1230 0
1230 -812 0 -813 0 -4 -1230z m1574 -415 l0 -510 -755 0 -755 0 -3 500 c-1
275 0 506 3 513 3 10 160 12 757 10 l753 -3 0 -510z"/>
<path d="M2638 1239 c-12 -6 -18 -22 -18 -44 0 -35 -8 -43 -25 -26 -19 19
-136 51 -183 51 -28 0 -64 -8 -87 -20 -22 -11 -45 -20 -52 -20 -13 0 -43 -38
-43 -55 0 -6 20 -21 45 -33 31 -15 45 -28 45 -42 0 -26 6 -25 33 5 21 25 42
31 80 23 26 -6 57 -35 57 -54 0 -13 -6 -11 -26 10 -35 35 -74 34 -106 -2 -18
-20 -22 -34 -17 -48 13 -33 10 -44 -14 -53 -22 -8 -24 -18 -37 -135 -7 -70
-11 -129 -8 -131 3 -3 31 -10 64 -16 67 -13 170 -7 202 10 21 11 22 17 16 94
-3 45 -1 100 4 122 l10 40 2 -35 c1 -19 6 -46 11 -60 6 -17 7 0 4 50 -4 46
-12 84 -23 100 l-17 25 -8 -65 c-4 -36 -7 -100 -7 -143 1 -82 -5 -117 -21
-117 -12 0 -11 157 2 282 10 95 21 124 41 112 4 -3 8 0 8 5 0 6 10 11 21 11
17 0 19 -3 10 -13 -8 -11 -5 -13 18 -9 21 3 33 -2 45 -19 16 -23 16 -23 16 19
0 23 4 42 8 42 10 0 22 -213 22 -367 l0 -94 58 3 57 3 -1 55 c-1 30 -5 94 -9
141 -12 131 8 123 34 -14 12 -61 21 -124 21 -138 0 -24 3 -26 53 -27 71 -2 83
3 93 41 8 31 8 31 11 -14 l4 -47 52 -10 c29 -5 55 -8 59 -5 5 2 8 40 8 83 0
43 5 136 11 206 8 91 8 129 0 137 -8 8 -11 -3 -12 -38 l-1 -50 -12 40 -12 40
-62 3 c-51 2 -62 0 -62 -13 0 -9 -4 -13 -10 -10 -6 4 -10 -8 -10 -30 0 -22 -4
-34 -10 -30 -5 3 -10 -3 -10 -15 0 -12 -4 -19 -10 -15 -5 3 -6 13 -3 22 4 11
3 14 -5 9 -7 -4 -12 -18 -12 -32 0 -14 -7 -35 -15 -47 -10 -15 -12 -33 -7 -57
4 -19 5 -55 2 -80 -4 -34 -7 -15 -13 74 -7 110 -26 220 -41 244 -3 6 -26 18
-50 27 -44 17 -44 17 -38 58 4 34 3 39 -11 34 -8 -3 -21 1 -28 9 -16 19 -4 30
16 14 17 -15 19 -7 5 21 -8 14 -21 19 -53 19 -23 0 -50 -5 -59 -11z"/>
<path d="M350 1010 l0 -950 645 0 645 0 0 950 0 950 -645 0 -645 0 0 -950z"/>
</g>
</svg>
