<?xml version="1.0" standalone="no"?>
<!DOCTYPE svg PUBLIC "-//W3C//DTD SVG 20010904//EN"
 "http://www.w3.org/TR/2001/REC-SVG-20010904/DTD/svg10.dtd">
<svg version="1.0" xmlns="http://www.w3.org/2000/svg"
 width="579.000000pt" height="515.000000pt" viewBox="0 0 579.000000 515.000000"
 preserveAspectRatio="xMidYMid meet">
<metadata>
Created by potrace 1.13, written by Peter Selinger 2001-2015
</metadata>
<g transform="translate(0.000000,515.000000) scale(0.100000,-0.100000)"
fill="#000000" stroke="none">
<path d="M2 4748 l3 -403 1450 0 1450 0 3 103 3 102 1439 0 c1433 0 1440 0
1440 20 0 20 -7 20 -285 20 l-285 0 0 75 c0 53 4 75 13 75 6 0 135 0 285 0
l272 -1 0 206 0 205 -2895 0 -2895 0 2 -402z m824 -68 c9 -58 23 -115 31 -127
13 -22 12 -23 -20 -23 -32 0 -34 2 -35 37 -2 45 -12 55 -48 51 -18 -2 -34 -13
-44 -30 -14 -25 -13 -28 5 -43 19 -14 15 -15 -45 -13 l-65 3 -25 52 c-14 29
-28 53 -31 53 -11 0 -19 -85 -8 -88 25 -9 4 -22 -38 -22 -46 0 -47 0 -26 19
25 23 55 202 35 209 -51 17 66 32 126 16 34 -9 30 -58 -8 -96 -28 -28 -30 -32
-19 -62 7 -18 18 -41 25 -51 19 -26 34 -10 95 103 52 98 69 125 75 119 2 -1
11 -50 20 -107z m164 91 c0 -5 -6 -11 -13 -14 -12 -4 -37 -129 -37 -179 0 -24
36 -41 72 -33 21 5 34 16 43 38 19 46 30 163 16 171 -23 14 -10 26 29 26 46 0
47 -3 21 -36 -11 -14 -25 -57 -32 -97 -17 -93 -39 -117 -107 -117 -37 0 -54 5
-67 20 -17 19 -18 27 -7 91 15 85 15 119 2 119 -5 0 -10 5 -10 10 0 6 20 10
45 10 25 0 45 -4 45 -9z m787 -33 c-3 -13 -11 -58 -18 -101 -10 -67 -10 -80 2
-88 8 -5 10 -9 4 -9 -5 0 -20 -3 -32 -6 -19 -5 -21 -3 -16 18 l6 23 -25 -22
c-32 -30 -64 -29 -81 2 l-13 26 -24 -26 c-39 -42 -110 -30 -110 18 0 16 -5 14
-31 -12 -21 -22 -40 -31 -63 -31 -41 0 -56 15 -56 58 0 41 55 102 91 102 27 0
59 -27 59 -49 0 -13 4 -12 18 5 20 25 53 44 78 44 23 0 54 -29 54 -51 0 -13 8
-9 35 18 26 26 42 34 59 31 19 -4 25 0 29 19 2 12 0 23 -4 23 -16 0 -9 18 9
23 32 9 34 7 29 -15z m277 -23 c-9 -23 4 -49 19 -38 22 17 52 0 55 -31 2 -16
7 -38 11 -49 6 -16 10 -12 26 24 15 32 16 44 7 47 -24 8 -2 19 29 14 18 -3 26
-8 19 -12 -6 -4 -35 -49 -63 -100 -57 -102 -76 -121 -101 -101 -9 7 -13 17
-10 23 3 5 12 4 21 -4 13 -10 18 -8 34 11 22 27 22 27 6 106 -12 55 -15 60
-38 57 -13 -2 -25 -5 -26 -6 -1 -1 -5 -25 -9 -54 -6 -49 -5 -52 12 -45 17 6
17 5 5 -10 -7 -9 -22 -17 -33 -17 -19 0 -20 4 -13 65 5 51 4 65 -7 65 -8 0 -7
4 5 11 9 5 17 16 17 22 0 14 20 37 32 37 4 0 5 -7 2 -15z"/>
<path d="M3434 4372 l-412 -2 -15 -33 c-29 -63 -30 -77 -8 -77 12 0 21 -5 21
-12 0 -6 9 -3 20 7 16 15 23 16 33 6 9 -10 9 -11 -4 -6 -28 10 -30 -11 -4 -23
26 -12 28 -18 25 -64 l-2 -28 315 0 315 0 6 26 c11 43 36 73 72 86 19 6 34 16
34 20 0 12 -45 9 -58 -4 -7 -7 -12 -8 -12 -2 0 15 22 34 41 34 9 0 28 -9 43
-21 14 -11 34 -19 45 -17 18 3 18 4 -1 55 -11 28 -25 53 -32 55 -6 2 -196 2
-422 0z"/>
<path d="M1930 4156 c-10 -16 -10 -22 6 -33 10 -7 21 -13 26 -13 4 0 8 -9 8
-19 0 -23 -23 -34 -39 -18 -21 21 -24 -3 -3 -26 27 -29 27 -35 2 -55 -20 -17
-20 -17 4 -28 23 -11 25 -9 31 17 5 21 16 34 40 44 24 9 36 22 40 42 4 15 8
33 10 39 2 6 -4 24 -14 40 -15 24 -24 29 -58 30 -30 0 -44 -5 -53 -20z"/>
<path d="M1834 3993 c4 -8 2 -13 -8 -13 -8 0 -21 -9 -30 -21 -16 -24 -4 -75
23 -96 9 -6 14 -13 11 -16 -6 -4 -113 -36 -150 -44 -34 -8 -48 -20 -71 -64
-31 -61 -26 -140 12 -202 19 -31 29 -59 26 -73 -3 -15 1 -25 12 -28 16 -5
-410 2 -479 8 -124 10 -301 29 -398 42 -67 9 -134 13 -163 9 -34 -5 -54 -3
-65 6 -23 19 -30 0 -37 -99 -4 -63 -2 -91 8 -102 7 -8 10 -20 8 -27 -6 -16 50
-39 118 -49 49 -7 51 -8 24 -15 -24 -5 -25 -7 -8 -8 13 0 55 -10 95 -20 40
-11 94 -23 121 -27 48 -6 65 -23 25 -25 -13 0 -32 -2 -43 -5 -11 -2 -40 -7
-65 -10 -84 -10 -93 -13 -80 -29 6 -8 9 -19 6 -24 -4 -5 -2 -12 4 -16 7 -4 7
-12 1 -23 -7 -12 -24 -17 -58 -18 -26 -1 -65 -7 -85 -15 -32 -12 -38 -18 -35
-39 1 -17 -3 -24 -12 -22 -7 1 -22 0 -33 -4 -19 -6 -19 -6 1 -20 17 -13 19
-18 8 -34 -6 -11 -20 -20 -30 -20 -10 0 -15 -5 -12 -10 4 -6 -5 -5 -19 2 -14
6 -26 15 -26 20 0 5 -5 6 -10 3 -6 -3 -10 -17 -10 -30 0 -18 4 -23 15 -19 10
4 15 0 15 -15 0 -14 5 -19 15 -14 10 3 15 0 13 -8 -2 -10 11 -16 42 -19 45 -6
45 -6 13 -13 -30 -8 -31 -10 -26 -50 2 -22 6 -44 9 -48 2 -4 -14 -26 -36 -49
-22 -23 -41 -50 -41 -59 -1 -9 -3 -27 -4 -41 -2 -14 4 -32 11 -41 13 -15 13
-17 -3 -23 -16 -7 -16 -9 6 -21 l25 -13 -32 -7 c-28 -6 -82 -58 -82 -78 0 -3
19 -7 42 -9 35 -2 44 -7 46 -24 2 -11 -6 -28 -18 -39 -11 -10 -20 -24 -20 -31
0 -7 -5 -16 -12 -20 -7 -5 -9 -2 -5 9 4 11 -2 17 -22 22 -24 5 -27 10 -24 43
l3 37 -14 -30 c-13 -27 -13 -32 6 -51 11 -12 15 -25 10 -28 -5 -3 -12 -20 -16
-37 -3 -17 -16 -39 -28 -50 l-23 -19 27 11 c18 8 28 21 32 44 7 37 36 70 36
41 0 -10 9 -16 25 -16 25 0 34 -14 16 -24 -5 -4 -12 0 -14 6 -4 8 -6 7 -6 -4
-1 -9 5 -19 12 -22 6 -3 2 -3 -10 -1 -28 7 -32 -1 -39 -78 -5 -64 -4 -65 28
-92 18 -15 26 -25 18 -22 -21 6 -24 -31 -4 -50 21 -22 12 -26 -30 -15 -24 7
-38 7 -42 0 -3 -5 3 -12 14 -15 16 -4 20 -13 20 -36 -1 -18 -3 -27 -5 -20 -2
7 -11 9 -19 6 -7 -3 -11 -9 -8 -14 8 -13 -7 -11 -38 5 -20 10 -25 11 -22 2 3
-8 -3 -12 -18 -10 -13 1 -28 3 -33 3 -6 1 -34 17 -64 36 -29 19 -55 35 -57 35
-2 0 -4 -9 -4 -19 0 -11 -5 -21 -12 -23 -6 -2 -13 -25 -14 -51 -3 -43 -1 -48
26 -62 24 -12 29 -21 27 -43 -4 -39 -15 -52 -35 -46 -15 5 -14 4 1 -6 10 -7
29 -9 42 -6 13 3 27 1 30 -4 4 -6 11 -8 16 -5 5 3 6 -1 3 -9 -3 -9 -12 -16
-18 -16 -7 0 -18 -11 -24 -25 -11 -23 -10 -24 16 -14 14 6 32 15 39 21 8 6 15
9 18 7 2 -3 -19 -20 -46 -39 -53 -36 -61 -62 -26 -84 14 -8 20 -8 27 4 9 13
11 13 19 1 5 -8 16 -11 26 -8 9 4 14 3 10 -3 -3 -6 -13 -10 -22 -10 -13 0 -13
-3 -3 -15 9 -11 17 -12 23 -6 11 11 65 4 85 -12 16 -13 22 -6 32 35 7 29 8 27
9 -23 1 -31 7 -63 16 -75 22 -30 18 -44 -17 -51 l-32 -6 34 -29 c19 -15 40
-28 47 -28 7 0 21 -4 31 -10 37 -20 170 -73 242 -95 79 -25 196 -40 370 -50
58 -4 113 -9 122 -11 10 -3 133 -6 275 -6 203 -1 272 2 323 15 36 9 92 18 125
22 61 6 162 31 180 44 17 12 86 29 178 42 82 11 119 29 61 29 -14 0 -32 7 -41
15 -20 21 -3 70 37 106 32 29 33 56 4 73 -10 6 -20 16 -21 22 -2 14 30 14 39
0 5 -6 8 -2 8 10 0 12 7 27 15 34 23 19 18 30 -12 30 -21 0 -158 35 -273 69
-34 11 -31 35 5 41 29 5 30 7 30 56 0 40 -3 50 -14 46 -25 -10 -2 17 29 33
l28 15 -12 -48 c-7 -26 -11 -53 -8 -60 2 -7 -1 -19 -7 -26 -9 -11 -7 -15 6
-20 10 -4 19 -3 21 3 2 5 10 7 18 4 10 -4 12 0 7 12 -5 15 -2 17 15 13 15 -4
19 -2 15 8 -3 10 3 14 19 14 27 0 68 -37 68 -62 0 -9 9 -26 19 -39 l20 -24 -6
23 c-3 13 -1 22 6 22 6 0 11 9 11 20 0 27 26 25 34 -2 l7 -23 9 21 c5 12 13
25 19 29 18 11 12 25 -10 25 -18 0 -19 2 -9 15 7 8 16 12 21 9 5 -3 14 -2 20
1 11 7 -10 30 -47 51 -31 18 -30 44 3 44 41 1 70 30 78 79 7 42 7 43 -15 31
-12 -6 -30 -10 -41 -7 -10 3 -19 1 -21 -4 -2 -5 -20 -12 -42 -14 -37 -5 -38
-4 -34 20 3 14 2 25 -3 25 -12 0 -21 -38 -13 -52 5 -8 2 -9 -9 -5 -10 3 -17 2
-17 -2 0 -5 -11 -8 -25 -7 -14 0 -25 6 -25 13 0 6 -4 15 -10 18 -6 3 -7 -1 -4
-9 3 -9 1 -16 -6 -16 -6 0 -8 -4 -5 -10 3 -6 -1 -7 -10 -4 -10 4 -13 13 -9 26
4 14 2 18 -5 14 -6 -4 -11 -16 -11 -26 0 -23 -39 -38 -51 -19 -5 8 -9 24 -9
37 0 20 4 23 33 20 29 -3 32 0 35 28 2 17 14 42 28 55 27 25 34 51 7 26 -23
-20 -74 -26 -80 -9 -3 7 1 10 11 6 10 -4 16 -1 16 9 0 8 8 14 18 13 11 -1 17
6 17 19 0 15 -7 20 -27 20 -40 -1 -35 10 16 33 52 25 65 56 33 76 -12 8 -61
17 -108 21 -84 7 -86 8 -81 31 4 23 -4 29 -35 25 -7 -1 -13 2 -13 7 0 20 -52
6 -66 -18 l-15 -25 7 25 c11 42 10 44 -13 48 -25 4 -29 -4 -58 -101 -18 -62
-37 -79 -62 -54 -15 15 -15 16 3 11 15 -4 23 2 32 20 9 21 8 29 -10 51 -17 22
-19 29 -7 36 8 5 22 7 31 5 13 -3 17 1 14 17 -2 12 -9 21 -15 19 -7 -1 -5 8 5
23 20 31 28 33 14 3 l-11 -23 20 23 c10 12 26 22 34 22 16 0 47 -31 47 -47 0
-15 28 -24 35 -13 4 6 -1 10 -9 10 -10 0 -16 13 -18 42 -3 36 -7 43 -28 48
-16 4 -26 14 -28 28 -4 24 21 31 35 10 4 -7 16 -14 25 -14 10 -1 16 2 13 6 -3
5 0 12 6 16 9 5 10 -1 5 -20 -5 -21 -3 -26 11 -26 36 0 47 -17 47 -72 l1 -53
134 -2 c112 -2 137 0 156 15 l22 17 -26 10 c-134 51 -132 49 -138 78 -6 28
-44 53 -63 42 -5 -3 -11 -1 -15 5 -3 5 -20 10 -36 10 l-30 0 16 -31 c18 -34
16 -43 -8 -33 -9 3 -19 22 -23 42 -8 45 -17 52 -72 52 -32 0 -41 3 -35 13 4 6
8 14 9 17 0 3 4 27 9 54 6 41 17 57 63 103 39 39 57 51 63 42 12 -20 41 -19
76 2 61 38 115 8 79 -43 -20 -29 -21 -67 -1 -74 14 -6 14 -8 1 -18 -13 -10
-13 -13 -1 -30 15 -19 15 -19 15 -1 0 14 3 16 11 8 7 -7 9 -23 5 -37 -7 -28
-26 -36 -26 -11 0 8 -5 15 -11 15 -6 0 -9 -17 -7 -41 3 -39 5 -41 58 -61 30
-11 72 -23 93 -25 l38 -5 -24 26 c-14 15 -27 38 -30 52 -6 32 8 97 22 102 13
4 15 32 2 32 -5 0 -11 10 -13 22 -2 13 -18 31 -39 43 -20 11 -34 25 -32 31 2
6 -12 26 -31 45 -29 27 -44 33 -83 35 -27 0 -52 2 -58 4 -5 1 -35 2 -66 1 -56
-1 -99 -25 -99 -54 0 -7 5 -4 11 6 14 24 24 21 25 -8 1 -14 -3 -25 -10 -25 -6
0 -4 -5 4 -11 12 -9 12 -10 -3 -5 -10 3 -21 6 -23 6 -3 0 -2 5 1 10 10 16 -11
12 -25 -5 -7 -8 -19 -15 -26 -15 -8 0 -14 -7 -14 -15 0 -8 -4 -15 -10 -15 -5
0 -7 6 -4 14 9 23 -18 31 -32 11 -20 -27 -54 -30 -54 -6 0 38 11 51 39 45 25
-5 24 -4 -4 9 -26 12 -31 12 -39 -2 -14 -23 -36 -44 -36 -34 0 5 4 13 9 18 5
6 7 23 4 38 -4 19 -8 25 -13 16 -6 -9 -12 -9 -24 4 -29 28 -18 37 45 37 41 0
58 3 53 11 -3 6 -18 9 -32 6 -14 -3 -36 1 -48 9 -12 8 -35 16 -53 17 -37 2
-42 28 -9 51 l22 15 -22 19 c-30 26 -27 72 5 72 12 0 25 5 28 10 3 6 10 10 16
10 15 0 50 -63 45 -82 -2 -10 0 -18 6 -18 5 0 6 -5 2 -11 -5 -8 -9 -8 -14 1
-4 7 -14 10 -21 8 -9 -3 -7 -10 9 -26 27 -27 42 -28 42 -3 0 34 49 34 50 0 0
-4 13 -9 30 -12 21 -5 28 -11 24 -22 -4 -10 0 -15 10 -15 21 0 20 6 -5 38 -13
17 -16 28 -9 30 8 3 8 8 -1 18 -9 11 -8 15 5 20 9 3 23 3 32 0 9 -4 26 0 38 8
12 7 41 17 64 21 37 6 49 3 82 -19 46 -30 49 -31 64 -10 9 12 17 13 40 4 16
-6 35 -18 43 -28 9 -12 12 -13 8 -2 -3 8 4 21 15 28 23 14 25 10 8 -18 -15
-23 -6 -34 21 -25 28 9 38 45 16 58 -14 7 -15 11 -4 18 11 6 11 11 1 21 -6 6
-12 20 -12 29 0 17 -17 35 -25 28 -2 -2 -6 -21 -10 -41 -6 -33 -5 -38 11 -39
11 0 15 -2 9 -5 -5 -2 -30 0 -55 5 -25 5 -37 9 -26 10 10 1 16 6 13 14 -3 6
-12 29 -21 49 l-16 37 68 -5 c46 -3 61 -1 47 5 -11 5 -32 10 -47 10 -16 1 -28
6 -28 12 0 6 6 9 13 6 10 -4 13 2 9 19 -2 13 -8 24 -13 24 -5 0 -9 4 -9 10 0
5 8 7 18 4 16 -5 16 -5 0 6 -10 6 -18 18 -18 27 0 36 -15 -1 -17 -44 -2 -26
-5 -48 -6 -49 -5 -5 -189 64 -200 75 -6 6 -18 11 -26 11 -10 0 -4 -8 14 -21
17 -12 22 -19 13 -16 -9 3 -63 11 -120 17 -137 15 -146 23 -38 35 36 3 74 8
85 10 11 2 26 4 33 4 7 1 12 13 11 29 -1 43 9 175 16 204 7 26 5 26 -42 29
-26 1 -74 2 -105 2 -32 0 -55 4 -52 9 3 4 28 8 55 8 55 0 83 19 113 77 14 29
14 32 -4 48 -19 18 -20 17 -21 -11 -1 -24 -2 -25 -6 -6 -4 18 -9 21 -26 16
-18 -6 -20 -5 -10 8 10 11 10 17 1 26 -9 9 -9 12 1 12 11 0 11 3 2 14 -10 12
-9 13 8 9 13 -3 21 1 24 14 4 16 5 16 6 1 1 -20 20 -25 22 -5 3 27 -8 107 -17
131 -4 10 -3 17 2 15 47 -21 112 -53 123 -62 17 -14 84 -38 90 -32 2 3 0 5 -6
5 -10 0 -47 30 -93 76 -14 13 -30 21 -35 17 -4 -4 -5 -3 -1 4 3 6 1 15 -5 18
-5 4 -8 14 -5 22 4 9 -1 17 -14 20 -11 3 -20 9 -20 13 0 5 -26 34 -57 67 -31
32 -54 52 -49 46z m-645 -1647 c13 -16 124 -19 115 -4 -3 4 12 8 33 7 43 -1
137 -16 111 -18 -19 -1 -20 -6 -22 -83 -1 -26 -4 -50 -7 -52 -8 -8 -217 -38
-237 -34 -13 3 -16 12 -14 41 4 45 -6 97 -19 97 -5 0 -9 -13 -9 -29 0 -29 -14
-49 -24 -33 -2 4 -1 23 3 42 5 28 11 35 30 35 14 0 26 6 28 13 3 7 -4 12 -16
12 -11 0 -23 5 -26 10 -10 16 41 12 54 -4z m791 -167 c0 -6 -4 -7 -10 -4 -5 3
-10 0 -10 -8 0 -17 24 -40 33 -31 11 11 49 -8 43 -22 -3 -8 0 -13 7 -11 21 4
6 -37 -24 -65 -16 -15 -29 -32 -29 -38 0 -14 -64 48 -79 78 -10 19 -9 30 8 65
13 28 28 43 41 44 11 1 20 -3 20 -8z m-317 -162 c-13 -6 -23 -15 -24 -21 -6
-78 -3 -149 8 -158 9 -8 13 -7 13 2 0 8 3 10 7 7 3 -4 12 -2 20 5 11 8 12 7 7
-6 -3 -9 -10 -16 -16 -16 -5 0 -7 -4 -4 -9 8 -12 73 8 73 23 -1 35 4 57 12 52
4 -3 7 -17 6 -31 -2 -16 2 -25 11 -25 9 0 14 -11 14 -30 0 -16 5 -30 11 -30 5
0 7 -4 4 -10 -3 -5 -2 -10 3 -10 5 0 12 -9 15 -20 4 -17 0 -20 -31 -20 -43 0
-68 13 -58 29 4 7 -1 11 -12 11 -11 0 -22 -8 -24 -17 -4 -15 -14 -17 -68 -15
-42 3 -58 7 -49 13 11 7 11 9 -3 9 -10 0 -18 5 -18 10 0 15 44 30 51 18 4 -6
5 50 3 124 l-3 134 37 -5 c34 -4 35 -5 15 -14z m449 -606 c4 -1 16 -20 27 -43
11 -24 20 -35 20 -25 1 9 6 17 12 17 5 0 9 -8 8 -17 -1 -10 0 -20 1 -23 8 -23
6 -49 -7 -82 -14 -36 -17 -38 -33 -23 -9 8 -24 15 -33 15 -9 0 -17 7 -17 15 0
9 -6 12 -15 9 -18 -7 -30 19 -20 44 5 9 9 24 9 32 1 9 9 14 24 13 16 -2 22 2
22 17 0 11 -6 20 -14 20 -7 0 -16 9 -19 19 -3 13 0 18 12 16 9 -2 19 -4 23 -4z"/>
<path d="M3357 3855 c-6 -14 -10 -15 -22 -5 -9 7 -16 11 -18 9 -1 -2 -7 -13
-13 -24 -7 -11 -19 -19 -27 -17 -9 1 -18 -2 -22 -8 -3 -5 -20 -10 -37 -10 -29
0 -30 -1 -15 -18 13 -14 14 -21 5 -30 -7 -7 -16 -12 -22 -12 -5 0 -3 6 5 13
14 10 13 15 -8 36 l-23 25 2 -61 3 -61 25 18 c45 32 115 63 145 65 76 6 116
18 111 32 -4 8 -6 16 -6 19 0 2 -7 1 -15 -2 -8 -4 -24 6 -38 22 -21 24 -24 25
-30 9z"/>
<path d="M4659 3843 c-20 -5 -33 -43 -16 -44 7 0 2 -4 -11 -10 -27 -10 -26
-45 1 -43 9 1 17 -2 17 -7 0 -5 -10 -9 -23 -9 -13 0 -28 -5 -35 -12 -8 -8 -15
-8 -24 0 -8 7 -19 7 -28 2 -8 -5 -18 -6 -22 -4 -4 3 -8 1 -8 -3 0 -5 -25 -8
-55 -8 -30 1 -55 -2 -55 -7 0 -4 6 -8 13 -8 6 0 -1 -11 -18 -24 -24 -20 -28
-27 -17 -37 10 -11 17 -8 39 15 25 28 27 28 40 10 10 -14 16 -16 21 -7 5 7 33
15 63 18 127 12 175 26 136 41 -19 7 -31 65 -16 75 7 4 13 21 14 38 1 17 1 30
1 30 -1 -1 -8 -3 -17 -6z"/>
<path d="M5173 3811 c-116 -40 -187 -139 -113 -158 26 -7 29 -50 3 -47 -24 3
-13 -16 20 -32 18 -10 26 -19 19 -21 -30 -11 101 -86 179 -103 61 -14 215 -10
239 5 15 9 34 15 57 17 23 2 32 62 31 190 -2 113 -4 127 -20 131 -22 6 -23 -6
-3 -23 8 -7 12 -17 8 -24 -4 -6 -8 -34 -9 -62 -2 -62 -23 -97 -79 -129 -55
-33 -68 -32 -19 1 43 29 83 72 84 91 0 26 -36 89 -70 121 -37 34 -125 66 -162
59 -17 -3 -15 -5 9 -6 17 0 35 -6 38 -11 4 -6 11 -8 16 -5 5 4 9 1 9 -5 0 -7
8 -9 20 -5 14 5 20 2 20 -9 0 -9 -5 -16 -10 -16 -15 0 -30 -44 -23 -68 4 -18
8 -19 24 -9 15 9 18 19 13 40 -3 16 -1 27 5 27 6 0 11 -4 11 -10 0 -5 8 -10
18 -10 13 0 14 -2 3 -9 -9 -6 -10 -11 -2 -15 6 -4 8 -18 5 -32 -3 -13 -2 -24
4 -24 10 0 10 -56 -1 -66 -3 -3 -16 0 -29 7 -12 7 -30 12 -38 11 -11 -2 -12
-1 -3 5 7 5 10 18 6 32 -5 19 -10 22 -36 17 -25 -5 -28 -4 -17 9 11 13 10 14
-5 9 -12 -5 -16 -4 -11 4 3 6 -3 13 -14 17 -12 4 -20 15 -20 28 0 20 -1 20
-14 2 -12 -16 -11 -21 5 -38 24 -26 5 -46 -39 -39 -31 4 -32 5 -16 23 15 17
15 19 0 25 -9 3 -14 10 -11 14 9 14 -48 18 -62 5 -17 -17 -17 -26 0 -19 8 3
19 -2 26 -10 10 -12 8 -17 -10 -26 -17 -10 -23 -9 -30 1 -8 13 -13 5 -10 -13
0 -5 -7 -8 -16 -8 -15 0 -15 -1 1 -13 26 -19 5 -70 -27 -65 -20 3 -22 8 -21
64 2 83 10 101 47 120 18 9 46 27 62 39 17 12 39 25 50 28 14 3 11 5 -10 6
-16 0 -53 -8 -82 -18z"/>
<path d="M3482 3710 c-9 -15 -23 -20 -59 -20 -30 0 -53 -6 -65 -17 -18 -16
-18 -16 -12 3 7 17 6 17 -9 5 -9 -7 -17 -20 -17 -27 0 -8 -7 -14 -15 -14 -21
0 -19 10 8 38 21 24 21 24 1 14 -14 -8 -24 -8 -31 -1 -7 7 -13 7 -17 1 -3 -6
-2 -13 4 -17 18 -11 10 -23 -12 -17 -15 4 -19 2 -13 -8 4 -7 2 -15 -4 -19 -8
-6 -9 -15 -2 -34 6 -15 8 -33 5 -41 -3 -7 2 -16 10 -19 9 -4 16 -1 16 6 0 6 7
1 16 -11 8 -12 12 -27 8 -34 -4 -6 -3 -8 3 -5 10 7 129 -29 148 -44 6 -4 43
-8 82 -7 54 0 84 6 120 24 59 29 46 31 -26 4 -29 -12 -56 -19 -58 -16 -2 2 6
7 19 12 28 9 67 36 68 48 0 4 -7 6 -15 2 -9 -3 -15 0 -15 9 0 8 -4 15 -10 15
-5 0 -10 -4 -10 -9 0 -5 -8 -12 -17 -15 -14 -6 -13 -2 4 16 18 17 25 20 35 10
19 -19 23 -15 23 26 -1 51 -14 94 -37 116 -27 25 -35 12 -9 -15 12 -13 21 -26
21 -31 0 -11 -18 -10 -25 2 -3 6 -17 10 -31 10 -28 0 -33 16 -6 23 13 4 12 5
-5 6 -12 0 -28 -6 -37 -14 -13 -14 -15 -11 -18 25 -3 37 -4 39 -16 20z"/>
<path d="M4613 3576 c6 -14 -19 -29 -39 -25 -25 4 -35 -2 -29 -20 5 -16 0 -18
-37 -16 -24 1 -47 -1 -53 -4 -5 -3 -17 -6 -25 -7 -34 -1 -90 -17 -90 -25 0
-16 -32 -10 -46 9 -8 10 -13 12 -14 5 0 -18 -21 -16 -35 4 -8 10 -17 13 -26 7
-20 -12 -40 -15 -67 -9 -19 5 -22 10 -16 28 4 12 11 25 17 28 5 4 6 12 2 19
-5 8 -11 4 -19 -11 -6 -13 -21 -29 -33 -35 -21 -10 -17 -13 48 -45 l71 -34
232 0 231 0 1 45 c0 63 -4 76 -32 89 -34 15 -47 14 -41 -3z"/>
<path d="M3660 3085 c-62 -35 -65 -35 -137 -2 -24 11 -53 4 -53 -13 0 -6 7
-13 15 -16 8 -4 15 -10 15 -15 0 -5 -12 -4 -27 2 -18 7 -34 7 -48 0 -11 -5
-44 -17 -74 -26 -67 -22 -126 -79 -135 -133 -4 -20 -10 -46 -13 -56 -5 -19 -6
-19 -19 -1 -18 24 -18 35 0 35 18 0 28 37 11 44 -20 7 -35 -15 -35 -51 0 -19
21 -83 47 -143 l46 -110 172 0 c152 0 178 2 219 20 49 22 102 87 112 138 8 41
-11 48 -27 11 -7 -18 -24 -45 -38 -62 -19 -23 -22 -29 -8 -24 9 3 17 2 17 -3
0 -6 -12 -10 -26 -10 l-26 0 30 35 c51 57 66 148 36 208 -18 34 -59 77 -74 77
-27 0 -14 22 30 50 28 18 50 36 50 42 0 9 -87 -49 -96 -64 -7 -10 -34 -10 -34
0 0 4 25 22 55 41 30 18 55 35 55 37 0 8 -16 3 -40 -11z"/>
<path d="M4225 3063 c-38 -20 -76 -42 -83 -50 -7 -7 -18 -13 -24 -13 -19 0
-37 -34 -38 -68 0 -43 19 -38 41 9 9 19 27 43 40 54 l23 20 -23 -33 c-32 -45
-25 -111 15 -153 29 -30 116 -68 162 -70 19 -1 21 -3 8 -6 -28 -7 -107 15
-148 43 -21 13 -46 41 -57 61 l-20 38 -2 -32 c-2 -51 -3 -53 -18 -62 -15 -10
-26 -91 -12 -91 5 0 13 9 16 20 3 11 11 20 16 20 12 0 49 -37 49 -50 0 -5 -4
-10 -10 -10 -5 0 -10 -7 -10 -15 0 -8 -4 -15 -10 -15 -5 0 -7 8 -3 18 6 16 5
16 -14 -1 -21 -18 -21 -18 -26 0 -3 10 -5 0 -6 -22 -1 -47 -29 -42 256 -51
160 -5 216 -4 227 5 11 9 20 10 36 1 11 -6 33 -10 48 -8 27 3 27 4 28 83 0 55
-4 85 -14 97 -9 11 -12 28 -9 47 7 34 -8 52 -18 22 -12 -38 -132 -101 -193
-101 -38 0 -15 15 31 19 4 1 -2 14 -14 30 -12 16 -18 34 -15 40 10 15 -7 14
-22 -1 -9 -9 -12 -9 -12 -1 0 7 5 15 10 18 6 3 10 20 10 37 0 27 -3 30 -25 26
-14 -3 -25 -1 -25 3 0 5 -11 9 -24 9 -36 0 -50 23 -28 44 10 9 22 13 25 9 4
-3 7 1 7 10 0 10 7 17 15 17 8 0 15 4 15 8 0 5 14 6 31 4 17 -3 26 -7 21 -11
-6 -4 -3 -15 8 -29 24 -29 32 -28 24 4 -7 26 -6 26 27 20 19 -3 40 -7 48 -8
11 -1 56 -62 56 -78 0 -3 4 -10 8 -17 4 -6 2 -13 -5 -15 -7 -3 -9 -12 -4 -24
7 -19 8 -19 22 0 31 43 3 118 -58 156 l-33 20 30 -5 c26 -5 33 -1 52 30 l22
35 -177 0 -177 0 -70 -37z"/>
<path d="M5567 3082 l22 -7 -24 -27 c-32 -37 -51 -37 -345 7 -52 8 -123 16
-157 19 l-63 6 0 -30 c0 -35 1 -35 41 -15 21 11 34 13 48 6 32 -17 81 -81 81
-105 0 -13 9 -31 19 -40 18 -17 22 -17 52 -2 18 9 33 16 35 16 2 0 17 -14 34
-30 29 -28 33 -29 52 -16 18 13 25 13 49 1 15 -8 39 -29 53 -47 l25 -33 12 33
c12 35 25 40 55 17 14 -11 16 -15 4 -15 -12 0 -10 -4 4 -15 23 -17 9 -19 -28
-5 -17 6 -26 6 -26 -1 0 -5 7 -12 15 -15 20 -8 19 -24 -2 -24 -9 0 -24 -7 -34
-16 -11 -10 -27 -14 -41 -10 -31 8 -88 60 -88 80 0 9 -5 16 -11 16 -7 0 -9
-11 -6 -30 5 -24 1 -33 -21 -50 l-27 -22 -6 34 c-6 42 -17 60 -30 52 -5 -3
-17 0 -26 8 -15 11 -16 11 -10 -4 10 -27 -16 -22 -43 7 -26 27 -50 33 -50 11
0 -13 -20 -26 -40 -26 -5 0 -25 14 -45 31 -31 27 -36 29 -42 14 -3 -10 -1 -32
5 -49 8 -20 9 -32 2 -34 -11 -4 -13 -92 -4 -141 l7 -31 298 0 299 0 0 45 c0
46 -13 79 -40 103 -13 11 -11 13 13 7 25 -5 27 -3 27 30 0 20 -7 46 -15 59
-14 21 -14 24 0 36 15 13 21 50 7 50 -4 0 -18 -7 -30 -16 -12 -8 -31 -13 -41
-9 -11 3 -22 1 -26 -5 -7 -12 -75 -10 -75 2 0 4 -29 8 -64 8 -76 0 -96 6 -96
29 0 39 -50 57 -51 19 0 -20 -1 -20 -7 -5 -4 10 -21 27 -37 38 l-30 20 45 -6
c25 -3 68 -7 97 -8 29 -1 58 -8 64 -14 7 -7 34 -13 60 -13 26 0 51 -5 54 -10
4 -6 37 -9 76 -8 l70 3 -2 68 -2 67 -31 -1 c-26 -1 -27 -2 -9 -7z"/>
<path d="M2447 2720 c-4 -15 3 -27 24 -42 28 -21 28 -22 11 -41 -12 -15 -14
-21 -4 -24 6 -3 12 -13 12 -24 0 -10 7 -19 15 -19 28 0 53 -37 60 -90 7 -50 8
-51 26 -34 11 10 18 23 15 30 -2 6 -1 28 4 48 7 33 6 36 -11 31 -16 -5 -19 -1
-19 22 0 15 7 41 15 57 8 15 15 29 15 31 0 1 -21 5 -47 7 -48 6 -109 25 -102
33 3 2 22 0 44 -5 22 -5 65 -9 95 -9 l55 1 -45 10 c-25 6 -47 13 -50 18 -9 12
-59 18 -63 6 -3 -8 -8 -7 -18 2 -18 17 -26 15 -32 -8z"/>
<path d="M387 2692 c-26 -27 -38 -60 -17 -47 16 10 12 -5 -10 -35 -13 -18 -16
-31 -10 -35 5 -3 10 -12 10 -18 0 -9 -3 -8 -8 1 -7 9 -13 8 -27 -8 -10 -11
-21 -17 -26 -14 -10 6 -24 -44 -16 -53 4 -3 20 0 36 6 21 9 35 10 49 2 24 -13
40 2 40 39 0 14 3 62 6 108 3 45 4 82 2 82 -1 0 -14 -13 -29 -28z"/>
<path d="M3155 2290 c-4 -6 -1 -9 6 -8 6 2 14 -3 17 -11 3 -10 0 -12 -12 -8
-15 6 -16 -16 -16 -238 l0 -245 82 0 c74 0 80 1 62 15 -17 13 -18 14 -1 15 10
0 20 -7 23 -15 8 -21 184 -21 217 -1 12 8 45 19 72 25 49 12 57 19 108 94 11
16 14 16 32 2 16 -14 17 -16 3 -11 -11 3 -22 -2 -29 -16 -10 -19 -9 -20 15
-16 14 3 26 1 26 -3 0 -9 -15 -13 -37 -10 -7 1 -13 -3 -13 -8 0 -6 -6 -8 -13
-5 -15 5 -44 -23 -34 -33 4 -3 2 -12 -5 -20 -9 -12 -1 -14 53 -11 l64 3 3 235
c1 129 0 245 -3 258 l-5 22 -305 0 c-197 0 -306 -4 -310 -10z m187 -7 c-6 -2
-10 -9 -7 -14 4 -5 18 -1 32 8 20 13 28 14 31 5 5 -15 29 -16 34 0 3 7 12 9
22 5 15 -6 16 -10 6 -22 -10 -12 -10 -18 1 -31 11 -14 13 -14 21 0 5 9 17 16
26 16 10 0 23 5 30 12 8 8 15 8 24 1 7 -6 22 -13 33 -15 21 -5 20 -7 -38 -28
-23 -8 -27 -14 -22 -33 5 -17 4 -18 -4 -7 -9 12 -11 12 -16 -2 -4 -9 -12 -15
-18 -12 -7 2 -20 -9 -29 -26 l-17 -30 44 0 c38 0 45 -3 45 -20 0 -11 5 -20 10
-20 6 0 10 7 10 15 0 8 2 15 5 15 12 0 84 -40 90 -50 10 -16 22 -11 28 12 4
12 1 29 -6 37 -10 12 -9 14 6 8 25 -9 61 10 49 26 -5 7 -6 20 -3 30 6 17 8 17
20 3 7 -9 11 -22 8 -30 -3 -7 0 -19 6 -25 8 -8 6 -16 -6 -29 -20 -22 -23 -70
-4 -77 12 -5 19 -75 8 -75 -3 0 -20 13 -36 28 -17 16 -36 27 -43 24 -6 -2 -12
1 -12 7 0 6 -5 11 -11 11 -6 0 -9 -7 -5 -15 3 -8 1 -15 -5 -15 -13 0 -30 46
-23 64 3 9 -6 15 -32 19 -44 7 -56 1 -31 -17 24 -19 23 -40 -2 -26 -11 5 -27
17 -36 26 -22 22 -31 9 -15 -21 16 -30 15 -30 -34 -39 -33 -6 -38 -5 -33 8 5
12 0 16 -19 16 -14 0 -23 4 -19 9 9 16 -13 23 -35 11 -21 -11 -28 -40 -10 -40
6 0 10 4 10 9 0 5 11 4 24 -2 28 -13 24 -31 -5 -24 -11 3 -19 2 -19 -2 0 -3
-15 -14 -32 -24 -27 -14 -33 -24 -33 -49 0 -40 35 -60 63 -35 31 28 52 16 52
-30 0 -38 -145 17 -187 71 -15 18 -26 23 -49 19 l-29 -5 24 20 c25 20 37 62
26 91 -5 13 -8 13 -15 2 -5 -10 -8 -6 -7 12 2 32 12 34 27 7 11 -21 12 -21 43
7 18 15 53 37 80 48 26 11 47 26 48 35 0 10 2 11 6 3 8 -21 23 -15 24 10 l2
22 4 -22 c2 -13 8 -23 13 -23 13 0 30 34 30 59 0 17 -5 19 -36 15 -39 -5 -74
16 -74 43 0 8 -13 19 -30 24 -35 13 -30 29 8 28 15 0 21 -3 14 -6z"/>
<path d="M4155 2282 c-29 -6 -45 -22 -45 -42 0 -10 -5 -20 -12 -22 -7 -3 -12
-28 -12 -69 l-1 -64 42 42 c45 45 120 75 226 87 40 5 55 11 50 19 -5 9 -3 9 8
0 8 -6 41 -19 74 -28 74 -22 130 -55 171 -102 l32 -36 -1 111 -1 112 -57 0
c-45 0 -60 -4 -68 -17 -9 -16 -12 -16 -21 -3 -8 12 -13 13 -30 3 -25 -16 -47
-16 -52 -1 -3 9 -45 13 -144 13 -76 1 -148 0 -159 -3z"/>
<path d="M5020 2273 c0 -7 6 -13 14 -13 21 0 28 -15 20 -45 -4 -16 -13 -25
-25 -25 -28 0 -23 -29 5 -36 36 -9 48 3 41 37 -8 34 -7 34 40 12 30 -14 41
-15 68 -5 19 7 44 12 56 12 20 0 22 2 11 15 -23 28 0 29 28 2 25 -24 36 -27
100 -27 39 0 83 5 97 12 23 11 44 52 32 64 -12 12 -154 17 -161 5 -4 -6 -16
-11 -27 -11 -11 0 -22 -6 -25 -14 -4 -11 -11 -12 -34 -3 -17 7 -26 16 -23 25
5 11 -14 13 -106 10 -80 -2 -111 -6 -111 -15z"/>
<path d="M5257 2181 c-10 -4 -17 -10 -15 -13 2 -4 -12 -22 -31 -42 -24 -25
-40 -33 -56 -30 -13 2 -27 0 -30 -6 -3 -5 3 -10 13 -10 20 0 36 -25 26 -41 -9
-15 -27 -10 -20 6 4 10 -1 15 -15 15 -31 0 -21 -42 10 -47 36 -5 35 -8 -1 -32
-18 -11 -31 -21 -28 -22 23 -7 68 -4 80 5 13 10 13 9 1 -6 -7 -10 -20 -18 -27
-18 -25 0 -15 -16 21 -33 54 -26 107 -31 182 -17 58 11 73 18 100 49 18 20 30
42 28 50 -3 8 -1 17 5 21 13 8 -10 70 -27 70 -7 0 -13 11 -13 24 0 31 -20 44
-32 22 -11 -19 -49 -21 -66 -4 -10 10 -17 10 -33 0 -19 -12 -19 -11 -8 9 10
20 9 25 -11 41 -24 20 -26 20 -53 9z"/>
<path d="M4460 2150 c0 -5 -7 -6 -17 -3 -11 4 -14 3 -9 -5 5 -8 0 -12 -12 -12
-14 0 -21 -9 -25 -35 -7 -43 -32 -73 -41 -49 -3 9 -6 27 -6 40 0 18 5 24 22
24 16 0 19 3 11 11 -17 17 -54 -11 -48 -36 3 -11 2 -14 -1 -7 -3 6 -12 12 -20
12 -8 0 -14 4 -14 9 0 5 -11 11 -24 13 -18 4 -26 0 -30 -16 -3 -11 -2 -23 2
-26 17 -13 9 -28 -18 -34 -21 -4 -30 -11 -30 -25 0 -11 -13 -30 -30 -43 -16
-12 -30 -27 -30 -32 0 -6 4 -5 9 3 7 11 17 8 47 -17 22 -16 49 -33 62 -37 15
-4 21 -12 18 -21 -7 -18 31 -34 80 -34 32 0 34 2 34 36 l0 35 -26 -20 c-60
-47 -95 -14 -38 35 35 30 37 35 22 44 -19 11 -25 55 -9 64 11 7 33 -18 30 -36
-1 -7 2 -24 8 -37 8 -20 11 -21 16 -8 4 10 13 17 21 17 8 0 17 6 20 13 3 6 4
3 1 -9 -6 -25 18 -49 37 -38 11 6 11 5 0 -8 -7 -8 -10 -23 -6 -32 4 -10 1 -16
-9 -16 -13 0 -32 -28 -25 -36 2 -1 27 6 57 16 86 29 133 74 145 138 4 26 2 32
-12 32 -26 0 -58 25 -44 34 13 8 16 27 5 25 -5 -1 -15 -1 -23 0 -13 1 -13 3
-1 10 22 14 5 41 -25 41 -22 0 -25 -2 -14 -15 9 -10 9 -15 1 -15 -6 0 -12 5
-12 10 -3 20 -4 25 -12 38 -10 14 -37 16 -37 2z"/>
<path d="M5540 2088 c47 -78 11 -167 -89 -215 -49 -25 -67 -28 -146 -27 -93 1
-189 27 -215 59 -7 8 -19 15 -26 15 -23 0 -4 -62 30 -97 l31 -32 243 -1 242 0
0 45 c0 35 -3 43 -15 39 -28 -11 -32 6 -18 77 13 60 13 73 1 80 -10 7 -9 9 6
9 13 0 16 5 11 18 -4 9 -8 26 -9 37 -1 15 -9 21 -34 23 l-32 3 20 -33z"/>
<path d="M4657 1921 c-19 -28 -46 -49 -94 -73 -65 -32 -72 -33 -188 -33 -104
0 -127 3 -172 24 -29 13 -69 41 -89 63 l-35 40 3 -34 c2 -20 8 -32 16 -30 6 1
12 -2 12 -8 0 -5 -4 -10 -10 -10 -5 0 -10 -7 -10 -16 0 -8 5 -12 11 -9 6 4 13
-2 16 -14 7 -29 50 -33 327 -29 l239 3 4 83 c2 45 2 82 0 82 -2 0 -16 -18 -30
-39z"/>
<path d="M3160 1705 l0 -55 305 0 305 0 0 55 0 55 -305 0 -305 0 0 -55z"/>
<path d="M3593 1409 c-3 -11 -9 -19 -14 -19 -5 0 -9 -7 -9 -15 0 -17 -65 -22
-75 -5 -7 12 -45 14 -45 3 0 -5 -11 -8 -25 -8 -14 0 -25 6 -25 13 0 9 -5 10
-19 2 -11 -5 -29 -10 -40 -10 -10 0 -21 -5 -23 -11 -2 -7 -25 -12 -51 -12 -26
0 -47 -4 -47 -8 0 -12 -38 -49 -50 -49 -6 0 -10 -58 -10 -155 l0 -155 264 0
c145 0 271 3 280 6 26 10 18 24 -14 24 -16 0 -30 5 -30 10 0 6 4 10 8 10 5 0
18 9 30 20 20 19 22 19 31 2 9 -16 11 -16 28 1 11 11 13 17 5 17 -8 0 -10 5
-6 12 5 7 8 24 8 38 0 18 -6 26 -22 28 -12 2 -22 7 -22 12 0 5 6 7 14 4 9 -4
16 8 22 38 12 67 12 138 -2 138 -16 0 -25 38 -10 44 6 2 -2 5 -18 5 -21 1 -27
-3 -22 -14 6 -17 -29 -21 -52 -6 -11 6 -10 10 3 15 10 3 15 12 12 20 -3 8 -1
16 4 18 5 2 -9 4 -32 4 -33 1 -43 -2 -46 -17z m-95 -70 c36 -10 40 -14 30 -27
-12 -13 -10 -14 9 -2 12 8 19 18 17 22 -13 21 27 4 48 -20 13 -15 31 -31 41
-35 20 -7 37 -46 37 -83 0 -14 4 -22 10 -19 19 12 10 -12 -12 -32 -40 -36 -91
-56 -160 -61 -79 -5 -118 2 -118 24 0 13 -3 14 -13 5 -10 -8 -17 -7 -25 1 -9
9 -15 9 -24 0 -18 -18 -32 -14 -17 4 12 15 11 16 -9 10 -24 -8 -56 9 -46 25 3
5 0 9 -5 9 -6 0 -11 5 -11 10 0 6 18 10 40 10 22 0 40 4 40 9 0 15 -23 18 -63
8 -46 -12 -52 -7 -40 30 10 29 23 32 83 22 19 -3 24 0 22 12 -3 20 27 34 42
19 7 -7 4 -10 -9 -10 -18 0 -18 -1 1 -19 10 -10 22 -17 26 -15 10 6 38 -7 38
-17 0 -5 -7 -9 -15 -9 -8 0 -15 -4 -15 -10 0 -5 -7 -10 -15 -10 -13 0 -14 -2
-3 -14 7 -8 15 -13 16 -11 2 2 26 -3 53 -11 35 -11 54 -12 67 -5 14 8 14 11 2
12 -8 1 -23 0 -34 -1 -11 -1 -15 3 -12 9 4 6 2 11 -4 11 -6 0 -10 6 -9 13 3
27 -3 34 -41 47 -32 11 -39 17 -34 32 6 20 3 21 -71 20 -27 0 -41 2 -30 5 11
3 27 11 35 19 36 31 110 41 178 23z"/>
<path d="M4271 1357 c-6 -8 -7 -18 -3 -22 4 -5 2 -5 -4 -2 -6 3 -20 -2 -32
-13 -15 -14 -30 -18 -59 -15 -29 4 -26 1 16 -10 30 -7 59 -11 63 -8 5 2 19 -6
32 -20 14 -15 28 -22 35 -17 9 5 8 9 -6 14 -14 6 -10 10 22 21 38 14 41 13 65
-9 14 -13 35 -27 48 -31 12 -3 22 -10 22 -14 0 -4 -10 -13 -22 -20 -13 -6 -15
-9 -6 -7 12 3 16 -1 15 -15 -1 -10 -4 -19 -7 -20 -3 0 -13 -2 -23 -4 -12 -2
-17 1 -13 10 3 9 0 12 -8 9 -7 -3 -17 6 -24 20 -14 31 -47 42 -67 23 -8 -8
-11 -17 -8 -21 8 -8 -11 -8 -32 0 -13 6 -14 9 -3 16 9 6 6 7 -9 3 -12 -3 -24
-1 -28 5 -3 5 -11 10 -18 10 -6 0 -2 -7 9 -15 10 -8 14 -15 8 -15 -6 0 -14
-14 -18 -31 -5 -27 -9 -31 -31 -27 -31 6 -43 -8 -15 -17 26 -8 25 -19 -4 -43
l-24 -19 55 1 c62 1 73 -7 47 -35 -9 -10 -12 -19 -6 -19 6 0 14 5 18 11 3 6
19 9 35 5 16 -3 41 -1 55 5 21 7 31 6 44 -6 19 -17 34 -20 25 -5 -4 6 6 10 24
10 16 0 41 4 56 10 17 7 24 7 20 0 -3 -6 -1 -11 4 -11 21 -3 26 -4 39 -12 6
-5 12 -4 12 1 0 5 9 12 21 15 12 3 18 10 14 16 -4 8 -11 6 -21 -4 -9 -8 -21
-12 -27 -7 -7 4 -29 18 -49 31 -21 12 -38 27 -38 32 0 5 13 0 30 -12 28 -21
31 -21 48 -6 10 9 27 17 38 18 14 0 12 4 -10 13 -23 11 -25 14 -11 19 9 4 28
7 41 7 28 0 31 12 8 31 -12 10 -20 10 -35 1 -17 -11 -24 -9 -49 17 -17 16 -30
26 -30 21 0 -5 7 -16 16 -25 9 -9 14 -18 11 -21 -10 -10 -47 35 -41 50 4 11
25 13 105 9 l100 -5 -3 43 -3 42 -81 -2 c-78 -2 -164 18 -164 39 0 14 -51 21
-66 9 -8 -6 -14 -8 -14 -4 0 4 -13 -4 -30 -18 -28 -24 -86 -44 -96 -34 -3 3 9
8 26 12 24 5 30 11 25 25 -4 12 0 20 12 23 15 4 15 5 2 6 -9 0 -22 -5 -28 -12z"/>
<path d="M5413 1253 c-19 -7 -15 -24 5 -21 10 2 17 -3 17 -12 0 -8 -7 -15 -15
-15 -8 0 -18 -4 -22 -10 -5 -6 -18 2 -33 20 -14 17 -23 23 -20 14 4 -12 -1
-15 -24 -13 -17 1 -35 -4 -42 -12 -6 -8 -17 -14 -23 -14 -6 0 -28 -9 -47 -19
-21 -11 -46 -17 -58 -14 -12 3 -21 1 -21 -5 0 -16 41 -42 65 -42 11 0 33 -7
49 -15 31 -17 129 -19 161 -4 17 8 16 9 -7 6 -27 -4 -37 6 -18 18 5 3 6 13 3
23 -4 11 4 7 24 -11 30 -28 32 -28 61 -13 41 21 42 25 31 76 -13 58 -44 81
-86 63z"/>
<path d="M2910 340 l0 -340 1440 0 1440 0 0 340 0 340 -1440 0 -1440 0 0 -340z
m418 184 c16 -11 22 -25 22 -51 0 -36 0 -36 18 -17 15 15 16 23 8 36 -17 29 5
43 46 29 22 -8 34 -8 36 -1 6 16 39 12 46 -6 3 -9 6 -27 6 -40 0 -15 4 -23 10
-19 6 4 8 11 4 16 -3 6 -3 21 0 35 6 21 12 24 56 24 28 0 50 -3 51 -7 6 -65
19 -97 19 -47 0 17 5 35 11 41 16 16 39 5 39 -18 0 -27 18 -24 22 4 2 16 11
23 32 25 38 5 46 -10 46 -83 0 -33 -4 -66 -9 -73 -13 -21 -65 -11 -69 13 -2
16 -11 20 -48 22 -42 1 -45 0 -41 -19 8 -28 -34 -69 -62 -61 -28 7 -44 29 -38
52 3 11 -1 22 -8 25 -9 3 -15 -4 -17 -17 -4 -28 -38 -36 -44 -10 -4 15 -17 18
-74 20 -64 2 -69 0 -72 -20 -4 -29 -30 -28 -43 1 -5 12 -18 22 -28 22 -23 0
-34 29 -16 41 8 5 13 20 11 38 -2 21 3 33 20 45 28 20 38 20 66 0z m773 -5
c11 -11 19 -30 17 -42 -2 -12 3 -27 11 -33 19 -15 7 -44 -18 -44 -13 0 -21 -8
-23 -22 -4 -31 -42 -31 -46 -2 -4 31 -60 39 -64 10 -4 -28 -38 -34 -38 -7 0
17 -5 19 -36 14 -25 -4 -39 -2 -45 8 -13 20 -11 69 2 69 8 0 7 5 -1 16 -11 12
-11 18 2 30 12 12 20 13 44 4 20 -8 30 -8 32 -1 7 20 40 12 44 -11 3 -23 28
-38 28 -17 0 19 31 49 52 49 10 0 27 -9 39 -21z m509 -40 c0 -22 5 -39 10 -39
6 0 10 15 10 33 0 17 5 39 10 47 8 13 13 13 31 2 17 -11 23 -11 29 -1 14 22
40 1 40 -33 l0 -33 19 31 c22 37 39 45 64 32 12 -6 22 -4 33 7 19 19 44 4 44
-26 0 -24 7 -24 134 6 141 33 143 33 156 -14 12 -45 -9 -38 253 -86 76 -13
143 -27 148 -30 5 -4 7 -16 4 -28 -2 -12 -16 -86 -31 -164 -21 -115 -29 -143
-43 -143 -9 0 -124 21 -256 45 -132 25 -244 46 -250 47 -5 1 -65 -11 -133 -27
-68 -15 -125 -25 -128 -23 -2 3 -19 69 -37 147 -29 130 -34 141 -54 141 -13 0
-23 6 -23 14 0 8 -6 16 -14 19 -11 4 -16 -3 -18 -26 -2 -24 -9 -34 -31 -41
-36 -13 -59 1 -69 42 -7 24 -14 32 -32 32 -19 0 -22 -4 -18 -25 6 -33 -14 -55
-48 -55 -48 0 -60 9 -60 46 0 31 -7 39 -27 32 -4 -2 -6 -13 -4 -26 4 -32 -16
-52 -50 -52 -34 0 -57 36 -43 67 6 15 8 13 12 -12 6 -47 43 -61 62 -25 7 13 7
26 2 37 -7 11 -4 27 9 50 10 18 15 33 10 33 -5 0 -12 10 -17 23 -6 17 -8 11
-11 -29 -3 -43 -8 -53 -26 -58 -12 -3 -23 -1 -25 4 -2 5 -12 4 -22 -3 -30 -18
-48 5 -28 35 8 13 18 36 22 51 8 34 41 34 41 0 0 -13 6 -28 13 -35 9 -9 12 -4
12 25 0 29 4 37 18 37 9 0 22 -10 27 -22 15 -32 33 -34 27 -3 -4 26 -4 26 49
23 51 -3 54 -4 54 -30 1 -36 7 -40 47 -36 l33 4 -28 12 c-19 8 -27 18 -25 30
3 13 13 16 45 14 23 -1 45 3 48 8 13 21 35 -12 35 -51z m-1320 -199 c9 -5 19
-5 27 2 18 15 43 2 43 -21 0 -11 5 -23 10 -26 6 -3 10 2 10 12 0 24 19 43 36
36 8 -3 14 -14 14 -24 0 -14 7 -19 30 -19 17 0 30 -5 30 -12 0 -7 9 2 20 20
15 24 27 33 43 31 12 -1 30 1 39 5 9 4 25 6 35 4 15 -3 18 -15 21 -82 2 -50
-1 -82 -8 -86 -20 -12 -60 1 -60 20 0 20 -40 30 -90 22 -30 -4 -43 -22 -16
-22 8 0 18 -5 21 -10 12 -20 -17 -40 -56 -40 -40 0 -44 4 -64 65 -8 26 -25 1
-17 -27 6 -25 -13 -38 -56 -38 -26 0 -34 5 -42 28 -6 15 -14 36 -19 47 -20 43
-21 85 -4 105 19 22 31 24 53 10z m540 -16 c0 -26 23 -51 42 -46 10 2 25 -1
33 -8 12 -10 18 -10 30 0 17 14 35 5 35 -19 0 -23 -39 -41 -66 -31 -11 5 -32
6 -47 3 -20 -4 -27 -12 -29 -36 -4 -38 -36 -51 -45 -18 -3 12 -13 21 -22 21
-9 0 -27 12 -41 26 l-24 26 24 47 c19 35 32 47 55 52 37 7 55 1 55 -17z"/>
<path d="M4805 303 c-5 -15 -7 -15 -15 -3 -7 11 -10 7 -10 -15 -1 -24 -28 -93
-30 -75 -1 17 -29 82 -29 70 -1 -23 27 -118 28 -97 1 26 24 16 26 -12 1 -14
-3 -20 -12 -17 -7 3 -13 1 -13 -5 0 -17 90 -1 121 21 16 12 30 15 36 9 6 -6
15 -4 24 3 13 11 13 20 3 58 -11 43 -12 44 -22 20 -5 -14 -7 -29 -5 -34 10
-15 -20 -24 -44 -13 -26 12 -32 54 -8 63 8 4 12 10 9 15 -3 5 -9 7 -14 4 -5
-3 -15 1 -23 10 -13 13 -16 13 -22 -2z"/>
<path d="M5347 313 c-4 -3 -7 -16 -7 -28 0 -20 10 -24 93 -41 101 -21 110 -30
86 -90 -7 -16 -11 -35 -10 -42 1 -8 -6 -11 -21 -7 -58 14 -173 33 -177 30 -6
-7 16 -12 118 -30 51 -9 97 -13 101 -8 8 9 41 175 36 180 -2 2 -33 4 -70 5
-36 1 -66 6 -66 10 0 6 -10 10 -61 24 -8 2 -18 1 -22 -3z"/>
<path d="M1240 255 c-11 -26 -20 -52 -20 -60 0 -7 24 -31 53 -53 l54 -40 38
21 c31 18 41 32 55 75 10 28 13 52 8 52 -24 0 -47 -23 -58 -57 -7 -21 -17 -42
-22 -48 -5 -5 -1 13 10 41 l19 51 -51 29 c-28 16 -54 30 -58 32 -5 2 -17 -17
-28 -43z"/>
</g>
</svg>
