<?xml version="1.0" standalone="no"?>
<!DOCTYPE svg PUBLIC "-//W3C//DTD SVG 20010904//EN"
 "http://www.w3.org/TR/2001/REC-SVG-20010904/DTD/svg10.dtd">
<svg version="1.0" xmlns="http://www.w3.org/2000/svg"
 width="313.000000pt" height="544.000000pt" viewBox="0 0 313.000000 544.000000"
 preserveAspectRatio="xMidYMid meet">

<g transform="translate(0.000000,544.000000) scale(0.100000,-0.100000)"
fill="#000000" stroke="none">
<path d="M0 5301 l0 -140 108 -3 c59 -2 396 -2 750 0 l642 2 0 140 0 140 -750
0 -750 0 0 -139z m987 97 c-3 -8 -6 -5 -6 6 -1 11 2 17 5 13 3 -3 4 -12 1 -19z
m-97 2 c0 -5 -4 -10 -10 -10 -5 0 -10 5 -10 10 0 6 5 10 10 10 6 0 10 -4 10
-10z m210 -20 c0 -27 -3 -30 -32 -30 l-32 0 29 30 c16 17 30 30 32 30 2 0 3
-13 3 -30z m337 8 c2 -18 0 -20 -7 -8 -8 12 -10 13 -10 1 0 -8 -2 -12 -5 -9
-7 7 5 38 14 38 4 0 8 -10 8 -22z m-1261 -13 c18 -14 17 -15 -12 -13 -22 1
-30 6 -27 15 7 17 15 16 39 -2z m689 5 c3 -5 2 -10 -4 -10 -5 0 -13 5 -16 10
-3 6 -2 10 4 10 5 0 13 -4 16 -10z m592 -104 c3 -2 5 -31 4 -47 -1 -17 -34
-31 -55 -23 -6 2 -17 13 -23 23 -16 26 19 65 50 55 12 -3 23 -7 24 -8z m-916
-13 c3 -45 -7 -65 -22 -43 -8 13 -11 13 -20 -3 -13 -22 -29 -13 -29 18 0 39
69 65 71 28z m296 -25 c-3 -7 -5 -2 -5 12 0 14 2 19 5 13 2 -7 2 -19 0 -25z
m58 16 c17 -1 38 -2 48 -3 9 -1 17 -6 17 -12 0 -6 -6 -9 -14 -6 -7 3 -18 1
-23 -4 -7 -7 -16 -4 -28 8 -13 13 -20 14 -23 5 -6 -20 -22 -13 -22 11 0 12 4
18 8 12 4 -5 21 -11 37 -11z m132 -16 c-3 -7 -5 -2 -5 12 0 14 2 19 5 13 2 -7
2 -19 0 -25z m43 20 c0 6 4 12 9 12 4 0 6 -12 3 -27 -3 -16 -7 -22 -10 -14 -3
10 -6 10 -12 1 -4 -7 -7 -1 -7 15 0 19 2 23 8 14 6 -10 9 -11 9 -1z m-1013
-20 c-3 -8 -6 -5 -6 6 -1 11 2 17 5 13 3 -3 4 -12 1 -19z m33 1 c0 -11 -4 -18
-10 -14 -5 3 -7 12 -3 20 7 21 13 19 13 -6z m70 -1 c-1 -21 -2 -22 -14 -6 -7
10 -16 15 -19 11 -4 -3 -7 -1 -7 5 0 7 9 12 20 12 14 0 20 -7 20 -22z m141 13
c7 11 9 10 9 -4 0 -20 -22 -19 -26 1 -2 9 -1 9 3 1 4 -8 8 -7 14 2z m519 0 c0
-5 -7 -11 -15 -15 -15 -5 -20 5 -8 17 9 10 23 9 23 -2z m185 -1 c3 -5 1 -10
-4 -10 -6 0 -11 5 -11 10 0 6 2 10 4 10 3 0 8 -4 11 -10z"/>
<path d="M1413 5263 c-18 -6 -16 -30 2 -37 9 -3 18 1 22 10 7 18 -7 33 -24 27z"/>
<path d="M1630 5300 l0 -140 518 -2 c284 -2 622 -2 750 0 l232 3 0 139 0 140
-750 0 -750 0 0 -140z m1274 111 c4 -5 3 -16 0 -25 -5 -12 -10 -14 -20 -6 -7
7 -10 18 -7 26 6 16 19 18 27 5z m-1147 -23 c-3 -8 -6 -5 -6 6 -1 11 2 17 5
13 3 -3 4 -12 1 -19z m943 -5 c0 -24 -4 -28 -29 -28 l-30 0 26 28 c15 15 28
27 30 27 2 0 3 -12 3 -27z m60 -5 c0 -5 -4 -8 -10 -8 -5 0 -10 10 -10 23 0 18
2 19 10 7 5 -8 10 -18 10 -22z m217 0 c-3 -7 -5 -2 -5 12 0 14 2 19 5 13 2 -7
2 -19 0 -25z m98 14 c-3 -3 -11 0 -18 7 -9 10 -8 11 6 5 10 -3 15 -9 12 -12z
m-610 -2 c3 -5 1 -10 -4 -10 -6 0 -11 5 -11 10 0 6 2 10 4 10 3 0 8 -4 11 -10z
m592 -143 c-2 -24 -7 -30 -29 -33 -23 -2 -26 1 -26 30 0 29 3 33 29 33 25 0
28 -3 26 -30z m-1358 6 c1 27 21 20 21 -8 0 -23 -2 -24 -20 -15 -11 6 -20 18
-19 28 0 14 2 14 9 -3 7 -17 9 -17 9 -2z m61 13 c0 -2 -7 -9 -15 -16 -13 -11
-14 -10 -9 4 5 14 24 23 24 12z m18 -20 c-1 -14 -5 -23 -9 -20 -7 4 0 44 7 44
2 0 3 -11 2 -24z m39 17 c-9 -2 -15 -9 -11 -14 3 -5 10 -7 15 -4 5 3 6 -1 3
-9 -3 -9 -14 -16 -23 -16 -14 0 -14 2 -1 10 10 6 11 10 3 10 -7 0 -13 7 -13
15 0 9 9 15 23 14 17 -1 18 -2 4 -6z m62 -4 c6 9 9 7 9 -11 0 -16 -6 -24 -18
-24 -12 0 -17 8 -17 24 0 18 2 20 8 11 8 -12 10 -12 18 0z m701 -16 c0 -20 -3
-24 -11 -16 -7 7 -9 19 -6 27 10 24 17 19 17 -11z m199 11 c6 4 11 2 11 -3 0
-6 -9 -11 -20 -11 -12 0 -20 7 -20 18 0 13 2 14 9 3 5 -7 14 -10 20 -7z m46 7
c3 -5 2 -12 -3 -15 -5 -3 -9 1 -9 9 0 17 3 19 12 6z m-297 -13 c-3 -7 -13 -15
-23 -16 -15 -4 -16 -2 -4 12 17 19 32 21 27 4z"/>
<path d="M210 5139 c-18 -5 -9 -7 34 -8 33 -1 57 1 54 4 -9 10 -62 12 -88 4z"/>
<path d="M530 4921 c-6 -12 -10 -129 -10 -310 0 -278 1 -292 20 -308 12 -11
16 -20 9 -24 -6 -3 82 -6 194 -5 113 1 204 3 201 5 -2 2 6 15 16 29 19 23 20
41 20 309 0 177 -4 292 -10 304 -10 18 -23 19 -220 19 -197 0 -210 -1 -220
-19z m410 -276 l0 -255 -190 0 -190 0 0 255 0 255 190 0 190 0 0 -255z"/>
<path d="M748 4721 c-43 -18 -50 -41 -14 -41 26 0 60 -29 35 -31 -8 0 -3 -5
11 -11 25 -11 25 -11 2 -15 -17 -4 -21 -10 -18 -29 3 -13 1 -24 -4 -24 -15 0
-40 43 -40 69 0 28 -14 19 -25 -16 -5 -18 -3 -22 9 -17 9 3 16 2 16 -3 0 -18
-12 -22 -36 -13 -14 6 -24 6 -24 1 0 -5 -12 -23 -26 -40 l-26 -31 70 0 c44 0
72 4 74 11 3 9 9 9 25 0 12 -6 47 -11 78 -11 48 0 56 3 51 16 -3 9 -6 20 -6
25 0 5 -8 9 -19 9 -36 0 -80 21 -74 36 3 8 11 14 19 14 10 0 11 6 2 32 -9 24
-8 33 0 36 19 6 14 17 -15 33 -25 14 -31 14 -65 0z"/>
<path d="M865 4600 c-3 -5 1 -10 10 -10 9 0 13 5 10 10 -3 6 -8 10 -10 10 -2
0 -7 -4 -10 -10z"/>
<path d="M701 4424 c0 -11 3 -14 6 -6 3 7 2 16 -1 19 -3 4 -6 -2 -5 -13z"/>
<path d="M720 4424 c0 -8 5 -12 10 -9 6 4 8 11 5 16 -9 14 -15 11 -15 -7z"/>
<path d="M750 4430 c0 -5 5 -10 11 -10 5 0 7 5 4 10 -3 6 -8 10 -11 10 -2 0
-4 -4 -4 -10z"/>
<path d="M796 4425 c-3 -8 -1 -15 4 -15 6 0 10 7 10 15 0 8 -2 15 -4 15 -2 0
-6 -7 -10 -15z"/>
<path d="M3050 4890 c0 -29 4 -40 15 -40 11 0 15 11 15 40 0 29 -4 40 -15 40
-11 0 -15 -11 -15 -40z"/>
<path d="M2741 4905 c0 -12 24 -45 33 -45 4 0 5 4 2 9 -4 5 0 12 6 14 7 3 3 6
-9 6 -12 1 -24 7 -26 14 -3 6 -6 8 -6 2z"/>
<path d="M142 4888 c-9 -9 -12 -79 -12 -254 l0 -242 25 -16 c19 -13 52 -16
166 -16 123 0 144 2 155 18 18 23 20 492 2 510 -8 8 -60 12 -168 12 -108 0
-160 -4 -168 -12z m156 -79 c33 8 82 3 82 -9 0 -16 -19 -21 -38 -11 -13 7 -22
7 -29 0 -11 -11 -63 -2 -63 10 0 13 14 23 18 12 2 -5 15 -6 30 -2z m162 -214
l0 -146 -147 3 -148 3 -3 129 c-1 72 0 136 2 143 4 10 41 13 151 13 l145 0 0
-145z"/>
<path d="M1016 4884 c-14 -13 -16 -50 -16 -248 0 -297 -15 -276 200 -276 84 0
151 3 147 6 -3 4 0 13 8 21 20 19 22 482 3 501 -8 8 -60 12 -169 12 -130 0
-160 -3 -173 -16z m134 -33 c0 -4 11 -6 25 -3 30 5 34 -14 4 -23 -11 -4 -24
-16 -28 -28 -5 -12 -17 -22 -27 -22 -11 0 -18 -6 -16 -12 1 -7 -2 -13 -8 -13
-5 0 -10 7 -10 15 0 8 -5 15 -11 15 -7 0 -9 9 -6 21 5 17 3 18 -11 7 -13 -11
-15 -11 -7 2 19 35 40 50 67 50 15 0 28 -4 28 -9z m152 -18 c17 -31 14 -53 -8
-53 -8 0 -19 -11 -25 -24 -7 -14 -17 -22 -24 -19 -16 5 -14 -25 2 -35 6 -4 13
-17 17 -29 9 -28 32 -36 50 -18 8 8 17 15 21 15 3 0 4 -48 3 -107 l-3 -108
-147 -3 -148 -3 0 111 0 110 34 0 c33 0 52 19 37 36 -4 5 -2 20 4 32 7 13 16
19 19 14 3 -6 2 -13 -4 -17 -16 -10 -12 -25 8 -25 15 0 15 -2 2 -10 -13 -9
-13 -12 1 -23 12 -9 16 -33 18 -97 1 -47 4 -86 5 -88 9 -8 56 23 56 38 0 9 5
21 11 27 12 12 3 37 -10 29 -4 -3 -9 51 -9 119 -1 108 1 125 14 125 10 0 14 6
10 15 -4 11 2 15 22 15 20 0 32 -8 44 -27z"/>
<path d="M1220 4788 c0 -9 7 -19 16 -22 24 -9 24 -4 3 18 -16 16 -19 17 -19 4z"/>
<path d="M1220 4685 c0 -16 16 -20 24 -6 3 5 -1 11 -9 15 -9 3 -15 0 -15 -9z"/>
<path d="M1482 4858 c-19 -19 -16 -397 3 -422 13 -18 15 5 15 207 0 125 -1
227 -3 227 -2 0 -8 -5 -15 -12z"/>
<path d="M1996 4832 c-2 -4 -1 -14 5 -22 7 -12 9 -10 9 8 0 23 -5 28 -14 14z"/>
<path d="M2050 4826 c0 -2 7 -9 15 -16 12 -10 15 -10 15 4 0 9 -7 16 -15 16
-8 0 -15 -2 -15 -4z"/>
<path d="M3006 4735 c-33 -30 -35 -51 -3 -30 13 8 27 12 30 9 4 -4 13 -1 22 6
12 10 13 16 4 26 -16 19 -22 18 -53 -11z"/>
<path d="M1730 4631 c0 -15 5 -43 12 -61 9 -28 8 -35 -6 -46 -13 -9 -18 -29
-19 -83 l-3 -71 43 0 c38 0 43 3 44 23 1 12 1 26 0 31 -4 21 10 57 31 76 12
11 16 20 10 20 -7 0 -12 11 -12 25 0 27 15 34 24 10 8 -21 24 -19 22 3 -1 11
5 16 17 14 17 -3 17 -2 0 16 -18 18 -53 18 -53 -1 0 -5 -9 -2 -21 9 -19 17
-19 19 -3 31 10 7 27 13 38 14 39 2 -25 17 -76 18 -46 1 -48 0 -48 -28z"/>
<path d="M1912 4652 c-10 -7 -8 -13 6 -29 18 -21 18 -21 30 -2 20 31 -3 51
-36 31z"/>
<path d="M1940 4525 c-5 -14 -10 -35 -10 -45 0 -17 -58 -68 -70 -63 -3 2 -8
-9 -12 -22 l-6 -25 129 0 130 0 -3 51 -3 50 -72 40 -73 40 -10 -26z"/>
<path d="M2143 4303 l-513 -3 0 -85 0 -85 525 0 525 0 0 90 c0 67 -3 89 -12
88 -7 -2 -244 -4 -525 -5z m375 -85 l3 -58 -56 0 -55 0 0 53 c0 30 3 57 7 61
4 4 28 6 53 4 l45 -3 3 -57z m127 2 l0 -55 -50 0 -50 0 -3 44 c-5 66 1 73 55
69 l48 -3 0 -55z m-923 10 c5 -12 7 -12 7 2 1 15 12 17 76 15 75 -2 75 -2 75
-29 0 -32 0 -31 -34 -18 -17 6 -26 6 -26 0 0 -18 -40 -11 -41 8 -1 16 -2 16
-6 0 -5 -20 -43 -25 -43 -5 0 8 -2 9 -8 1 -9 -15 -52 1 -52 19 0 8 2 16 5 19
11 11 40 3 47 -12z"/>
<path d="M2461 4248 c0 -9 -9 -19 -18 -21 -16 -4 -16 -5 -1 -6 9 0 19 -9 21
-18 4 -16 5 -16 6 -1 0 9 9 19 19 21 15 4 15 5 0 6 -9 0 -19 9 -21 19 -4 15
-5 15 -6 0z"/>
<path d="M2585 4230 c-19 -20 -24 -30 -14 -30 12 0 12 -2 -1 -10 -13 -9 -13
-10 0 -9 21 0 65 58 53 70 -6 6 -20 -2 -38 -21z"/>
<path d="M3005 4285 c-30 -29 -34 -57 -6 -31 11 10 25 15 31 11 6 -4 17 -1 26
5 11 10 12 16 3 26 -16 20 -26 18 -54 -11z"/>
<path d="M2712 4008 c-7 -7 -12 -16 -12 -21 0 -5 7 -1 16 8 9 9 14 18 12 20
-2 3 -10 -1 -16 -7z"/>
<path d="M2752 3985 c0 -16 2 -22 5 -12 2 9 2 23 0 30 -3 6 -5 -1 -5 -18z"/>
<path d="M1384 3973 c-2 -19 1 -22 12 -12 17 14 18 25 2 32 -8 3 -14 -5 -14
-20z"/>
<path d="M480 3974 c0 -10 6 -14 14 -11 8 3 17 1 20 -6 2 -7 5 -2 5 11 1 16
-5 22 -19 22 -12 0 -20 -7 -20 -16z"/>
<path d="M655 3980 c11 -5 14 -9 8 -9 -18 -1 -16 -21 2 -21 8 0 15 9 15 20 0
14 -6 20 -22 19 -22 0 -22 -1 -3 -9z"/>
<path d="M700 3986 c0 -2 7 -7 16 -10 8 -3 12 -2 9 4 -6 10 -25 14 -25 6z"/>
<path d="M1736 3895 c-9 -23 -8 -25 9 -25 17 0 19 9 6 28 -7 11 -10 10 -15 -3z"/>
<path d="M2555 3900 c-3 -5 -1 -10 5 -10 6 0 8 -5 4 -12 -4 -7 -3 -8 4 -4 6 4
9 13 5 21 -6 18 -10 19 -18 5z"/>
<path d="M1671 3884 c0 -11 3 -14 6 -6 3 7 2 16 -1 19 -3 4 -6 -2 -5 -13z"/>
<path d="M1701 3884 c0 -11 3 -14 6 -6 3 7 2 16 -1 19 -3 4 -6 -2 -5 -13z"/>
<path d="M1776 3891 c-4 -7 -5 -15 -2 -18 9 -9 19 4 14 18 -4 11 -6 11 -12 0z"/>
<path d="M3014 3850 c-12 -4 -24 -18 -27 -30 -4 -17 -3 -19 9 -9 7 6 21 8 30
5 24 -9 48 13 33 30 -13 16 -16 16 -45 4z"/>
<path d="M1730 3720 c0 -5 7 -7 15 -4 8 4 15 8 15 10 0 2 -7 4 -15 4 -8 0 -15
-4 -15 -10z"/>
<path d="M2555 3720 c-3 -5 -1 -10 4 -10 6 0 11 5 11 10 0 6 -2 10 -4 10 -3 0
-8 -4 -11 -10z"/>
<path d="M1384 3695 c-2 -21 1 -24 12 -14 11 9 11 15 3 25 -15 18 -14 18 -15
-11z"/>
<path d="M511 3701 c-1 -7 -7 -11 -16 -7 -8 3 -15 1 -15 -3 0 -10 31 -24 37
-17 3 2 3 13 0 23 -3 10 -5 12 -6 4z"/>
<path d="M540 3690 c0 -11 5 -20 11 -20 6 0 9 6 6 14 -3 8 -1 17 6 20 7 2 4 5
-5 5 -12 1 -18 -6 -18 -19z"/>
<path d="M611 3694 c0 -11 3 -14 6 -6 3 7 2 16 -1 19 -3 4 -6 -2 -5 -13z"/>
<path d="M676 3698 c3 -4 9 -8 15 -8 5 0 9 4 9 8 0 5 -7 9 -15 9 -8 0 -12 -4
-9 -9z"/>
<path d="M782 3690 c0 -14 2 -19 5 -12 2 6 2 18 0 25 -3 6 -5 1 -5 -13z"/>
<path d="M800 3689 c0 -11 4 -18 10 -14 5 3 7 12 3 20 -7 21 -13 19 -13 -6z"/>
<path d="M641 3684 c0 -11 3 -14 6 -6 3 7 2 16 -1 19 -3 4 -6 -2 -5 -13z"/>
<path d="M746 3692 c-3 -5 1 -9 9 -9 8 0 12 4 9 9 -3 4 -7 8 -9 8 -2 0 -6 -4
-9 -8z"/>
<path d="M840 3686 c4 -4 16 -4 26 2 16 9 14 10 -8 9 -15 -1 -23 -6 -18 -11z"/>
<path d="M1691 3578 c5 -10 12 -18 14 -18 3 0 5 8 5 18 0 10 -7 19 -14 19 -11
0 -13 -5 -5 -19z"/>
<path d="M1736 3589 c-15 -9 -16 -13 -5 -20 21 -13 25 -11 25 11 0 11 0 20 -1
20 0 0 -8 -5 -19 -11z"/>
<path d="M2561 3574 c0 -11 3 -14 6 -6 3 7 2 16 -1 19 -3 4 -6 -2 -5 -13z"/>
<path d="M1384 3436 c1 -18 4 -22 14 -14 9 8 9 14 1 24 -16 19 -17 18 -15 -10z"/>
<path d="M483 3440 c2 -8 10 -15 17 -15 7 0 15 7 17 15 4 13 3 13 -6 0 -10
-13 -12 -13 -22 0 -9 13 -10 13 -6 0z"/>
<path d="M599 3448 c-10 -35 0 -56 22 -42 8 4 7 9 -2 15 -10 6 -11 9 -1 9 6 0
12 5 12 10 0 8 -28 15 -31 8z"/>
<path d="M675 3440 c-9 -15 3 -30 20 -24 7 3 11 12 8 20 -6 16 -19 18 -28 4z"/>
<path d="M125 3202 c-14 -14 -1 -22 35 -22 22 0 40 -4 40 -10 0 -5 -18 -10
-40 -10 -22 0 -40 -4 -40 -10 0 -5 21 -10 46 -10 45 0 45 0 42 32 -3 30 -6 32
-40 34 -21 0 -40 -1 -43 -4z"/>
<path d="M1384 3176 c1 -18 4 -22 14 -14 9 8 9 14 1 24 -16 19 -17 18 -15 -10z"/>
<path d="M546 3181 c-19 -7 -19 -8 2 -13 15 -4 22 -2 22 8 0 8 -1 14 -2 13 -2
0 -12 -4 -22 -8z"/>
<path d="M591 3174 c0 -11 3 -14 6 -6 3 7 2 16 -1 19 -3 4 -6 -2 -5 -13z"/>
<path d="M142 2938 c-29 -29 -3 -72 40 -66 19 2 23 9 23 38 0 30 -4 35 -25 38
-14 2 -31 -3 -38 -10z m58 -28 c0 -16 -7 -20 -30 -20 -33 0 -43 25 -12 33 34
9 42 7 42 -13z"/>
<path d="M480 2925 c0 -5 4 -16 9 -23 6 -10 11 -9 22 4 11 14 11 16 0 10 -8
-5 -17 -3 -22 5 -5 8 -9 10 -9 4z"/>
<path d="M1384 2910 c0 -11 5 -19 11 -17 5 2 10 10 10 17 0 7 -5 15 -10 17 -6
2 -11 -6 -11 -17z"/>
<path d="M661 2911 c-11 -7 -8 -11 10 -17 33 -11 69 -12 62 -1 -3 4 -11 6 -19
3 -18 -7 -45 4 -38 15 7 11 3 11 -15 0z"/>
<path d="M540 2901 c0 -5 7 -11 15 -15 8 -3 15 -1 15 3 0 5 -7 11 -15 15 -8 3
-15 1 -15 -3z"/>
<path d="M610 2901 c0 -6 4 -13 10 -16 6 -3 7 1 4 9 -7 18 -14 21 -14 7z"/>
<path d="M760 2900 c0 -5 5 -10 11 -10 5 0 7 5 4 10 -3 6 -8 10 -11 10 -2 0
-4 -4 -4 -10z"/>
<path d="M0 1340 l0 -1330 750 0 750 0 0 1330 0 1330 -750 0 -750 0 0 -1330z
m987 1288 c-3 -8 -6 -5 -6 6 -1 11 2 17 5 13 3 -3 4 -12 1 -19z m-97 2 c0 -5
-4 -10 -10 -10 -5 0 -10 5 -10 10 0 6 5 10 10 10 6 0 10 -4 10 -10z m210 -20
c0 -27 -3 -30 -32 -30 l-32 0 29 30 c16 17 30 30 32 30 2 0 3 -13 3 -30z m337
8 c2 -18 0 -20 -7 -8 -8 12 -10 13 -10 1 0 -8 -2 -12 -5 -9 -7 7 5 38 14 38 4
0 8 -10 8 -22z m-1261 -13 c18 -14 17 -15 -12 -13 -22 1 -30 6 -27 15 7 17 15
16 39 -2z m689 5 c3 -5 2 -10 -4 -10 -5 0 -13 5 -16 10 -3 6 -2 10 4 10 5 0
13 -4 16 -10z m400 -1310 l0 -455 -515 0 -515 0 -3 445 c-1 245 0 451 3 458 3
10 112 12 517 10 l513 -3 0 -455z"/>
<path d="M430 1490 c0 -5 5 -10 10 -10 6 0 10 5 10 10 0 6 -4 10 -10 10 -5 0
-10 -4 -10 -10z"/>
<path d="M472 1480 c0 -14 2 -19 5 -12 2 6 2 18 0 25 -3 6 -5 1 -5 -13z"/>
<path d="M550 1480 c0 -11 4 -20 8 -20 4 0 8 9 8 20 0 11 -4 20 -8 20 -4 0 -8
-9 -8 -20z"/>
<path d="M910 1485 c0 -8 2 -15 4 -15 2 0 6 7 10 15 3 8 1 15 -4 15 -6 0 -10
-7 -10 -15z"/>
<path d="M970 1492 c0 -14 24 -22 39 -12 9 5 10 10 2 14 -6 4 -11 2 -11 -5 0
-8 -4 -8 -15 1 -9 7 -15 8 -15 2z"/>
<path d="M1051 1489 c12 -8 12 -11 -1 -20 -12 -9 -12 -10 4 -5 11 4 23 1 28
-6 5 -9 8 -5 8 12 0 20 -5 25 -27 27 -19 1 -22 -1 -12 -8z"/>
<path d="M596 1473 c-6 -14 -5 -15 5 -6 7 7 10 15 7 18 -3 3 -9 -2 -12 -12z"/>
<path d="M640 1469 c0 -5 5 -7 10 -4 6 3 10 8 10 11 0 2 -4 4 -10 4 -5 0 -10
-5 -10 -11z"/>
<path d="M560 1410 c13 -9 13 -10 0 -11 -10 0 -8 -3 5 -9 30 -13 35 -12 35 8
0 13 -2 14 -9 4 -7 -11 -9 -11 -14 2 -4 9 -12 16 -19 16 -9 0 -8 -3 2 -10z"/>
<path d="M636 1412 c-3 -5 1 -9 9 -9 8 0 12 4 9 9 -3 4 -7 8 -9 8 -2 0 -6 -4
-9 -8z"/>
<path d="M786 1407 c3 -10 9 -15 12 -12 3 3 0 11 -7 18 -10 9 -11 8 -5 -6z"/>
<path d="M1008 1413 c-26 -6 -24 -53 1 -53 15 0 19 7 19 30 -1 17 -1 29 -2 29
-1 -1 -9 -3 -18 -6z"/>
<path d="M503 1391 c1 -14 9 -26 17 -28 10 -3 11 -2 4 4 -7 4 -14 17 -17 28
-5 16 -5 15 -4 -4z"/>
<path d="M700 1404 c0 -3 7 -12 15 -20 16 -17 18 -14 9 10 -6 15 -24 23 -24
10z"/>
<path d="M850 1403 c1 -14 30 -48 30 -34 0 7 -7 19 -15 27 -8 9 -15 12 -15 7z"/>
<path d="M957 1403 c-3 -5 -1 -17 4 -28 7 -17 8 -17 8 8 1 27 -4 34 -12 20z"/>
<path d="M922 1387 c-8 -10 -6 -13 7 -13 11 0 17 6 14 13 -3 7 -6 13 -8 13 -1
0 -7 -6 -13 -13z"/>
<path d="M636 1378 c3 -5 10 -6 15 -3 13 9 11 12 -6 12 -8 0 -12 -4 -9 -9z"/>
<path d="M805 1381 c-3 -5 -2 -12 3 -15 5 -3 9 1 9 9 0 17 -3 19 -12 6z"/>
<path d="M665 1320 c-3 -5 -1 -10 4 -10 6 0 11 5 11 10 0 6 -2 10 -4 10 -3 0
-8 -4 -11 -10z"/>
<path d="M912 1300 c0 -19 2 -27 5 -17 2 9 2 25 0 35 -3 9 -5 1 -5 -18z"/>
<path d="M933 1314 c-3 -8 -2 -19 3 -24 5 -5 9 1 9 16 0 28 -3 30 -12 8z"/>
<path d="M970 1303 c0 -18 2 -33 4 -33 9 0 13 39 5 51 -6 10 -9 4 -9 -18z"/>
<path d="M490 1309 c0 -5 5 -7 11 -3 8 4 9 -1 4 -17 -5 -19 -4 -21 4 -9 15 22
13 40 -4 40 -8 0 -15 -5 -15 -11z"/>
<path d="M573 1295 c-3 -9 -3 -19 1 -22 3 -4 6 1 6 10 0 10 5 17 11 17 6 0 8
-7 4 -17 -5 -14 -3 -15 6 -6 12 12 5 33 -12 33 -5 0 -12 -7 -16 -15z"/>
<path d="M755 1280 c-19 -8 -19 -9 3 -9 12 -1 22 4 22 9 0 6 -1 10 -2 9 -2 0
-12 -4 -23 -9z"/>
<path d="M800 1280 c0 -5 5 -10 11 -10 5 0 7 5 4 10 -3 6 -8 10 -11 10 -2 0
-4 -4 -4 -10z"/>
<path d="M835 1280 c-3 -5 -1 -10 4 -10 6 0 11 5 11 10 0 6 -2 10 -4 10 -3 0
-8 -4 -11 -10z"/>
<path d="M432 1220 c0 -14 2 -19 5 -12 2 6 2 18 0 25 -3 6 -5 1 -5 -13z"/>
<path d="M472 1215 c0 -16 2 -22 5 -12 2 9 2 23 0 30 -3 6 -5 -1 -5 -18z"/>
<path d="M721 1224 c0 -11 3 -14 6 -6 3 7 2 16 -1 19 -3 4 -6 -2 -5 -13z"/>
<path d="M896 1233 c7 -4 14 -17 17 -28 5 -16 5 -15 4 4 -1 14 -9 26 -17 28
-10 3 -11 2 -4 -4z"/>
<path d="M930 1236 c0 -2 7 -7 16 -10 8 -3 12 -2 9 4 -6 10 -25 14 -25 6z"/>
<path d="M974 1225 c-3 -8 -4 -20 -2 -27 3 -7 7 -1 10 15 6 29 1 36 -8 12z"/>
<path d="M1026 1223 c-6 -14 -5 -15 5 -6 7 7 10 15 7 18 -3 3 -9 -2 -12 -12z"/>
<path d="M515 1210 c4 -6 11 -8 16 -5 14 9 11 15 -7 15 -8 0 -12 -5 -9 -10z"/>
<path d="M662 1196 c7 -8 15 -12 17 -11 5 6 -10 25 -20 25 -5 0 -4 -6 3 -14z"/>
<path d="M1630 2530 l0 -140 95 0 c52 0 343 0 645 0 303 0 597 0 655 0 l105 0
0 140 0 140 -750 0 -750 0 0 -140z m1000 110 c0 -5 -4 -10 -10 -10 -5 0 -10 5
-10 10 0 6 5 10 10 10 6 0 10 -4 10 -10z m294 -6 c3 -8 2 -12 -4 -9 -6 3 -10
10 -10 16 0 14 7 11 14 -7z m-194 -21 c0 -24 -4 -28 -29 -28 l-30 0 26 28 c15
15 28 27 30 27 2 0 3 -12 3 -27z m385 17 c-3 -5 -12 -10 -18 -10 -7 0 -6 4 3
10 19 12 23 12 15 0z m-1425 -10 c0 -5 -2 -10 -4 -10 -3 0 -8 5 -11 10 -3 6
-1 10 4 10 6 0 11 -4 11 -10z m805 0 c3 -5 1 -10 -4 -10 -6 0 -11 5 -11 10 0
6 2 10 4 10 3 0 8 -4 11 -10z m295 -5 c0 -8 -4 -15 -10 -15 -5 0 -10 7 -10 15
0 8 5 15 10 15 6 0 10 -7 10 -15z m68 -10 c-3 -3 -9 2 -12 12 -6 14 -5 15 5 6
7 -7 10 -15 7 -18z m-958 5 c12 -8 11 -10 -7 -10 -13 0 -23 5 -23 10 0 13 11
13 30 0z m1160 -110 c0 -5 -9 -10 -20 -10 -11 0 -20 5 -20 10 0 6 9 10 20 10
11 0 20 -4 20 -10z m-1350 -22 c0 -10 -5 -18 -11 -18 -5 0 -7 5 -3 12 5 8 2 9
-9 5 -11 -4 -17 -1 -17 8 0 8 9 13 20 12 12 -1 20 -8 20 -19z m581 -3 c5 4 9
-1 9 -9 0 -9 -8 -16 -17 -16 -12 0 -18 9 -20 27 -1 22 1 24 9 10 5 -10 13 -15
19 -12z m47 13 c-2 -5 -8 -9 -13 -9 -5 0 -11 4 -13 9 -1 5 4 9 13 9 9 0 14 -4
13 -9z m19 -10 c-3 -8 -6 -5 -6 6 -1 11 2 17 5 13 3 -3 4 -12 1 -19z m73 -5
c0 -22 -2 -25 -10 -13 -13 20 -13 40 0 40 6 0 10 -12 10 -27z m50 17 c12 18
12 3 0 -25 -6 -13 -9 -15 -9 -5 -1 12 -3 13 -10 1 -6 -9 -8 -5 -8 14 0 19 2
23 8 14 8 -12 11 -11 19 1z m-717 -20 c-3 -11 -7 -20 -9 -20 -2 0 -4 9 -4 20
0 11 4 20 9 20 5 0 7 -9 4 -20z m1290 3 c-7 -2 -19 -2 -25 0 -7 3 -2 5 12 5
14 0 19 -2 13 -5z m0 -20 c-7 -2 -19 -2 -25 0 -7 3 -2 5 12 5 14 0 19 -2 13
-5z"/>
<path d="M2636 2061 c-3 -5 -5 -72 -4 -150 1 -130 3 -141 19 -136 9 3 20 1 24
-5 4 -6 -4 -10 -19 -10 -16 0 -26 -6 -26 -15 0 -18 4 -18 48 -6 28 8 36 7 50
-10 9 -10 22 -19 29 -19 7 0 13 -7 13 -15 0 -16 -22 -23 -89 -27 -25 -2 -46
-9 -49 -16 -5 -15 5 -15 90 2 37 7 72 10 79 6 13 -9 -16 -17 -93 -26 -54 -6
-87 -18 -78 -27 3 -3 37 1 75 9 39 7 86 13 105 13 33 -1 -34 -17 -142 -34 -21
-3 -38 -9 -38 -14 0 -4 28 -2 63 5 116 25 169 27 202 10 l30 -16 -30 -1 c-16
0 -39 -2 -50 -5 -11 -2 -45 -8 -75 -13 l-55 -9 47 -1 c41 -1 132 10 216 25 12
3 22 11 22 19 0 10 -8 13 -28 9 -20 -4 -33 1 -51 20 l-24 25 52 7 c28 4 51 11
51 16 0 5 -8 7 -17 5 -71 -20 -93 -18 -128 10 -30 24 -32 29 -17 35 13 5 11 7
-9 7 -14 1 -31 7 -38 14 -10 10 0 14 46 24 l58 11 -50 -1 c-27 0 -57 -4 -66
-8 -11 -6 -21 -4 -29 6 -10 11 -6 16 22 24 l33 9 -39 1 c-29 1 -37 4 -29 12 7
7 8 21 2 41 -4 17 -6 34 -4 38 10 17 255 38 255 22 0 -6 -6 -13 -12 -15 -8 -3
-6 -6 5 -6 16 -1 18 8 15 81 l-3 82 -177 4 c-101 1 -179 -1 -182 -7z m298 -17
c9 -3 14 -10 11 -14 -2 -4 4 -15 15 -25 21 -19 26 -35 11 -35 -15 0 -72 61
-66 70 7 12 9 12 29 4z m-129 -115 c-55 -11 -75 -11 -75 1 0 6 25 9 58 9 56
-1 57 -1 17 -10z"/>
<path d="M1740 1947 c0 -106 1 -113 20 -113 19 0 20 7 20 113 0 106 -1 113
-20 113 -19 0 -20 -7 -20 -113z"/>
<path d="M1960 2045 c0 -12 13 -15 60 -15 47 0 60 3 60 15 0 12 -13 15 -60 15
-47 0 -60 -3 -60 -15z"/>
<path d="M2396 2053 c-15 -15 -151 -22 -184 -10 l-23 9 2 -106 c1 -58 6 -103
11 -100 4 3 8 12 8 20 0 21 20 17 42 -8 16 -19 21 -20 28 -8 8 12 10 10 10 -7
0 -13 -5 -23 -11 -23 -5 0 -7 -4 -4 -10 3 -5 1 -10 -4 -10 -6 0 -11 -9 -11
-20 0 -11 -5 -20 -11 -20 -6 0 -13 9 -16 20 -3 11 -10 20 -15 20 -5 0 -6 -4
-3 -10 3 -6 -1 -7 -9 -4 -10 4 -16 1 -17 -7 0 -8 -2 -23 -5 -34 -6 -29 5 -85
17 -85 6 0 7 5 4 10 -10 17 5 49 20 44 7 -3 23 4 34 15 12 12 25 21 29 21 14
0 43 -36 35 -43 -3 -4 -1 -7 4 -7 6 0 13 5 15 12 3 8 13 7 36 -5 31 -15 33
-14 47 6 l15 21 0 -22 c0 -12 -5 -22 -11 -22 -21 0 -2 -25 19 -26 23 -1 26 5
22 44 -1 12 3 22 9 22 6 0 11 -9 11 -21 0 -19 29 -60 31 -42 0 4 2 17 4 28 6
26 -4 57 -15 50 -5 -3 -12 11 -16 32 -3 21 -14 47 -23 58 -8 11 -10 15 -3 9
19 -16 62 -5 62 16 0 10 -6 20 -12 23 -10 3 -8 10 6 25 15 18 17 30 11 80 l-7
60 -45 6 c-60 8 -78 8 -87 -1z m89 -21 c-3 -3 5 -16 17 -29 25 -26 19 -40 -10
-22 -39 25 -53 77 -16 62 8 -3 12 -8 9 -11z m-118 -8 c-3 -3 -12 -4 -19 -1 -8
3 -5 6 6 6 11 1 17 -2 13 -5z m-82 -14 c8 -13 -25 -13 -45 0 -12 8 -9 10 12
10 15 0 30 -4 33 -10z m81 -30 c14 0 22 -4 19 -10 -6 -10 -45 -15 -45 -6 0 2
-2 10 -3 18 -2 7 -2 10 0 6 3 -5 16 -8 29 -8z m-60 -42 c0 -29 -4 -52 -8 -50
-5 1 -16 2 -25 2 -17 1 -17 1 0 11 21 12 22 29 2 29 -8 0 -15 5 -15 10 0 6 6
10 14 10 8 0 18 9 21 20 10 32 13 24 11 -32z m-26 32 c0 -6 -8 -10 -17 -8 -10
2 -17 -3 -15 -9 2 -15 -14 -17 -23 -4 -6 10 22 30 43 31 6 0 12 -5 12 -10z
m220 -16 c0 -2 -9 -4 -20 -4 -11 0 -20 4 -20 9 0 5 9 7 20 4 11 -3 20 -7 20
-9z m-54 -3 c5 -5 23 -12 39 -14 17 -2 8 -3 -18 -2 -26 1 -50 -2 -53 -6 -3 -5
-16 -9 -30 -9 -14 0 -22 -4 -19 -10 3 -5 17 -10 31 -10 40 0 27 -34 -14 -36
-37 -2 -37 -2 -46 47 -6 35 -6 35 23 31 16 -2 32 1 35 7 9 13 39 14 52 2z m4
-111 c0 -5 -7 -10 -15 -10 -8 0 -15 5 -15 10 0 6 7 10 15 10 8 0 15 -4 15 -10z
m-40 -101 c0 -6 -4 -7 -10 -4 -5 3 -10 11 -10 16 0 6 5 7 10 4 6 -3 10 -11 10
-16z"/>
<path d="M1970 1994 c0 -12 -6 -27 -14 -33 -8 -7 -12 -22 -9 -34 3 -16 2 -18
-5 -8 -10 14 -32 7 -32 -10 0 -6 5 -7 10 -4 6 3 10 -2 10 -12 1 -17 2 -17 15
1 8 11 15 28 15 37 0 24 20 35 31 18 15 -25 10 13 -6 41 -13 24 -14 24 -15 4z"/>
<path d="M1898 1978 c-3 -15 -1 -25 3 -22 5 3 6 -2 3 -10 -3 -9 -1 -16 5 -16
12 0 13 25 2 55 -7 17 -8 17 -13 -7z"/>
<path d="M1935 1979 c-10 -15 3 -25 16 -12 7 7 7 13 1 17 -6 3 -14 1 -17 -5z"/>
<path d="M1854 1944 c4 -12 2 -15 -9 -11 -8 4 -20 -2 -28 -13 -8 -11 -17 -17
-20 -13 -9 8 -7 -26 3 -57 l8 -25 1 25 c2 39 12 70 23 70 6 0 8 -11 6 -25 -7
-35 5 -31 25 8 15 31 16 31 17 7 0 -20 2 -22 10 -10 13 20 12 26 -6 44 -20 21
-38 20 -30 0z"/>
<path d="M1916 1848 c-30 -25 -40 -28 -47 -17 -6 10 -9 6 -9 -14 0 -17 -4 -26
-10 -22 -28 17 -45 -37 -18 -56 4 -3 -3 -16 -17 -29 l-25 -23 0 26 c0 15 -5
27 -11 27 -6 0 -8 8 -4 19 9 30 -16 37 -37 11 -25 -31 -22 -51 4 -20 l21 25
-6 -27 c-4 -14 -10 -34 -14 -44 -5 -13 -3 -16 9 -11 22 8 30 -17 13 -40 -35
-46 -10 -31 38 22 28 32 51 65 49 72 -2 7 4 13 13 13 8 0 15 9 15 19 0 11 21
38 48 60 55 48 45 56 -12 9z m-66 -72 c0 -3 -4 -8 -10 -11 -5 -3 -10 -1 -10 4
0 6 5 11 10 11 6 0 10 -2 10 -4z"/>
<path d="M2978 1833 c7 -3 16 -2 19 1 4 3 -2 6 -13 5 -11 0 -14 -3 -6 -6z"/>
<path d="M2045 1822 c-6 -5 -31 -21 -57 -36 -45 -25 -48 -26 -48 -7 0 13 8 21
23 23 20 3 19 4 -6 10 -27 5 -28 3 -27 -26 3 -46 1 -51 -12 -38 -19 19 -35 14
-42 -13 -13 -53 13 -51 75 7 16 15 50 34 74 44 25 9 45 23 45 30 0 16 -11 18
-25 6z"/>
<path d="M2918 1823 c6 -2 18 -2 25 0 6 3 1 5 -13 5 -14 0 -19 -2 -12 -5z"/>
<path d="M2975 1801 c-6 -5 -23 -12 -40 -14 -19 -3 -13 -4 14 -3 26 0 46 6 49
14 4 14 -10 16 -23 3z"/>
<path d="M2960 1750 c-24 -8 -23 -8 8 -9 17 -1 32 4 32 9 0 11 -5 11 -40 0z"/>
<path d="M2883 1733 c9 -2 23 -2 30 0 6 3 -1 5 -18 5 -16 0 -22 -2 -12 -5z"/>
<path d="M2927 1702 c-32 -8 -56 -16 -55 -18 2 -1 31 0 66 3 43 4 62 10 62 19
0 16 4 16 -73 -4z"/>
<path d="M2245 1690 c-20 -22 -16 -34 9 -24 9 3 16 15 16 25 0 24 -3 24 -25
-1z"/>
<path d="M2630 1700 c0 -12 34 -12 70 0 20 7 16 8 -22 9 -27 1 -48 -3 -48 -9z"/>
<path d="M2298 1673 c7 -3 16 -2 19 1 4 3 -2 6 -13 5 -11 0 -14 -3 -6 -6z"/>
<path d="M2366 1652 c-3 -5 4 -21 14 -38 15 -22 30 -30 60 -35 54 -7 63 9 10
17 -31 5 -44 13 -56 35 -15 31 -20 34 -28 21z"/>
<path d="M2955 1640 c-30 -8 -30 -8 8 -9 20 0 37 4 37 9 0 11 -2 11 -45 0z"/>
<path d="M1838 1603 c7 -3 16 -2 19 1 4 3 -2 6 -13 5 -11 0 -14 -3 -6 -6z"/>
<path d="M1878 1603 c7 -3 16 -2 19 1 4 3 -2 6 -13 5 -11 0 -14 -3 -6 -6z"/>
<path d="M2968 1553 c6 -2 18 -2 25 0 6 3 1 5 -13 5 -14 0 -19 -2 -12 -5z"/>
<path d="M1710 1141 c0 -118 5 -155 20 -146 4 2 15 -4 25 -15 10 -11 29 -20
42 -20 20 0 22 -2 12 -18 -7 -11 -9 -33 -5 -54 5 -30 12 -37 45 -47 26 -7 47
-8 64 -2 14 5 28 7 31 4 3 -4 6 -1 6 4 0 6 -6 13 -12 16 -22 8 0 20 40 22 46
2 62 11 62 31 0 8 7 14 16 14 13 0 15 -13 12 -90 -2 -50 0 -90 3 -90 8 0 17
392 11 463 l-4 47 -184 0 -184 0 0 -119z m310 100 c0 -5 11 -23 25 -39 36 -43
12 -54 -26 -13 -30 33 -34 43 -22 54 9 10 23 9 23 -2z m-200 -91 c0 -5 -2 -10
-4 -10 -3 0 -8 5 -11 10 -3 6 -1 10 4 10 6 0 11 -4 11 -10z m62 -20 c4 -27 2
-30 -21 -29 -17 1 -20 3 -8 6 20 5 23 39 5 46 -8 4 -7 6 3 6 11 1 18 -9 21
-29z m-69 -26 c-4 -11 -8 -12 -13 -4 -6 9 -9 9 -13 -1 -4 -10 -6 -9 -6 4 -1
11 6 17 19 17 14 0 18 -5 13 -16z m167 -38 c0 -8 2 -20 3 -28 2 -7 2 -9 -1 -5
-2 4 -11 2 -20 -5 -13 -11 -14 -10 -5 7 6 11 8 26 6 33 -3 6 0 12 6 12 6 0 11
-6 11 -14z m-40 -26 l-1 -25 -13 24 c-11 19 -14 21 -19 7 -9 -22 -27 -20 -27
3 0 14 7 18 30 17 25 -1 30 -5 30 -26z m83 1 c-4 -4 -11 -10 -15 -15 -5 -5 -8
3 -8 19 0 24 2 26 15 15 9 -7 12 -16 8 -19z"/>
<path d="M2406 1248 c8 -19 64 -61 64 -48 0 6 -7 13 -15 17 -14 5 -14 8 1 24
16 18 16 19 -19 19 -25 0 -35 -4 -31 -12z"/>
<path d="M2886 1228 c16 -17 48 -51 72 -76 l42 -46 0 40 c0 40 -18 66 -60 89
-15 8 15 -33 34 -46 5 -4 5 -12 2 -18 -5 -7 -19 0 -41 21 -32 30 -33 33 -18
50 15 17 14 18 -22 18 l-39 0 30 -32z"/>
<path d="M2494 1211 c17 -18 25 -34 21 -42 -6 -9 -11 -9 -19 2 -9 11 -43 13
-168 11 l-158 -3 1 -72 c1 -62 14 -153 18 -121 0 7 7 12 14 11 33 -1 47 4 47
18 0 18 16 20 23 3 3 -8 6 -6 6 4 1 10 11 20 24 23 14 4 29 22 42 50 11 25 22
45 25 45 4 0 13 -16 20 -36 13 -33 15 -34 30 -16 20 25 44 22 48 -5 2 -13 10
-23 19 -23 9 0 25 -7 35 -17 17 -15 18 -13 18 64 0 74 -2 81 -28 106 -38 36
-53 34 -18 -2z"/>
<path d="M2900 1089 c0 -11 4 -18 10 -14 5 3 7 12 3 20 -7 21 -13 19 -13 -6z"/>
<path d="M2810 1066 c0 -2 7 -6 15 -10 8 -3 15 -1 15 4 0 6 -7 10 -15 10 -8 0
-15 -2 -15 -4z"/>
<path d="M2810 1033 c0 -14 31 -46 37 -39 3 3 -4 15 -16 27 -12 13 -21 18 -21
12z"/>
<path d="M2890 1015 c-7 -9 -8 -15 -2 -15 5 0 12 7 16 15 3 8 4 15 2 15 -2 0
-9 -7 -16 -15z"/>
<path d="M2290 943 c8 -3 29 -11 45 -18 53 -23 78 -25 112 -8 18 8 33 18 33
22 0 3 -46 7 -103 7 -56 1 -95 0 -87 -3z"/>
<path d="M1720 795 c0 -32 3 -55 7 -51 7 7 5 98 -3 105 -2 2 -4 -22 -4 -54z"/>
<path d="M1870 777 c0 -9 11 -12 35 -9 19 2 35 8 35 13 0 5 -16 9 -35 9 -22 0
-35 -5 -35 -13z"/>
<path d="M2637 784 c-4 -4 -7 -14 -7 -23 0 -11 3 -12 11 -4 6 6 10 16 7 23 -2
6 -7 8 -11 4z"/>
<path d="M2211 759 c18 -11 59 -12 59 0 0 5 -16 9 -36 9 -25 0 -33 -3 -23 -9z"/>
<path d="M2823 763 c-18 -7 -16 -20 2 -20 8 0 15 6 15 14 0 7 -1 13 -2 12 -2
0 -9 -3 -15 -6z"/>
<path d="M2910 756 c0 -9 5 -16 10 -16 6 0 10 4 10 9 0 6 -4 13 -10 16 -5 3
-10 -1 -10 -9z"/>
<path d="M2940 750 c0 -5 7 -10 15 -10 8 0 15 5 15 10 0 6 -7 10 -15 10 -8 0
-15 -4 -15 -10z"/>
<path d="M1717 453 c-4 -3 -7 -39 -7 -80 l0 -73 185 0 185 0 0 80 0 80 -178 0
c-98 0 -182 -3 -185 -7z"/>
<path d="M2190 335 l0 -115 25 0 25 0 0 115 0 115 -25 0 -25 0 0 -115z"/>
<path d="M2435 381 c-3 -5 -1 -12 5 -16 5 -3 10 1 10 9 0 18 -6 21 -15 7z"/>
<path d="M2473 373 c0 -6 6 -9 13 -6 6 2 15 -1 19 -6 8 -14 25 -5 25 13 0 8
-11 13 -28 12 -16 -1 -29 -6 -29 -13z"/>
<path d="M2925 290 c-11 -5 -41 -6 -67 -3 -40 5 -48 3 -48 -11 0 -9 8 -16 19
-16 11 0 21 -8 23 -17 8 -36 -4 -52 -43 -58 -21 -4 -39 -12 -39 -19 0 -23 -36
-46 -72 -46 -44 0 -52 -9 -31 -32 19 -21 11 -37 -10 -20 -19 16 -27 5 -27 -35
l0 -33 140 0 c87 0 140 4 140 10 0 9 -15 14 -23 8 -2 -2 -12 3 -21 11 -15 13
-19 13 -27 0 -6 -9 -8 -1 -5 26 3 22 5 43 5 47 1 11 61 6 68 -5 4 -6 0 -8 -10
-4 -11 4 -17 1 -17 -8 0 -8 9 -15 20 -15 11 0 20 5 20 10 0 21 28 9 32 -14 3
-16 1 -23 -7 -20 -7 3 -15 -6 -17 -20 -5 -24 -3 -26 32 -26 l38 0 1 150 2 150
-28 -1 c-15 0 -37 -4 -48 -9z m14 -91 c29 -10 32 -15 26 -38 -3 -14 -7 -34 -8
-43 -1 -10 -4 -18 -8 -18 -13 0 -19 32 -9 51 12 21 6 39 -13 39 -7 0 -6 -4 3
-10 13 -8 13 -11 -2 -26 -16 -16 -18 -16 -37 7 -39 46 -19 61 48 38z m-50 -56
c7 -15 5 -18 -13 -18 -17 0 -22 5 -18 18 2 9 8 17 13 17 4 0 13 -8 18 -17z"/>
<path d="M1778 278 c-6 -17 1 -38 13 -38 5 0 9 6 9 13 0 7 9 13 19 14 15 1 18
-3 13 -15 -5 -15 -4 -15 12 1 10 9 22 15 27 12 5 -4 9 -2 9 3 0 6 -7 12 -15
16 -8 3 -15 2 -15 -2 0 -4 -9 -8 -20 -8 -11 0 -20 4 -20 8 0 13 -27 9 -32 -4z"/>
<path d="M1887 268 c-6 -21 -2 -36 7 -27 10 11 16 49 8 49 -5 0 -12 -10 -15
-22z"/>
<path d="M1953 279 c-13 -6 -14 -8 -3 -9 51 -6 80 -4 80 5 0 12 -50 14 -77 4z"/>
<path d="M1710 115 l0 -115 185 0 185 0 0 115 0 115 -185 0 -185 0 0 -115z
m246 34 c14 -15 15 -22 6 -28 -7 -4 -12 -14 -10 -21 2 -8 -6 -16 -17 -18 -11
-2 -30 -13 -42 -25 -13 -11 -26 -17 -30 -13 -5 4 0 13 10 20 9 7 17 18 17 25
0 6 10 11 23 11 20 1 21 2 5 14 -10 7 -15 16 -11 19 3 4 -2 7 -12 7 -14 0 -15
3 -5 15 17 21 44 19 66 -6z m33 -126 c1 -7 -8 -13 -19 -13 -23 0 -25 12 -8 43
11 21 11 21 19 2 4 -11 8 -26 8 -32z m-129 3 c0 -3 -4 -8 -10 -11 -5 -3 -10
-1 -10 4 0 6 5 11 10 11 6 0 10 -2 10 -4z"/>
<path d="M2180 186 c0 -13 7 -40 15 -59 14 -34 14 -37 -5 -47 -14 -8 -20 -21
-20 -45 0 -34 1 -35 40 -35 34 0 42 4 57 33 9 17 15 48 14 67 -3 34 -2 34 16
17 21 -19 38 -23 28 -7 -3 6 4 14 17 19 17 7 19 10 6 10 -10 1 -18 6 -18 11 0
14 -27 13 -32 -1 -3 -9 -10 -9 -27 0 -18 10 -20 15 -10 27 6 8 20 14 30 14 10
0 21 5 24 10 4 6 -20 10 -64 10 -68 0 -71 -1 -71 -24z"/>
<path d="M2350 206 c0 -2 6 -15 13 -29 11 -20 17 -23 25 -15 22 22 14 48 -13
48 -14 0 -25 -2 -25 -4z"/>
<path d="M2523 202 c-8 -5 -8 -12 3 -26 13 -19 14 -19 14 7 0 30 0 30 -17 19z"/>
<path d="M2387 93 c-4 -3 -7 -20 -7 -38 0 -17 -5 -36 -12 -43 -9 -9 8 -12 80
-12 51 0 92 4 92 9 0 12 -42 42 -97 70 -47 24 -47 24 -56 14z"/>
</g>
</svg>
